%TF.GenerationSoftware,KiCad,Pcbnew,5.99.0+really5.1.10+dfsg1-1*%
%TF.CreationDate,2022-01-09T12:47:15+01:00*%
%TF.ProjectId,inverter-8,696e7665-7274-4657-922d-382e6b696361,v1.0.0*%
%TF.SameCoordinates,Original*%
%TF.FileFunction,Copper,L2,Bot*%
%TF.FilePolarity,Positive*%
%FSLAX46Y46*%
G04 Gerber Fmt 4.6, Leading zero omitted, Abs format (unit mm)*
G04 Created by KiCad (PCBNEW 5.99.0+really5.1.10+dfsg1-1) date 2022-01-09 12:47:15*
%MOMM*%
%LPD*%
G01*
G04 APERTURE LIST*
%TA.AperFunction,ComponentPad*%
%ADD10C,2.340000*%
%TD*%
%TA.AperFunction,ComponentPad*%
%ADD11O,1.600000X1.600000*%
%TD*%
%TA.AperFunction,ComponentPad*%
%ADD12C,1.600000*%
%TD*%
%TA.AperFunction,ComponentPad*%
%ADD13O,1.700000X1.700000*%
%TD*%
%TA.AperFunction,ComponentPad*%
%ADD14R,1.700000X1.700000*%
%TD*%
%TA.AperFunction,ComponentPad*%
%ADD15R,1.600000X1.600000*%
%TD*%
%TA.AperFunction,ComponentPad*%
%ADD16O,2.400000X1.600000*%
%TD*%
%TA.AperFunction,ComponentPad*%
%ADD17R,2.400000X1.600000*%
%TD*%
%TA.AperFunction,ComponentPad*%
%ADD18C,1.700000*%
%TD*%
%TA.AperFunction,ViaPad*%
%ADD19C,0.508000*%
%TD*%
%TA.AperFunction,ViaPad*%
%ADD20C,3.500000*%
%TD*%
%TA.AperFunction,Conductor*%
%ADD21C,0.508000*%
%TD*%
%TA.AperFunction,Conductor*%
%ADD22C,0.254000*%
%TD*%
%TA.AperFunction,Conductor*%
%ADD23C,0.100000*%
%TD*%
G04 APERTURE END LIST*
D10*
%TO.P,RV1,1*%
%TO.N,-12V*%
X178200000Y-86300000D03*
%TO.P,RV1,2*%
%TO.N,OFFSET*%
X173200000Y-83800000D03*
%TO.P,RV1,3*%
%TO.N,+12V*%
X178200000Y-81300000D03*
%TD*%
D11*
%TO.P,R28,2*%
%TO.N,OFFSET*%
X168160000Y-107800000D03*
D12*
%TO.P,R28,1*%
%TO.N,Net-(R12-Pad1)*%
X158000000Y-107800000D03*
%TD*%
D11*
%TO.P,R27,2*%
%TO.N,OFFSET*%
X168160000Y-130800000D03*
D12*
%TO.P,R27,1*%
%TO.N,Net-(R11-Pad1)*%
X158000000Y-130800000D03*
%TD*%
D11*
%TO.P,R26,2*%
%TO.N,OFFSET*%
X141760000Y-131000000D03*
D12*
%TO.P,R26,1*%
%TO.N,Net-(R10-Pad1)*%
X131600000Y-131000000D03*
%TD*%
D11*
%TO.P,R25,2*%
%TO.N,OFFSET*%
X141660000Y-108000000D03*
D12*
%TO.P,R25,1*%
%TO.N,Net-(R13-Pad2)*%
X131500000Y-108000000D03*
%TD*%
D11*
%TO.P,R24,2*%
%TO.N,OFFSET*%
X168160000Y-80200000D03*
D12*
%TO.P,R24,1*%
%TO.N,Net-(R24-Pad1)*%
X158000000Y-80200000D03*
%TD*%
D11*
%TO.P,R23,2*%
%TO.N,OFFSET*%
X168160000Y-103400000D03*
D12*
%TO.P,R23,1*%
%TO.N,Net-(R23-Pad1)*%
X158000000Y-103400000D03*
%TD*%
D11*
%TO.P,R22,2*%
%TO.N,OFFSET*%
X141660000Y-103400000D03*
D12*
%TO.P,R22,1*%
%TO.N,Net-(R2-Pad1)*%
X131500000Y-103400000D03*
%TD*%
D11*
%TO.P,R21,2*%
%TO.N,OFFSET*%
X141660000Y-80600000D03*
D12*
%TO.P,R21,1*%
%TO.N,Net-(R1-Pad1)*%
X131500000Y-80600000D03*
%TD*%
D11*
%TO.P,R20,2*%
%TO.N,+12V*%
X135260000Y-76700000D03*
D12*
%TO.P,R20,1*%
%TO.N,Net-(J5-Pad1)*%
X125100000Y-76700000D03*
%TD*%
D11*
%TO.P,R19,2*%
%TO.N,Net-(J5-Pad1)*%
X125140000Y-72900000D03*
D12*
%TO.P,R19,1*%
%TO.N,GND*%
X135300000Y-72900000D03*
%TD*%
D13*
%TO.P,J5,3*%
%TO.N,GND*%
X125800000Y-80820000D03*
%TO.P,J5,2*%
%TO.N,REF*%
X125800000Y-83360000D03*
D14*
%TO.P,J5,1*%
%TO.N,Net-(J5-Pad1)*%
X125800000Y-85900000D03*
%TD*%
D12*
%TO.P,C6,2*%
%TO.N,Net-(C5-Pad2)*%
X160000000Y-119400000D03*
%TO.P,C6,1*%
%TO.N,GND*%
X162500000Y-119400000D03*
%TD*%
%TO.P,C5,2*%
%TO.N,Net-(C5-Pad2)*%
X160000000Y-92100000D03*
%TO.P,C5,1*%
%TO.N,GND*%
X162500000Y-92100000D03*
%TD*%
%TO.P,C3,2*%
%TO.N,-12V*%
X172100000Y-75100000D03*
D15*
%TO.P,C3,1*%
%TO.N,GND*%
X174600000Y-75100000D03*
%TD*%
D12*
%TO.P,C1,2*%
%TO.N,GND*%
X168000000Y-71500000D03*
D15*
%TO.P,C1,1*%
%TO.N,+12V*%
X165500000Y-71500000D03*
%TD*%
D16*
%TO.P,U2,14*%
%TO.N,OUT8*%
X153620000Y-111800000D03*
%TO.P,U2,7*%
%TO.N,OUT6*%
X146000000Y-127040000D03*
%TO.P,U2,13*%
%TO.N,Net-(R12-Pad1)*%
X153620000Y-114340000D03*
%TO.P,U2,6*%
%TO.N,Net-(R10-Pad1)*%
X146000000Y-124500000D03*
%TO.P,U2,12*%
%TO.N,REF*%
X153620000Y-116880000D03*
%TO.P,U2,5*%
X146000000Y-121960000D03*
%TO.P,U2,11*%
%TO.N,Net-(C5-Pad2)*%
X153620000Y-119420000D03*
%TO.P,U2,4*%
%TO.N,+12V*%
X146000000Y-119420000D03*
%TO.P,U2,10*%
%TO.N,REF*%
X153620000Y-121960000D03*
%TO.P,U2,3*%
X146000000Y-116880000D03*
%TO.P,U2,9*%
%TO.N,Net-(R11-Pad1)*%
X153620000Y-124500000D03*
%TO.P,U2,2*%
%TO.N,Net-(R13-Pad2)*%
X146000000Y-114340000D03*
%TO.P,U2,8*%
%TO.N,OUT7*%
X153620000Y-127040000D03*
D17*
%TO.P,U2,1*%
%TO.N,OUT5*%
X146000000Y-111800000D03*
%TD*%
D16*
%TO.P,U1,14*%
%TO.N,OUT4*%
X153620000Y-84500000D03*
%TO.P,U1,7*%
%TO.N,OUT2*%
X146000000Y-99740000D03*
%TO.P,U1,13*%
%TO.N,Net-(R24-Pad1)*%
X153620000Y-87040000D03*
%TO.P,U1,6*%
%TO.N,Net-(R2-Pad1)*%
X146000000Y-97200000D03*
%TO.P,U1,12*%
%TO.N,REF*%
X153620000Y-89580000D03*
%TO.P,U1,5*%
X146000000Y-94660000D03*
%TO.P,U1,11*%
%TO.N,Net-(C5-Pad2)*%
X153620000Y-92120000D03*
%TO.P,U1,4*%
%TO.N,+12V*%
X146000000Y-92120000D03*
%TO.P,U1,10*%
%TO.N,REF*%
X153620000Y-94660000D03*
%TO.P,U1,3*%
X146000000Y-89580000D03*
%TO.P,U1,9*%
%TO.N,Net-(R23-Pad1)*%
X153620000Y-97200000D03*
%TO.P,U1,2*%
%TO.N,Net-(R1-Pad1)*%
X146000000Y-87040000D03*
%TO.P,U1,8*%
%TO.N,OUT3*%
X153620000Y-99740000D03*
D17*
%TO.P,U1,1*%
%TO.N,OUT1*%
X146000000Y-84500000D03*
%TD*%
D11*
%TO.P,R18,2*%
%TO.N,-12V*%
X125140000Y-69100000D03*
D12*
%TO.P,R18,1*%
%TO.N,Net-(J4-Pad1)*%
X135300000Y-69100000D03*
%TD*%
D11*
%TO.P,R17,2*%
%TO.N,+12V*%
X144740000Y-79900000D03*
D12*
%TO.P,R17,1*%
%TO.N,Net-(J4-Pad10)*%
X154900000Y-79900000D03*
%TD*%
D11*
%TO.P,R16,2*%
%TO.N,Net-(R12-Pad1)*%
X168160000Y-111700000D03*
D12*
%TO.P,R16,1*%
%TO.N,OUT8*%
X158000000Y-111700000D03*
%TD*%
D11*
%TO.P,R15,2*%
%TO.N,Net-(R11-Pad1)*%
X168160000Y-127100000D03*
D12*
%TO.P,R15,1*%
%TO.N,OUT7*%
X158000000Y-127100000D03*
%TD*%
D11*
%TO.P,R14,2*%
%TO.N,Net-(R10-Pad1)*%
X131640000Y-127200000D03*
D12*
%TO.P,R14,1*%
%TO.N,OUT6*%
X141800000Y-127200000D03*
%TD*%
D11*
%TO.P,R13,2*%
%TO.N,Net-(R13-Pad2)*%
X131540000Y-111800000D03*
D12*
%TO.P,R13,1*%
%TO.N,OUT5*%
X141700000Y-111800000D03*
%TD*%
D11*
%TO.P,R12,2*%
%TO.N,IN8*%
X168160000Y-115500000D03*
D12*
%TO.P,R12,1*%
%TO.N,Net-(R12-Pad1)*%
X158000000Y-115500000D03*
%TD*%
D11*
%TO.P,R11,2*%
%TO.N,IN7*%
X168160000Y-123400000D03*
D12*
%TO.P,R11,1*%
%TO.N,Net-(R11-Pad1)*%
X158000000Y-123400000D03*
%TD*%
D11*
%TO.P,R10,2*%
%TO.N,IN6*%
X131640000Y-123400000D03*
D12*
%TO.P,R10,1*%
%TO.N,Net-(R10-Pad1)*%
X141800000Y-123400000D03*
%TD*%
D11*
%TO.P,R9,2*%
%TO.N,IN5*%
X131540000Y-115700000D03*
D12*
%TO.P,R9,1*%
%TO.N,Net-(R13-Pad2)*%
X141700000Y-115700000D03*
%TD*%
D11*
%TO.P,R8,2*%
%TO.N,Net-(R24-Pad1)*%
X168160000Y-84500000D03*
D12*
%TO.P,R8,1*%
%TO.N,OUT4*%
X158000000Y-84500000D03*
%TD*%
D11*
%TO.P,R7,2*%
%TO.N,Net-(R23-Pad1)*%
X168160000Y-99700000D03*
D12*
%TO.P,R7,1*%
%TO.N,OUT3*%
X158000000Y-99700000D03*
%TD*%
D11*
%TO.P,R6,2*%
%TO.N,Net-(R2-Pad1)*%
X131540000Y-99700000D03*
D12*
%TO.P,R6,1*%
%TO.N,OUT2*%
X141700000Y-99700000D03*
%TD*%
D11*
%TO.P,R5,2*%
%TO.N,Net-(R1-Pad1)*%
X131540000Y-84500000D03*
D12*
%TO.P,R5,1*%
%TO.N,OUT1*%
X141700000Y-84500000D03*
%TD*%
D11*
%TO.P,R4,2*%
%TO.N,IN4*%
X168160000Y-88300000D03*
D12*
%TO.P,R4,1*%
%TO.N,Net-(R24-Pad1)*%
X158000000Y-88300000D03*
%TD*%
D11*
%TO.P,R3,2*%
%TO.N,IN3*%
X168160000Y-95900000D03*
D12*
%TO.P,R3,1*%
%TO.N,Net-(R23-Pad1)*%
X158000000Y-95900000D03*
%TD*%
D11*
%TO.P,R2,2*%
%TO.N,IN2*%
X131540000Y-95900000D03*
D12*
%TO.P,R2,1*%
%TO.N,Net-(R2-Pad1)*%
X141700000Y-95900000D03*
%TD*%
D11*
%TO.P,R1,2*%
%TO.N,IN1*%
X131540000Y-88400000D03*
D12*
%TO.P,R1,1*%
%TO.N,Net-(R1-Pad1)*%
X141700000Y-88400000D03*
%TD*%
D18*
%TO.P,J4,10*%
%TO.N,Net-(J4-Pad10)*%
X154460000Y-70660000D03*
%TO.P,J4,8*%
%TO.N,GND*%
X151920000Y-70660000D03*
%TO.P,J4,6*%
X149380000Y-70660000D03*
%TO.P,J4,4*%
X146840000Y-70660000D03*
%TO.P,J4,2*%
%TO.N,Net-(J4-Pad1)*%
X144300000Y-70660000D03*
%TO.P,J4,9*%
%TO.N,Net-(J4-Pad10)*%
X154460000Y-73200000D03*
%TO.P,J4,7*%
%TO.N,GND*%
X151920000Y-73200000D03*
%TO.P,J4,5*%
X149380000Y-73200000D03*
%TO.P,J4,3*%
X146840000Y-73200000D03*
%TO.P,J4,1*%
%TO.N,Net-(J4-Pad1)*%
%TA.AperFunction,ComponentPad*%
G36*
G01*
X144900000Y-74050000D02*
X143700000Y-74050000D01*
G75*
G02*
X143450000Y-73800000I0J250000D01*
G01*
X143450000Y-72600000D01*
G75*
G02*
X143700000Y-72350000I250000J0D01*
G01*
X144900000Y-72350000D01*
G75*
G02*
X145150000Y-72600000I0J-250000D01*
G01*
X145150000Y-73800000D01*
G75*
G02*
X144900000Y-74050000I-250000J0D01*
G01*
G37*
%TD.AperFunction*%
%TD*%
D13*
%TO.P,J3,3*%
%TO.N,GND*%
X122200000Y-80820000D03*
%TO.P,J3,2*%
%TO.N,Net-(C5-Pad2)*%
X122200000Y-83360000D03*
D14*
%TO.P,J3,1*%
%TO.N,-12V*%
X122200000Y-85900000D03*
%TD*%
D18*
%TO.P,J2,16*%
%TO.N,OUT8*%
X177340000Y-113780000D03*
%TO.P,J2,14*%
%TO.N,OUT7*%
X177340000Y-111240000D03*
%TO.P,J2,12*%
%TO.N,OUT6*%
X177340000Y-108700000D03*
%TO.P,J2,10*%
%TO.N,OUT5*%
X177340000Y-106160000D03*
%TO.P,J2,8*%
%TO.N,OUT4*%
X177340000Y-103620000D03*
%TO.P,J2,6*%
%TO.N,OUT3*%
X177340000Y-101080000D03*
%TO.P,J2,4*%
%TO.N,OUT2*%
X177340000Y-98540000D03*
%TO.P,J2,2*%
%TO.N,OUT1*%
X177340000Y-96000000D03*
%TO.P,J2,15*%
%TO.N,OUT8*%
X174800000Y-113780000D03*
%TO.P,J2,13*%
%TO.N,OUT7*%
X174800000Y-111240000D03*
%TO.P,J2,11*%
%TO.N,OUT6*%
X174800000Y-108700000D03*
%TO.P,J2,9*%
%TO.N,OUT5*%
X174800000Y-106160000D03*
%TO.P,J2,7*%
%TO.N,OUT4*%
X174800000Y-103620000D03*
%TO.P,J2,5*%
%TO.N,OUT3*%
X174800000Y-101080000D03*
%TO.P,J2,3*%
%TO.N,OUT2*%
X174800000Y-98540000D03*
%TO.P,J2,1*%
%TO.N,OUT1*%
%TA.AperFunction,ComponentPad*%
G36*
G01*
X173950000Y-96600000D02*
X173950000Y-95400000D01*
G75*
G02*
X174200000Y-95150000I250000J0D01*
G01*
X175400000Y-95150000D01*
G75*
G02*
X175650000Y-95400000I0J-250000D01*
G01*
X175650000Y-96600000D01*
G75*
G02*
X175400000Y-96850000I-250000J0D01*
G01*
X174200000Y-96850000D01*
G75*
G02*
X173950000Y-96600000I0J250000D01*
G01*
G37*
%TD.AperFunction*%
%TD*%
%TO.P,J1,16*%
%TO.N,IN8*%
X125140000Y-113780000D03*
%TO.P,J1,14*%
%TO.N,IN7*%
X125140000Y-111240000D03*
%TO.P,J1,12*%
%TO.N,IN6*%
X125140000Y-108700000D03*
%TO.P,J1,10*%
%TO.N,IN5*%
X125140000Y-106160000D03*
%TO.P,J1,8*%
%TO.N,IN4*%
X125140000Y-103620000D03*
%TO.P,J1,6*%
%TO.N,IN3*%
X125140000Y-101080000D03*
%TO.P,J1,4*%
%TO.N,IN2*%
X125140000Y-98540000D03*
%TO.P,J1,2*%
%TO.N,IN1*%
X125140000Y-96000000D03*
%TO.P,J1,15*%
%TO.N,IN8*%
X122600000Y-113780000D03*
%TO.P,J1,13*%
%TO.N,IN7*%
X122600000Y-111240000D03*
%TO.P,J1,11*%
%TO.N,IN6*%
X122600000Y-108700000D03*
%TO.P,J1,9*%
%TO.N,IN5*%
X122600000Y-106160000D03*
%TO.P,J1,7*%
%TO.N,IN4*%
X122600000Y-103620000D03*
%TO.P,J1,5*%
%TO.N,IN3*%
X122600000Y-101080000D03*
%TO.P,J1,3*%
%TO.N,IN2*%
X122600000Y-98540000D03*
%TO.P,J1,1*%
%TO.N,IN1*%
%TA.AperFunction,ComponentPad*%
G36*
G01*
X121750000Y-96600000D02*
X121750000Y-95400000D01*
G75*
G02*
X122000000Y-95150000I250000J0D01*
G01*
X123200000Y-95150000D01*
G75*
G02*
X123450000Y-95400000I0J-250000D01*
G01*
X123450000Y-96600000D01*
G75*
G02*
X123200000Y-96850000I-250000J0D01*
G01*
X122000000Y-96850000D01*
G75*
G02*
X121750000Y-96600000I0J250000D01*
G01*
G37*
%TD.AperFunction*%
%TD*%
D12*
%TO.P,C4,2*%
%TO.N,+12V*%
X139600000Y-119500000D03*
%TO.P,C4,1*%
%TO.N,GND*%
X137100000Y-119500000D03*
%TD*%
%TO.P,C2,2*%
%TO.N,+12V*%
X139700000Y-92200000D03*
%TO.P,C2,1*%
%TO.N,GND*%
X137200000Y-92200000D03*
%TD*%
D19*
%TO.N,+12V*%
X149000000Y-96500000D03*
X149000000Y-100000000D03*
D20*
%TO.N,GND*%
X179000000Y-129500000D03*
X120500000Y-129500000D03*
X179000000Y-69500000D03*
X120500000Y-69500000D03*
D19*
%TO.N,Net-(C5-Pad2)*%
X150000000Y-96500000D03*
X150000000Y-100000000D03*
%TO.N,OFFSET*%
X171100000Y-110600000D03*
X134400000Y-116200000D03*
X134400000Y-122100000D03*
%TD*%
D21*
%TO.N,+12V*%
X147380000Y-92120000D02*
X150000000Y-89500000D01*
X146000000Y-92120000D02*
X147380000Y-92120000D01*
X145920000Y-92200000D02*
X146000000Y-92120000D01*
X139680000Y-119420000D02*
X139600000Y-119500000D01*
X146000000Y-92120000D02*
X149000000Y-95120000D01*
X149000000Y-95120000D02*
X149000000Y-96500000D01*
X149000000Y-96500000D02*
X149000000Y-96500000D01*
X147080000Y-119420000D02*
X146000000Y-119420000D01*
X149000000Y-117500000D02*
X147080000Y-119420000D01*
X149000000Y-100000000D02*
X149000000Y-117500000D01*
X141540000Y-76700000D02*
X144740000Y-79900000D01*
X135260000Y-76700000D02*
X141540000Y-76700000D01*
X175300000Y-81300000D02*
X178200000Y-81300000D01*
X165500000Y-71500000D02*
X175300000Y-81300000D01*
X150000000Y-85160000D02*
X150000000Y-89500000D01*
X144740000Y-79900000D02*
X150000000Y-85160000D01*
%TO.N,IN8*%
X122600000Y-113780000D02*
X125140000Y-113780000D01*
%TO.N,IN7*%
X122600000Y-111240000D02*
X125140000Y-111240000D01*
X166905999Y-122145999D02*
X168160000Y-123400000D01*
X156298088Y-123245990D02*
X157398079Y-122145999D01*
X142401921Y-122145999D02*
X143501912Y-123245990D01*
X143501912Y-123245990D02*
X156298088Y-123245990D01*
X138690077Y-124654001D02*
X141198079Y-122145999D01*
X131038079Y-124654001D02*
X138690077Y-124654001D01*
X157398079Y-122145999D02*
X166905999Y-122145999D01*
X141198079Y-122145999D02*
X142401921Y-122145999D01*
X128869979Y-114969979D02*
X125140000Y-111240000D01*
X128869979Y-122485901D02*
X128869979Y-114969979D01*
X131038079Y-124654001D02*
X128869979Y-122485901D01*
%TO.N,IN6*%
X122600000Y-108700000D02*
X125140000Y-108700000D01*
X129577989Y-121337989D02*
X131640000Y-123400000D01*
X129577989Y-113137989D02*
X129577989Y-121337989D01*
X125140000Y-108700000D02*
X129577989Y-113137989D01*
%TO.N,IN5*%
X122600000Y-106160000D02*
X125140000Y-106160000D01*
X131540000Y-115560000D02*
X131540000Y-115700000D01*
X130285999Y-111305999D02*
X130285999Y-114445999D01*
X130285999Y-114445999D02*
X131540000Y-115700000D01*
X125140000Y-106160000D02*
X130285999Y-111305999D01*
%TO.N,IN4*%
X122600000Y-103620000D02*
X125140000Y-103620000D01*
%TO.N,IN3*%
X122600000Y-101080000D02*
X125140000Y-101080000D01*
X142445999Y-98445999D02*
X142485990Y-98485990D01*
X141098079Y-98445999D02*
X142445999Y-98445999D01*
X138464078Y-101080000D02*
X141098079Y-98445999D01*
X125140000Y-101080000D02*
X138464078Y-101080000D01*
X166905999Y-94645999D02*
X168160000Y-95900000D01*
X157398079Y-94645999D02*
X166905999Y-94645999D01*
X156130068Y-95914010D02*
X157398079Y-94645999D01*
X152732553Y-95914010D02*
X156130068Y-95914010D01*
X150192553Y-98454010D02*
X152732553Y-95914010D01*
X142454010Y-98454010D02*
X150192553Y-98454010D01*
X142445999Y-98445999D02*
X142454010Y-98454010D01*
%TO.N,IN2*%
X122600000Y-98540000D02*
X125140000Y-98540000D01*
X128900000Y-98540000D02*
X131540000Y-95900000D01*
X125140000Y-98540000D02*
X128900000Y-98540000D01*
%TO.N,IN1*%
X122600000Y-96000000D02*
X125140000Y-96000000D01*
X131540000Y-89600000D02*
X131540000Y-88400000D01*
X125140000Y-96000000D02*
X131540000Y-89600000D01*
%TO.N,OUT8*%
X174800000Y-113780000D02*
X177340000Y-113780000D01*
X157900000Y-111800000D02*
X158000000Y-111700000D01*
X174800000Y-113484078D02*
X174800000Y-113780000D01*
X158000000Y-111700000D02*
X159254001Y-110445999D01*
X172095922Y-113780000D02*
X174800000Y-113780000D01*
X168761921Y-110445999D02*
X172095922Y-113780000D01*
X159254001Y-110445999D02*
X168761921Y-110445999D01*
%TO.N,OUT7*%
X177340000Y-111240000D02*
X174800000Y-111240000D01*
X157940000Y-127040000D02*
X158000000Y-127100000D01*
X153620000Y-127040000D02*
X157940000Y-127040000D01*
X159254001Y-128354001D02*
X158000000Y-127100000D01*
X168761921Y-128354001D02*
X159254001Y-128354001D01*
X178644001Y-112544001D02*
X178644001Y-118471921D01*
X178644001Y-118471921D02*
X168761921Y-128354001D01*
X177340000Y-111240000D02*
X178644001Y-112544001D01*
%TO.N,OUT6*%
X174800000Y-108700000D02*
X177340000Y-108700000D01*
X145840000Y-127200000D02*
X146000000Y-127040000D01*
X141800000Y-127200000D02*
X145840000Y-127200000D01*
X148022011Y-129062011D02*
X146000000Y-127040000D01*
X169055188Y-129062011D02*
X148022011Y-129062011D01*
X179352011Y-110712011D02*
X179352011Y-118765188D01*
X179352011Y-118765188D02*
X169055188Y-129062011D01*
X177340000Y-108700000D02*
X179352011Y-110712011D01*
%TO.N,OUT5*%
X177340000Y-106160000D02*
X174800000Y-106160000D01*
X141700000Y-111800000D02*
X146000000Y-111800000D01*
%TO.N,OUT4*%
X174800000Y-103620000D02*
X177340000Y-103620000D01*
X178644001Y-93128079D02*
X178644001Y-102315999D01*
X178644001Y-102315999D02*
X177340000Y-103620000D01*
X159254001Y-83245999D02*
X168761921Y-83245999D01*
X168761921Y-83245999D02*
X178644001Y-93128079D01*
X158000000Y-84500000D02*
X159254001Y-83245999D01*
%TO.N,OUT3*%
X177340000Y-101080000D02*
X174800000Y-101080000D01*
X157960000Y-99740000D02*
X158000000Y-99700000D01*
X159380000Y-101080000D02*
X174800000Y-101080000D01*
X158000000Y-99700000D02*
X159380000Y-101080000D01*
%TO.N,OUT2*%
X174800000Y-98540000D02*
X177340000Y-98540000D01*
X145960000Y-99700000D02*
X146000000Y-99740000D01*
X141700000Y-99700000D02*
X145960000Y-99700000D01*
%TO.N,OUT1*%
X177340000Y-96000000D02*
X174800000Y-96000000D01*
X141700000Y-84500000D02*
X146000000Y-84500000D01*
%TO.N,-12V*%
X120895999Y-84595999D02*
X122200000Y-85900000D01*
X120895999Y-73344001D02*
X120895999Y-84595999D01*
X125140000Y-69100000D02*
X120895999Y-73344001D01*
X179824001Y-84675999D02*
X178200000Y-86300000D01*
X179824001Y-80520479D02*
X179824001Y-84675999D01*
X175657523Y-76354001D02*
X179824001Y-80520479D01*
X173354001Y-76354001D02*
X175657523Y-76354001D01*
X172100000Y-75100000D02*
X173354001Y-76354001D01*
%TO.N,Net-(J4-Pad10)*%
X154460000Y-70660000D02*
X154460000Y-73200000D01*
X154460000Y-79460000D02*
X154900000Y-79900000D01*
X154460000Y-73200000D02*
X154460000Y-79460000D01*
%TO.N,Net-(J4-Pad1)*%
X144300000Y-70660000D02*
X144300000Y-73200000D01*
X142740000Y-69100000D02*
X144300000Y-70660000D01*
X135300000Y-69100000D02*
X142740000Y-69100000D01*
%TO.N,Net-(R1-Pad1)*%
X143060000Y-87040000D02*
X141700000Y-88400000D01*
X146000000Y-87040000D02*
X143060000Y-87040000D01*
X137800000Y-84500000D02*
X141700000Y-88400000D01*
X131540000Y-84500000D02*
X137800000Y-84500000D01*
X131500000Y-84460000D02*
X131540000Y-84500000D01*
X131500000Y-80600000D02*
X131500000Y-84460000D01*
%TO.N,Net-(R2-Pad1)*%
X137900000Y-99700000D02*
X141700000Y-95900000D01*
X131540000Y-99700000D02*
X137900000Y-99700000D01*
X143000000Y-97200000D02*
X141700000Y-95900000D01*
X146000000Y-97200000D02*
X143000000Y-97200000D01*
%TO.N,Net-(R13-Pad2)*%
X137800000Y-111800000D02*
X141700000Y-115700000D01*
X131540000Y-111800000D02*
X137800000Y-111800000D01*
X144640000Y-115700000D02*
X146000000Y-114340000D01*
X141700000Y-115700000D02*
X144640000Y-115700000D01*
X131500000Y-111760000D02*
X131540000Y-111800000D01*
X131500000Y-108000000D02*
X131500000Y-111760000D01*
%TO.N,Net-(R10-Pad1)*%
X138000000Y-127200000D02*
X141800000Y-123400000D01*
X131640000Y-127200000D02*
X138000000Y-127200000D01*
X142900000Y-124500000D02*
X141800000Y-123400000D01*
X146000000Y-124500000D02*
X142900000Y-124500000D01*
X131640000Y-130960000D02*
X131600000Y-131000000D01*
X131640000Y-127200000D02*
X131640000Y-130960000D01*
%TO.N,Net-(R11-Pad1)*%
X156900000Y-124500000D02*
X158000000Y-123400000D01*
X153620000Y-124500000D02*
X156900000Y-124500000D01*
X164460000Y-123400000D02*
X168160000Y-127100000D01*
X158000000Y-123400000D02*
X164460000Y-123400000D01*
%TO.N,Net-(R12-Pad1)*%
X156840000Y-114340000D02*
X158000000Y-115500000D01*
X153620000Y-114340000D02*
X156840000Y-114340000D01*
X164360000Y-115500000D02*
X168160000Y-111700000D01*
X158000000Y-115500000D02*
X164360000Y-115500000D01*
X153620000Y-113973437D02*
X153620000Y-114340000D01*
X158000000Y-109593437D02*
X153620000Y-113973437D01*
X158000000Y-107800000D02*
X158000000Y-109593437D01*
%TO.N,Net-(C5-Pad2)*%
X153640000Y-92100000D02*
X153620000Y-92120000D01*
X159980000Y-119420000D02*
X160000000Y-119400000D01*
X153620000Y-92120000D02*
X152880000Y-92120000D01*
X152880000Y-92120000D02*
X150000000Y-95000000D01*
X150000000Y-95000000D02*
X150000000Y-96500000D01*
X150000000Y-96500000D02*
X150000000Y-96500000D01*
X150000000Y-103000000D02*
X150000000Y-117291998D01*
X153620000Y-119420000D02*
X151920000Y-119420000D01*
X151920000Y-119420000D02*
X150000000Y-117500000D01*
X150000000Y-103000000D02*
X150000000Y-100000000D01*
%TO.N,Net-(J5-Pad1)*%
X124495999Y-77304001D02*
X125100000Y-76700000D01*
X124495999Y-84595999D02*
X124495999Y-77304001D01*
X125800000Y-85900000D02*
X124495999Y-84595999D01*
X125100000Y-72940000D02*
X125140000Y-72900000D01*
X125100000Y-76700000D02*
X125100000Y-72940000D01*
%TO.N,REF*%
X155274010Y-93005990D02*
X153620000Y-94660000D01*
X155274010Y-91234010D02*
X155274010Y-93005990D01*
X153620000Y-89580000D02*
X155274010Y-91234010D01*
X144345990Y-93005990D02*
X146000000Y-94660000D01*
X144345990Y-91234010D02*
X144345990Y-93005990D01*
X146000000Y-89580000D02*
X144345990Y-91234010D01*
X144345990Y-120305990D02*
X146000000Y-121960000D01*
X144345990Y-118534010D02*
X144345990Y-120305990D01*
X146000000Y-116880000D02*
X144345990Y-118534010D01*
X155274010Y-120305990D02*
X153620000Y-121960000D01*
X155274010Y-118534010D02*
X155274010Y-120305990D01*
X153620000Y-116880000D02*
X155274010Y-118534010D01*
X153620000Y-121960000D02*
X146000000Y-121960000D01*
%TO.N,Net-(R23-Pad1)*%
X156700000Y-97200000D02*
X158000000Y-95900000D01*
X153620000Y-97200000D02*
X156700000Y-97200000D01*
X156745999Y-100325999D02*
X153620000Y-97200000D01*
X156745999Y-102145999D02*
X156745999Y-100325999D01*
X158000000Y-103400000D02*
X156745999Y-102145999D01*
%TO.N,Net-(R24-Pad1)*%
X151965990Y-85385990D02*
X153620000Y-87040000D01*
X151965990Y-83980573D02*
X151965990Y-85385990D01*
X157045999Y-81154001D02*
X154792562Y-81154001D01*
X154792562Y-81154001D02*
X151965990Y-83980573D01*
X158000000Y-80200000D02*
X157045999Y-81154001D01*
%TO.N,OFFSET*%
X169600000Y-80200000D02*
X168160000Y-80200000D01*
X173200000Y-83800000D02*
X169600000Y-80200000D01*
X168160000Y-103400000D02*
X168160000Y-107800000D01*
X170960000Y-110600000D02*
X168160000Y-107800000D01*
X171100000Y-110600000D02*
X170960000Y-110600000D01*
X134400000Y-116200000D02*
X134400000Y-122100000D01*
X142814001Y-132054001D02*
X141760000Y-131000000D01*
X166905999Y-132054001D02*
X142814001Y-132054001D01*
X168160000Y-130800000D02*
X166905999Y-132054001D01*
%TD*%
D22*
%TO.N,GND*%
X181340000Y-132340000D02*
X167877235Y-132340000D01*
X167988280Y-132228956D01*
X168018665Y-132235000D01*
X168301335Y-132235000D01*
X168578574Y-132179853D01*
X168839727Y-132071680D01*
X169074759Y-131914637D01*
X169274637Y-131714759D01*
X169431680Y-131479727D01*
X169539853Y-131218574D01*
X169595000Y-130941335D01*
X169595000Y-130658665D01*
X169539853Y-130381426D01*
X169431680Y-130120273D01*
X169296417Y-129917837D01*
X169397039Y-129887314D01*
X169551479Y-129804764D01*
X169686847Y-129693670D01*
X169714687Y-129659747D01*
X179949753Y-119424682D01*
X179983670Y-119396847D01*
X180094764Y-119261479D01*
X180177314Y-119107039D01*
X180228147Y-118939462D01*
X180241011Y-118808855D01*
X180241011Y-118808848D01*
X180245311Y-118765188D01*
X180241011Y-118721528D01*
X180241011Y-110755670D01*
X180245311Y-110712010D01*
X180241011Y-110668345D01*
X180241011Y-110668344D01*
X180231417Y-110570935D01*
X180228147Y-110537735D01*
X180190824Y-110414697D01*
X180177314Y-110370160D01*
X180094764Y-110215720D01*
X179983670Y-110080352D01*
X179949748Y-110052513D01*
X178811477Y-108914242D01*
X178825000Y-108846260D01*
X178825000Y-108553740D01*
X178767932Y-108266842D01*
X178655990Y-107996589D01*
X178493475Y-107753368D01*
X178286632Y-107546525D01*
X178112240Y-107430000D01*
X178286632Y-107313475D01*
X178493475Y-107106632D01*
X178655990Y-106863411D01*
X178767932Y-106593158D01*
X178825000Y-106306260D01*
X178825000Y-106013740D01*
X178767932Y-105726842D01*
X178655990Y-105456589D01*
X178493475Y-105213368D01*
X178286632Y-105006525D01*
X178112240Y-104890000D01*
X178286632Y-104773475D01*
X178493475Y-104566632D01*
X178655990Y-104323411D01*
X178767932Y-104053158D01*
X178825000Y-103766260D01*
X178825000Y-103473740D01*
X178811477Y-103405758D01*
X179241742Y-102975493D01*
X179275660Y-102947658D01*
X179386754Y-102812290D01*
X179469304Y-102657850D01*
X179498003Y-102563241D01*
X179520137Y-102490274D01*
X179529423Y-102395990D01*
X179533001Y-102359666D01*
X179533001Y-102359659D01*
X179537301Y-102315999D01*
X179533001Y-102272339D01*
X179533001Y-93171747D01*
X179537302Y-93128079D01*
X179520137Y-92953804D01*
X179491529Y-92859495D01*
X179469304Y-92786228D01*
X179386754Y-92631788D01*
X179275660Y-92496420D01*
X179241744Y-92468586D01*
X169421420Y-82648263D01*
X169393580Y-82614340D01*
X169258212Y-82503246D01*
X169103772Y-82420696D01*
X168936195Y-82369863D01*
X168805588Y-82356999D01*
X168805581Y-82356999D01*
X168761921Y-82352699D01*
X168718261Y-82356999D01*
X159297660Y-82356999D01*
X159254000Y-82352699D01*
X159210340Y-82356999D01*
X159210334Y-82356999D01*
X159112925Y-82366593D01*
X159079725Y-82369863D01*
X158987085Y-82397965D01*
X158912150Y-82420696D01*
X158757710Y-82503246D01*
X158622342Y-82614340D01*
X158594507Y-82648258D01*
X158171720Y-83071044D01*
X158141335Y-83065000D01*
X157858665Y-83065000D01*
X157581426Y-83120147D01*
X157320273Y-83228320D01*
X157085241Y-83385363D01*
X156885363Y-83585241D01*
X156728320Y-83820273D01*
X156620147Y-84081426D01*
X156565000Y-84358665D01*
X156565000Y-84641335D01*
X156620147Y-84918574D01*
X156728320Y-85179727D01*
X156885363Y-85414759D01*
X157085241Y-85614637D01*
X157320273Y-85771680D01*
X157581426Y-85879853D01*
X157858665Y-85935000D01*
X158141335Y-85935000D01*
X158418574Y-85879853D01*
X158679727Y-85771680D01*
X158914759Y-85614637D01*
X159114637Y-85414759D01*
X159271680Y-85179727D01*
X159379853Y-84918574D01*
X159435000Y-84641335D01*
X159435000Y-84358665D01*
X159428956Y-84328280D01*
X159622237Y-84134999D01*
X166769491Y-84134999D01*
X166725000Y-84358665D01*
X166725000Y-84641335D01*
X166780147Y-84918574D01*
X166888320Y-85179727D01*
X167045363Y-85414759D01*
X167245241Y-85614637D01*
X167480273Y-85771680D01*
X167741426Y-85879853D01*
X168018665Y-85935000D01*
X168301335Y-85935000D01*
X168578574Y-85879853D01*
X168839727Y-85771680D01*
X169074759Y-85614637D01*
X169274637Y-85414759D01*
X169431680Y-85179727D01*
X169433652Y-85174965D01*
X177755001Y-93496315D01*
X177755001Y-94568456D01*
X177486260Y-94515000D01*
X177193740Y-94515000D01*
X176906842Y-94572068D01*
X176636589Y-94684010D01*
X176393368Y-94846525D01*
X176206285Y-95033608D01*
X176138405Y-94906614D01*
X176027962Y-94772038D01*
X175893386Y-94661595D01*
X175739850Y-94579528D01*
X175573254Y-94528992D01*
X175400000Y-94511928D01*
X174200000Y-94511928D01*
X174026746Y-94528992D01*
X173860150Y-94579528D01*
X173706614Y-94661595D01*
X173572038Y-94772038D01*
X173461595Y-94906614D01*
X173379528Y-95060150D01*
X173328992Y-95226746D01*
X173311928Y-95400000D01*
X173311928Y-96600000D01*
X173328992Y-96773254D01*
X173379528Y-96939850D01*
X173461595Y-97093386D01*
X173572038Y-97227962D01*
X173706614Y-97338405D01*
X173833608Y-97406285D01*
X173646525Y-97593368D01*
X173484010Y-97836589D01*
X173372068Y-98106842D01*
X173315000Y-98393740D01*
X173315000Y-98686260D01*
X173372068Y-98973158D01*
X173484010Y-99243411D01*
X173646525Y-99486632D01*
X173853368Y-99693475D01*
X174027760Y-99810000D01*
X173853368Y-99926525D01*
X173646525Y-100133368D01*
X173608017Y-100191000D01*
X169509853Y-100191000D01*
X169539853Y-100118574D01*
X169595000Y-99841335D01*
X169595000Y-99558665D01*
X169539853Y-99281426D01*
X169431680Y-99020273D01*
X169274637Y-98785241D01*
X169074759Y-98585363D01*
X168839727Y-98428320D01*
X168578574Y-98320147D01*
X168301335Y-98265000D01*
X168018665Y-98265000D01*
X167741426Y-98320147D01*
X167480273Y-98428320D01*
X167245241Y-98585363D01*
X167045363Y-98785241D01*
X166888320Y-99020273D01*
X166780147Y-99281426D01*
X166725000Y-99558665D01*
X166725000Y-99841335D01*
X166780147Y-100118574D01*
X166810147Y-100191000D01*
X159748236Y-100191000D01*
X159428956Y-99871720D01*
X159435000Y-99841335D01*
X159435000Y-99558665D01*
X159379853Y-99281426D01*
X159271680Y-99020273D01*
X159114637Y-98785241D01*
X158914759Y-98585363D01*
X158679727Y-98428320D01*
X158418574Y-98320147D01*
X158141335Y-98265000D01*
X157858665Y-98265000D01*
X157581426Y-98320147D01*
X157320273Y-98428320D01*
X157085241Y-98585363D01*
X156885363Y-98785241D01*
X156728320Y-99020273D01*
X156719296Y-99042060D01*
X155766235Y-98089000D01*
X156656340Y-98089000D01*
X156700000Y-98093300D01*
X156743660Y-98089000D01*
X156743667Y-98089000D01*
X156874274Y-98076136D01*
X157041851Y-98025303D01*
X157196291Y-97942753D01*
X157331659Y-97831659D01*
X157359499Y-97797736D01*
X157828280Y-97328956D01*
X157858665Y-97335000D01*
X158141335Y-97335000D01*
X158418574Y-97279853D01*
X158679727Y-97171680D01*
X158914759Y-97014637D01*
X159114637Y-96814759D01*
X159271680Y-96579727D01*
X159379853Y-96318574D01*
X159435000Y-96041335D01*
X159435000Y-95758665D01*
X159390509Y-95534999D01*
X166537764Y-95534999D01*
X166731044Y-95728280D01*
X166725000Y-95758665D01*
X166725000Y-96041335D01*
X166780147Y-96318574D01*
X166888320Y-96579727D01*
X167045363Y-96814759D01*
X167245241Y-97014637D01*
X167480273Y-97171680D01*
X167741426Y-97279853D01*
X168018665Y-97335000D01*
X168301335Y-97335000D01*
X168578574Y-97279853D01*
X168839727Y-97171680D01*
X169074759Y-97014637D01*
X169274637Y-96814759D01*
X169431680Y-96579727D01*
X169539853Y-96318574D01*
X169595000Y-96041335D01*
X169595000Y-95758665D01*
X169539853Y-95481426D01*
X169431680Y-95220273D01*
X169274637Y-94985241D01*
X169074759Y-94785363D01*
X168839727Y-94628320D01*
X168578574Y-94520147D01*
X168301335Y-94465000D01*
X168018665Y-94465000D01*
X167988280Y-94471044D01*
X167565498Y-94048263D01*
X167537658Y-94014340D01*
X167402290Y-93903246D01*
X167247850Y-93820696D01*
X167080273Y-93769863D01*
X166949666Y-93756999D01*
X166949659Y-93756999D01*
X166905999Y-93752699D01*
X166862339Y-93756999D01*
X157441738Y-93756999D01*
X157398078Y-93752699D01*
X157354418Y-93756999D01*
X157354412Y-93756999D01*
X157257003Y-93766593D01*
X157223803Y-93769863D01*
X157122137Y-93800703D01*
X157056228Y-93820696D01*
X156901788Y-93903246D01*
X156766420Y-94014340D01*
X156738580Y-94048263D01*
X155761833Y-95025010D01*
X155408846Y-95025010D01*
X155434236Y-94941309D01*
X155461943Y-94660000D01*
X155434236Y-94378691D01*
X155370071Y-94167164D01*
X155871746Y-93665489D01*
X155905669Y-93637649D01*
X156016763Y-93502281D01*
X156099313Y-93347841D01*
X156136576Y-93225000D01*
X156150146Y-93180266D01*
X156158770Y-93092702D01*
X156163010Y-93049657D01*
X156163010Y-93049651D01*
X156167310Y-93005991D01*
X156163010Y-92962331D01*
X156163010Y-91958665D01*
X158565000Y-91958665D01*
X158565000Y-92241335D01*
X158620147Y-92518574D01*
X158728320Y-92779727D01*
X158885363Y-93014759D01*
X159085241Y-93214637D01*
X159320273Y-93371680D01*
X159581426Y-93479853D01*
X159858665Y-93535000D01*
X160141335Y-93535000D01*
X160418574Y-93479853D01*
X160679727Y-93371680D01*
X160914759Y-93214637D01*
X161036694Y-93092702D01*
X161686903Y-93092702D01*
X161758486Y-93336671D01*
X162013996Y-93457571D01*
X162288184Y-93526300D01*
X162570512Y-93540217D01*
X162850130Y-93498787D01*
X163116292Y-93403603D01*
X163241514Y-93336671D01*
X163313097Y-93092702D01*
X162500000Y-92279605D01*
X161686903Y-93092702D01*
X161036694Y-93092702D01*
X161114637Y-93014759D01*
X161248692Y-92814131D01*
X161263329Y-92841514D01*
X161507298Y-92913097D01*
X162320395Y-92100000D01*
X162679605Y-92100000D01*
X163492702Y-92913097D01*
X163736671Y-92841514D01*
X163857571Y-92586004D01*
X163926300Y-92311816D01*
X163940217Y-92029488D01*
X163898787Y-91749870D01*
X163803603Y-91483708D01*
X163736671Y-91358486D01*
X163492702Y-91286903D01*
X162679605Y-92100000D01*
X162320395Y-92100000D01*
X161507298Y-91286903D01*
X161263329Y-91358486D01*
X161249676Y-91387341D01*
X161114637Y-91185241D01*
X161036694Y-91107298D01*
X161686903Y-91107298D01*
X162500000Y-91920395D01*
X163313097Y-91107298D01*
X163241514Y-90863329D01*
X162986004Y-90742429D01*
X162711816Y-90673700D01*
X162429488Y-90659783D01*
X162149870Y-90701213D01*
X161883708Y-90796397D01*
X161758486Y-90863329D01*
X161686903Y-91107298D01*
X161036694Y-91107298D01*
X160914759Y-90985363D01*
X160679727Y-90828320D01*
X160418574Y-90720147D01*
X160141335Y-90665000D01*
X159858665Y-90665000D01*
X159581426Y-90720147D01*
X159320273Y-90828320D01*
X159085241Y-90985363D01*
X158885363Y-91185241D01*
X158728320Y-91420273D01*
X158620147Y-91681426D01*
X158565000Y-91958665D01*
X156163010Y-91958665D01*
X156163010Y-91277669D01*
X156167310Y-91234009D01*
X156163010Y-91190344D01*
X156163010Y-91190343D01*
X156150146Y-91059736D01*
X156150146Y-91059734D01*
X156105387Y-90912182D01*
X156099313Y-90892159D01*
X156016763Y-90737719D01*
X155905669Y-90602351D01*
X155871747Y-90574512D01*
X155370071Y-90072836D01*
X155434236Y-89861309D01*
X155461943Y-89580000D01*
X155434236Y-89298691D01*
X155352182Y-89028192D01*
X155218932Y-88778899D01*
X155039608Y-88560392D01*
X154821101Y-88381068D01*
X154688142Y-88310000D01*
X154821101Y-88238932D01*
X154918906Y-88158665D01*
X156565000Y-88158665D01*
X156565000Y-88441335D01*
X156620147Y-88718574D01*
X156728320Y-88979727D01*
X156885363Y-89214759D01*
X157085241Y-89414637D01*
X157320273Y-89571680D01*
X157581426Y-89679853D01*
X157858665Y-89735000D01*
X158141335Y-89735000D01*
X158418574Y-89679853D01*
X158679727Y-89571680D01*
X158914759Y-89414637D01*
X159114637Y-89214759D01*
X159271680Y-88979727D01*
X159379853Y-88718574D01*
X159435000Y-88441335D01*
X159435000Y-88158665D01*
X166725000Y-88158665D01*
X166725000Y-88441335D01*
X166780147Y-88718574D01*
X166888320Y-88979727D01*
X167045363Y-89214759D01*
X167245241Y-89414637D01*
X167480273Y-89571680D01*
X167741426Y-89679853D01*
X168018665Y-89735000D01*
X168301335Y-89735000D01*
X168578574Y-89679853D01*
X168839727Y-89571680D01*
X169074759Y-89414637D01*
X169274637Y-89214759D01*
X169431680Y-88979727D01*
X169539853Y-88718574D01*
X169595000Y-88441335D01*
X169595000Y-88158665D01*
X169539853Y-87881426D01*
X169431680Y-87620273D01*
X169274637Y-87385241D01*
X169074759Y-87185363D01*
X168839727Y-87028320D01*
X168578574Y-86920147D01*
X168301335Y-86865000D01*
X168018665Y-86865000D01*
X167741426Y-86920147D01*
X167480273Y-87028320D01*
X167245241Y-87185363D01*
X167045363Y-87385241D01*
X166888320Y-87620273D01*
X166780147Y-87881426D01*
X166725000Y-88158665D01*
X159435000Y-88158665D01*
X159379853Y-87881426D01*
X159271680Y-87620273D01*
X159114637Y-87385241D01*
X158914759Y-87185363D01*
X158679727Y-87028320D01*
X158418574Y-86920147D01*
X158141335Y-86865000D01*
X157858665Y-86865000D01*
X157581426Y-86920147D01*
X157320273Y-87028320D01*
X157085241Y-87185363D01*
X156885363Y-87385241D01*
X156728320Y-87620273D01*
X156620147Y-87881426D01*
X156565000Y-88158665D01*
X154918906Y-88158665D01*
X155039608Y-88059608D01*
X155218932Y-87841101D01*
X155352182Y-87591808D01*
X155434236Y-87321309D01*
X155461943Y-87040000D01*
X155434236Y-86758691D01*
X155352182Y-86488192D01*
X155218932Y-86238899D01*
X155039608Y-86020392D01*
X154821101Y-85841068D01*
X154688142Y-85770000D01*
X154821101Y-85698932D01*
X155039608Y-85519608D01*
X155218932Y-85301101D01*
X155352182Y-85051808D01*
X155434236Y-84781309D01*
X155461943Y-84500000D01*
X155434236Y-84218691D01*
X155352182Y-83948192D01*
X155218932Y-83698899D01*
X155039608Y-83480392D01*
X154821101Y-83301068D01*
X154571808Y-83167818D01*
X154301309Y-83085764D01*
X154134467Y-83069331D01*
X155160798Y-82043001D01*
X157002339Y-82043001D01*
X157045999Y-82047301D01*
X157089659Y-82043001D01*
X157089666Y-82043001D01*
X157220273Y-82030137D01*
X157387850Y-81979304D01*
X157542290Y-81896754D01*
X157677658Y-81785660D01*
X157705498Y-81751737D01*
X157828279Y-81628956D01*
X157858665Y-81635000D01*
X158141335Y-81635000D01*
X158418574Y-81579853D01*
X158679727Y-81471680D01*
X158914759Y-81314637D01*
X159114637Y-81114759D01*
X159271680Y-80879727D01*
X159379853Y-80618574D01*
X159435000Y-80341335D01*
X159435000Y-80058665D01*
X166725000Y-80058665D01*
X166725000Y-80341335D01*
X166780147Y-80618574D01*
X166888320Y-80879727D01*
X167045363Y-81114759D01*
X167245241Y-81314637D01*
X167480273Y-81471680D01*
X167741426Y-81579853D01*
X168018665Y-81635000D01*
X168301335Y-81635000D01*
X168578574Y-81579853D01*
X168839727Y-81471680D01*
X169074759Y-81314637D01*
X169266080Y-81123316D01*
X171456385Y-83313620D01*
X171395000Y-83622223D01*
X171395000Y-83977777D01*
X171464365Y-84326499D01*
X171600429Y-84654988D01*
X171797965Y-84950621D01*
X172049379Y-85202035D01*
X172345012Y-85399571D01*
X172673501Y-85535635D01*
X173022223Y-85605000D01*
X173377777Y-85605000D01*
X173726499Y-85535635D01*
X174054988Y-85399571D01*
X174350621Y-85202035D01*
X174602035Y-84950621D01*
X174799571Y-84654988D01*
X174935635Y-84326499D01*
X175005000Y-83977777D01*
X175005000Y-83622223D01*
X174935635Y-83273501D01*
X174799571Y-82945012D01*
X174602035Y-82649379D01*
X174350621Y-82397965D01*
X174054988Y-82200429D01*
X173726499Y-82064365D01*
X173377777Y-81995000D01*
X173022223Y-81995000D01*
X172713620Y-82056385D01*
X170259499Y-79602264D01*
X170231659Y-79568341D01*
X170096291Y-79457247D01*
X169941851Y-79374697D01*
X169774274Y-79323864D01*
X169643667Y-79311000D01*
X169643660Y-79311000D01*
X169600000Y-79306700D01*
X169556340Y-79311000D01*
X169291849Y-79311000D01*
X169274637Y-79285241D01*
X169074759Y-79085363D01*
X168839727Y-78928320D01*
X168578574Y-78820147D01*
X168301335Y-78765000D01*
X168018665Y-78765000D01*
X167741426Y-78820147D01*
X167480273Y-78928320D01*
X167245241Y-79085363D01*
X167045363Y-79285241D01*
X166888320Y-79520273D01*
X166780147Y-79781426D01*
X166725000Y-80058665D01*
X159435000Y-80058665D01*
X159379853Y-79781426D01*
X159271680Y-79520273D01*
X159114637Y-79285241D01*
X158914759Y-79085363D01*
X158679727Y-78928320D01*
X158418574Y-78820147D01*
X158141335Y-78765000D01*
X157858665Y-78765000D01*
X157581426Y-78820147D01*
X157320273Y-78928320D01*
X157085241Y-79085363D01*
X156885363Y-79285241D01*
X156728320Y-79520273D01*
X156620147Y-79781426D01*
X156565000Y-80058665D01*
X156565000Y-80265001D01*
X156290509Y-80265001D01*
X156335000Y-80041335D01*
X156335000Y-79758665D01*
X156279853Y-79481426D01*
X156171680Y-79220273D01*
X156014637Y-78985241D01*
X155814759Y-78785363D01*
X155579727Y-78628320D01*
X155349000Y-78532750D01*
X155349000Y-74391983D01*
X155406632Y-74353475D01*
X155613475Y-74146632D01*
X155775990Y-73903411D01*
X155887932Y-73633158D01*
X155945000Y-73346260D01*
X155945000Y-73053740D01*
X155887932Y-72766842D01*
X155775990Y-72496589D01*
X155613475Y-72253368D01*
X155406632Y-72046525D01*
X155349000Y-72008017D01*
X155349000Y-71851983D01*
X155406632Y-71813475D01*
X155613475Y-71606632D01*
X155775990Y-71363411D01*
X155887932Y-71093158D01*
X155945000Y-70806260D01*
X155945000Y-70700000D01*
X164061928Y-70700000D01*
X164061928Y-72300000D01*
X164074188Y-72424482D01*
X164110498Y-72544180D01*
X164169463Y-72654494D01*
X164248815Y-72751185D01*
X164345506Y-72830537D01*
X164455820Y-72889502D01*
X164575518Y-72925812D01*
X164700000Y-72938072D01*
X165680837Y-72938072D01*
X174640506Y-81897742D01*
X174668341Y-81931659D01*
X174803709Y-82042753D01*
X174958149Y-82125303D01*
X175009283Y-82140814D01*
X175125725Y-82176136D01*
X175142325Y-82177771D01*
X175256333Y-82189000D01*
X175256340Y-82189000D01*
X175300000Y-82193300D01*
X175343660Y-82189000D01*
X176623155Y-82189000D01*
X176797965Y-82450621D01*
X177049379Y-82702035D01*
X177345012Y-82899571D01*
X177673501Y-83035635D01*
X178022223Y-83105000D01*
X178377777Y-83105000D01*
X178726499Y-83035635D01*
X178935002Y-82949271D01*
X178935002Y-84307763D01*
X178686380Y-84556385D01*
X178377777Y-84495000D01*
X178022223Y-84495000D01*
X177673501Y-84564365D01*
X177345012Y-84700429D01*
X177049379Y-84897965D01*
X176797965Y-85149379D01*
X176600429Y-85445012D01*
X176464365Y-85773501D01*
X176395000Y-86122223D01*
X176395000Y-86477777D01*
X176464365Y-86826499D01*
X176600429Y-87154988D01*
X176797965Y-87450621D01*
X177049379Y-87702035D01*
X177345012Y-87899571D01*
X177673501Y-88035635D01*
X178022223Y-88105000D01*
X178377777Y-88105000D01*
X178726499Y-88035635D01*
X179054988Y-87899571D01*
X179350621Y-87702035D01*
X179602035Y-87450621D01*
X179799571Y-87154988D01*
X179935635Y-86826499D01*
X180005000Y-86477777D01*
X180005000Y-86122223D01*
X179943615Y-85813620D01*
X180421737Y-85335498D01*
X180455660Y-85307658D01*
X180566754Y-85172290D01*
X180649304Y-85017850D01*
X180677312Y-84925518D01*
X180700137Y-84850275D01*
X180706277Y-84787932D01*
X180713001Y-84719666D01*
X180713001Y-84719660D01*
X180717301Y-84676000D01*
X180713001Y-84632340D01*
X180713001Y-80564139D01*
X180717301Y-80520479D01*
X180713001Y-80476819D01*
X180713001Y-80476812D01*
X180700137Y-80346205D01*
X180694827Y-80328698D01*
X180655787Y-80200001D01*
X180649304Y-80178628D01*
X180566754Y-80024188D01*
X180455660Y-79888820D01*
X180421744Y-79860986D01*
X176317022Y-75756265D01*
X176289182Y-75722342D01*
X176153814Y-75611248D01*
X176035971Y-75548259D01*
X176035000Y-75385750D01*
X175876250Y-75227000D01*
X174727000Y-75227000D01*
X174727000Y-75247000D01*
X174473000Y-75247000D01*
X174473000Y-75227000D01*
X174453000Y-75227000D01*
X174453000Y-74973000D01*
X174473000Y-74973000D01*
X174473000Y-73823750D01*
X174727000Y-73823750D01*
X174727000Y-74973000D01*
X175876250Y-74973000D01*
X176035000Y-74814250D01*
X176038072Y-74300000D01*
X176025812Y-74175518D01*
X175989502Y-74055820D01*
X175930537Y-73945506D01*
X175851185Y-73848815D01*
X175754494Y-73769463D01*
X175644180Y-73710498D01*
X175524482Y-73674188D01*
X175400000Y-73661928D01*
X174885750Y-73665000D01*
X174727000Y-73823750D01*
X174473000Y-73823750D01*
X174314250Y-73665000D01*
X173800000Y-73661928D01*
X173675518Y-73674188D01*
X173555820Y-73710498D01*
X173445506Y-73769463D01*
X173348815Y-73848815D01*
X173269463Y-73945506D01*
X173210498Y-74055820D01*
X173181339Y-74151943D01*
X173014759Y-73985363D01*
X172779727Y-73828320D01*
X172518574Y-73720147D01*
X172241335Y-73665000D01*
X171958665Y-73665000D01*
X171681426Y-73720147D01*
X171420273Y-73828320D01*
X171185241Y-73985363D01*
X170985363Y-74185241D01*
X170828320Y-74420273D01*
X170720147Y-74681426D01*
X170665000Y-74958665D01*
X170665000Y-75241335D01*
X170706326Y-75449090D01*
X168181071Y-72923836D01*
X168350130Y-72898787D01*
X168616292Y-72803603D01*
X168741514Y-72736671D01*
X168813097Y-72492702D01*
X168000000Y-71679605D01*
X167985858Y-71693748D01*
X167806253Y-71514143D01*
X167820395Y-71500000D01*
X168179605Y-71500000D01*
X168992702Y-72313097D01*
X169236671Y-72241514D01*
X169357571Y-71986004D01*
X169426300Y-71711816D01*
X169440217Y-71429488D01*
X169398787Y-71149870D01*
X169303603Y-70883708D01*
X169236671Y-70758486D01*
X168992702Y-70686903D01*
X168179605Y-71500000D01*
X167820395Y-71500000D01*
X167007298Y-70686903D01*
X166938072Y-70707215D01*
X166938072Y-70700000D01*
X166925812Y-70575518D01*
X166905118Y-70507298D01*
X167186903Y-70507298D01*
X168000000Y-71320395D01*
X168813097Y-70507298D01*
X168741514Y-70263329D01*
X168486004Y-70142429D01*
X168211816Y-70073700D01*
X167929488Y-70059783D01*
X167649870Y-70101213D01*
X167383708Y-70196397D01*
X167258486Y-70263329D01*
X167186903Y-70507298D01*
X166905118Y-70507298D01*
X166889502Y-70455820D01*
X166830537Y-70345506D01*
X166751185Y-70248815D01*
X166654494Y-70169463D01*
X166544180Y-70110498D01*
X166424482Y-70074188D01*
X166300000Y-70061928D01*
X164700000Y-70061928D01*
X164575518Y-70074188D01*
X164455820Y-70110498D01*
X164345506Y-70169463D01*
X164248815Y-70248815D01*
X164169463Y-70345506D01*
X164110498Y-70455820D01*
X164074188Y-70575518D01*
X164061928Y-70700000D01*
X155945000Y-70700000D01*
X155945000Y-70513740D01*
X155887932Y-70226842D01*
X155775990Y-69956589D01*
X155613475Y-69713368D01*
X155406632Y-69506525D01*
X155163411Y-69344010D01*
X154893158Y-69232068D01*
X154606260Y-69175000D01*
X154313740Y-69175000D01*
X154026842Y-69232068D01*
X153756589Y-69344010D01*
X153513368Y-69506525D01*
X153306525Y-69713368D01*
X153190689Y-69886729D01*
X152948397Y-69811208D01*
X152099605Y-70660000D01*
X152948397Y-71508792D01*
X153190689Y-71433271D01*
X153306525Y-71606632D01*
X153513368Y-71813475D01*
X153571000Y-71851984D01*
X153571001Y-72008016D01*
X153513368Y-72046525D01*
X153306525Y-72253368D01*
X153190689Y-72426729D01*
X152948397Y-72351208D01*
X152099605Y-73200000D01*
X152948397Y-74048792D01*
X153190689Y-73973271D01*
X153306525Y-74146632D01*
X153513368Y-74353475D01*
X153571000Y-74391984D01*
X153571001Y-79358654D01*
X153520147Y-79481426D01*
X153465000Y-79758665D01*
X153465000Y-80041335D01*
X153520147Y-80318574D01*
X153628320Y-80579727D01*
X153785363Y-80814759D01*
X153829966Y-80859362D01*
X151368254Y-83321074D01*
X151334331Y-83348914D01*
X151223237Y-83484283D01*
X151140687Y-83638723D01*
X151116867Y-83717248D01*
X151091807Y-83799863D01*
X151089854Y-83806300D01*
X151076990Y-83936907D01*
X151076990Y-83936913D01*
X151072690Y-83980573D01*
X151076990Y-84024233D01*
X151076991Y-85342321D01*
X151072690Y-85385990D01*
X151089854Y-85560264D01*
X151140688Y-85727842D01*
X151223238Y-85882281D01*
X151285501Y-85958148D01*
X151334332Y-86017649D01*
X151368249Y-86045484D01*
X151869929Y-86547164D01*
X151805764Y-86758691D01*
X151778057Y-87040000D01*
X151805764Y-87321309D01*
X151887818Y-87591808D01*
X152021068Y-87841101D01*
X152200392Y-88059608D01*
X152418899Y-88238932D01*
X152551858Y-88310000D01*
X152418899Y-88381068D01*
X152200392Y-88560392D01*
X152021068Y-88778899D01*
X151887818Y-89028192D01*
X151805764Y-89298691D01*
X151778057Y-89580000D01*
X151805764Y-89861309D01*
X151887818Y-90131808D01*
X152021068Y-90381101D01*
X152200392Y-90599608D01*
X152418899Y-90778932D01*
X152551858Y-90850000D01*
X152418899Y-90921068D01*
X152200392Y-91100392D01*
X152021068Y-91318899D01*
X151887818Y-91568192D01*
X151805764Y-91838691D01*
X151795023Y-91947741D01*
X149440000Y-94302765D01*
X147944231Y-92806996D01*
X148011659Y-92751659D01*
X148039499Y-92717736D01*
X150597742Y-90159494D01*
X150631659Y-90131659D01*
X150677099Y-90076291D01*
X150742752Y-89996292D01*
X150742753Y-89996291D01*
X150825303Y-89841851D01*
X150876136Y-89674274D01*
X150876392Y-89671680D01*
X150893301Y-89500000D01*
X150889000Y-89456332D01*
X150889000Y-85203659D01*
X150893300Y-85159999D01*
X150889000Y-85116334D01*
X150889000Y-85116333D01*
X150876136Y-84985726D01*
X150876136Y-84985724D01*
X150835048Y-84850275D01*
X150825303Y-84818149D01*
X150742753Y-84663709D01*
X150631659Y-84528341D01*
X150597737Y-84500502D01*
X146168956Y-80071721D01*
X146175000Y-80041335D01*
X146175000Y-79758665D01*
X146119853Y-79481426D01*
X146011680Y-79220273D01*
X145854637Y-78985241D01*
X145654759Y-78785363D01*
X145419727Y-78628320D01*
X145158574Y-78520147D01*
X144881335Y-78465000D01*
X144598665Y-78465000D01*
X144568279Y-78471044D01*
X142199499Y-76102264D01*
X142171659Y-76068341D01*
X142036291Y-75957247D01*
X141881851Y-75874697D01*
X141714274Y-75823864D01*
X141583667Y-75811000D01*
X141583660Y-75811000D01*
X141540000Y-75806700D01*
X141496340Y-75811000D01*
X136391849Y-75811000D01*
X136374637Y-75785241D01*
X136174759Y-75585363D01*
X135939727Y-75428320D01*
X135678574Y-75320147D01*
X135401335Y-75265000D01*
X135118665Y-75265000D01*
X134841426Y-75320147D01*
X134580273Y-75428320D01*
X134345241Y-75585363D01*
X134145363Y-75785241D01*
X133988320Y-76020273D01*
X133880147Y-76281426D01*
X133825000Y-76558665D01*
X133825000Y-76841335D01*
X133880147Y-77118574D01*
X133988320Y-77379727D01*
X134145363Y-77614759D01*
X134345241Y-77814637D01*
X134580273Y-77971680D01*
X134841426Y-78079853D01*
X135118665Y-78135000D01*
X135401335Y-78135000D01*
X135678574Y-78079853D01*
X135939727Y-77971680D01*
X136174759Y-77814637D01*
X136374637Y-77614759D01*
X136391849Y-77589000D01*
X141171765Y-77589000D01*
X143311044Y-79728279D01*
X143305000Y-79758665D01*
X143305000Y-80041335D01*
X143360147Y-80318574D01*
X143468320Y-80579727D01*
X143625363Y-80814759D01*
X143825241Y-81014637D01*
X144060273Y-81171680D01*
X144321426Y-81279853D01*
X144598665Y-81335000D01*
X144881335Y-81335000D01*
X144911721Y-81328956D01*
X146644693Y-83061928D01*
X144800000Y-83061928D01*
X144675518Y-83074188D01*
X144555820Y-83110498D01*
X144445506Y-83169463D01*
X144348815Y-83248815D01*
X144269463Y-83345506D01*
X144210498Y-83455820D01*
X144174188Y-83575518D01*
X144170693Y-83611000D01*
X142831849Y-83611000D01*
X142814637Y-83585241D01*
X142614759Y-83385363D01*
X142379727Y-83228320D01*
X142118574Y-83120147D01*
X141841335Y-83065000D01*
X141558665Y-83065000D01*
X141281426Y-83120147D01*
X141020273Y-83228320D01*
X140785241Y-83385363D01*
X140585363Y-83585241D01*
X140428320Y-83820273D01*
X140320147Y-84081426D01*
X140265000Y-84358665D01*
X140265000Y-84641335D01*
X140320147Y-84918574D01*
X140428320Y-85179727D01*
X140585363Y-85414759D01*
X140785241Y-85614637D01*
X141020273Y-85771680D01*
X141281426Y-85879853D01*
X141558665Y-85935000D01*
X141841335Y-85935000D01*
X142118574Y-85879853D01*
X142379727Y-85771680D01*
X142614759Y-85614637D01*
X142814637Y-85414759D01*
X142831849Y-85389000D01*
X144170693Y-85389000D01*
X144174188Y-85424482D01*
X144210498Y-85544180D01*
X144269463Y-85654494D01*
X144348815Y-85751185D01*
X144445506Y-85830537D01*
X144555820Y-85889502D01*
X144675518Y-85925812D01*
X144693482Y-85927581D01*
X144580392Y-86020392D01*
X144473205Y-86151000D01*
X143103659Y-86151000D01*
X143059999Y-86146700D01*
X143016339Y-86151000D01*
X143016333Y-86151000D01*
X142918924Y-86160594D01*
X142885724Y-86163864D01*
X142784058Y-86194704D01*
X142718149Y-86214697D01*
X142563709Y-86297247D01*
X142428341Y-86408341D01*
X142400506Y-86442259D01*
X141871720Y-86971044D01*
X141841335Y-86965000D01*
X141558665Y-86965000D01*
X141528280Y-86971044D01*
X138459499Y-83902264D01*
X138431659Y-83868341D01*
X138296291Y-83757247D01*
X138141851Y-83674697D01*
X137974274Y-83623864D01*
X137843667Y-83611000D01*
X137843660Y-83611000D01*
X137800000Y-83606700D01*
X137756340Y-83611000D01*
X132671849Y-83611000D01*
X132654637Y-83585241D01*
X132454759Y-83385363D01*
X132389000Y-83341424D01*
X132389000Y-81731849D01*
X132414759Y-81714637D01*
X132614637Y-81514759D01*
X132771680Y-81279727D01*
X132879853Y-81018574D01*
X132935000Y-80741335D01*
X132935000Y-80458665D01*
X140225000Y-80458665D01*
X140225000Y-80741335D01*
X140280147Y-81018574D01*
X140388320Y-81279727D01*
X140545363Y-81514759D01*
X140745241Y-81714637D01*
X140980273Y-81871680D01*
X141241426Y-81979853D01*
X141518665Y-82035000D01*
X141801335Y-82035000D01*
X142078574Y-81979853D01*
X142339727Y-81871680D01*
X142574759Y-81714637D01*
X142774637Y-81514759D01*
X142931680Y-81279727D01*
X143039853Y-81018574D01*
X143095000Y-80741335D01*
X143095000Y-80458665D01*
X143039853Y-80181426D01*
X142931680Y-79920273D01*
X142774637Y-79685241D01*
X142574759Y-79485363D01*
X142339727Y-79328320D01*
X142078574Y-79220147D01*
X141801335Y-79165000D01*
X141518665Y-79165000D01*
X141241426Y-79220147D01*
X140980273Y-79328320D01*
X140745241Y-79485363D01*
X140545363Y-79685241D01*
X140388320Y-79920273D01*
X140280147Y-80181426D01*
X140225000Y-80458665D01*
X132935000Y-80458665D01*
X132879853Y-80181426D01*
X132771680Y-79920273D01*
X132614637Y-79685241D01*
X132414759Y-79485363D01*
X132179727Y-79328320D01*
X131918574Y-79220147D01*
X131641335Y-79165000D01*
X131358665Y-79165000D01*
X131081426Y-79220147D01*
X130820273Y-79328320D01*
X130585241Y-79485363D01*
X130385363Y-79685241D01*
X130228320Y-79920273D01*
X130120147Y-80181426D01*
X130065000Y-80458665D01*
X130065000Y-80741335D01*
X130120147Y-81018574D01*
X130228320Y-81279727D01*
X130385363Y-81514759D01*
X130585241Y-81714637D01*
X130611000Y-81731849D01*
X130611001Y-83399603D01*
X130425363Y-83585241D01*
X130268320Y-83820273D01*
X130160147Y-84081426D01*
X130105000Y-84358665D01*
X130105000Y-84641335D01*
X130160147Y-84918574D01*
X130268320Y-85179727D01*
X130425363Y-85414759D01*
X130625241Y-85614637D01*
X130860273Y-85771680D01*
X131121426Y-85879853D01*
X131398665Y-85935000D01*
X131681335Y-85935000D01*
X131958574Y-85879853D01*
X132219727Y-85771680D01*
X132454759Y-85614637D01*
X132654637Y-85414759D01*
X132671849Y-85389000D01*
X137431765Y-85389000D01*
X140271044Y-88228280D01*
X140265000Y-88258665D01*
X140265000Y-88541335D01*
X140320147Y-88818574D01*
X140428320Y-89079727D01*
X140585363Y-89314759D01*
X140785241Y-89514637D01*
X141020273Y-89671680D01*
X141281426Y-89779853D01*
X141558665Y-89835000D01*
X141841335Y-89835000D01*
X142118574Y-89779853D01*
X142379727Y-89671680D01*
X142614759Y-89514637D01*
X142814637Y-89314759D01*
X142971680Y-89079727D01*
X143079853Y-88818574D01*
X143135000Y-88541335D01*
X143135000Y-88258665D01*
X143128956Y-88228280D01*
X143428236Y-87929000D01*
X144473205Y-87929000D01*
X144580392Y-88059608D01*
X144798899Y-88238932D01*
X144931858Y-88310000D01*
X144798899Y-88381068D01*
X144580392Y-88560392D01*
X144401068Y-88778899D01*
X144267818Y-89028192D01*
X144185764Y-89298691D01*
X144158057Y-89580000D01*
X144185764Y-89861309D01*
X144249929Y-90072836D01*
X143748254Y-90574511D01*
X143714331Y-90602351D01*
X143603237Y-90737720D01*
X143569299Y-90801213D01*
X143520688Y-90892158D01*
X143483425Y-91015000D01*
X143469854Y-91059737D01*
X143456990Y-91190344D01*
X143456990Y-91190350D01*
X143452690Y-91234010D01*
X143456990Y-91277670D01*
X143456991Y-92962320D01*
X143452690Y-93005990D01*
X143469854Y-93180264D01*
X143520688Y-93347842D01*
X143603238Y-93502281D01*
X143682439Y-93598787D01*
X143714332Y-93637649D01*
X143748249Y-93665484D01*
X144249929Y-94167164D01*
X144185764Y-94378691D01*
X144158057Y-94660000D01*
X144185764Y-94941309D01*
X144267818Y-95211808D01*
X144401068Y-95461101D01*
X144580392Y-95679608D01*
X144798899Y-95858932D01*
X144931858Y-95930000D01*
X144798899Y-96001068D01*
X144580392Y-96180392D01*
X144473205Y-96311000D01*
X143368236Y-96311000D01*
X143128956Y-96071720D01*
X143135000Y-96041335D01*
X143135000Y-95758665D01*
X143079853Y-95481426D01*
X142971680Y-95220273D01*
X142814637Y-94985241D01*
X142614759Y-94785363D01*
X142379727Y-94628320D01*
X142118574Y-94520147D01*
X141841335Y-94465000D01*
X141558665Y-94465000D01*
X141281426Y-94520147D01*
X141020273Y-94628320D01*
X140785241Y-94785363D01*
X140585363Y-94985241D01*
X140428320Y-95220273D01*
X140320147Y-95481426D01*
X140265000Y-95758665D01*
X140265000Y-96041335D01*
X140271044Y-96071720D01*
X137531765Y-98811000D01*
X132671849Y-98811000D01*
X132654637Y-98785241D01*
X132454759Y-98585363D01*
X132219727Y-98428320D01*
X131958574Y-98320147D01*
X131681335Y-98265000D01*
X131398665Y-98265000D01*
X131121426Y-98320147D01*
X130860273Y-98428320D01*
X130625241Y-98585363D01*
X130425363Y-98785241D01*
X130268320Y-99020273D01*
X130160147Y-99281426D01*
X130105000Y-99558665D01*
X130105000Y-99841335D01*
X130160147Y-100118574D01*
X130190147Y-100191000D01*
X126331983Y-100191000D01*
X126293475Y-100133368D01*
X126086632Y-99926525D01*
X125912240Y-99810000D01*
X126086632Y-99693475D01*
X126293475Y-99486632D01*
X126331983Y-99429000D01*
X128856340Y-99429000D01*
X128900000Y-99433300D01*
X128943660Y-99429000D01*
X128943667Y-99429000D01*
X129074274Y-99416136D01*
X129241851Y-99365303D01*
X129396291Y-99282753D01*
X129531659Y-99171659D01*
X129559499Y-99137736D01*
X131368280Y-97328956D01*
X131398665Y-97335000D01*
X131681335Y-97335000D01*
X131958574Y-97279853D01*
X132219727Y-97171680D01*
X132454759Y-97014637D01*
X132654637Y-96814759D01*
X132811680Y-96579727D01*
X132919853Y-96318574D01*
X132975000Y-96041335D01*
X132975000Y-95758665D01*
X132919853Y-95481426D01*
X132811680Y-95220273D01*
X132654637Y-94985241D01*
X132454759Y-94785363D01*
X132219727Y-94628320D01*
X131958574Y-94520147D01*
X131681335Y-94465000D01*
X131398665Y-94465000D01*
X131121426Y-94520147D01*
X130860273Y-94628320D01*
X130625241Y-94785363D01*
X130425363Y-94985241D01*
X130268320Y-95220273D01*
X130160147Y-95481426D01*
X130105000Y-95758665D01*
X130105000Y-96041335D01*
X130111044Y-96071720D01*
X128531765Y-97651000D01*
X126331983Y-97651000D01*
X126293475Y-97593368D01*
X126086632Y-97386525D01*
X125912240Y-97270000D01*
X126086632Y-97153475D01*
X126293475Y-96946632D01*
X126455990Y-96703411D01*
X126567932Y-96433158D01*
X126625000Y-96146260D01*
X126625000Y-95853740D01*
X126611477Y-95785758D01*
X129204533Y-93192702D01*
X136386903Y-93192702D01*
X136458486Y-93436671D01*
X136713996Y-93557571D01*
X136988184Y-93626300D01*
X137270512Y-93640217D01*
X137550130Y-93598787D01*
X137816292Y-93503603D01*
X137941514Y-93436671D01*
X138013097Y-93192702D01*
X137200000Y-92379605D01*
X136386903Y-93192702D01*
X129204533Y-93192702D01*
X130126723Y-92270512D01*
X135759783Y-92270512D01*
X135801213Y-92550130D01*
X135896397Y-92816292D01*
X135963329Y-92941514D01*
X136207298Y-93013097D01*
X137020395Y-92200000D01*
X137379605Y-92200000D01*
X138192702Y-93013097D01*
X138436671Y-92941514D01*
X138450324Y-92912659D01*
X138585363Y-93114759D01*
X138785241Y-93314637D01*
X139020273Y-93471680D01*
X139281426Y-93579853D01*
X139558665Y-93635000D01*
X139841335Y-93635000D01*
X140118574Y-93579853D01*
X140379727Y-93471680D01*
X140614759Y-93314637D01*
X140814637Y-93114759D01*
X140971680Y-92879727D01*
X141079853Y-92618574D01*
X141135000Y-92341335D01*
X141135000Y-92058665D01*
X141079853Y-91781426D01*
X140971680Y-91520273D01*
X140814637Y-91285241D01*
X140614759Y-91085363D01*
X140379727Y-90928320D01*
X140118574Y-90820147D01*
X139841335Y-90765000D01*
X139558665Y-90765000D01*
X139281426Y-90820147D01*
X139020273Y-90928320D01*
X138785241Y-91085363D01*
X138585363Y-91285241D01*
X138451308Y-91485869D01*
X138436671Y-91458486D01*
X138192702Y-91386903D01*
X137379605Y-92200000D01*
X137020395Y-92200000D01*
X136207298Y-91386903D01*
X135963329Y-91458486D01*
X135842429Y-91713996D01*
X135773700Y-91988184D01*
X135759783Y-92270512D01*
X130126723Y-92270512D01*
X131189937Y-91207298D01*
X136386903Y-91207298D01*
X137200000Y-92020395D01*
X138013097Y-91207298D01*
X137941514Y-90963329D01*
X137686004Y-90842429D01*
X137411816Y-90773700D01*
X137129488Y-90759783D01*
X136849870Y-90801213D01*
X136583708Y-90896397D01*
X136458486Y-90963329D01*
X136386903Y-91207298D01*
X131189937Y-91207298D01*
X132137743Y-90259493D01*
X132171659Y-90231659D01*
X132215909Y-90177741D01*
X132282752Y-90096292D01*
X132282754Y-90096290D01*
X132365303Y-89941851D01*
X132416136Y-89774274D01*
X132429000Y-89643667D01*
X132429000Y-89643660D01*
X132433300Y-89600000D01*
X132429000Y-89556340D01*
X132429000Y-89531849D01*
X132454759Y-89514637D01*
X132654637Y-89314759D01*
X132811680Y-89079727D01*
X132919853Y-88818574D01*
X132975000Y-88541335D01*
X132975000Y-88258665D01*
X132919853Y-87981426D01*
X132811680Y-87720273D01*
X132654637Y-87485241D01*
X132454759Y-87285363D01*
X132219727Y-87128320D01*
X131958574Y-87020147D01*
X131681335Y-86965000D01*
X131398665Y-86965000D01*
X131121426Y-87020147D01*
X130860273Y-87128320D01*
X130625241Y-87285363D01*
X130425363Y-87485241D01*
X130268320Y-87720273D01*
X130160147Y-87981426D01*
X130105000Y-88258665D01*
X130105000Y-88541335D01*
X130160147Y-88818574D01*
X130268320Y-89079727D01*
X130425363Y-89314759D01*
X130496684Y-89386080D01*
X125354242Y-94528523D01*
X125286260Y-94515000D01*
X124993740Y-94515000D01*
X124706842Y-94572068D01*
X124436589Y-94684010D01*
X124193368Y-94846525D01*
X124006285Y-95033608D01*
X123938405Y-94906614D01*
X123827962Y-94772038D01*
X123693386Y-94661595D01*
X123539850Y-94579528D01*
X123373254Y-94528992D01*
X123200000Y-94511928D01*
X122000000Y-94511928D01*
X121826746Y-94528992D01*
X121660150Y-94579528D01*
X121506614Y-94661595D01*
X121372038Y-94772038D01*
X121261595Y-94906614D01*
X121179528Y-95060150D01*
X121128992Y-95226746D01*
X121111928Y-95400000D01*
X121111928Y-96600000D01*
X121128992Y-96773254D01*
X121179528Y-96939850D01*
X121261595Y-97093386D01*
X121372038Y-97227962D01*
X121506614Y-97338405D01*
X121633608Y-97406285D01*
X121446525Y-97593368D01*
X121284010Y-97836589D01*
X121172068Y-98106842D01*
X121115000Y-98393740D01*
X121115000Y-98686260D01*
X121172068Y-98973158D01*
X121284010Y-99243411D01*
X121446525Y-99486632D01*
X121653368Y-99693475D01*
X121827760Y-99810000D01*
X121653368Y-99926525D01*
X121446525Y-100133368D01*
X121284010Y-100376589D01*
X121172068Y-100646842D01*
X121115000Y-100933740D01*
X121115000Y-101226260D01*
X121172068Y-101513158D01*
X121284010Y-101783411D01*
X121446525Y-102026632D01*
X121653368Y-102233475D01*
X121827760Y-102350000D01*
X121653368Y-102466525D01*
X121446525Y-102673368D01*
X121284010Y-102916589D01*
X121172068Y-103186842D01*
X121115000Y-103473740D01*
X121115000Y-103766260D01*
X121172068Y-104053158D01*
X121284010Y-104323411D01*
X121446525Y-104566632D01*
X121653368Y-104773475D01*
X121827760Y-104890000D01*
X121653368Y-105006525D01*
X121446525Y-105213368D01*
X121284010Y-105456589D01*
X121172068Y-105726842D01*
X121115000Y-106013740D01*
X121115000Y-106306260D01*
X121172068Y-106593158D01*
X121284010Y-106863411D01*
X121446525Y-107106632D01*
X121653368Y-107313475D01*
X121827760Y-107430000D01*
X121653368Y-107546525D01*
X121446525Y-107753368D01*
X121284010Y-107996589D01*
X121172068Y-108266842D01*
X121115000Y-108553740D01*
X121115000Y-108846260D01*
X121172068Y-109133158D01*
X121284010Y-109403411D01*
X121446525Y-109646632D01*
X121653368Y-109853475D01*
X121827760Y-109970000D01*
X121653368Y-110086525D01*
X121446525Y-110293368D01*
X121284010Y-110536589D01*
X121172068Y-110806842D01*
X121115000Y-111093740D01*
X121115000Y-111386260D01*
X121172068Y-111673158D01*
X121284010Y-111943411D01*
X121446525Y-112186632D01*
X121653368Y-112393475D01*
X121827760Y-112510000D01*
X121653368Y-112626525D01*
X121446525Y-112833368D01*
X121284010Y-113076589D01*
X121172068Y-113346842D01*
X121115000Y-113633740D01*
X121115000Y-113926260D01*
X121172068Y-114213158D01*
X121284010Y-114483411D01*
X121446525Y-114726632D01*
X121653368Y-114933475D01*
X121896589Y-115095990D01*
X122166842Y-115207932D01*
X122453740Y-115265000D01*
X122746260Y-115265000D01*
X123033158Y-115207932D01*
X123303411Y-115095990D01*
X123546632Y-114933475D01*
X123753475Y-114726632D01*
X123791983Y-114669000D01*
X123948017Y-114669000D01*
X123986525Y-114726632D01*
X124193368Y-114933475D01*
X124436589Y-115095990D01*
X124706842Y-115207932D01*
X124993740Y-115265000D01*
X125286260Y-115265000D01*
X125573158Y-115207932D01*
X125843411Y-115095990D01*
X126086632Y-114933475D01*
X126293475Y-114726632D01*
X126455990Y-114483411D01*
X126567932Y-114213158D01*
X126615713Y-113972949D01*
X127980980Y-115338216D01*
X127980979Y-122442241D01*
X127976679Y-122485901D01*
X127980979Y-122529561D01*
X127980979Y-122529567D01*
X127993843Y-122660174D01*
X128044676Y-122827751D01*
X128127226Y-122982191D01*
X128238320Y-123117560D01*
X128272243Y-123145400D01*
X130378580Y-125251737D01*
X130406420Y-125285660D01*
X130541788Y-125396754D01*
X130696228Y-125479304D01*
X130762137Y-125499297D01*
X130863803Y-125530137D01*
X130897003Y-125533407D01*
X130994412Y-125543001D01*
X130994418Y-125543001D01*
X131038078Y-125547301D01*
X131081738Y-125543001D01*
X138399764Y-125543001D01*
X137631765Y-126311000D01*
X132771849Y-126311000D01*
X132754637Y-126285241D01*
X132554759Y-126085363D01*
X132319727Y-125928320D01*
X132058574Y-125820147D01*
X131781335Y-125765000D01*
X131498665Y-125765000D01*
X131221426Y-125820147D01*
X130960273Y-125928320D01*
X130725241Y-126085363D01*
X130525363Y-126285241D01*
X130368320Y-126520273D01*
X130260147Y-126781426D01*
X130205000Y-127058665D01*
X130205000Y-127341335D01*
X130260147Y-127618574D01*
X130368320Y-127879727D01*
X130525363Y-128114759D01*
X130725241Y-128314637D01*
X130751000Y-128331849D01*
X130751001Y-129841424D01*
X130685241Y-129885363D01*
X130485363Y-130085241D01*
X130328320Y-130320273D01*
X130220147Y-130581426D01*
X130165000Y-130858665D01*
X130165000Y-131141335D01*
X130220147Y-131418574D01*
X130328320Y-131679727D01*
X130485363Y-131914759D01*
X130685241Y-132114637D01*
X130920273Y-132271680D01*
X131085212Y-132340000D01*
X118160000Y-132340000D01*
X118160000Y-73344001D01*
X120002699Y-73344001D01*
X120006999Y-73387661D01*
X120007000Y-84552329D01*
X120002699Y-84595999D01*
X120019863Y-84770273D01*
X120070697Y-84937851D01*
X120153247Y-85092290D01*
X120218902Y-85172290D01*
X120264341Y-85227658D01*
X120298258Y-85255493D01*
X120711928Y-85669163D01*
X120711928Y-86750000D01*
X120724188Y-86874482D01*
X120760498Y-86994180D01*
X120819463Y-87104494D01*
X120898815Y-87201185D01*
X120995506Y-87280537D01*
X121105820Y-87339502D01*
X121225518Y-87375812D01*
X121350000Y-87388072D01*
X123050000Y-87388072D01*
X123174482Y-87375812D01*
X123294180Y-87339502D01*
X123404494Y-87280537D01*
X123501185Y-87201185D01*
X123580537Y-87104494D01*
X123639502Y-86994180D01*
X123675812Y-86874482D01*
X123688072Y-86750000D01*
X123688072Y-85050000D01*
X123678456Y-84952368D01*
X123753246Y-85092289D01*
X123864340Y-85227658D01*
X123898263Y-85255498D01*
X124311928Y-85669163D01*
X124311928Y-86750000D01*
X124324188Y-86874482D01*
X124360498Y-86994180D01*
X124419463Y-87104494D01*
X124498815Y-87201185D01*
X124595506Y-87280537D01*
X124705820Y-87339502D01*
X124825518Y-87375812D01*
X124950000Y-87388072D01*
X126650000Y-87388072D01*
X126774482Y-87375812D01*
X126894180Y-87339502D01*
X127004494Y-87280537D01*
X127101185Y-87201185D01*
X127180537Y-87104494D01*
X127239502Y-86994180D01*
X127275812Y-86874482D01*
X127288072Y-86750000D01*
X127288072Y-85050000D01*
X127275812Y-84925518D01*
X127239502Y-84805820D01*
X127180537Y-84695506D01*
X127101185Y-84598815D01*
X127004494Y-84519463D01*
X126894180Y-84460498D01*
X126821620Y-84438487D01*
X126953475Y-84306632D01*
X127115990Y-84063411D01*
X127227932Y-83793158D01*
X127285000Y-83506260D01*
X127285000Y-83213740D01*
X127227932Y-82926842D01*
X127115990Y-82656589D01*
X126953475Y-82413368D01*
X126746632Y-82206525D01*
X126564466Y-82084805D01*
X126681355Y-82015178D01*
X126897588Y-81820269D01*
X127071641Y-81586920D01*
X127196825Y-81324099D01*
X127241476Y-81176890D01*
X127120155Y-80947000D01*
X125927000Y-80947000D01*
X125927000Y-80967000D01*
X125673000Y-80967000D01*
X125673000Y-80947000D01*
X125653000Y-80947000D01*
X125653000Y-80693000D01*
X125673000Y-80693000D01*
X125673000Y-79499186D01*
X125927000Y-79499186D01*
X125927000Y-80693000D01*
X127120155Y-80693000D01*
X127241476Y-80463110D01*
X127196825Y-80315901D01*
X127071641Y-80053080D01*
X126897588Y-79819731D01*
X126681355Y-79624822D01*
X126431252Y-79475843D01*
X126156891Y-79378519D01*
X125927000Y-79499186D01*
X125673000Y-79499186D01*
X125443109Y-79378519D01*
X125384999Y-79399132D01*
X125384999Y-78106423D01*
X125518574Y-78079853D01*
X125779727Y-77971680D01*
X126014759Y-77814637D01*
X126214637Y-77614759D01*
X126371680Y-77379727D01*
X126479853Y-77118574D01*
X126535000Y-76841335D01*
X126535000Y-76558665D01*
X126479853Y-76281426D01*
X126371680Y-76020273D01*
X126214637Y-75785241D01*
X126014759Y-75585363D01*
X125989000Y-75568151D01*
X125989000Y-74058576D01*
X126054759Y-74014637D01*
X126176694Y-73892702D01*
X134486903Y-73892702D01*
X134558486Y-74136671D01*
X134813996Y-74257571D01*
X135088184Y-74326300D01*
X135370512Y-74340217D01*
X135650130Y-74298787D01*
X135916292Y-74203603D01*
X136041514Y-74136671D01*
X136113097Y-73892702D01*
X135300000Y-73079605D01*
X134486903Y-73892702D01*
X126176694Y-73892702D01*
X126254637Y-73814759D01*
X126411680Y-73579727D01*
X126519853Y-73318574D01*
X126575000Y-73041335D01*
X126575000Y-72970512D01*
X133859783Y-72970512D01*
X133901213Y-73250130D01*
X133996397Y-73516292D01*
X134063329Y-73641514D01*
X134307298Y-73713097D01*
X135120395Y-72900000D01*
X135479605Y-72900000D01*
X136292702Y-73713097D01*
X136536671Y-73641514D01*
X136657571Y-73386004D01*
X136726300Y-73111816D01*
X136740217Y-72829488D01*
X136698787Y-72549870D01*
X136603603Y-72283708D01*
X136536671Y-72158486D01*
X136292702Y-72086903D01*
X135479605Y-72900000D01*
X135120395Y-72900000D01*
X134307298Y-72086903D01*
X134063329Y-72158486D01*
X133942429Y-72413996D01*
X133873700Y-72688184D01*
X133859783Y-72970512D01*
X126575000Y-72970512D01*
X126575000Y-72758665D01*
X126519853Y-72481426D01*
X126411680Y-72220273D01*
X126254637Y-71985241D01*
X126176694Y-71907298D01*
X134486903Y-71907298D01*
X135300000Y-72720395D01*
X136113097Y-71907298D01*
X136041514Y-71663329D01*
X135786004Y-71542429D01*
X135511816Y-71473700D01*
X135229488Y-71459783D01*
X134949870Y-71501213D01*
X134683708Y-71596397D01*
X134558486Y-71663329D01*
X134486903Y-71907298D01*
X126176694Y-71907298D01*
X126054759Y-71785363D01*
X125819727Y-71628320D01*
X125558574Y-71520147D01*
X125281335Y-71465000D01*
X124998665Y-71465000D01*
X124721426Y-71520147D01*
X124460273Y-71628320D01*
X124225241Y-71785363D01*
X124025363Y-71985241D01*
X123868320Y-72220273D01*
X123760147Y-72481426D01*
X123705000Y-72758665D01*
X123705000Y-73041335D01*
X123760147Y-73318574D01*
X123868320Y-73579727D01*
X124025363Y-73814759D01*
X124211001Y-74000397D01*
X124211000Y-75568151D01*
X124185241Y-75585363D01*
X123985363Y-75785241D01*
X123828320Y-76020273D01*
X123720147Y-76281426D01*
X123665000Y-76558665D01*
X123665000Y-76841335D01*
X123684059Y-76937150D01*
X123670697Y-76962149D01*
X123619863Y-77129727D01*
X123602699Y-77304001D01*
X123607000Y-77347671D01*
X123607000Y-80349445D01*
X123596825Y-80315901D01*
X123471641Y-80053080D01*
X123297588Y-79819731D01*
X123081355Y-79624822D01*
X122831252Y-79475843D01*
X122556891Y-79378519D01*
X122327000Y-79499186D01*
X122327000Y-80693000D01*
X122347000Y-80693000D01*
X122347000Y-80947000D01*
X122327000Y-80947000D01*
X122327000Y-80967000D01*
X122073000Y-80967000D01*
X122073000Y-80947000D01*
X122053000Y-80947000D01*
X122053000Y-80693000D01*
X122073000Y-80693000D01*
X122073000Y-79499186D01*
X121843109Y-79378519D01*
X121784999Y-79399132D01*
X121784999Y-73712236D01*
X124968280Y-70528956D01*
X124998665Y-70535000D01*
X125281335Y-70535000D01*
X125558574Y-70479853D01*
X125819727Y-70371680D01*
X126054759Y-70214637D01*
X126254637Y-70014759D01*
X126411680Y-69779727D01*
X126519853Y-69518574D01*
X126575000Y-69241335D01*
X126575000Y-68958665D01*
X133865000Y-68958665D01*
X133865000Y-69241335D01*
X133920147Y-69518574D01*
X134028320Y-69779727D01*
X134185363Y-70014759D01*
X134385241Y-70214637D01*
X134620273Y-70371680D01*
X134881426Y-70479853D01*
X135158665Y-70535000D01*
X135441335Y-70535000D01*
X135718574Y-70479853D01*
X135979727Y-70371680D01*
X136214759Y-70214637D01*
X136414637Y-70014759D01*
X136431849Y-69989000D01*
X142371765Y-69989000D01*
X142828523Y-70445758D01*
X142815000Y-70513740D01*
X142815000Y-70806260D01*
X142872068Y-71093158D01*
X142984010Y-71363411D01*
X143146525Y-71606632D01*
X143333608Y-71793715D01*
X143206614Y-71861595D01*
X143072038Y-71972038D01*
X142961595Y-72106614D01*
X142879528Y-72260150D01*
X142828992Y-72426746D01*
X142811928Y-72600000D01*
X142811928Y-73800000D01*
X142828992Y-73973254D01*
X142879528Y-74139850D01*
X142961595Y-74293386D01*
X143072038Y-74427962D01*
X143206614Y-74538405D01*
X143360150Y-74620472D01*
X143526746Y-74671008D01*
X143700000Y-74688072D01*
X144900000Y-74688072D01*
X145073254Y-74671008D01*
X145239850Y-74620472D01*
X145393386Y-74538405D01*
X145527962Y-74427962D01*
X145638405Y-74293386D01*
X145673142Y-74228397D01*
X145991208Y-74228397D01*
X146068843Y-74477472D01*
X146332883Y-74603371D01*
X146616411Y-74675339D01*
X146908531Y-74690611D01*
X147198019Y-74648599D01*
X147473747Y-74550919D01*
X147611157Y-74477472D01*
X147688792Y-74228397D01*
X148531208Y-74228397D01*
X148608843Y-74477472D01*
X148872883Y-74603371D01*
X149156411Y-74675339D01*
X149448531Y-74690611D01*
X149738019Y-74648599D01*
X150013747Y-74550919D01*
X150151157Y-74477472D01*
X150228792Y-74228397D01*
X151071208Y-74228397D01*
X151148843Y-74477472D01*
X151412883Y-74603371D01*
X151696411Y-74675339D01*
X151988531Y-74690611D01*
X152278019Y-74648599D01*
X152553747Y-74550919D01*
X152691157Y-74477472D01*
X152768792Y-74228397D01*
X151920000Y-73379605D01*
X151071208Y-74228397D01*
X150228792Y-74228397D01*
X149380000Y-73379605D01*
X148531208Y-74228397D01*
X147688792Y-74228397D01*
X146840000Y-73379605D01*
X145991208Y-74228397D01*
X145673142Y-74228397D01*
X145720472Y-74139850D01*
X145753580Y-74030707D01*
X145811603Y-74048792D01*
X146660395Y-73200000D01*
X147019605Y-73200000D01*
X147868397Y-74048792D01*
X148110000Y-73973486D01*
X148351603Y-74048792D01*
X149200395Y-73200000D01*
X149559605Y-73200000D01*
X150408397Y-74048792D01*
X150650000Y-73973486D01*
X150891603Y-74048792D01*
X151740395Y-73200000D01*
X150891603Y-72351208D01*
X150650000Y-72426514D01*
X150408397Y-72351208D01*
X149559605Y-73200000D01*
X149200395Y-73200000D01*
X148351603Y-72351208D01*
X148110000Y-72426514D01*
X147868397Y-72351208D01*
X147019605Y-73200000D01*
X146660395Y-73200000D01*
X145811603Y-72351208D01*
X145753580Y-72369293D01*
X145720472Y-72260150D01*
X145638405Y-72106614D01*
X145527962Y-71972038D01*
X145393386Y-71861595D01*
X145266392Y-71793715D01*
X145371710Y-71688397D01*
X145991208Y-71688397D01*
X146066514Y-71930000D01*
X145991208Y-72171603D01*
X146840000Y-73020395D01*
X147688792Y-72171603D01*
X147613486Y-71930000D01*
X147688792Y-71688397D01*
X148531208Y-71688397D01*
X148606514Y-71930000D01*
X148531208Y-72171603D01*
X149380000Y-73020395D01*
X150228792Y-72171603D01*
X150153486Y-71930000D01*
X150228792Y-71688397D01*
X151071208Y-71688397D01*
X151146514Y-71930000D01*
X151071208Y-72171603D01*
X151920000Y-73020395D01*
X152768792Y-72171603D01*
X152693486Y-71930000D01*
X152768792Y-71688397D01*
X151920000Y-70839605D01*
X151071208Y-71688397D01*
X150228792Y-71688397D01*
X149380000Y-70839605D01*
X148531208Y-71688397D01*
X147688792Y-71688397D01*
X146840000Y-70839605D01*
X145991208Y-71688397D01*
X145371710Y-71688397D01*
X145453475Y-71606632D01*
X145569311Y-71433271D01*
X145811603Y-71508792D01*
X146660395Y-70660000D01*
X147019605Y-70660000D01*
X147868397Y-71508792D01*
X148110000Y-71433486D01*
X148351603Y-71508792D01*
X149200395Y-70660000D01*
X149559605Y-70660000D01*
X150408397Y-71508792D01*
X150650000Y-71433486D01*
X150891603Y-71508792D01*
X151740395Y-70660000D01*
X150891603Y-69811208D01*
X150650000Y-69886514D01*
X150408397Y-69811208D01*
X149559605Y-70660000D01*
X149200395Y-70660000D01*
X148351603Y-69811208D01*
X148110000Y-69886514D01*
X147868397Y-69811208D01*
X147019605Y-70660000D01*
X146660395Y-70660000D01*
X145811603Y-69811208D01*
X145569311Y-69886729D01*
X145453475Y-69713368D01*
X145371710Y-69631603D01*
X145991208Y-69631603D01*
X146840000Y-70480395D01*
X147688792Y-69631603D01*
X148531208Y-69631603D01*
X149380000Y-70480395D01*
X150228792Y-69631603D01*
X151071208Y-69631603D01*
X151920000Y-70480395D01*
X152768792Y-69631603D01*
X152691157Y-69382528D01*
X152427117Y-69256629D01*
X152143589Y-69184661D01*
X151851469Y-69169389D01*
X151561981Y-69211401D01*
X151286253Y-69309081D01*
X151148843Y-69382528D01*
X151071208Y-69631603D01*
X150228792Y-69631603D01*
X150151157Y-69382528D01*
X149887117Y-69256629D01*
X149603589Y-69184661D01*
X149311469Y-69169389D01*
X149021981Y-69211401D01*
X148746253Y-69309081D01*
X148608843Y-69382528D01*
X148531208Y-69631603D01*
X147688792Y-69631603D01*
X147611157Y-69382528D01*
X147347117Y-69256629D01*
X147063589Y-69184661D01*
X146771469Y-69169389D01*
X146481981Y-69211401D01*
X146206253Y-69309081D01*
X146068843Y-69382528D01*
X145991208Y-69631603D01*
X145371710Y-69631603D01*
X145246632Y-69506525D01*
X145003411Y-69344010D01*
X144733158Y-69232068D01*
X144446260Y-69175000D01*
X144153740Y-69175000D01*
X144085758Y-69188523D01*
X143399499Y-68502264D01*
X143371659Y-68468341D01*
X143236291Y-68357247D01*
X143081851Y-68274697D01*
X142914274Y-68223864D01*
X142783667Y-68211000D01*
X142783660Y-68211000D01*
X142740000Y-68206700D01*
X142696340Y-68211000D01*
X136431849Y-68211000D01*
X136414637Y-68185241D01*
X136214759Y-67985363D01*
X135979727Y-67828320D01*
X135718574Y-67720147D01*
X135441335Y-67665000D01*
X135158665Y-67665000D01*
X134881426Y-67720147D01*
X134620273Y-67828320D01*
X134385241Y-67985363D01*
X134185363Y-68185241D01*
X134028320Y-68420273D01*
X133920147Y-68681426D01*
X133865000Y-68958665D01*
X126575000Y-68958665D01*
X126519853Y-68681426D01*
X126411680Y-68420273D01*
X126254637Y-68185241D01*
X126054759Y-67985363D01*
X125819727Y-67828320D01*
X125558574Y-67720147D01*
X125281335Y-67665000D01*
X124998665Y-67665000D01*
X124721426Y-67720147D01*
X124460273Y-67828320D01*
X124225241Y-67985363D01*
X124025363Y-68185241D01*
X123868320Y-68420273D01*
X123760147Y-68681426D01*
X123705000Y-68958665D01*
X123705000Y-69241335D01*
X123711044Y-69271720D01*
X120298263Y-72684502D01*
X120264340Y-72712342D01*
X120153246Y-72847711D01*
X120070696Y-73002151D01*
X120058810Y-73041335D01*
X120031469Y-73131469D01*
X120019863Y-73169728D01*
X120006999Y-73300335D01*
X120006999Y-73300341D01*
X120002699Y-73344001D01*
X118160000Y-73344001D01*
X118160000Y-67160000D01*
X181340001Y-67160000D01*
X181340000Y-132340000D01*
%TA.AperFunction,Conductor*%
D23*
G36*
X181340000Y-132340000D02*
G01*
X167877235Y-132340000D01*
X167988280Y-132228956D01*
X168018665Y-132235000D01*
X168301335Y-132235000D01*
X168578574Y-132179853D01*
X168839727Y-132071680D01*
X169074759Y-131914637D01*
X169274637Y-131714759D01*
X169431680Y-131479727D01*
X169539853Y-131218574D01*
X169595000Y-130941335D01*
X169595000Y-130658665D01*
X169539853Y-130381426D01*
X169431680Y-130120273D01*
X169296417Y-129917837D01*
X169397039Y-129887314D01*
X169551479Y-129804764D01*
X169686847Y-129693670D01*
X169714687Y-129659747D01*
X179949753Y-119424682D01*
X179983670Y-119396847D01*
X180094764Y-119261479D01*
X180177314Y-119107039D01*
X180228147Y-118939462D01*
X180241011Y-118808855D01*
X180241011Y-118808848D01*
X180245311Y-118765188D01*
X180241011Y-118721528D01*
X180241011Y-110755670D01*
X180245311Y-110712010D01*
X180241011Y-110668345D01*
X180241011Y-110668344D01*
X180231417Y-110570935D01*
X180228147Y-110537735D01*
X180190824Y-110414697D01*
X180177314Y-110370160D01*
X180094764Y-110215720D01*
X179983670Y-110080352D01*
X179949748Y-110052513D01*
X178811477Y-108914242D01*
X178825000Y-108846260D01*
X178825000Y-108553740D01*
X178767932Y-108266842D01*
X178655990Y-107996589D01*
X178493475Y-107753368D01*
X178286632Y-107546525D01*
X178112240Y-107430000D01*
X178286632Y-107313475D01*
X178493475Y-107106632D01*
X178655990Y-106863411D01*
X178767932Y-106593158D01*
X178825000Y-106306260D01*
X178825000Y-106013740D01*
X178767932Y-105726842D01*
X178655990Y-105456589D01*
X178493475Y-105213368D01*
X178286632Y-105006525D01*
X178112240Y-104890000D01*
X178286632Y-104773475D01*
X178493475Y-104566632D01*
X178655990Y-104323411D01*
X178767932Y-104053158D01*
X178825000Y-103766260D01*
X178825000Y-103473740D01*
X178811477Y-103405758D01*
X179241742Y-102975493D01*
X179275660Y-102947658D01*
X179386754Y-102812290D01*
X179469304Y-102657850D01*
X179498003Y-102563241D01*
X179520137Y-102490274D01*
X179529423Y-102395990D01*
X179533001Y-102359666D01*
X179533001Y-102359659D01*
X179537301Y-102315999D01*
X179533001Y-102272339D01*
X179533001Y-93171747D01*
X179537302Y-93128079D01*
X179520137Y-92953804D01*
X179491529Y-92859495D01*
X179469304Y-92786228D01*
X179386754Y-92631788D01*
X179275660Y-92496420D01*
X179241744Y-92468586D01*
X169421420Y-82648263D01*
X169393580Y-82614340D01*
X169258212Y-82503246D01*
X169103772Y-82420696D01*
X168936195Y-82369863D01*
X168805588Y-82356999D01*
X168805581Y-82356999D01*
X168761921Y-82352699D01*
X168718261Y-82356999D01*
X159297660Y-82356999D01*
X159254000Y-82352699D01*
X159210340Y-82356999D01*
X159210334Y-82356999D01*
X159112925Y-82366593D01*
X159079725Y-82369863D01*
X158987085Y-82397965D01*
X158912150Y-82420696D01*
X158757710Y-82503246D01*
X158622342Y-82614340D01*
X158594507Y-82648258D01*
X158171720Y-83071044D01*
X158141335Y-83065000D01*
X157858665Y-83065000D01*
X157581426Y-83120147D01*
X157320273Y-83228320D01*
X157085241Y-83385363D01*
X156885363Y-83585241D01*
X156728320Y-83820273D01*
X156620147Y-84081426D01*
X156565000Y-84358665D01*
X156565000Y-84641335D01*
X156620147Y-84918574D01*
X156728320Y-85179727D01*
X156885363Y-85414759D01*
X157085241Y-85614637D01*
X157320273Y-85771680D01*
X157581426Y-85879853D01*
X157858665Y-85935000D01*
X158141335Y-85935000D01*
X158418574Y-85879853D01*
X158679727Y-85771680D01*
X158914759Y-85614637D01*
X159114637Y-85414759D01*
X159271680Y-85179727D01*
X159379853Y-84918574D01*
X159435000Y-84641335D01*
X159435000Y-84358665D01*
X159428956Y-84328280D01*
X159622237Y-84134999D01*
X166769491Y-84134999D01*
X166725000Y-84358665D01*
X166725000Y-84641335D01*
X166780147Y-84918574D01*
X166888320Y-85179727D01*
X167045363Y-85414759D01*
X167245241Y-85614637D01*
X167480273Y-85771680D01*
X167741426Y-85879853D01*
X168018665Y-85935000D01*
X168301335Y-85935000D01*
X168578574Y-85879853D01*
X168839727Y-85771680D01*
X169074759Y-85614637D01*
X169274637Y-85414759D01*
X169431680Y-85179727D01*
X169433652Y-85174965D01*
X177755001Y-93496315D01*
X177755001Y-94568456D01*
X177486260Y-94515000D01*
X177193740Y-94515000D01*
X176906842Y-94572068D01*
X176636589Y-94684010D01*
X176393368Y-94846525D01*
X176206285Y-95033608D01*
X176138405Y-94906614D01*
X176027962Y-94772038D01*
X175893386Y-94661595D01*
X175739850Y-94579528D01*
X175573254Y-94528992D01*
X175400000Y-94511928D01*
X174200000Y-94511928D01*
X174026746Y-94528992D01*
X173860150Y-94579528D01*
X173706614Y-94661595D01*
X173572038Y-94772038D01*
X173461595Y-94906614D01*
X173379528Y-95060150D01*
X173328992Y-95226746D01*
X173311928Y-95400000D01*
X173311928Y-96600000D01*
X173328992Y-96773254D01*
X173379528Y-96939850D01*
X173461595Y-97093386D01*
X173572038Y-97227962D01*
X173706614Y-97338405D01*
X173833608Y-97406285D01*
X173646525Y-97593368D01*
X173484010Y-97836589D01*
X173372068Y-98106842D01*
X173315000Y-98393740D01*
X173315000Y-98686260D01*
X173372068Y-98973158D01*
X173484010Y-99243411D01*
X173646525Y-99486632D01*
X173853368Y-99693475D01*
X174027760Y-99810000D01*
X173853368Y-99926525D01*
X173646525Y-100133368D01*
X173608017Y-100191000D01*
X169509853Y-100191000D01*
X169539853Y-100118574D01*
X169595000Y-99841335D01*
X169595000Y-99558665D01*
X169539853Y-99281426D01*
X169431680Y-99020273D01*
X169274637Y-98785241D01*
X169074759Y-98585363D01*
X168839727Y-98428320D01*
X168578574Y-98320147D01*
X168301335Y-98265000D01*
X168018665Y-98265000D01*
X167741426Y-98320147D01*
X167480273Y-98428320D01*
X167245241Y-98585363D01*
X167045363Y-98785241D01*
X166888320Y-99020273D01*
X166780147Y-99281426D01*
X166725000Y-99558665D01*
X166725000Y-99841335D01*
X166780147Y-100118574D01*
X166810147Y-100191000D01*
X159748236Y-100191000D01*
X159428956Y-99871720D01*
X159435000Y-99841335D01*
X159435000Y-99558665D01*
X159379853Y-99281426D01*
X159271680Y-99020273D01*
X159114637Y-98785241D01*
X158914759Y-98585363D01*
X158679727Y-98428320D01*
X158418574Y-98320147D01*
X158141335Y-98265000D01*
X157858665Y-98265000D01*
X157581426Y-98320147D01*
X157320273Y-98428320D01*
X157085241Y-98585363D01*
X156885363Y-98785241D01*
X156728320Y-99020273D01*
X156719296Y-99042060D01*
X155766235Y-98089000D01*
X156656340Y-98089000D01*
X156700000Y-98093300D01*
X156743660Y-98089000D01*
X156743667Y-98089000D01*
X156874274Y-98076136D01*
X157041851Y-98025303D01*
X157196291Y-97942753D01*
X157331659Y-97831659D01*
X157359499Y-97797736D01*
X157828280Y-97328956D01*
X157858665Y-97335000D01*
X158141335Y-97335000D01*
X158418574Y-97279853D01*
X158679727Y-97171680D01*
X158914759Y-97014637D01*
X159114637Y-96814759D01*
X159271680Y-96579727D01*
X159379853Y-96318574D01*
X159435000Y-96041335D01*
X159435000Y-95758665D01*
X159390509Y-95534999D01*
X166537764Y-95534999D01*
X166731044Y-95728280D01*
X166725000Y-95758665D01*
X166725000Y-96041335D01*
X166780147Y-96318574D01*
X166888320Y-96579727D01*
X167045363Y-96814759D01*
X167245241Y-97014637D01*
X167480273Y-97171680D01*
X167741426Y-97279853D01*
X168018665Y-97335000D01*
X168301335Y-97335000D01*
X168578574Y-97279853D01*
X168839727Y-97171680D01*
X169074759Y-97014637D01*
X169274637Y-96814759D01*
X169431680Y-96579727D01*
X169539853Y-96318574D01*
X169595000Y-96041335D01*
X169595000Y-95758665D01*
X169539853Y-95481426D01*
X169431680Y-95220273D01*
X169274637Y-94985241D01*
X169074759Y-94785363D01*
X168839727Y-94628320D01*
X168578574Y-94520147D01*
X168301335Y-94465000D01*
X168018665Y-94465000D01*
X167988280Y-94471044D01*
X167565498Y-94048263D01*
X167537658Y-94014340D01*
X167402290Y-93903246D01*
X167247850Y-93820696D01*
X167080273Y-93769863D01*
X166949666Y-93756999D01*
X166949659Y-93756999D01*
X166905999Y-93752699D01*
X166862339Y-93756999D01*
X157441738Y-93756999D01*
X157398078Y-93752699D01*
X157354418Y-93756999D01*
X157354412Y-93756999D01*
X157257003Y-93766593D01*
X157223803Y-93769863D01*
X157122137Y-93800703D01*
X157056228Y-93820696D01*
X156901788Y-93903246D01*
X156766420Y-94014340D01*
X156738580Y-94048263D01*
X155761833Y-95025010D01*
X155408846Y-95025010D01*
X155434236Y-94941309D01*
X155461943Y-94660000D01*
X155434236Y-94378691D01*
X155370071Y-94167164D01*
X155871746Y-93665489D01*
X155905669Y-93637649D01*
X156016763Y-93502281D01*
X156099313Y-93347841D01*
X156136576Y-93225000D01*
X156150146Y-93180266D01*
X156158770Y-93092702D01*
X156163010Y-93049657D01*
X156163010Y-93049651D01*
X156167310Y-93005991D01*
X156163010Y-92962331D01*
X156163010Y-91958665D01*
X158565000Y-91958665D01*
X158565000Y-92241335D01*
X158620147Y-92518574D01*
X158728320Y-92779727D01*
X158885363Y-93014759D01*
X159085241Y-93214637D01*
X159320273Y-93371680D01*
X159581426Y-93479853D01*
X159858665Y-93535000D01*
X160141335Y-93535000D01*
X160418574Y-93479853D01*
X160679727Y-93371680D01*
X160914759Y-93214637D01*
X161036694Y-93092702D01*
X161686903Y-93092702D01*
X161758486Y-93336671D01*
X162013996Y-93457571D01*
X162288184Y-93526300D01*
X162570512Y-93540217D01*
X162850130Y-93498787D01*
X163116292Y-93403603D01*
X163241514Y-93336671D01*
X163313097Y-93092702D01*
X162500000Y-92279605D01*
X161686903Y-93092702D01*
X161036694Y-93092702D01*
X161114637Y-93014759D01*
X161248692Y-92814131D01*
X161263329Y-92841514D01*
X161507298Y-92913097D01*
X162320395Y-92100000D01*
X162679605Y-92100000D01*
X163492702Y-92913097D01*
X163736671Y-92841514D01*
X163857571Y-92586004D01*
X163926300Y-92311816D01*
X163940217Y-92029488D01*
X163898787Y-91749870D01*
X163803603Y-91483708D01*
X163736671Y-91358486D01*
X163492702Y-91286903D01*
X162679605Y-92100000D01*
X162320395Y-92100000D01*
X161507298Y-91286903D01*
X161263329Y-91358486D01*
X161249676Y-91387341D01*
X161114637Y-91185241D01*
X161036694Y-91107298D01*
X161686903Y-91107298D01*
X162500000Y-91920395D01*
X163313097Y-91107298D01*
X163241514Y-90863329D01*
X162986004Y-90742429D01*
X162711816Y-90673700D01*
X162429488Y-90659783D01*
X162149870Y-90701213D01*
X161883708Y-90796397D01*
X161758486Y-90863329D01*
X161686903Y-91107298D01*
X161036694Y-91107298D01*
X160914759Y-90985363D01*
X160679727Y-90828320D01*
X160418574Y-90720147D01*
X160141335Y-90665000D01*
X159858665Y-90665000D01*
X159581426Y-90720147D01*
X159320273Y-90828320D01*
X159085241Y-90985363D01*
X158885363Y-91185241D01*
X158728320Y-91420273D01*
X158620147Y-91681426D01*
X158565000Y-91958665D01*
X156163010Y-91958665D01*
X156163010Y-91277669D01*
X156167310Y-91234009D01*
X156163010Y-91190344D01*
X156163010Y-91190343D01*
X156150146Y-91059736D01*
X156150146Y-91059734D01*
X156105387Y-90912182D01*
X156099313Y-90892159D01*
X156016763Y-90737719D01*
X155905669Y-90602351D01*
X155871747Y-90574512D01*
X155370071Y-90072836D01*
X155434236Y-89861309D01*
X155461943Y-89580000D01*
X155434236Y-89298691D01*
X155352182Y-89028192D01*
X155218932Y-88778899D01*
X155039608Y-88560392D01*
X154821101Y-88381068D01*
X154688142Y-88310000D01*
X154821101Y-88238932D01*
X154918906Y-88158665D01*
X156565000Y-88158665D01*
X156565000Y-88441335D01*
X156620147Y-88718574D01*
X156728320Y-88979727D01*
X156885363Y-89214759D01*
X157085241Y-89414637D01*
X157320273Y-89571680D01*
X157581426Y-89679853D01*
X157858665Y-89735000D01*
X158141335Y-89735000D01*
X158418574Y-89679853D01*
X158679727Y-89571680D01*
X158914759Y-89414637D01*
X159114637Y-89214759D01*
X159271680Y-88979727D01*
X159379853Y-88718574D01*
X159435000Y-88441335D01*
X159435000Y-88158665D01*
X166725000Y-88158665D01*
X166725000Y-88441335D01*
X166780147Y-88718574D01*
X166888320Y-88979727D01*
X167045363Y-89214759D01*
X167245241Y-89414637D01*
X167480273Y-89571680D01*
X167741426Y-89679853D01*
X168018665Y-89735000D01*
X168301335Y-89735000D01*
X168578574Y-89679853D01*
X168839727Y-89571680D01*
X169074759Y-89414637D01*
X169274637Y-89214759D01*
X169431680Y-88979727D01*
X169539853Y-88718574D01*
X169595000Y-88441335D01*
X169595000Y-88158665D01*
X169539853Y-87881426D01*
X169431680Y-87620273D01*
X169274637Y-87385241D01*
X169074759Y-87185363D01*
X168839727Y-87028320D01*
X168578574Y-86920147D01*
X168301335Y-86865000D01*
X168018665Y-86865000D01*
X167741426Y-86920147D01*
X167480273Y-87028320D01*
X167245241Y-87185363D01*
X167045363Y-87385241D01*
X166888320Y-87620273D01*
X166780147Y-87881426D01*
X166725000Y-88158665D01*
X159435000Y-88158665D01*
X159379853Y-87881426D01*
X159271680Y-87620273D01*
X159114637Y-87385241D01*
X158914759Y-87185363D01*
X158679727Y-87028320D01*
X158418574Y-86920147D01*
X158141335Y-86865000D01*
X157858665Y-86865000D01*
X157581426Y-86920147D01*
X157320273Y-87028320D01*
X157085241Y-87185363D01*
X156885363Y-87385241D01*
X156728320Y-87620273D01*
X156620147Y-87881426D01*
X156565000Y-88158665D01*
X154918906Y-88158665D01*
X155039608Y-88059608D01*
X155218932Y-87841101D01*
X155352182Y-87591808D01*
X155434236Y-87321309D01*
X155461943Y-87040000D01*
X155434236Y-86758691D01*
X155352182Y-86488192D01*
X155218932Y-86238899D01*
X155039608Y-86020392D01*
X154821101Y-85841068D01*
X154688142Y-85770000D01*
X154821101Y-85698932D01*
X155039608Y-85519608D01*
X155218932Y-85301101D01*
X155352182Y-85051808D01*
X155434236Y-84781309D01*
X155461943Y-84500000D01*
X155434236Y-84218691D01*
X155352182Y-83948192D01*
X155218932Y-83698899D01*
X155039608Y-83480392D01*
X154821101Y-83301068D01*
X154571808Y-83167818D01*
X154301309Y-83085764D01*
X154134467Y-83069331D01*
X155160798Y-82043001D01*
X157002339Y-82043001D01*
X157045999Y-82047301D01*
X157089659Y-82043001D01*
X157089666Y-82043001D01*
X157220273Y-82030137D01*
X157387850Y-81979304D01*
X157542290Y-81896754D01*
X157677658Y-81785660D01*
X157705498Y-81751737D01*
X157828279Y-81628956D01*
X157858665Y-81635000D01*
X158141335Y-81635000D01*
X158418574Y-81579853D01*
X158679727Y-81471680D01*
X158914759Y-81314637D01*
X159114637Y-81114759D01*
X159271680Y-80879727D01*
X159379853Y-80618574D01*
X159435000Y-80341335D01*
X159435000Y-80058665D01*
X166725000Y-80058665D01*
X166725000Y-80341335D01*
X166780147Y-80618574D01*
X166888320Y-80879727D01*
X167045363Y-81114759D01*
X167245241Y-81314637D01*
X167480273Y-81471680D01*
X167741426Y-81579853D01*
X168018665Y-81635000D01*
X168301335Y-81635000D01*
X168578574Y-81579853D01*
X168839727Y-81471680D01*
X169074759Y-81314637D01*
X169266080Y-81123316D01*
X171456385Y-83313620D01*
X171395000Y-83622223D01*
X171395000Y-83977777D01*
X171464365Y-84326499D01*
X171600429Y-84654988D01*
X171797965Y-84950621D01*
X172049379Y-85202035D01*
X172345012Y-85399571D01*
X172673501Y-85535635D01*
X173022223Y-85605000D01*
X173377777Y-85605000D01*
X173726499Y-85535635D01*
X174054988Y-85399571D01*
X174350621Y-85202035D01*
X174602035Y-84950621D01*
X174799571Y-84654988D01*
X174935635Y-84326499D01*
X175005000Y-83977777D01*
X175005000Y-83622223D01*
X174935635Y-83273501D01*
X174799571Y-82945012D01*
X174602035Y-82649379D01*
X174350621Y-82397965D01*
X174054988Y-82200429D01*
X173726499Y-82064365D01*
X173377777Y-81995000D01*
X173022223Y-81995000D01*
X172713620Y-82056385D01*
X170259499Y-79602264D01*
X170231659Y-79568341D01*
X170096291Y-79457247D01*
X169941851Y-79374697D01*
X169774274Y-79323864D01*
X169643667Y-79311000D01*
X169643660Y-79311000D01*
X169600000Y-79306700D01*
X169556340Y-79311000D01*
X169291849Y-79311000D01*
X169274637Y-79285241D01*
X169074759Y-79085363D01*
X168839727Y-78928320D01*
X168578574Y-78820147D01*
X168301335Y-78765000D01*
X168018665Y-78765000D01*
X167741426Y-78820147D01*
X167480273Y-78928320D01*
X167245241Y-79085363D01*
X167045363Y-79285241D01*
X166888320Y-79520273D01*
X166780147Y-79781426D01*
X166725000Y-80058665D01*
X159435000Y-80058665D01*
X159379853Y-79781426D01*
X159271680Y-79520273D01*
X159114637Y-79285241D01*
X158914759Y-79085363D01*
X158679727Y-78928320D01*
X158418574Y-78820147D01*
X158141335Y-78765000D01*
X157858665Y-78765000D01*
X157581426Y-78820147D01*
X157320273Y-78928320D01*
X157085241Y-79085363D01*
X156885363Y-79285241D01*
X156728320Y-79520273D01*
X156620147Y-79781426D01*
X156565000Y-80058665D01*
X156565000Y-80265001D01*
X156290509Y-80265001D01*
X156335000Y-80041335D01*
X156335000Y-79758665D01*
X156279853Y-79481426D01*
X156171680Y-79220273D01*
X156014637Y-78985241D01*
X155814759Y-78785363D01*
X155579727Y-78628320D01*
X155349000Y-78532750D01*
X155349000Y-74391983D01*
X155406632Y-74353475D01*
X155613475Y-74146632D01*
X155775990Y-73903411D01*
X155887932Y-73633158D01*
X155945000Y-73346260D01*
X155945000Y-73053740D01*
X155887932Y-72766842D01*
X155775990Y-72496589D01*
X155613475Y-72253368D01*
X155406632Y-72046525D01*
X155349000Y-72008017D01*
X155349000Y-71851983D01*
X155406632Y-71813475D01*
X155613475Y-71606632D01*
X155775990Y-71363411D01*
X155887932Y-71093158D01*
X155945000Y-70806260D01*
X155945000Y-70700000D01*
X164061928Y-70700000D01*
X164061928Y-72300000D01*
X164074188Y-72424482D01*
X164110498Y-72544180D01*
X164169463Y-72654494D01*
X164248815Y-72751185D01*
X164345506Y-72830537D01*
X164455820Y-72889502D01*
X164575518Y-72925812D01*
X164700000Y-72938072D01*
X165680837Y-72938072D01*
X174640506Y-81897742D01*
X174668341Y-81931659D01*
X174803709Y-82042753D01*
X174958149Y-82125303D01*
X175009283Y-82140814D01*
X175125725Y-82176136D01*
X175142325Y-82177771D01*
X175256333Y-82189000D01*
X175256340Y-82189000D01*
X175300000Y-82193300D01*
X175343660Y-82189000D01*
X176623155Y-82189000D01*
X176797965Y-82450621D01*
X177049379Y-82702035D01*
X177345012Y-82899571D01*
X177673501Y-83035635D01*
X178022223Y-83105000D01*
X178377777Y-83105000D01*
X178726499Y-83035635D01*
X178935002Y-82949271D01*
X178935002Y-84307763D01*
X178686380Y-84556385D01*
X178377777Y-84495000D01*
X178022223Y-84495000D01*
X177673501Y-84564365D01*
X177345012Y-84700429D01*
X177049379Y-84897965D01*
X176797965Y-85149379D01*
X176600429Y-85445012D01*
X176464365Y-85773501D01*
X176395000Y-86122223D01*
X176395000Y-86477777D01*
X176464365Y-86826499D01*
X176600429Y-87154988D01*
X176797965Y-87450621D01*
X177049379Y-87702035D01*
X177345012Y-87899571D01*
X177673501Y-88035635D01*
X178022223Y-88105000D01*
X178377777Y-88105000D01*
X178726499Y-88035635D01*
X179054988Y-87899571D01*
X179350621Y-87702035D01*
X179602035Y-87450621D01*
X179799571Y-87154988D01*
X179935635Y-86826499D01*
X180005000Y-86477777D01*
X180005000Y-86122223D01*
X179943615Y-85813620D01*
X180421737Y-85335498D01*
X180455660Y-85307658D01*
X180566754Y-85172290D01*
X180649304Y-85017850D01*
X180677312Y-84925518D01*
X180700137Y-84850275D01*
X180706277Y-84787932D01*
X180713001Y-84719666D01*
X180713001Y-84719660D01*
X180717301Y-84676000D01*
X180713001Y-84632340D01*
X180713001Y-80564139D01*
X180717301Y-80520479D01*
X180713001Y-80476819D01*
X180713001Y-80476812D01*
X180700137Y-80346205D01*
X180694827Y-80328698D01*
X180655787Y-80200001D01*
X180649304Y-80178628D01*
X180566754Y-80024188D01*
X180455660Y-79888820D01*
X180421744Y-79860986D01*
X176317022Y-75756265D01*
X176289182Y-75722342D01*
X176153814Y-75611248D01*
X176035971Y-75548259D01*
X176035000Y-75385750D01*
X175876250Y-75227000D01*
X174727000Y-75227000D01*
X174727000Y-75247000D01*
X174473000Y-75247000D01*
X174473000Y-75227000D01*
X174453000Y-75227000D01*
X174453000Y-74973000D01*
X174473000Y-74973000D01*
X174473000Y-73823750D01*
X174727000Y-73823750D01*
X174727000Y-74973000D01*
X175876250Y-74973000D01*
X176035000Y-74814250D01*
X176038072Y-74300000D01*
X176025812Y-74175518D01*
X175989502Y-74055820D01*
X175930537Y-73945506D01*
X175851185Y-73848815D01*
X175754494Y-73769463D01*
X175644180Y-73710498D01*
X175524482Y-73674188D01*
X175400000Y-73661928D01*
X174885750Y-73665000D01*
X174727000Y-73823750D01*
X174473000Y-73823750D01*
X174314250Y-73665000D01*
X173800000Y-73661928D01*
X173675518Y-73674188D01*
X173555820Y-73710498D01*
X173445506Y-73769463D01*
X173348815Y-73848815D01*
X173269463Y-73945506D01*
X173210498Y-74055820D01*
X173181339Y-74151943D01*
X173014759Y-73985363D01*
X172779727Y-73828320D01*
X172518574Y-73720147D01*
X172241335Y-73665000D01*
X171958665Y-73665000D01*
X171681426Y-73720147D01*
X171420273Y-73828320D01*
X171185241Y-73985363D01*
X170985363Y-74185241D01*
X170828320Y-74420273D01*
X170720147Y-74681426D01*
X170665000Y-74958665D01*
X170665000Y-75241335D01*
X170706326Y-75449090D01*
X168181071Y-72923836D01*
X168350130Y-72898787D01*
X168616292Y-72803603D01*
X168741514Y-72736671D01*
X168813097Y-72492702D01*
X168000000Y-71679605D01*
X167985858Y-71693748D01*
X167806253Y-71514143D01*
X167820395Y-71500000D01*
X168179605Y-71500000D01*
X168992702Y-72313097D01*
X169236671Y-72241514D01*
X169357571Y-71986004D01*
X169426300Y-71711816D01*
X169440217Y-71429488D01*
X169398787Y-71149870D01*
X169303603Y-70883708D01*
X169236671Y-70758486D01*
X168992702Y-70686903D01*
X168179605Y-71500000D01*
X167820395Y-71500000D01*
X167007298Y-70686903D01*
X166938072Y-70707215D01*
X166938072Y-70700000D01*
X166925812Y-70575518D01*
X166905118Y-70507298D01*
X167186903Y-70507298D01*
X168000000Y-71320395D01*
X168813097Y-70507298D01*
X168741514Y-70263329D01*
X168486004Y-70142429D01*
X168211816Y-70073700D01*
X167929488Y-70059783D01*
X167649870Y-70101213D01*
X167383708Y-70196397D01*
X167258486Y-70263329D01*
X167186903Y-70507298D01*
X166905118Y-70507298D01*
X166889502Y-70455820D01*
X166830537Y-70345506D01*
X166751185Y-70248815D01*
X166654494Y-70169463D01*
X166544180Y-70110498D01*
X166424482Y-70074188D01*
X166300000Y-70061928D01*
X164700000Y-70061928D01*
X164575518Y-70074188D01*
X164455820Y-70110498D01*
X164345506Y-70169463D01*
X164248815Y-70248815D01*
X164169463Y-70345506D01*
X164110498Y-70455820D01*
X164074188Y-70575518D01*
X164061928Y-70700000D01*
X155945000Y-70700000D01*
X155945000Y-70513740D01*
X155887932Y-70226842D01*
X155775990Y-69956589D01*
X155613475Y-69713368D01*
X155406632Y-69506525D01*
X155163411Y-69344010D01*
X154893158Y-69232068D01*
X154606260Y-69175000D01*
X154313740Y-69175000D01*
X154026842Y-69232068D01*
X153756589Y-69344010D01*
X153513368Y-69506525D01*
X153306525Y-69713368D01*
X153190689Y-69886729D01*
X152948397Y-69811208D01*
X152099605Y-70660000D01*
X152948397Y-71508792D01*
X153190689Y-71433271D01*
X153306525Y-71606632D01*
X153513368Y-71813475D01*
X153571000Y-71851984D01*
X153571001Y-72008016D01*
X153513368Y-72046525D01*
X153306525Y-72253368D01*
X153190689Y-72426729D01*
X152948397Y-72351208D01*
X152099605Y-73200000D01*
X152948397Y-74048792D01*
X153190689Y-73973271D01*
X153306525Y-74146632D01*
X153513368Y-74353475D01*
X153571000Y-74391984D01*
X153571001Y-79358654D01*
X153520147Y-79481426D01*
X153465000Y-79758665D01*
X153465000Y-80041335D01*
X153520147Y-80318574D01*
X153628320Y-80579727D01*
X153785363Y-80814759D01*
X153829966Y-80859362D01*
X151368254Y-83321074D01*
X151334331Y-83348914D01*
X151223237Y-83484283D01*
X151140687Y-83638723D01*
X151116867Y-83717248D01*
X151091807Y-83799863D01*
X151089854Y-83806300D01*
X151076990Y-83936907D01*
X151076990Y-83936913D01*
X151072690Y-83980573D01*
X151076990Y-84024233D01*
X151076991Y-85342321D01*
X151072690Y-85385990D01*
X151089854Y-85560264D01*
X151140688Y-85727842D01*
X151223238Y-85882281D01*
X151285501Y-85958148D01*
X151334332Y-86017649D01*
X151368249Y-86045484D01*
X151869929Y-86547164D01*
X151805764Y-86758691D01*
X151778057Y-87040000D01*
X151805764Y-87321309D01*
X151887818Y-87591808D01*
X152021068Y-87841101D01*
X152200392Y-88059608D01*
X152418899Y-88238932D01*
X152551858Y-88310000D01*
X152418899Y-88381068D01*
X152200392Y-88560392D01*
X152021068Y-88778899D01*
X151887818Y-89028192D01*
X151805764Y-89298691D01*
X151778057Y-89580000D01*
X151805764Y-89861309D01*
X151887818Y-90131808D01*
X152021068Y-90381101D01*
X152200392Y-90599608D01*
X152418899Y-90778932D01*
X152551858Y-90850000D01*
X152418899Y-90921068D01*
X152200392Y-91100392D01*
X152021068Y-91318899D01*
X151887818Y-91568192D01*
X151805764Y-91838691D01*
X151795023Y-91947741D01*
X149440000Y-94302765D01*
X147944231Y-92806996D01*
X148011659Y-92751659D01*
X148039499Y-92717736D01*
X150597742Y-90159494D01*
X150631659Y-90131659D01*
X150677099Y-90076291D01*
X150742752Y-89996292D01*
X150742753Y-89996291D01*
X150825303Y-89841851D01*
X150876136Y-89674274D01*
X150876392Y-89671680D01*
X150893301Y-89500000D01*
X150889000Y-89456332D01*
X150889000Y-85203659D01*
X150893300Y-85159999D01*
X150889000Y-85116334D01*
X150889000Y-85116333D01*
X150876136Y-84985726D01*
X150876136Y-84985724D01*
X150835048Y-84850275D01*
X150825303Y-84818149D01*
X150742753Y-84663709D01*
X150631659Y-84528341D01*
X150597737Y-84500502D01*
X146168956Y-80071721D01*
X146175000Y-80041335D01*
X146175000Y-79758665D01*
X146119853Y-79481426D01*
X146011680Y-79220273D01*
X145854637Y-78985241D01*
X145654759Y-78785363D01*
X145419727Y-78628320D01*
X145158574Y-78520147D01*
X144881335Y-78465000D01*
X144598665Y-78465000D01*
X144568279Y-78471044D01*
X142199499Y-76102264D01*
X142171659Y-76068341D01*
X142036291Y-75957247D01*
X141881851Y-75874697D01*
X141714274Y-75823864D01*
X141583667Y-75811000D01*
X141583660Y-75811000D01*
X141540000Y-75806700D01*
X141496340Y-75811000D01*
X136391849Y-75811000D01*
X136374637Y-75785241D01*
X136174759Y-75585363D01*
X135939727Y-75428320D01*
X135678574Y-75320147D01*
X135401335Y-75265000D01*
X135118665Y-75265000D01*
X134841426Y-75320147D01*
X134580273Y-75428320D01*
X134345241Y-75585363D01*
X134145363Y-75785241D01*
X133988320Y-76020273D01*
X133880147Y-76281426D01*
X133825000Y-76558665D01*
X133825000Y-76841335D01*
X133880147Y-77118574D01*
X133988320Y-77379727D01*
X134145363Y-77614759D01*
X134345241Y-77814637D01*
X134580273Y-77971680D01*
X134841426Y-78079853D01*
X135118665Y-78135000D01*
X135401335Y-78135000D01*
X135678574Y-78079853D01*
X135939727Y-77971680D01*
X136174759Y-77814637D01*
X136374637Y-77614759D01*
X136391849Y-77589000D01*
X141171765Y-77589000D01*
X143311044Y-79728279D01*
X143305000Y-79758665D01*
X143305000Y-80041335D01*
X143360147Y-80318574D01*
X143468320Y-80579727D01*
X143625363Y-80814759D01*
X143825241Y-81014637D01*
X144060273Y-81171680D01*
X144321426Y-81279853D01*
X144598665Y-81335000D01*
X144881335Y-81335000D01*
X144911721Y-81328956D01*
X146644693Y-83061928D01*
X144800000Y-83061928D01*
X144675518Y-83074188D01*
X144555820Y-83110498D01*
X144445506Y-83169463D01*
X144348815Y-83248815D01*
X144269463Y-83345506D01*
X144210498Y-83455820D01*
X144174188Y-83575518D01*
X144170693Y-83611000D01*
X142831849Y-83611000D01*
X142814637Y-83585241D01*
X142614759Y-83385363D01*
X142379727Y-83228320D01*
X142118574Y-83120147D01*
X141841335Y-83065000D01*
X141558665Y-83065000D01*
X141281426Y-83120147D01*
X141020273Y-83228320D01*
X140785241Y-83385363D01*
X140585363Y-83585241D01*
X140428320Y-83820273D01*
X140320147Y-84081426D01*
X140265000Y-84358665D01*
X140265000Y-84641335D01*
X140320147Y-84918574D01*
X140428320Y-85179727D01*
X140585363Y-85414759D01*
X140785241Y-85614637D01*
X141020273Y-85771680D01*
X141281426Y-85879853D01*
X141558665Y-85935000D01*
X141841335Y-85935000D01*
X142118574Y-85879853D01*
X142379727Y-85771680D01*
X142614759Y-85614637D01*
X142814637Y-85414759D01*
X142831849Y-85389000D01*
X144170693Y-85389000D01*
X144174188Y-85424482D01*
X144210498Y-85544180D01*
X144269463Y-85654494D01*
X144348815Y-85751185D01*
X144445506Y-85830537D01*
X144555820Y-85889502D01*
X144675518Y-85925812D01*
X144693482Y-85927581D01*
X144580392Y-86020392D01*
X144473205Y-86151000D01*
X143103659Y-86151000D01*
X143059999Y-86146700D01*
X143016339Y-86151000D01*
X143016333Y-86151000D01*
X142918924Y-86160594D01*
X142885724Y-86163864D01*
X142784058Y-86194704D01*
X142718149Y-86214697D01*
X142563709Y-86297247D01*
X142428341Y-86408341D01*
X142400506Y-86442259D01*
X141871720Y-86971044D01*
X141841335Y-86965000D01*
X141558665Y-86965000D01*
X141528280Y-86971044D01*
X138459499Y-83902264D01*
X138431659Y-83868341D01*
X138296291Y-83757247D01*
X138141851Y-83674697D01*
X137974274Y-83623864D01*
X137843667Y-83611000D01*
X137843660Y-83611000D01*
X137800000Y-83606700D01*
X137756340Y-83611000D01*
X132671849Y-83611000D01*
X132654637Y-83585241D01*
X132454759Y-83385363D01*
X132389000Y-83341424D01*
X132389000Y-81731849D01*
X132414759Y-81714637D01*
X132614637Y-81514759D01*
X132771680Y-81279727D01*
X132879853Y-81018574D01*
X132935000Y-80741335D01*
X132935000Y-80458665D01*
X140225000Y-80458665D01*
X140225000Y-80741335D01*
X140280147Y-81018574D01*
X140388320Y-81279727D01*
X140545363Y-81514759D01*
X140745241Y-81714637D01*
X140980273Y-81871680D01*
X141241426Y-81979853D01*
X141518665Y-82035000D01*
X141801335Y-82035000D01*
X142078574Y-81979853D01*
X142339727Y-81871680D01*
X142574759Y-81714637D01*
X142774637Y-81514759D01*
X142931680Y-81279727D01*
X143039853Y-81018574D01*
X143095000Y-80741335D01*
X143095000Y-80458665D01*
X143039853Y-80181426D01*
X142931680Y-79920273D01*
X142774637Y-79685241D01*
X142574759Y-79485363D01*
X142339727Y-79328320D01*
X142078574Y-79220147D01*
X141801335Y-79165000D01*
X141518665Y-79165000D01*
X141241426Y-79220147D01*
X140980273Y-79328320D01*
X140745241Y-79485363D01*
X140545363Y-79685241D01*
X140388320Y-79920273D01*
X140280147Y-80181426D01*
X140225000Y-80458665D01*
X132935000Y-80458665D01*
X132879853Y-80181426D01*
X132771680Y-79920273D01*
X132614637Y-79685241D01*
X132414759Y-79485363D01*
X132179727Y-79328320D01*
X131918574Y-79220147D01*
X131641335Y-79165000D01*
X131358665Y-79165000D01*
X131081426Y-79220147D01*
X130820273Y-79328320D01*
X130585241Y-79485363D01*
X130385363Y-79685241D01*
X130228320Y-79920273D01*
X130120147Y-80181426D01*
X130065000Y-80458665D01*
X130065000Y-80741335D01*
X130120147Y-81018574D01*
X130228320Y-81279727D01*
X130385363Y-81514759D01*
X130585241Y-81714637D01*
X130611000Y-81731849D01*
X130611001Y-83399603D01*
X130425363Y-83585241D01*
X130268320Y-83820273D01*
X130160147Y-84081426D01*
X130105000Y-84358665D01*
X130105000Y-84641335D01*
X130160147Y-84918574D01*
X130268320Y-85179727D01*
X130425363Y-85414759D01*
X130625241Y-85614637D01*
X130860273Y-85771680D01*
X131121426Y-85879853D01*
X131398665Y-85935000D01*
X131681335Y-85935000D01*
X131958574Y-85879853D01*
X132219727Y-85771680D01*
X132454759Y-85614637D01*
X132654637Y-85414759D01*
X132671849Y-85389000D01*
X137431765Y-85389000D01*
X140271044Y-88228280D01*
X140265000Y-88258665D01*
X140265000Y-88541335D01*
X140320147Y-88818574D01*
X140428320Y-89079727D01*
X140585363Y-89314759D01*
X140785241Y-89514637D01*
X141020273Y-89671680D01*
X141281426Y-89779853D01*
X141558665Y-89835000D01*
X141841335Y-89835000D01*
X142118574Y-89779853D01*
X142379727Y-89671680D01*
X142614759Y-89514637D01*
X142814637Y-89314759D01*
X142971680Y-89079727D01*
X143079853Y-88818574D01*
X143135000Y-88541335D01*
X143135000Y-88258665D01*
X143128956Y-88228280D01*
X143428236Y-87929000D01*
X144473205Y-87929000D01*
X144580392Y-88059608D01*
X144798899Y-88238932D01*
X144931858Y-88310000D01*
X144798899Y-88381068D01*
X144580392Y-88560392D01*
X144401068Y-88778899D01*
X144267818Y-89028192D01*
X144185764Y-89298691D01*
X144158057Y-89580000D01*
X144185764Y-89861309D01*
X144249929Y-90072836D01*
X143748254Y-90574511D01*
X143714331Y-90602351D01*
X143603237Y-90737720D01*
X143569299Y-90801213D01*
X143520688Y-90892158D01*
X143483425Y-91015000D01*
X143469854Y-91059737D01*
X143456990Y-91190344D01*
X143456990Y-91190350D01*
X143452690Y-91234010D01*
X143456990Y-91277670D01*
X143456991Y-92962320D01*
X143452690Y-93005990D01*
X143469854Y-93180264D01*
X143520688Y-93347842D01*
X143603238Y-93502281D01*
X143682439Y-93598787D01*
X143714332Y-93637649D01*
X143748249Y-93665484D01*
X144249929Y-94167164D01*
X144185764Y-94378691D01*
X144158057Y-94660000D01*
X144185764Y-94941309D01*
X144267818Y-95211808D01*
X144401068Y-95461101D01*
X144580392Y-95679608D01*
X144798899Y-95858932D01*
X144931858Y-95930000D01*
X144798899Y-96001068D01*
X144580392Y-96180392D01*
X144473205Y-96311000D01*
X143368236Y-96311000D01*
X143128956Y-96071720D01*
X143135000Y-96041335D01*
X143135000Y-95758665D01*
X143079853Y-95481426D01*
X142971680Y-95220273D01*
X142814637Y-94985241D01*
X142614759Y-94785363D01*
X142379727Y-94628320D01*
X142118574Y-94520147D01*
X141841335Y-94465000D01*
X141558665Y-94465000D01*
X141281426Y-94520147D01*
X141020273Y-94628320D01*
X140785241Y-94785363D01*
X140585363Y-94985241D01*
X140428320Y-95220273D01*
X140320147Y-95481426D01*
X140265000Y-95758665D01*
X140265000Y-96041335D01*
X140271044Y-96071720D01*
X137531765Y-98811000D01*
X132671849Y-98811000D01*
X132654637Y-98785241D01*
X132454759Y-98585363D01*
X132219727Y-98428320D01*
X131958574Y-98320147D01*
X131681335Y-98265000D01*
X131398665Y-98265000D01*
X131121426Y-98320147D01*
X130860273Y-98428320D01*
X130625241Y-98585363D01*
X130425363Y-98785241D01*
X130268320Y-99020273D01*
X130160147Y-99281426D01*
X130105000Y-99558665D01*
X130105000Y-99841335D01*
X130160147Y-100118574D01*
X130190147Y-100191000D01*
X126331983Y-100191000D01*
X126293475Y-100133368D01*
X126086632Y-99926525D01*
X125912240Y-99810000D01*
X126086632Y-99693475D01*
X126293475Y-99486632D01*
X126331983Y-99429000D01*
X128856340Y-99429000D01*
X128900000Y-99433300D01*
X128943660Y-99429000D01*
X128943667Y-99429000D01*
X129074274Y-99416136D01*
X129241851Y-99365303D01*
X129396291Y-99282753D01*
X129531659Y-99171659D01*
X129559499Y-99137736D01*
X131368280Y-97328956D01*
X131398665Y-97335000D01*
X131681335Y-97335000D01*
X131958574Y-97279853D01*
X132219727Y-97171680D01*
X132454759Y-97014637D01*
X132654637Y-96814759D01*
X132811680Y-96579727D01*
X132919853Y-96318574D01*
X132975000Y-96041335D01*
X132975000Y-95758665D01*
X132919853Y-95481426D01*
X132811680Y-95220273D01*
X132654637Y-94985241D01*
X132454759Y-94785363D01*
X132219727Y-94628320D01*
X131958574Y-94520147D01*
X131681335Y-94465000D01*
X131398665Y-94465000D01*
X131121426Y-94520147D01*
X130860273Y-94628320D01*
X130625241Y-94785363D01*
X130425363Y-94985241D01*
X130268320Y-95220273D01*
X130160147Y-95481426D01*
X130105000Y-95758665D01*
X130105000Y-96041335D01*
X130111044Y-96071720D01*
X128531765Y-97651000D01*
X126331983Y-97651000D01*
X126293475Y-97593368D01*
X126086632Y-97386525D01*
X125912240Y-97270000D01*
X126086632Y-97153475D01*
X126293475Y-96946632D01*
X126455990Y-96703411D01*
X126567932Y-96433158D01*
X126625000Y-96146260D01*
X126625000Y-95853740D01*
X126611477Y-95785758D01*
X129204533Y-93192702D01*
X136386903Y-93192702D01*
X136458486Y-93436671D01*
X136713996Y-93557571D01*
X136988184Y-93626300D01*
X137270512Y-93640217D01*
X137550130Y-93598787D01*
X137816292Y-93503603D01*
X137941514Y-93436671D01*
X138013097Y-93192702D01*
X137200000Y-92379605D01*
X136386903Y-93192702D01*
X129204533Y-93192702D01*
X130126723Y-92270512D01*
X135759783Y-92270512D01*
X135801213Y-92550130D01*
X135896397Y-92816292D01*
X135963329Y-92941514D01*
X136207298Y-93013097D01*
X137020395Y-92200000D01*
X137379605Y-92200000D01*
X138192702Y-93013097D01*
X138436671Y-92941514D01*
X138450324Y-92912659D01*
X138585363Y-93114759D01*
X138785241Y-93314637D01*
X139020273Y-93471680D01*
X139281426Y-93579853D01*
X139558665Y-93635000D01*
X139841335Y-93635000D01*
X140118574Y-93579853D01*
X140379727Y-93471680D01*
X140614759Y-93314637D01*
X140814637Y-93114759D01*
X140971680Y-92879727D01*
X141079853Y-92618574D01*
X141135000Y-92341335D01*
X141135000Y-92058665D01*
X141079853Y-91781426D01*
X140971680Y-91520273D01*
X140814637Y-91285241D01*
X140614759Y-91085363D01*
X140379727Y-90928320D01*
X140118574Y-90820147D01*
X139841335Y-90765000D01*
X139558665Y-90765000D01*
X139281426Y-90820147D01*
X139020273Y-90928320D01*
X138785241Y-91085363D01*
X138585363Y-91285241D01*
X138451308Y-91485869D01*
X138436671Y-91458486D01*
X138192702Y-91386903D01*
X137379605Y-92200000D01*
X137020395Y-92200000D01*
X136207298Y-91386903D01*
X135963329Y-91458486D01*
X135842429Y-91713996D01*
X135773700Y-91988184D01*
X135759783Y-92270512D01*
X130126723Y-92270512D01*
X131189937Y-91207298D01*
X136386903Y-91207298D01*
X137200000Y-92020395D01*
X138013097Y-91207298D01*
X137941514Y-90963329D01*
X137686004Y-90842429D01*
X137411816Y-90773700D01*
X137129488Y-90759783D01*
X136849870Y-90801213D01*
X136583708Y-90896397D01*
X136458486Y-90963329D01*
X136386903Y-91207298D01*
X131189937Y-91207298D01*
X132137743Y-90259493D01*
X132171659Y-90231659D01*
X132215909Y-90177741D01*
X132282752Y-90096292D01*
X132282754Y-90096290D01*
X132365303Y-89941851D01*
X132416136Y-89774274D01*
X132429000Y-89643667D01*
X132429000Y-89643660D01*
X132433300Y-89600000D01*
X132429000Y-89556340D01*
X132429000Y-89531849D01*
X132454759Y-89514637D01*
X132654637Y-89314759D01*
X132811680Y-89079727D01*
X132919853Y-88818574D01*
X132975000Y-88541335D01*
X132975000Y-88258665D01*
X132919853Y-87981426D01*
X132811680Y-87720273D01*
X132654637Y-87485241D01*
X132454759Y-87285363D01*
X132219727Y-87128320D01*
X131958574Y-87020147D01*
X131681335Y-86965000D01*
X131398665Y-86965000D01*
X131121426Y-87020147D01*
X130860273Y-87128320D01*
X130625241Y-87285363D01*
X130425363Y-87485241D01*
X130268320Y-87720273D01*
X130160147Y-87981426D01*
X130105000Y-88258665D01*
X130105000Y-88541335D01*
X130160147Y-88818574D01*
X130268320Y-89079727D01*
X130425363Y-89314759D01*
X130496684Y-89386080D01*
X125354242Y-94528523D01*
X125286260Y-94515000D01*
X124993740Y-94515000D01*
X124706842Y-94572068D01*
X124436589Y-94684010D01*
X124193368Y-94846525D01*
X124006285Y-95033608D01*
X123938405Y-94906614D01*
X123827962Y-94772038D01*
X123693386Y-94661595D01*
X123539850Y-94579528D01*
X123373254Y-94528992D01*
X123200000Y-94511928D01*
X122000000Y-94511928D01*
X121826746Y-94528992D01*
X121660150Y-94579528D01*
X121506614Y-94661595D01*
X121372038Y-94772038D01*
X121261595Y-94906614D01*
X121179528Y-95060150D01*
X121128992Y-95226746D01*
X121111928Y-95400000D01*
X121111928Y-96600000D01*
X121128992Y-96773254D01*
X121179528Y-96939850D01*
X121261595Y-97093386D01*
X121372038Y-97227962D01*
X121506614Y-97338405D01*
X121633608Y-97406285D01*
X121446525Y-97593368D01*
X121284010Y-97836589D01*
X121172068Y-98106842D01*
X121115000Y-98393740D01*
X121115000Y-98686260D01*
X121172068Y-98973158D01*
X121284010Y-99243411D01*
X121446525Y-99486632D01*
X121653368Y-99693475D01*
X121827760Y-99810000D01*
X121653368Y-99926525D01*
X121446525Y-100133368D01*
X121284010Y-100376589D01*
X121172068Y-100646842D01*
X121115000Y-100933740D01*
X121115000Y-101226260D01*
X121172068Y-101513158D01*
X121284010Y-101783411D01*
X121446525Y-102026632D01*
X121653368Y-102233475D01*
X121827760Y-102350000D01*
X121653368Y-102466525D01*
X121446525Y-102673368D01*
X121284010Y-102916589D01*
X121172068Y-103186842D01*
X121115000Y-103473740D01*
X121115000Y-103766260D01*
X121172068Y-104053158D01*
X121284010Y-104323411D01*
X121446525Y-104566632D01*
X121653368Y-104773475D01*
X121827760Y-104890000D01*
X121653368Y-105006525D01*
X121446525Y-105213368D01*
X121284010Y-105456589D01*
X121172068Y-105726842D01*
X121115000Y-106013740D01*
X121115000Y-106306260D01*
X121172068Y-106593158D01*
X121284010Y-106863411D01*
X121446525Y-107106632D01*
X121653368Y-107313475D01*
X121827760Y-107430000D01*
X121653368Y-107546525D01*
X121446525Y-107753368D01*
X121284010Y-107996589D01*
X121172068Y-108266842D01*
X121115000Y-108553740D01*
X121115000Y-108846260D01*
X121172068Y-109133158D01*
X121284010Y-109403411D01*
X121446525Y-109646632D01*
X121653368Y-109853475D01*
X121827760Y-109970000D01*
X121653368Y-110086525D01*
X121446525Y-110293368D01*
X121284010Y-110536589D01*
X121172068Y-110806842D01*
X121115000Y-111093740D01*
X121115000Y-111386260D01*
X121172068Y-111673158D01*
X121284010Y-111943411D01*
X121446525Y-112186632D01*
X121653368Y-112393475D01*
X121827760Y-112510000D01*
X121653368Y-112626525D01*
X121446525Y-112833368D01*
X121284010Y-113076589D01*
X121172068Y-113346842D01*
X121115000Y-113633740D01*
X121115000Y-113926260D01*
X121172068Y-114213158D01*
X121284010Y-114483411D01*
X121446525Y-114726632D01*
X121653368Y-114933475D01*
X121896589Y-115095990D01*
X122166842Y-115207932D01*
X122453740Y-115265000D01*
X122746260Y-115265000D01*
X123033158Y-115207932D01*
X123303411Y-115095990D01*
X123546632Y-114933475D01*
X123753475Y-114726632D01*
X123791983Y-114669000D01*
X123948017Y-114669000D01*
X123986525Y-114726632D01*
X124193368Y-114933475D01*
X124436589Y-115095990D01*
X124706842Y-115207932D01*
X124993740Y-115265000D01*
X125286260Y-115265000D01*
X125573158Y-115207932D01*
X125843411Y-115095990D01*
X126086632Y-114933475D01*
X126293475Y-114726632D01*
X126455990Y-114483411D01*
X126567932Y-114213158D01*
X126615713Y-113972949D01*
X127980980Y-115338216D01*
X127980979Y-122442241D01*
X127976679Y-122485901D01*
X127980979Y-122529561D01*
X127980979Y-122529567D01*
X127993843Y-122660174D01*
X128044676Y-122827751D01*
X128127226Y-122982191D01*
X128238320Y-123117560D01*
X128272243Y-123145400D01*
X130378580Y-125251737D01*
X130406420Y-125285660D01*
X130541788Y-125396754D01*
X130696228Y-125479304D01*
X130762137Y-125499297D01*
X130863803Y-125530137D01*
X130897003Y-125533407D01*
X130994412Y-125543001D01*
X130994418Y-125543001D01*
X131038078Y-125547301D01*
X131081738Y-125543001D01*
X138399764Y-125543001D01*
X137631765Y-126311000D01*
X132771849Y-126311000D01*
X132754637Y-126285241D01*
X132554759Y-126085363D01*
X132319727Y-125928320D01*
X132058574Y-125820147D01*
X131781335Y-125765000D01*
X131498665Y-125765000D01*
X131221426Y-125820147D01*
X130960273Y-125928320D01*
X130725241Y-126085363D01*
X130525363Y-126285241D01*
X130368320Y-126520273D01*
X130260147Y-126781426D01*
X130205000Y-127058665D01*
X130205000Y-127341335D01*
X130260147Y-127618574D01*
X130368320Y-127879727D01*
X130525363Y-128114759D01*
X130725241Y-128314637D01*
X130751000Y-128331849D01*
X130751001Y-129841424D01*
X130685241Y-129885363D01*
X130485363Y-130085241D01*
X130328320Y-130320273D01*
X130220147Y-130581426D01*
X130165000Y-130858665D01*
X130165000Y-131141335D01*
X130220147Y-131418574D01*
X130328320Y-131679727D01*
X130485363Y-131914759D01*
X130685241Y-132114637D01*
X130920273Y-132271680D01*
X131085212Y-132340000D01*
X118160000Y-132340000D01*
X118160000Y-73344001D01*
X120002699Y-73344001D01*
X120006999Y-73387661D01*
X120007000Y-84552329D01*
X120002699Y-84595999D01*
X120019863Y-84770273D01*
X120070697Y-84937851D01*
X120153247Y-85092290D01*
X120218902Y-85172290D01*
X120264341Y-85227658D01*
X120298258Y-85255493D01*
X120711928Y-85669163D01*
X120711928Y-86750000D01*
X120724188Y-86874482D01*
X120760498Y-86994180D01*
X120819463Y-87104494D01*
X120898815Y-87201185D01*
X120995506Y-87280537D01*
X121105820Y-87339502D01*
X121225518Y-87375812D01*
X121350000Y-87388072D01*
X123050000Y-87388072D01*
X123174482Y-87375812D01*
X123294180Y-87339502D01*
X123404494Y-87280537D01*
X123501185Y-87201185D01*
X123580537Y-87104494D01*
X123639502Y-86994180D01*
X123675812Y-86874482D01*
X123688072Y-86750000D01*
X123688072Y-85050000D01*
X123678456Y-84952368D01*
X123753246Y-85092289D01*
X123864340Y-85227658D01*
X123898263Y-85255498D01*
X124311928Y-85669163D01*
X124311928Y-86750000D01*
X124324188Y-86874482D01*
X124360498Y-86994180D01*
X124419463Y-87104494D01*
X124498815Y-87201185D01*
X124595506Y-87280537D01*
X124705820Y-87339502D01*
X124825518Y-87375812D01*
X124950000Y-87388072D01*
X126650000Y-87388072D01*
X126774482Y-87375812D01*
X126894180Y-87339502D01*
X127004494Y-87280537D01*
X127101185Y-87201185D01*
X127180537Y-87104494D01*
X127239502Y-86994180D01*
X127275812Y-86874482D01*
X127288072Y-86750000D01*
X127288072Y-85050000D01*
X127275812Y-84925518D01*
X127239502Y-84805820D01*
X127180537Y-84695506D01*
X127101185Y-84598815D01*
X127004494Y-84519463D01*
X126894180Y-84460498D01*
X126821620Y-84438487D01*
X126953475Y-84306632D01*
X127115990Y-84063411D01*
X127227932Y-83793158D01*
X127285000Y-83506260D01*
X127285000Y-83213740D01*
X127227932Y-82926842D01*
X127115990Y-82656589D01*
X126953475Y-82413368D01*
X126746632Y-82206525D01*
X126564466Y-82084805D01*
X126681355Y-82015178D01*
X126897588Y-81820269D01*
X127071641Y-81586920D01*
X127196825Y-81324099D01*
X127241476Y-81176890D01*
X127120155Y-80947000D01*
X125927000Y-80947000D01*
X125927000Y-80967000D01*
X125673000Y-80967000D01*
X125673000Y-80947000D01*
X125653000Y-80947000D01*
X125653000Y-80693000D01*
X125673000Y-80693000D01*
X125673000Y-79499186D01*
X125927000Y-79499186D01*
X125927000Y-80693000D01*
X127120155Y-80693000D01*
X127241476Y-80463110D01*
X127196825Y-80315901D01*
X127071641Y-80053080D01*
X126897588Y-79819731D01*
X126681355Y-79624822D01*
X126431252Y-79475843D01*
X126156891Y-79378519D01*
X125927000Y-79499186D01*
X125673000Y-79499186D01*
X125443109Y-79378519D01*
X125384999Y-79399132D01*
X125384999Y-78106423D01*
X125518574Y-78079853D01*
X125779727Y-77971680D01*
X126014759Y-77814637D01*
X126214637Y-77614759D01*
X126371680Y-77379727D01*
X126479853Y-77118574D01*
X126535000Y-76841335D01*
X126535000Y-76558665D01*
X126479853Y-76281426D01*
X126371680Y-76020273D01*
X126214637Y-75785241D01*
X126014759Y-75585363D01*
X125989000Y-75568151D01*
X125989000Y-74058576D01*
X126054759Y-74014637D01*
X126176694Y-73892702D01*
X134486903Y-73892702D01*
X134558486Y-74136671D01*
X134813996Y-74257571D01*
X135088184Y-74326300D01*
X135370512Y-74340217D01*
X135650130Y-74298787D01*
X135916292Y-74203603D01*
X136041514Y-74136671D01*
X136113097Y-73892702D01*
X135300000Y-73079605D01*
X134486903Y-73892702D01*
X126176694Y-73892702D01*
X126254637Y-73814759D01*
X126411680Y-73579727D01*
X126519853Y-73318574D01*
X126575000Y-73041335D01*
X126575000Y-72970512D01*
X133859783Y-72970512D01*
X133901213Y-73250130D01*
X133996397Y-73516292D01*
X134063329Y-73641514D01*
X134307298Y-73713097D01*
X135120395Y-72900000D01*
X135479605Y-72900000D01*
X136292702Y-73713097D01*
X136536671Y-73641514D01*
X136657571Y-73386004D01*
X136726300Y-73111816D01*
X136740217Y-72829488D01*
X136698787Y-72549870D01*
X136603603Y-72283708D01*
X136536671Y-72158486D01*
X136292702Y-72086903D01*
X135479605Y-72900000D01*
X135120395Y-72900000D01*
X134307298Y-72086903D01*
X134063329Y-72158486D01*
X133942429Y-72413996D01*
X133873700Y-72688184D01*
X133859783Y-72970512D01*
X126575000Y-72970512D01*
X126575000Y-72758665D01*
X126519853Y-72481426D01*
X126411680Y-72220273D01*
X126254637Y-71985241D01*
X126176694Y-71907298D01*
X134486903Y-71907298D01*
X135300000Y-72720395D01*
X136113097Y-71907298D01*
X136041514Y-71663329D01*
X135786004Y-71542429D01*
X135511816Y-71473700D01*
X135229488Y-71459783D01*
X134949870Y-71501213D01*
X134683708Y-71596397D01*
X134558486Y-71663329D01*
X134486903Y-71907298D01*
X126176694Y-71907298D01*
X126054759Y-71785363D01*
X125819727Y-71628320D01*
X125558574Y-71520147D01*
X125281335Y-71465000D01*
X124998665Y-71465000D01*
X124721426Y-71520147D01*
X124460273Y-71628320D01*
X124225241Y-71785363D01*
X124025363Y-71985241D01*
X123868320Y-72220273D01*
X123760147Y-72481426D01*
X123705000Y-72758665D01*
X123705000Y-73041335D01*
X123760147Y-73318574D01*
X123868320Y-73579727D01*
X124025363Y-73814759D01*
X124211001Y-74000397D01*
X124211000Y-75568151D01*
X124185241Y-75585363D01*
X123985363Y-75785241D01*
X123828320Y-76020273D01*
X123720147Y-76281426D01*
X123665000Y-76558665D01*
X123665000Y-76841335D01*
X123684059Y-76937150D01*
X123670697Y-76962149D01*
X123619863Y-77129727D01*
X123602699Y-77304001D01*
X123607000Y-77347671D01*
X123607000Y-80349445D01*
X123596825Y-80315901D01*
X123471641Y-80053080D01*
X123297588Y-79819731D01*
X123081355Y-79624822D01*
X122831252Y-79475843D01*
X122556891Y-79378519D01*
X122327000Y-79499186D01*
X122327000Y-80693000D01*
X122347000Y-80693000D01*
X122347000Y-80947000D01*
X122327000Y-80947000D01*
X122327000Y-80967000D01*
X122073000Y-80967000D01*
X122073000Y-80947000D01*
X122053000Y-80947000D01*
X122053000Y-80693000D01*
X122073000Y-80693000D01*
X122073000Y-79499186D01*
X121843109Y-79378519D01*
X121784999Y-79399132D01*
X121784999Y-73712236D01*
X124968280Y-70528956D01*
X124998665Y-70535000D01*
X125281335Y-70535000D01*
X125558574Y-70479853D01*
X125819727Y-70371680D01*
X126054759Y-70214637D01*
X126254637Y-70014759D01*
X126411680Y-69779727D01*
X126519853Y-69518574D01*
X126575000Y-69241335D01*
X126575000Y-68958665D01*
X133865000Y-68958665D01*
X133865000Y-69241335D01*
X133920147Y-69518574D01*
X134028320Y-69779727D01*
X134185363Y-70014759D01*
X134385241Y-70214637D01*
X134620273Y-70371680D01*
X134881426Y-70479853D01*
X135158665Y-70535000D01*
X135441335Y-70535000D01*
X135718574Y-70479853D01*
X135979727Y-70371680D01*
X136214759Y-70214637D01*
X136414637Y-70014759D01*
X136431849Y-69989000D01*
X142371765Y-69989000D01*
X142828523Y-70445758D01*
X142815000Y-70513740D01*
X142815000Y-70806260D01*
X142872068Y-71093158D01*
X142984010Y-71363411D01*
X143146525Y-71606632D01*
X143333608Y-71793715D01*
X143206614Y-71861595D01*
X143072038Y-71972038D01*
X142961595Y-72106614D01*
X142879528Y-72260150D01*
X142828992Y-72426746D01*
X142811928Y-72600000D01*
X142811928Y-73800000D01*
X142828992Y-73973254D01*
X142879528Y-74139850D01*
X142961595Y-74293386D01*
X143072038Y-74427962D01*
X143206614Y-74538405D01*
X143360150Y-74620472D01*
X143526746Y-74671008D01*
X143700000Y-74688072D01*
X144900000Y-74688072D01*
X145073254Y-74671008D01*
X145239850Y-74620472D01*
X145393386Y-74538405D01*
X145527962Y-74427962D01*
X145638405Y-74293386D01*
X145673142Y-74228397D01*
X145991208Y-74228397D01*
X146068843Y-74477472D01*
X146332883Y-74603371D01*
X146616411Y-74675339D01*
X146908531Y-74690611D01*
X147198019Y-74648599D01*
X147473747Y-74550919D01*
X147611157Y-74477472D01*
X147688792Y-74228397D01*
X148531208Y-74228397D01*
X148608843Y-74477472D01*
X148872883Y-74603371D01*
X149156411Y-74675339D01*
X149448531Y-74690611D01*
X149738019Y-74648599D01*
X150013747Y-74550919D01*
X150151157Y-74477472D01*
X150228792Y-74228397D01*
X151071208Y-74228397D01*
X151148843Y-74477472D01*
X151412883Y-74603371D01*
X151696411Y-74675339D01*
X151988531Y-74690611D01*
X152278019Y-74648599D01*
X152553747Y-74550919D01*
X152691157Y-74477472D01*
X152768792Y-74228397D01*
X151920000Y-73379605D01*
X151071208Y-74228397D01*
X150228792Y-74228397D01*
X149380000Y-73379605D01*
X148531208Y-74228397D01*
X147688792Y-74228397D01*
X146840000Y-73379605D01*
X145991208Y-74228397D01*
X145673142Y-74228397D01*
X145720472Y-74139850D01*
X145753580Y-74030707D01*
X145811603Y-74048792D01*
X146660395Y-73200000D01*
X147019605Y-73200000D01*
X147868397Y-74048792D01*
X148110000Y-73973486D01*
X148351603Y-74048792D01*
X149200395Y-73200000D01*
X149559605Y-73200000D01*
X150408397Y-74048792D01*
X150650000Y-73973486D01*
X150891603Y-74048792D01*
X151740395Y-73200000D01*
X150891603Y-72351208D01*
X150650000Y-72426514D01*
X150408397Y-72351208D01*
X149559605Y-73200000D01*
X149200395Y-73200000D01*
X148351603Y-72351208D01*
X148110000Y-72426514D01*
X147868397Y-72351208D01*
X147019605Y-73200000D01*
X146660395Y-73200000D01*
X145811603Y-72351208D01*
X145753580Y-72369293D01*
X145720472Y-72260150D01*
X145638405Y-72106614D01*
X145527962Y-71972038D01*
X145393386Y-71861595D01*
X145266392Y-71793715D01*
X145371710Y-71688397D01*
X145991208Y-71688397D01*
X146066514Y-71930000D01*
X145991208Y-72171603D01*
X146840000Y-73020395D01*
X147688792Y-72171603D01*
X147613486Y-71930000D01*
X147688792Y-71688397D01*
X148531208Y-71688397D01*
X148606514Y-71930000D01*
X148531208Y-72171603D01*
X149380000Y-73020395D01*
X150228792Y-72171603D01*
X150153486Y-71930000D01*
X150228792Y-71688397D01*
X151071208Y-71688397D01*
X151146514Y-71930000D01*
X151071208Y-72171603D01*
X151920000Y-73020395D01*
X152768792Y-72171603D01*
X152693486Y-71930000D01*
X152768792Y-71688397D01*
X151920000Y-70839605D01*
X151071208Y-71688397D01*
X150228792Y-71688397D01*
X149380000Y-70839605D01*
X148531208Y-71688397D01*
X147688792Y-71688397D01*
X146840000Y-70839605D01*
X145991208Y-71688397D01*
X145371710Y-71688397D01*
X145453475Y-71606632D01*
X145569311Y-71433271D01*
X145811603Y-71508792D01*
X146660395Y-70660000D01*
X147019605Y-70660000D01*
X147868397Y-71508792D01*
X148110000Y-71433486D01*
X148351603Y-71508792D01*
X149200395Y-70660000D01*
X149559605Y-70660000D01*
X150408397Y-71508792D01*
X150650000Y-71433486D01*
X150891603Y-71508792D01*
X151740395Y-70660000D01*
X150891603Y-69811208D01*
X150650000Y-69886514D01*
X150408397Y-69811208D01*
X149559605Y-70660000D01*
X149200395Y-70660000D01*
X148351603Y-69811208D01*
X148110000Y-69886514D01*
X147868397Y-69811208D01*
X147019605Y-70660000D01*
X146660395Y-70660000D01*
X145811603Y-69811208D01*
X145569311Y-69886729D01*
X145453475Y-69713368D01*
X145371710Y-69631603D01*
X145991208Y-69631603D01*
X146840000Y-70480395D01*
X147688792Y-69631603D01*
X148531208Y-69631603D01*
X149380000Y-70480395D01*
X150228792Y-69631603D01*
X151071208Y-69631603D01*
X151920000Y-70480395D01*
X152768792Y-69631603D01*
X152691157Y-69382528D01*
X152427117Y-69256629D01*
X152143589Y-69184661D01*
X151851469Y-69169389D01*
X151561981Y-69211401D01*
X151286253Y-69309081D01*
X151148843Y-69382528D01*
X151071208Y-69631603D01*
X150228792Y-69631603D01*
X150151157Y-69382528D01*
X149887117Y-69256629D01*
X149603589Y-69184661D01*
X149311469Y-69169389D01*
X149021981Y-69211401D01*
X148746253Y-69309081D01*
X148608843Y-69382528D01*
X148531208Y-69631603D01*
X147688792Y-69631603D01*
X147611157Y-69382528D01*
X147347117Y-69256629D01*
X147063589Y-69184661D01*
X146771469Y-69169389D01*
X146481981Y-69211401D01*
X146206253Y-69309081D01*
X146068843Y-69382528D01*
X145991208Y-69631603D01*
X145371710Y-69631603D01*
X145246632Y-69506525D01*
X145003411Y-69344010D01*
X144733158Y-69232068D01*
X144446260Y-69175000D01*
X144153740Y-69175000D01*
X144085758Y-69188523D01*
X143399499Y-68502264D01*
X143371659Y-68468341D01*
X143236291Y-68357247D01*
X143081851Y-68274697D01*
X142914274Y-68223864D01*
X142783667Y-68211000D01*
X142783660Y-68211000D01*
X142740000Y-68206700D01*
X142696340Y-68211000D01*
X136431849Y-68211000D01*
X136414637Y-68185241D01*
X136214759Y-67985363D01*
X135979727Y-67828320D01*
X135718574Y-67720147D01*
X135441335Y-67665000D01*
X135158665Y-67665000D01*
X134881426Y-67720147D01*
X134620273Y-67828320D01*
X134385241Y-67985363D01*
X134185363Y-68185241D01*
X134028320Y-68420273D01*
X133920147Y-68681426D01*
X133865000Y-68958665D01*
X126575000Y-68958665D01*
X126519853Y-68681426D01*
X126411680Y-68420273D01*
X126254637Y-68185241D01*
X126054759Y-67985363D01*
X125819727Y-67828320D01*
X125558574Y-67720147D01*
X125281335Y-67665000D01*
X124998665Y-67665000D01*
X124721426Y-67720147D01*
X124460273Y-67828320D01*
X124225241Y-67985363D01*
X124025363Y-68185241D01*
X123868320Y-68420273D01*
X123760147Y-68681426D01*
X123705000Y-68958665D01*
X123705000Y-69241335D01*
X123711044Y-69271720D01*
X120298263Y-72684502D01*
X120264340Y-72712342D01*
X120153246Y-72847711D01*
X120070696Y-73002151D01*
X120058810Y-73041335D01*
X120031469Y-73131469D01*
X120019863Y-73169728D01*
X120006999Y-73300335D01*
X120006999Y-73300341D01*
X120002699Y-73344001D01*
X118160000Y-73344001D01*
X118160000Y-67160000D01*
X181340001Y-67160000D01*
X181340000Y-132340000D01*
G37*
%TD.AperFunction*%
D22*
X171436428Y-114377742D02*
X171464263Y-114411659D01*
X171599631Y-114522753D01*
X171754071Y-114605303D01*
X171806837Y-114621309D01*
X171921646Y-114656136D01*
X171954846Y-114659406D01*
X172052255Y-114669000D01*
X172052261Y-114669000D01*
X172095921Y-114673300D01*
X172139581Y-114669000D01*
X173608017Y-114669000D01*
X173646525Y-114726632D01*
X173853368Y-114933475D01*
X174096589Y-115095990D01*
X174366842Y-115207932D01*
X174653740Y-115265000D01*
X174946260Y-115265000D01*
X175233158Y-115207932D01*
X175503411Y-115095990D01*
X175746632Y-114933475D01*
X175953475Y-114726632D01*
X175991983Y-114669000D01*
X176148017Y-114669000D01*
X176186525Y-114726632D01*
X176393368Y-114933475D01*
X176636589Y-115095990D01*
X176906842Y-115207932D01*
X177193740Y-115265000D01*
X177486260Y-115265000D01*
X177755001Y-115211544D01*
X177755002Y-118103684D01*
X169433652Y-126425035D01*
X169431680Y-126420273D01*
X169274637Y-126185241D01*
X169074759Y-125985363D01*
X168839727Y-125828320D01*
X168578574Y-125720147D01*
X168301335Y-125665000D01*
X168018665Y-125665000D01*
X167988280Y-125671044D01*
X165352234Y-123034999D01*
X166537764Y-123034999D01*
X166731044Y-123228280D01*
X166725000Y-123258665D01*
X166725000Y-123541335D01*
X166780147Y-123818574D01*
X166888320Y-124079727D01*
X167045363Y-124314759D01*
X167245241Y-124514637D01*
X167480273Y-124671680D01*
X167741426Y-124779853D01*
X168018665Y-124835000D01*
X168301335Y-124835000D01*
X168578574Y-124779853D01*
X168839727Y-124671680D01*
X169074759Y-124514637D01*
X169274637Y-124314759D01*
X169431680Y-124079727D01*
X169539853Y-123818574D01*
X169595000Y-123541335D01*
X169595000Y-123258665D01*
X169539853Y-122981426D01*
X169431680Y-122720273D01*
X169274637Y-122485241D01*
X169074759Y-122285363D01*
X168839727Y-122128320D01*
X168578574Y-122020147D01*
X168301335Y-121965000D01*
X168018665Y-121965000D01*
X167988280Y-121971044D01*
X167565498Y-121548263D01*
X167537658Y-121514340D01*
X167402290Y-121403246D01*
X167247850Y-121320696D01*
X167080273Y-121269863D01*
X166949666Y-121256999D01*
X166949659Y-121256999D01*
X166905999Y-121252699D01*
X166862339Y-121256999D01*
X157441738Y-121256999D01*
X157398078Y-121252699D01*
X157354418Y-121256999D01*
X157354412Y-121256999D01*
X157257003Y-121266593D01*
X157223803Y-121269863D01*
X157122137Y-121300703D01*
X157056228Y-121320696D01*
X156901788Y-121403246D01*
X156766420Y-121514340D01*
X156738584Y-121548258D01*
X155929853Y-122356990D01*
X155399145Y-122356990D01*
X155434236Y-122241309D01*
X155461943Y-121960000D01*
X155434236Y-121678691D01*
X155370071Y-121467164D01*
X155871746Y-120965489D01*
X155905669Y-120937649D01*
X156016763Y-120802281D01*
X156099313Y-120647841D01*
X156136576Y-120525000D01*
X156150146Y-120480266D01*
X156160402Y-120376136D01*
X156163010Y-120349657D01*
X156163010Y-120349651D01*
X156167310Y-120305991D01*
X156163010Y-120262331D01*
X156163010Y-119258665D01*
X158565000Y-119258665D01*
X158565000Y-119541335D01*
X158620147Y-119818574D01*
X158728320Y-120079727D01*
X158885363Y-120314759D01*
X159085241Y-120514637D01*
X159320273Y-120671680D01*
X159581426Y-120779853D01*
X159858665Y-120835000D01*
X160141335Y-120835000D01*
X160418574Y-120779853D01*
X160679727Y-120671680D01*
X160914759Y-120514637D01*
X161036694Y-120392702D01*
X161686903Y-120392702D01*
X161758486Y-120636671D01*
X162013996Y-120757571D01*
X162288184Y-120826300D01*
X162570512Y-120840217D01*
X162850130Y-120798787D01*
X163116292Y-120703603D01*
X163241514Y-120636671D01*
X163313097Y-120392702D01*
X162500000Y-119579605D01*
X161686903Y-120392702D01*
X161036694Y-120392702D01*
X161114637Y-120314759D01*
X161248692Y-120114131D01*
X161263329Y-120141514D01*
X161507298Y-120213097D01*
X162320395Y-119400000D01*
X162679605Y-119400000D01*
X163492702Y-120213097D01*
X163736671Y-120141514D01*
X163857571Y-119886004D01*
X163926300Y-119611816D01*
X163940217Y-119329488D01*
X163898787Y-119049870D01*
X163803603Y-118783708D01*
X163736671Y-118658486D01*
X163492702Y-118586903D01*
X162679605Y-119400000D01*
X162320395Y-119400000D01*
X161507298Y-118586903D01*
X161263329Y-118658486D01*
X161249676Y-118687341D01*
X161114637Y-118485241D01*
X161036694Y-118407298D01*
X161686903Y-118407298D01*
X162500000Y-119220395D01*
X163313097Y-118407298D01*
X163241514Y-118163329D01*
X162986004Y-118042429D01*
X162711816Y-117973700D01*
X162429488Y-117959783D01*
X162149870Y-118001213D01*
X161883708Y-118096397D01*
X161758486Y-118163329D01*
X161686903Y-118407298D01*
X161036694Y-118407298D01*
X160914759Y-118285363D01*
X160679727Y-118128320D01*
X160418574Y-118020147D01*
X160141335Y-117965000D01*
X159858665Y-117965000D01*
X159581426Y-118020147D01*
X159320273Y-118128320D01*
X159085241Y-118285363D01*
X158885363Y-118485241D01*
X158728320Y-118720273D01*
X158620147Y-118981426D01*
X158565000Y-119258665D01*
X156163010Y-119258665D01*
X156163010Y-118577669D01*
X156167310Y-118534009D01*
X156163010Y-118490344D01*
X156163010Y-118490343D01*
X156150146Y-118359736D01*
X156150146Y-118359734D01*
X156105387Y-118212182D01*
X156099313Y-118192159D01*
X156016763Y-118037719D01*
X155905669Y-117902351D01*
X155871747Y-117874512D01*
X155370071Y-117372836D01*
X155434236Y-117161309D01*
X155461943Y-116880000D01*
X155434236Y-116598691D01*
X155352182Y-116328192D01*
X155218932Y-116078899D01*
X155039608Y-115860392D01*
X154821101Y-115681068D01*
X154688142Y-115610000D01*
X154821101Y-115538932D01*
X155039608Y-115359608D01*
X155146795Y-115229000D01*
X156471765Y-115229000D01*
X156571044Y-115328279D01*
X156565000Y-115358665D01*
X156565000Y-115641335D01*
X156620147Y-115918574D01*
X156728320Y-116179727D01*
X156885363Y-116414759D01*
X157085241Y-116614637D01*
X157320273Y-116771680D01*
X157581426Y-116879853D01*
X157858665Y-116935000D01*
X158141335Y-116935000D01*
X158418574Y-116879853D01*
X158679727Y-116771680D01*
X158914759Y-116614637D01*
X159114637Y-116414759D01*
X159131849Y-116389000D01*
X164316340Y-116389000D01*
X164360000Y-116393300D01*
X164403660Y-116389000D01*
X164403667Y-116389000D01*
X164534274Y-116376136D01*
X164701851Y-116325303D01*
X164856291Y-116242753D01*
X164991659Y-116131659D01*
X165019499Y-116097736D01*
X165758570Y-115358665D01*
X166725000Y-115358665D01*
X166725000Y-115641335D01*
X166780147Y-115918574D01*
X166888320Y-116179727D01*
X167045363Y-116414759D01*
X167245241Y-116614637D01*
X167480273Y-116771680D01*
X167741426Y-116879853D01*
X168018665Y-116935000D01*
X168301335Y-116935000D01*
X168578574Y-116879853D01*
X168839727Y-116771680D01*
X169074759Y-116614637D01*
X169274637Y-116414759D01*
X169431680Y-116179727D01*
X169539853Y-115918574D01*
X169595000Y-115641335D01*
X169595000Y-115358665D01*
X169539853Y-115081426D01*
X169431680Y-114820273D01*
X169274637Y-114585241D01*
X169074759Y-114385363D01*
X168839727Y-114228320D01*
X168578574Y-114120147D01*
X168301335Y-114065000D01*
X168018665Y-114065000D01*
X167741426Y-114120147D01*
X167480273Y-114228320D01*
X167245241Y-114385363D01*
X167045363Y-114585241D01*
X166888320Y-114820273D01*
X166780147Y-115081426D01*
X166725000Y-115358665D01*
X165758570Y-115358665D01*
X167988280Y-113128956D01*
X168018665Y-113135000D01*
X168301335Y-113135000D01*
X168578574Y-113079853D01*
X168839727Y-112971680D01*
X169074759Y-112814637D01*
X169274637Y-112614759D01*
X169431680Y-112379727D01*
X169433652Y-112374966D01*
X171436428Y-114377742D01*
%TA.AperFunction,Conductor*%
D23*
G36*
X171436428Y-114377742D02*
G01*
X171464263Y-114411659D01*
X171599631Y-114522753D01*
X171754071Y-114605303D01*
X171806837Y-114621309D01*
X171921646Y-114656136D01*
X171954846Y-114659406D01*
X172052255Y-114669000D01*
X172052261Y-114669000D01*
X172095921Y-114673300D01*
X172139581Y-114669000D01*
X173608017Y-114669000D01*
X173646525Y-114726632D01*
X173853368Y-114933475D01*
X174096589Y-115095990D01*
X174366842Y-115207932D01*
X174653740Y-115265000D01*
X174946260Y-115265000D01*
X175233158Y-115207932D01*
X175503411Y-115095990D01*
X175746632Y-114933475D01*
X175953475Y-114726632D01*
X175991983Y-114669000D01*
X176148017Y-114669000D01*
X176186525Y-114726632D01*
X176393368Y-114933475D01*
X176636589Y-115095990D01*
X176906842Y-115207932D01*
X177193740Y-115265000D01*
X177486260Y-115265000D01*
X177755001Y-115211544D01*
X177755002Y-118103684D01*
X169433652Y-126425035D01*
X169431680Y-126420273D01*
X169274637Y-126185241D01*
X169074759Y-125985363D01*
X168839727Y-125828320D01*
X168578574Y-125720147D01*
X168301335Y-125665000D01*
X168018665Y-125665000D01*
X167988280Y-125671044D01*
X165352234Y-123034999D01*
X166537764Y-123034999D01*
X166731044Y-123228280D01*
X166725000Y-123258665D01*
X166725000Y-123541335D01*
X166780147Y-123818574D01*
X166888320Y-124079727D01*
X167045363Y-124314759D01*
X167245241Y-124514637D01*
X167480273Y-124671680D01*
X167741426Y-124779853D01*
X168018665Y-124835000D01*
X168301335Y-124835000D01*
X168578574Y-124779853D01*
X168839727Y-124671680D01*
X169074759Y-124514637D01*
X169274637Y-124314759D01*
X169431680Y-124079727D01*
X169539853Y-123818574D01*
X169595000Y-123541335D01*
X169595000Y-123258665D01*
X169539853Y-122981426D01*
X169431680Y-122720273D01*
X169274637Y-122485241D01*
X169074759Y-122285363D01*
X168839727Y-122128320D01*
X168578574Y-122020147D01*
X168301335Y-121965000D01*
X168018665Y-121965000D01*
X167988280Y-121971044D01*
X167565498Y-121548263D01*
X167537658Y-121514340D01*
X167402290Y-121403246D01*
X167247850Y-121320696D01*
X167080273Y-121269863D01*
X166949666Y-121256999D01*
X166949659Y-121256999D01*
X166905999Y-121252699D01*
X166862339Y-121256999D01*
X157441738Y-121256999D01*
X157398078Y-121252699D01*
X157354418Y-121256999D01*
X157354412Y-121256999D01*
X157257003Y-121266593D01*
X157223803Y-121269863D01*
X157122137Y-121300703D01*
X157056228Y-121320696D01*
X156901788Y-121403246D01*
X156766420Y-121514340D01*
X156738584Y-121548258D01*
X155929853Y-122356990D01*
X155399145Y-122356990D01*
X155434236Y-122241309D01*
X155461943Y-121960000D01*
X155434236Y-121678691D01*
X155370071Y-121467164D01*
X155871746Y-120965489D01*
X155905669Y-120937649D01*
X156016763Y-120802281D01*
X156099313Y-120647841D01*
X156136576Y-120525000D01*
X156150146Y-120480266D01*
X156160402Y-120376136D01*
X156163010Y-120349657D01*
X156163010Y-120349651D01*
X156167310Y-120305991D01*
X156163010Y-120262331D01*
X156163010Y-119258665D01*
X158565000Y-119258665D01*
X158565000Y-119541335D01*
X158620147Y-119818574D01*
X158728320Y-120079727D01*
X158885363Y-120314759D01*
X159085241Y-120514637D01*
X159320273Y-120671680D01*
X159581426Y-120779853D01*
X159858665Y-120835000D01*
X160141335Y-120835000D01*
X160418574Y-120779853D01*
X160679727Y-120671680D01*
X160914759Y-120514637D01*
X161036694Y-120392702D01*
X161686903Y-120392702D01*
X161758486Y-120636671D01*
X162013996Y-120757571D01*
X162288184Y-120826300D01*
X162570512Y-120840217D01*
X162850130Y-120798787D01*
X163116292Y-120703603D01*
X163241514Y-120636671D01*
X163313097Y-120392702D01*
X162500000Y-119579605D01*
X161686903Y-120392702D01*
X161036694Y-120392702D01*
X161114637Y-120314759D01*
X161248692Y-120114131D01*
X161263329Y-120141514D01*
X161507298Y-120213097D01*
X162320395Y-119400000D01*
X162679605Y-119400000D01*
X163492702Y-120213097D01*
X163736671Y-120141514D01*
X163857571Y-119886004D01*
X163926300Y-119611816D01*
X163940217Y-119329488D01*
X163898787Y-119049870D01*
X163803603Y-118783708D01*
X163736671Y-118658486D01*
X163492702Y-118586903D01*
X162679605Y-119400000D01*
X162320395Y-119400000D01*
X161507298Y-118586903D01*
X161263329Y-118658486D01*
X161249676Y-118687341D01*
X161114637Y-118485241D01*
X161036694Y-118407298D01*
X161686903Y-118407298D01*
X162500000Y-119220395D01*
X163313097Y-118407298D01*
X163241514Y-118163329D01*
X162986004Y-118042429D01*
X162711816Y-117973700D01*
X162429488Y-117959783D01*
X162149870Y-118001213D01*
X161883708Y-118096397D01*
X161758486Y-118163329D01*
X161686903Y-118407298D01*
X161036694Y-118407298D01*
X160914759Y-118285363D01*
X160679727Y-118128320D01*
X160418574Y-118020147D01*
X160141335Y-117965000D01*
X159858665Y-117965000D01*
X159581426Y-118020147D01*
X159320273Y-118128320D01*
X159085241Y-118285363D01*
X158885363Y-118485241D01*
X158728320Y-118720273D01*
X158620147Y-118981426D01*
X158565000Y-119258665D01*
X156163010Y-119258665D01*
X156163010Y-118577669D01*
X156167310Y-118534009D01*
X156163010Y-118490344D01*
X156163010Y-118490343D01*
X156150146Y-118359736D01*
X156150146Y-118359734D01*
X156105387Y-118212182D01*
X156099313Y-118192159D01*
X156016763Y-118037719D01*
X155905669Y-117902351D01*
X155871747Y-117874512D01*
X155370071Y-117372836D01*
X155434236Y-117161309D01*
X155461943Y-116880000D01*
X155434236Y-116598691D01*
X155352182Y-116328192D01*
X155218932Y-116078899D01*
X155039608Y-115860392D01*
X154821101Y-115681068D01*
X154688142Y-115610000D01*
X154821101Y-115538932D01*
X155039608Y-115359608D01*
X155146795Y-115229000D01*
X156471765Y-115229000D01*
X156571044Y-115328279D01*
X156565000Y-115358665D01*
X156565000Y-115641335D01*
X156620147Y-115918574D01*
X156728320Y-116179727D01*
X156885363Y-116414759D01*
X157085241Y-116614637D01*
X157320273Y-116771680D01*
X157581426Y-116879853D01*
X157858665Y-116935000D01*
X158141335Y-116935000D01*
X158418574Y-116879853D01*
X158679727Y-116771680D01*
X158914759Y-116614637D01*
X159114637Y-116414759D01*
X159131849Y-116389000D01*
X164316340Y-116389000D01*
X164360000Y-116393300D01*
X164403660Y-116389000D01*
X164403667Y-116389000D01*
X164534274Y-116376136D01*
X164701851Y-116325303D01*
X164856291Y-116242753D01*
X164991659Y-116131659D01*
X165019499Y-116097736D01*
X165758570Y-115358665D01*
X166725000Y-115358665D01*
X166725000Y-115641335D01*
X166780147Y-115918574D01*
X166888320Y-116179727D01*
X167045363Y-116414759D01*
X167245241Y-116614637D01*
X167480273Y-116771680D01*
X167741426Y-116879853D01*
X168018665Y-116935000D01*
X168301335Y-116935000D01*
X168578574Y-116879853D01*
X168839727Y-116771680D01*
X169074759Y-116614637D01*
X169274637Y-116414759D01*
X169431680Y-116179727D01*
X169539853Y-115918574D01*
X169595000Y-115641335D01*
X169595000Y-115358665D01*
X169539853Y-115081426D01*
X169431680Y-114820273D01*
X169274637Y-114585241D01*
X169074759Y-114385363D01*
X168839727Y-114228320D01*
X168578574Y-114120147D01*
X168301335Y-114065000D01*
X168018665Y-114065000D01*
X167741426Y-114120147D01*
X167480273Y-114228320D01*
X167245241Y-114385363D01*
X167045363Y-114585241D01*
X166888320Y-114820273D01*
X166780147Y-115081426D01*
X166725000Y-115358665D01*
X165758570Y-115358665D01*
X167988280Y-113128956D01*
X168018665Y-113135000D01*
X168301335Y-113135000D01*
X168578574Y-113079853D01*
X168839727Y-112971680D01*
X169074759Y-112814637D01*
X169274637Y-112614759D01*
X169431680Y-112379727D01*
X169433652Y-112374966D01*
X171436428Y-114377742D01*
G37*
%TD.AperFunction*%
D22*
X140271044Y-115528280D02*
X140265000Y-115558665D01*
X140265000Y-115841335D01*
X140320147Y-116118574D01*
X140428320Y-116379727D01*
X140585363Y-116614759D01*
X140785241Y-116814637D01*
X141020273Y-116971680D01*
X141281426Y-117079853D01*
X141558665Y-117135000D01*
X141841335Y-117135000D01*
X142118574Y-117079853D01*
X142379727Y-116971680D01*
X142614759Y-116814637D01*
X142814637Y-116614759D01*
X142831849Y-116589000D01*
X144188704Y-116589000D01*
X144185764Y-116598691D01*
X144158057Y-116880000D01*
X144185764Y-117161309D01*
X144249929Y-117372836D01*
X143748254Y-117874511D01*
X143714331Y-117902351D01*
X143603237Y-118037720D01*
X143552026Y-118133529D01*
X143520688Y-118192158D01*
X143483425Y-118315000D01*
X143469854Y-118359737D01*
X143456990Y-118490344D01*
X143456990Y-118490350D01*
X143452690Y-118534010D01*
X143456990Y-118577670D01*
X143456991Y-120262320D01*
X143452690Y-120305990D01*
X143469854Y-120480264D01*
X143520688Y-120647842D01*
X143603238Y-120802281D01*
X143682439Y-120898787D01*
X143714332Y-120937649D01*
X143748249Y-120965484D01*
X144249929Y-121467164D01*
X144185764Y-121678691D01*
X144158057Y-121960000D01*
X144185764Y-122241309D01*
X144220855Y-122356990D01*
X143870148Y-122356990D01*
X143061420Y-121548263D01*
X143033580Y-121514340D01*
X142898212Y-121403246D01*
X142743772Y-121320696D01*
X142576195Y-121269863D01*
X142445588Y-121256999D01*
X142445581Y-121256999D01*
X142401921Y-121252699D01*
X142358261Y-121256999D01*
X141241738Y-121256999D01*
X141198078Y-121252699D01*
X141154418Y-121256999D01*
X141154412Y-121256999D01*
X141057003Y-121266593D01*
X141023803Y-121269863D01*
X140922137Y-121300703D01*
X140856228Y-121320696D01*
X140701788Y-121403246D01*
X140566420Y-121514340D01*
X140538585Y-121548257D01*
X138321842Y-123765001D01*
X133030509Y-123765001D01*
X133075000Y-123541335D01*
X133075000Y-123258665D01*
X133019853Y-122981426D01*
X132911680Y-122720273D01*
X132754637Y-122485241D01*
X132554759Y-122285363D01*
X132319727Y-122128320D01*
X132058574Y-122020147D01*
X131781335Y-121965000D01*
X131498665Y-121965000D01*
X131468280Y-121971044D01*
X130466989Y-120969754D01*
X130466989Y-116656385D01*
X130625241Y-116814637D01*
X130860273Y-116971680D01*
X131121426Y-117079853D01*
X131398665Y-117135000D01*
X131681335Y-117135000D01*
X131958574Y-117079853D01*
X132219727Y-116971680D01*
X132454759Y-116814637D01*
X132654637Y-116614759D01*
X132811680Y-116379727D01*
X132919853Y-116118574D01*
X132921072Y-116112441D01*
X133511000Y-116112441D01*
X133511000Y-116156334D01*
X133511001Y-122012436D01*
X133511000Y-122012441D01*
X133511000Y-122187559D01*
X133519565Y-122230619D01*
X133523865Y-122274274D01*
X133536599Y-122316253D01*
X133545164Y-122359312D01*
X133561962Y-122399866D01*
X133574698Y-122441851D01*
X133595382Y-122480549D01*
X133612179Y-122521099D01*
X133636563Y-122557593D01*
X133657248Y-122596291D01*
X133685084Y-122630209D01*
X133709469Y-122666704D01*
X133740507Y-122697742D01*
X133768342Y-122731659D01*
X133802259Y-122759494D01*
X133833296Y-122790531D01*
X133869790Y-122814915D01*
X133903710Y-122842753D01*
X133942411Y-122863439D01*
X133978901Y-122887821D01*
X134019448Y-122904616D01*
X134058150Y-122925303D01*
X134100140Y-122938040D01*
X134140688Y-122954836D01*
X134183740Y-122963400D01*
X134225727Y-122976136D01*
X134269390Y-122980437D01*
X134312441Y-122989000D01*
X134356333Y-122989000D01*
X134400000Y-122993301D01*
X134443667Y-122989000D01*
X134487559Y-122989000D01*
X134530609Y-122980437D01*
X134574274Y-122976136D01*
X134616263Y-122963399D01*
X134659312Y-122954836D01*
X134699857Y-122938041D01*
X134741851Y-122925303D01*
X134780557Y-122904614D01*
X134821099Y-122887821D01*
X134857585Y-122863442D01*
X134896291Y-122842753D01*
X134930215Y-122814912D01*
X134966704Y-122790531D01*
X134997736Y-122759499D01*
X135031659Y-122731659D01*
X135059499Y-122697736D01*
X135090531Y-122666704D01*
X135114912Y-122630215D01*
X135142753Y-122596291D01*
X135163442Y-122557585D01*
X135187821Y-122521099D01*
X135204614Y-122480557D01*
X135225303Y-122441851D01*
X135238041Y-122399857D01*
X135254836Y-122359312D01*
X135263399Y-122316263D01*
X135276136Y-122274274D01*
X135280437Y-122230609D01*
X135289000Y-122187559D01*
X135289000Y-120492702D01*
X136286903Y-120492702D01*
X136358486Y-120736671D01*
X136613996Y-120857571D01*
X136888184Y-120926300D01*
X137170512Y-120940217D01*
X137450130Y-120898787D01*
X137716292Y-120803603D01*
X137841514Y-120736671D01*
X137913097Y-120492702D01*
X137100000Y-119679605D01*
X136286903Y-120492702D01*
X135289000Y-120492702D01*
X135289000Y-119570512D01*
X135659783Y-119570512D01*
X135701213Y-119850130D01*
X135796397Y-120116292D01*
X135863329Y-120241514D01*
X136107298Y-120313097D01*
X136920395Y-119500000D01*
X137279605Y-119500000D01*
X138092702Y-120313097D01*
X138336671Y-120241514D01*
X138350324Y-120212659D01*
X138485363Y-120414759D01*
X138685241Y-120614637D01*
X138920273Y-120771680D01*
X139181426Y-120879853D01*
X139458665Y-120935000D01*
X139741335Y-120935000D01*
X140018574Y-120879853D01*
X140279727Y-120771680D01*
X140514759Y-120614637D01*
X140714637Y-120414759D01*
X140871680Y-120179727D01*
X140979853Y-119918574D01*
X141035000Y-119641335D01*
X141035000Y-119358665D01*
X140979853Y-119081426D01*
X140871680Y-118820273D01*
X140714637Y-118585241D01*
X140514759Y-118385363D01*
X140279727Y-118228320D01*
X140018574Y-118120147D01*
X139741335Y-118065000D01*
X139458665Y-118065000D01*
X139181426Y-118120147D01*
X138920273Y-118228320D01*
X138685241Y-118385363D01*
X138485363Y-118585241D01*
X138351308Y-118785869D01*
X138336671Y-118758486D01*
X138092702Y-118686903D01*
X137279605Y-119500000D01*
X136920395Y-119500000D01*
X136107298Y-118686903D01*
X135863329Y-118758486D01*
X135742429Y-119013996D01*
X135673700Y-119288184D01*
X135659783Y-119570512D01*
X135289000Y-119570512D01*
X135289000Y-118507298D01*
X136286903Y-118507298D01*
X137100000Y-119320395D01*
X137913097Y-118507298D01*
X137841514Y-118263329D01*
X137586004Y-118142429D01*
X137311816Y-118073700D01*
X137029488Y-118059783D01*
X136749870Y-118101213D01*
X136483708Y-118196397D01*
X136358486Y-118263329D01*
X136286903Y-118507298D01*
X135289000Y-118507298D01*
X135289000Y-116112441D01*
X135280437Y-116069391D01*
X135276136Y-116025726D01*
X135263399Y-115983737D01*
X135254836Y-115940688D01*
X135238041Y-115900143D01*
X135225303Y-115858149D01*
X135204614Y-115819443D01*
X135187821Y-115778901D01*
X135163442Y-115742415D01*
X135142753Y-115703709D01*
X135114912Y-115669785D01*
X135090531Y-115633296D01*
X135059499Y-115602264D01*
X135031659Y-115568341D01*
X134997737Y-115540502D01*
X134966704Y-115509469D01*
X134930211Y-115485085D01*
X134896290Y-115457247D01*
X134857589Y-115436561D01*
X134821099Y-115412179D01*
X134780552Y-115395384D01*
X134741850Y-115374697D01*
X134699860Y-115361960D01*
X134659312Y-115345164D01*
X134616260Y-115336600D01*
X134574273Y-115323864D01*
X134530610Y-115319563D01*
X134487559Y-115311000D01*
X134443667Y-115311000D01*
X134400000Y-115306699D01*
X134356333Y-115311000D01*
X134312441Y-115311000D01*
X134269391Y-115319563D01*
X134225726Y-115323864D01*
X134183737Y-115336601D01*
X134140688Y-115345164D01*
X134100143Y-115361959D01*
X134058149Y-115374697D01*
X134019443Y-115395386D01*
X133978901Y-115412179D01*
X133942415Y-115436558D01*
X133903709Y-115457247D01*
X133869785Y-115485088D01*
X133833296Y-115509469D01*
X133802264Y-115540501D01*
X133768341Y-115568341D01*
X133740502Y-115602263D01*
X133709469Y-115633296D01*
X133685085Y-115669789D01*
X133657247Y-115703710D01*
X133636561Y-115742411D01*
X133612179Y-115778901D01*
X133595384Y-115819448D01*
X133574697Y-115858150D01*
X133561960Y-115900140D01*
X133545164Y-115940688D01*
X133536600Y-115983740D01*
X133523864Y-116025727D01*
X133519563Y-116069390D01*
X133511000Y-116112441D01*
X132921072Y-116112441D01*
X132975000Y-115841335D01*
X132975000Y-115558665D01*
X132919853Y-115281426D01*
X132811680Y-115020273D01*
X132654637Y-114785241D01*
X132454759Y-114585363D01*
X132219727Y-114428320D01*
X131958574Y-114320147D01*
X131681335Y-114265000D01*
X131398665Y-114265000D01*
X131368280Y-114271044D01*
X131174999Y-114077764D01*
X131174999Y-113190509D01*
X131398665Y-113235000D01*
X131681335Y-113235000D01*
X131958574Y-113179853D01*
X132219727Y-113071680D01*
X132454759Y-112914637D01*
X132654637Y-112714759D01*
X132671849Y-112689000D01*
X137431765Y-112689000D01*
X140271044Y-115528280D01*
%TA.AperFunction,Conductor*%
D23*
G36*
X140271044Y-115528280D02*
G01*
X140265000Y-115558665D01*
X140265000Y-115841335D01*
X140320147Y-116118574D01*
X140428320Y-116379727D01*
X140585363Y-116614759D01*
X140785241Y-116814637D01*
X141020273Y-116971680D01*
X141281426Y-117079853D01*
X141558665Y-117135000D01*
X141841335Y-117135000D01*
X142118574Y-117079853D01*
X142379727Y-116971680D01*
X142614759Y-116814637D01*
X142814637Y-116614759D01*
X142831849Y-116589000D01*
X144188704Y-116589000D01*
X144185764Y-116598691D01*
X144158057Y-116880000D01*
X144185764Y-117161309D01*
X144249929Y-117372836D01*
X143748254Y-117874511D01*
X143714331Y-117902351D01*
X143603237Y-118037720D01*
X143552026Y-118133529D01*
X143520688Y-118192158D01*
X143483425Y-118315000D01*
X143469854Y-118359737D01*
X143456990Y-118490344D01*
X143456990Y-118490350D01*
X143452690Y-118534010D01*
X143456990Y-118577670D01*
X143456991Y-120262320D01*
X143452690Y-120305990D01*
X143469854Y-120480264D01*
X143520688Y-120647842D01*
X143603238Y-120802281D01*
X143682439Y-120898787D01*
X143714332Y-120937649D01*
X143748249Y-120965484D01*
X144249929Y-121467164D01*
X144185764Y-121678691D01*
X144158057Y-121960000D01*
X144185764Y-122241309D01*
X144220855Y-122356990D01*
X143870148Y-122356990D01*
X143061420Y-121548263D01*
X143033580Y-121514340D01*
X142898212Y-121403246D01*
X142743772Y-121320696D01*
X142576195Y-121269863D01*
X142445588Y-121256999D01*
X142445581Y-121256999D01*
X142401921Y-121252699D01*
X142358261Y-121256999D01*
X141241738Y-121256999D01*
X141198078Y-121252699D01*
X141154418Y-121256999D01*
X141154412Y-121256999D01*
X141057003Y-121266593D01*
X141023803Y-121269863D01*
X140922137Y-121300703D01*
X140856228Y-121320696D01*
X140701788Y-121403246D01*
X140566420Y-121514340D01*
X140538585Y-121548257D01*
X138321842Y-123765001D01*
X133030509Y-123765001D01*
X133075000Y-123541335D01*
X133075000Y-123258665D01*
X133019853Y-122981426D01*
X132911680Y-122720273D01*
X132754637Y-122485241D01*
X132554759Y-122285363D01*
X132319727Y-122128320D01*
X132058574Y-122020147D01*
X131781335Y-121965000D01*
X131498665Y-121965000D01*
X131468280Y-121971044D01*
X130466989Y-120969754D01*
X130466989Y-116656385D01*
X130625241Y-116814637D01*
X130860273Y-116971680D01*
X131121426Y-117079853D01*
X131398665Y-117135000D01*
X131681335Y-117135000D01*
X131958574Y-117079853D01*
X132219727Y-116971680D01*
X132454759Y-116814637D01*
X132654637Y-116614759D01*
X132811680Y-116379727D01*
X132919853Y-116118574D01*
X132921072Y-116112441D01*
X133511000Y-116112441D01*
X133511000Y-116156334D01*
X133511001Y-122012436D01*
X133511000Y-122012441D01*
X133511000Y-122187559D01*
X133519565Y-122230619D01*
X133523865Y-122274274D01*
X133536599Y-122316253D01*
X133545164Y-122359312D01*
X133561962Y-122399866D01*
X133574698Y-122441851D01*
X133595382Y-122480549D01*
X133612179Y-122521099D01*
X133636563Y-122557593D01*
X133657248Y-122596291D01*
X133685084Y-122630209D01*
X133709469Y-122666704D01*
X133740507Y-122697742D01*
X133768342Y-122731659D01*
X133802259Y-122759494D01*
X133833296Y-122790531D01*
X133869790Y-122814915D01*
X133903710Y-122842753D01*
X133942411Y-122863439D01*
X133978901Y-122887821D01*
X134019448Y-122904616D01*
X134058150Y-122925303D01*
X134100140Y-122938040D01*
X134140688Y-122954836D01*
X134183740Y-122963400D01*
X134225727Y-122976136D01*
X134269390Y-122980437D01*
X134312441Y-122989000D01*
X134356333Y-122989000D01*
X134400000Y-122993301D01*
X134443667Y-122989000D01*
X134487559Y-122989000D01*
X134530609Y-122980437D01*
X134574274Y-122976136D01*
X134616263Y-122963399D01*
X134659312Y-122954836D01*
X134699857Y-122938041D01*
X134741851Y-122925303D01*
X134780557Y-122904614D01*
X134821099Y-122887821D01*
X134857585Y-122863442D01*
X134896291Y-122842753D01*
X134930215Y-122814912D01*
X134966704Y-122790531D01*
X134997736Y-122759499D01*
X135031659Y-122731659D01*
X135059499Y-122697736D01*
X135090531Y-122666704D01*
X135114912Y-122630215D01*
X135142753Y-122596291D01*
X135163442Y-122557585D01*
X135187821Y-122521099D01*
X135204614Y-122480557D01*
X135225303Y-122441851D01*
X135238041Y-122399857D01*
X135254836Y-122359312D01*
X135263399Y-122316263D01*
X135276136Y-122274274D01*
X135280437Y-122230609D01*
X135289000Y-122187559D01*
X135289000Y-120492702D01*
X136286903Y-120492702D01*
X136358486Y-120736671D01*
X136613996Y-120857571D01*
X136888184Y-120926300D01*
X137170512Y-120940217D01*
X137450130Y-120898787D01*
X137716292Y-120803603D01*
X137841514Y-120736671D01*
X137913097Y-120492702D01*
X137100000Y-119679605D01*
X136286903Y-120492702D01*
X135289000Y-120492702D01*
X135289000Y-119570512D01*
X135659783Y-119570512D01*
X135701213Y-119850130D01*
X135796397Y-120116292D01*
X135863329Y-120241514D01*
X136107298Y-120313097D01*
X136920395Y-119500000D01*
X137279605Y-119500000D01*
X138092702Y-120313097D01*
X138336671Y-120241514D01*
X138350324Y-120212659D01*
X138485363Y-120414759D01*
X138685241Y-120614637D01*
X138920273Y-120771680D01*
X139181426Y-120879853D01*
X139458665Y-120935000D01*
X139741335Y-120935000D01*
X140018574Y-120879853D01*
X140279727Y-120771680D01*
X140514759Y-120614637D01*
X140714637Y-120414759D01*
X140871680Y-120179727D01*
X140979853Y-119918574D01*
X141035000Y-119641335D01*
X141035000Y-119358665D01*
X140979853Y-119081426D01*
X140871680Y-118820273D01*
X140714637Y-118585241D01*
X140514759Y-118385363D01*
X140279727Y-118228320D01*
X140018574Y-118120147D01*
X139741335Y-118065000D01*
X139458665Y-118065000D01*
X139181426Y-118120147D01*
X138920273Y-118228320D01*
X138685241Y-118385363D01*
X138485363Y-118585241D01*
X138351308Y-118785869D01*
X138336671Y-118758486D01*
X138092702Y-118686903D01*
X137279605Y-119500000D01*
X136920395Y-119500000D01*
X136107298Y-118686903D01*
X135863329Y-118758486D01*
X135742429Y-119013996D01*
X135673700Y-119288184D01*
X135659783Y-119570512D01*
X135289000Y-119570512D01*
X135289000Y-118507298D01*
X136286903Y-118507298D01*
X137100000Y-119320395D01*
X137913097Y-118507298D01*
X137841514Y-118263329D01*
X137586004Y-118142429D01*
X137311816Y-118073700D01*
X137029488Y-118059783D01*
X136749870Y-118101213D01*
X136483708Y-118196397D01*
X136358486Y-118263329D01*
X136286903Y-118507298D01*
X135289000Y-118507298D01*
X135289000Y-116112441D01*
X135280437Y-116069391D01*
X135276136Y-116025726D01*
X135263399Y-115983737D01*
X135254836Y-115940688D01*
X135238041Y-115900143D01*
X135225303Y-115858149D01*
X135204614Y-115819443D01*
X135187821Y-115778901D01*
X135163442Y-115742415D01*
X135142753Y-115703709D01*
X135114912Y-115669785D01*
X135090531Y-115633296D01*
X135059499Y-115602264D01*
X135031659Y-115568341D01*
X134997737Y-115540502D01*
X134966704Y-115509469D01*
X134930211Y-115485085D01*
X134896290Y-115457247D01*
X134857589Y-115436561D01*
X134821099Y-115412179D01*
X134780552Y-115395384D01*
X134741850Y-115374697D01*
X134699860Y-115361960D01*
X134659312Y-115345164D01*
X134616260Y-115336600D01*
X134574273Y-115323864D01*
X134530610Y-115319563D01*
X134487559Y-115311000D01*
X134443667Y-115311000D01*
X134400000Y-115306699D01*
X134356333Y-115311000D01*
X134312441Y-115311000D01*
X134269391Y-115319563D01*
X134225726Y-115323864D01*
X134183737Y-115336601D01*
X134140688Y-115345164D01*
X134100143Y-115361959D01*
X134058149Y-115374697D01*
X134019443Y-115395386D01*
X133978901Y-115412179D01*
X133942415Y-115436558D01*
X133903709Y-115457247D01*
X133869785Y-115485088D01*
X133833296Y-115509469D01*
X133802264Y-115540501D01*
X133768341Y-115568341D01*
X133740502Y-115602263D01*
X133709469Y-115633296D01*
X133685085Y-115669789D01*
X133657247Y-115703710D01*
X133636561Y-115742411D01*
X133612179Y-115778901D01*
X133595384Y-115819448D01*
X133574697Y-115858150D01*
X133561960Y-115900140D01*
X133545164Y-115940688D01*
X133536600Y-115983740D01*
X133523864Y-116025727D01*
X133519563Y-116069390D01*
X133511000Y-116112441D01*
X132921072Y-116112441D01*
X132975000Y-115841335D01*
X132975000Y-115558665D01*
X132919853Y-115281426D01*
X132811680Y-115020273D01*
X132654637Y-114785241D01*
X132454759Y-114585363D01*
X132219727Y-114428320D01*
X131958574Y-114320147D01*
X131681335Y-114265000D01*
X131398665Y-114265000D01*
X131368280Y-114271044D01*
X131174999Y-114077764D01*
X131174999Y-113190509D01*
X131398665Y-113235000D01*
X131681335Y-113235000D01*
X131958574Y-113179853D01*
X132219727Y-113071680D01*
X132454759Y-112914637D01*
X132654637Y-112714759D01*
X132671849Y-112689000D01*
X137431765Y-112689000D01*
X140271044Y-115528280D01*
G37*
%TD.AperFunction*%
%TD*%
M02*
