%TF.GenerationSoftware,KiCad,Pcbnew,5.99.0+really5.1.10+dfsg1-1*%
%TF.CreationDate,2022-01-09T12:47:15+01:00*%
%TF.ProjectId,inverter-8,696e7665-7274-4657-922d-382e6b696361,v1.0.0*%
%TF.SameCoordinates,Original*%
%TF.FileFunction,Copper,L1,Top*%
%TF.FilePolarity,Positive*%
%FSLAX46Y46*%
G04 Gerber Fmt 4.6, Leading zero omitted, Abs format (unit mm)*
G04 Created by KiCad (PCBNEW 5.99.0+really5.1.10+dfsg1-1) date 2022-01-09 12:47:15*
%MOMM*%
%LPD*%
G01*
G04 APERTURE LIST*
%TA.AperFunction,ComponentPad*%
%ADD10C,2.340000*%
%TD*%
%TA.AperFunction,ComponentPad*%
%ADD11O,1.600000X1.600000*%
%TD*%
%TA.AperFunction,ComponentPad*%
%ADD12C,1.600000*%
%TD*%
%TA.AperFunction,ComponentPad*%
%ADD13O,1.700000X1.700000*%
%TD*%
%TA.AperFunction,ComponentPad*%
%ADD14R,1.700000X1.700000*%
%TD*%
%TA.AperFunction,ComponentPad*%
%ADD15R,1.600000X1.600000*%
%TD*%
%TA.AperFunction,ComponentPad*%
%ADD16O,2.400000X1.600000*%
%TD*%
%TA.AperFunction,ComponentPad*%
%ADD17R,2.400000X1.600000*%
%TD*%
%TA.AperFunction,ComponentPad*%
%ADD18C,1.700000*%
%TD*%
%TA.AperFunction,ViaPad*%
%ADD19C,0.508000*%
%TD*%
%TA.AperFunction,ViaPad*%
%ADD20C,3.500000*%
%TD*%
%TA.AperFunction,Conductor*%
%ADD21C,0.508000*%
%TD*%
%TA.AperFunction,Conductor*%
%ADD22C,0.254000*%
%TD*%
%TA.AperFunction,Conductor*%
%ADD23C,0.100000*%
%TD*%
G04 APERTURE END LIST*
D10*
%TO.P,RV1,1*%
%TO.N,-12V*%
X178200000Y-86300000D03*
%TO.P,RV1,2*%
%TO.N,OFFSET*%
X173200000Y-83800000D03*
%TO.P,RV1,3*%
%TO.N,+12V*%
X178200000Y-81300000D03*
%TD*%
D11*
%TO.P,R28,2*%
%TO.N,OFFSET*%
X168160000Y-107800000D03*
D12*
%TO.P,R28,1*%
%TO.N,Net-(R12-Pad1)*%
X158000000Y-107800000D03*
%TD*%
D11*
%TO.P,R27,2*%
%TO.N,OFFSET*%
X168160000Y-130800000D03*
D12*
%TO.P,R27,1*%
%TO.N,Net-(R11-Pad1)*%
X158000000Y-130800000D03*
%TD*%
D11*
%TO.P,R26,2*%
%TO.N,OFFSET*%
X141760000Y-131000000D03*
D12*
%TO.P,R26,1*%
%TO.N,Net-(R10-Pad1)*%
X131600000Y-131000000D03*
%TD*%
D11*
%TO.P,R25,2*%
%TO.N,OFFSET*%
X141660000Y-108000000D03*
D12*
%TO.P,R25,1*%
%TO.N,Net-(R13-Pad2)*%
X131500000Y-108000000D03*
%TD*%
D11*
%TO.P,R24,2*%
%TO.N,OFFSET*%
X168160000Y-80200000D03*
D12*
%TO.P,R24,1*%
%TO.N,Net-(R24-Pad1)*%
X158000000Y-80200000D03*
%TD*%
D11*
%TO.P,R23,2*%
%TO.N,OFFSET*%
X168160000Y-103400000D03*
D12*
%TO.P,R23,1*%
%TO.N,Net-(R23-Pad1)*%
X158000000Y-103400000D03*
%TD*%
D11*
%TO.P,R22,2*%
%TO.N,OFFSET*%
X141660000Y-103400000D03*
D12*
%TO.P,R22,1*%
%TO.N,Net-(R2-Pad1)*%
X131500000Y-103400000D03*
%TD*%
D11*
%TO.P,R21,2*%
%TO.N,OFFSET*%
X141660000Y-80600000D03*
D12*
%TO.P,R21,1*%
%TO.N,Net-(R1-Pad1)*%
X131500000Y-80600000D03*
%TD*%
D11*
%TO.P,R20,2*%
%TO.N,+12V*%
X135260000Y-76700000D03*
D12*
%TO.P,R20,1*%
%TO.N,Net-(J5-Pad1)*%
X125100000Y-76700000D03*
%TD*%
D11*
%TO.P,R19,2*%
%TO.N,Net-(J5-Pad1)*%
X125140000Y-72900000D03*
D12*
%TO.P,R19,1*%
%TO.N,GND*%
X135300000Y-72900000D03*
%TD*%
D13*
%TO.P,J5,3*%
%TO.N,GND*%
X125800000Y-80820000D03*
%TO.P,J5,2*%
%TO.N,REF*%
X125800000Y-83360000D03*
D14*
%TO.P,J5,1*%
%TO.N,Net-(J5-Pad1)*%
X125800000Y-85900000D03*
%TD*%
D12*
%TO.P,C6,2*%
%TO.N,Net-(C5-Pad2)*%
X160000000Y-119400000D03*
%TO.P,C6,1*%
%TO.N,GND*%
X162500000Y-119400000D03*
%TD*%
%TO.P,C5,2*%
%TO.N,Net-(C5-Pad2)*%
X160000000Y-92100000D03*
%TO.P,C5,1*%
%TO.N,GND*%
X162500000Y-92100000D03*
%TD*%
%TO.P,C3,2*%
%TO.N,-12V*%
X172100000Y-75100000D03*
D15*
%TO.P,C3,1*%
%TO.N,GND*%
X174600000Y-75100000D03*
%TD*%
D12*
%TO.P,C1,2*%
%TO.N,GND*%
X168000000Y-71500000D03*
D15*
%TO.P,C1,1*%
%TO.N,+12V*%
X165500000Y-71500000D03*
%TD*%
D16*
%TO.P,U2,14*%
%TO.N,OUT8*%
X153620000Y-111800000D03*
%TO.P,U2,7*%
%TO.N,OUT6*%
X146000000Y-127040000D03*
%TO.P,U2,13*%
%TO.N,Net-(R12-Pad1)*%
X153620000Y-114340000D03*
%TO.P,U2,6*%
%TO.N,Net-(R10-Pad1)*%
X146000000Y-124500000D03*
%TO.P,U2,12*%
%TO.N,REF*%
X153620000Y-116880000D03*
%TO.P,U2,5*%
X146000000Y-121960000D03*
%TO.P,U2,11*%
%TO.N,Net-(C5-Pad2)*%
X153620000Y-119420000D03*
%TO.P,U2,4*%
%TO.N,+12V*%
X146000000Y-119420000D03*
%TO.P,U2,10*%
%TO.N,REF*%
X153620000Y-121960000D03*
%TO.P,U2,3*%
X146000000Y-116880000D03*
%TO.P,U2,9*%
%TO.N,Net-(R11-Pad1)*%
X153620000Y-124500000D03*
%TO.P,U2,2*%
%TO.N,Net-(R13-Pad2)*%
X146000000Y-114340000D03*
%TO.P,U2,8*%
%TO.N,OUT7*%
X153620000Y-127040000D03*
D17*
%TO.P,U2,1*%
%TO.N,OUT5*%
X146000000Y-111800000D03*
%TD*%
D16*
%TO.P,U1,14*%
%TO.N,OUT4*%
X153620000Y-84500000D03*
%TO.P,U1,7*%
%TO.N,OUT2*%
X146000000Y-99740000D03*
%TO.P,U1,13*%
%TO.N,Net-(R24-Pad1)*%
X153620000Y-87040000D03*
%TO.P,U1,6*%
%TO.N,Net-(R2-Pad1)*%
X146000000Y-97200000D03*
%TO.P,U1,12*%
%TO.N,REF*%
X153620000Y-89580000D03*
%TO.P,U1,5*%
X146000000Y-94660000D03*
%TO.P,U1,11*%
%TO.N,Net-(C5-Pad2)*%
X153620000Y-92120000D03*
%TO.P,U1,4*%
%TO.N,+12V*%
X146000000Y-92120000D03*
%TO.P,U1,10*%
%TO.N,REF*%
X153620000Y-94660000D03*
%TO.P,U1,3*%
X146000000Y-89580000D03*
%TO.P,U1,9*%
%TO.N,Net-(R23-Pad1)*%
X153620000Y-97200000D03*
%TO.P,U1,2*%
%TO.N,Net-(R1-Pad1)*%
X146000000Y-87040000D03*
%TO.P,U1,8*%
%TO.N,OUT3*%
X153620000Y-99740000D03*
D17*
%TO.P,U1,1*%
%TO.N,OUT1*%
X146000000Y-84500000D03*
%TD*%
D11*
%TO.P,R18,2*%
%TO.N,-12V*%
X125140000Y-69100000D03*
D12*
%TO.P,R18,1*%
%TO.N,Net-(J4-Pad1)*%
X135300000Y-69100000D03*
%TD*%
D11*
%TO.P,R17,2*%
%TO.N,+12V*%
X144740000Y-79900000D03*
D12*
%TO.P,R17,1*%
%TO.N,Net-(J4-Pad10)*%
X154900000Y-79900000D03*
%TD*%
D11*
%TO.P,R16,2*%
%TO.N,Net-(R12-Pad1)*%
X168160000Y-111700000D03*
D12*
%TO.P,R16,1*%
%TO.N,OUT8*%
X158000000Y-111700000D03*
%TD*%
D11*
%TO.P,R15,2*%
%TO.N,Net-(R11-Pad1)*%
X168160000Y-127100000D03*
D12*
%TO.P,R15,1*%
%TO.N,OUT7*%
X158000000Y-127100000D03*
%TD*%
D11*
%TO.P,R14,2*%
%TO.N,Net-(R10-Pad1)*%
X131640000Y-127200000D03*
D12*
%TO.P,R14,1*%
%TO.N,OUT6*%
X141800000Y-127200000D03*
%TD*%
D11*
%TO.P,R13,2*%
%TO.N,Net-(R13-Pad2)*%
X131540000Y-111800000D03*
D12*
%TO.P,R13,1*%
%TO.N,OUT5*%
X141700000Y-111800000D03*
%TD*%
D11*
%TO.P,R12,2*%
%TO.N,IN8*%
X168160000Y-115500000D03*
D12*
%TO.P,R12,1*%
%TO.N,Net-(R12-Pad1)*%
X158000000Y-115500000D03*
%TD*%
D11*
%TO.P,R11,2*%
%TO.N,IN7*%
X168160000Y-123400000D03*
D12*
%TO.P,R11,1*%
%TO.N,Net-(R11-Pad1)*%
X158000000Y-123400000D03*
%TD*%
D11*
%TO.P,R10,2*%
%TO.N,IN6*%
X131640000Y-123400000D03*
D12*
%TO.P,R10,1*%
%TO.N,Net-(R10-Pad1)*%
X141800000Y-123400000D03*
%TD*%
D11*
%TO.P,R9,2*%
%TO.N,IN5*%
X131540000Y-115700000D03*
D12*
%TO.P,R9,1*%
%TO.N,Net-(R13-Pad2)*%
X141700000Y-115700000D03*
%TD*%
D11*
%TO.P,R8,2*%
%TO.N,Net-(R24-Pad1)*%
X168160000Y-84500000D03*
D12*
%TO.P,R8,1*%
%TO.N,OUT4*%
X158000000Y-84500000D03*
%TD*%
D11*
%TO.P,R7,2*%
%TO.N,Net-(R23-Pad1)*%
X168160000Y-99700000D03*
D12*
%TO.P,R7,1*%
%TO.N,OUT3*%
X158000000Y-99700000D03*
%TD*%
D11*
%TO.P,R6,2*%
%TO.N,Net-(R2-Pad1)*%
X131540000Y-99700000D03*
D12*
%TO.P,R6,1*%
%TO.N,OUT2*%
X141700000Y-99700000D03*
%TD*%
D11*
%TO.P,R5,2*%
%TO.N,Net-(R1-Pad1)*%
X131540000Y-84500000D03*
D12*
%TO.P,R5,1*%
%TO.N,OUT1*%
X141700000Y-84500000D03*
%TD*%
D11*
%TO.P,R4,2*%
%TO.N,IN4*%
X168160000Y-88300000D03*
D12*
%TO.P,R4,1*%
%TO.N,Net-(R24-Pad1)*%
X158000000Y-88300000D03*
%TD*%
D11*
%TO.P,R3,2*%
%TO.N,IN3*%
X168160000Y-95900000D03*
D12*
%TO.P,R3,1*%
%TO.N,Net-(R23-Pad1)*%
X158000000Y-95900000D03*
%TD*%
D11*
%TO.P,R2,2*%
%TO.N,IN2*%
X131540000Y-95900000D03*
D12*
%TO.P,R2,1*%
%TO.N,Net-(R2-Pad1)*%
X141700000Y-95900000D03*
%TD*%
D11*
%TO.P,R1,2*%
%TO.N,IN1*%
X131540000Y-88400000D03*
D12*
%TO.P,R1,1*%
%TO.N,Net-(R1-Pad1)*%
X141700000Y-88400000D03*
%TD*%
D18*
%TO.P,J4,10*%
%TO.N,Net-(J4-Pad10)*%
X154460000Y-70660000D03*
%TO.P,J4,8*%
%TO.N,GND*%
X151920000Y-70660000D03*
%TO.P,J4,6*%
X149380000Y-70660000D03*
%TO.P,J4,4*%
X146840000Y-70660000D03*
%TO.P,J4,2*%
%TO.N,Net-(J4-Pad1)*%
X144300000Y-70660000D03*
%TO.P,J4,9*%
%TO.N,Net-(J4-Pad10)*%
X154460000Y-73200000D03*
%TO.P,J4,7*%
%TO.N,GND*%
X151920000Y-73200000D03*
%TO.P,J4,5*%
X149380000Y-73200000D03*
%TO.P,J4,3*%
X146840000Y-73200000D03*
%TO.P,J4,1*%
%TO.N,Net-(J4-Pad1)*%
%TA.AperFunction,ComponentPad*%
G36*
G01*
X144900000Y-74050000D02*
X143700000Y-74050000D01*
G75*
G02*
X143450000Y-73800000I0J250000D01*
G01*
X143450000Y-72600000D01*
G75*
G02*
X143700000Y-72350000I250000J0D01*
G01*
X144900000Y-72350000D01*
G75*
G02*
X145150000Y-72600000I0J-250000D01*
G01*
X145150000Y-73800000D01*
G75*
G02*
X144900000Y-74050000I-250000J0D01*
G01*
G37*
%TD.AperFunction*%
%TD*%
D13*
%TO.P,J3,3*%
%TO.N,GND*%
X122200000Y-80820000D03*
%TO.P,J3,2*%
%TO.N,Net-(C5-Pad2)*%
X122200000Y-83360000D03*
D14*
%TO.P,J3,1*%
%TO.N,-12V*%
X122200000Y-85900000D03*
%TD*%
D18*
%TO.P,J2,16*%
%TO.N,OUT8*%
X177340000Y-113780000D03*
%TO.P,J2,14*%
%TO.N,OUT7*%
X177340000Y-111240000D03*
%TO.P,J2,12*%
%TO.N,OUT6*%
X177340000Y-108700000D03*
%TO.P,J2,10*%
%TO.N,OUT5*%
X177340000Y-106160000D03*
%TO.P,J2,8*%
%TO.N,OUT4*%
X177340000Y-103620000D03*
%TO.P,J2,6*%
%TO.N,OUT3*%
X177340000Y-101080000D03*
%TO.P,J2,4*%
%TO.N,OUT2*%
X177340000Y-98540000D03*
%TO.P,J2,2*%
%TO.N,OUT1*%
X177340000Y-96000000D03*
%TO.P,J2,15*%
%TO.N,OUT8*%
X174800000Y-113780000D03*
%TO.P,J2,13*%
%TO.N,OUT7*%
X174800000Y-111240000D03*
%TO.P,J2,11*%
%TO.N,OUT6*%
X174800000Y-108700000D03*
%TO.P,J2,9*%
%TO.N,OUT5*%
X174800000Y-106160000D03*
%TO.P,J2,7*%
%TO.N,OUT4*%
X174800000Y-103620000D03*
%TO.P,J2,5*%
%TO.N,OUT3*%
X174800000Y-101080000D03*
%TO.P,J2,3*%
%TO.N,OUT2*%
X174800000Y-98540000D03*
%TO.P,J2,1*%
%TO.N,OUT1*%
%TA.AperFunction,ComponentPad*%
G36*
G01*
X173950000Y-96600000D02*
X173950000Y-95400000D01*
G75*
G02*
X174200000Y-95150000I250000J0D01*
G01*
X175400000Y-95150000D01*
G75*
G02*
X175650000Y-95400000I0J-250000D01*
G01*
X175650000Y-96600000D01*
G75*
G02*
X175400000Y-96850000I-250000J0D01*
G01*
X174200000Y-96850000D01*
G75*
G02*
X173950000Y-96600000I0J250000D01*
G01*
G37*
%TD.AperFunction*%
%TD*%
%TO.P,J1,16*%
%TO.N,IN8*%
X125140000Y-113780000D03*
%TO.P,J1,14*%
%TO.N,IN7*%
X125140000Y-111240000D03*
%TO.P,J1,12*%
%TO.N,IN6*%
X125140000Y-108700000D03*
%TO.P,J1,10*%
%TO.N,IN5*%
X125140000Y-106160000D03*
%TO.P,J1,8*%
%TO.N,IN4*%
X125140000Y-103620000D03*
%TO.P,J1,6*%
%TO.N,IN3*%
X125140000Y-101080000D03*
%TO.P,J1,4*%
%TO.N,IN2*%
X125140000Y-98540000D03*
%TO.P,J1,2*%
%TO.N,IN1*%
X125140000Y-96000000D03*
%TO.P,J1,15*%
%TO.N,IN8*%
X122600000Y-113780000D03*
%TO.P,J1,13*%
%TO.N,IN7*%
X122600000Y-111240000D03*
%TO.P,J1,11*%
%TO.N,IN6*%
X122600000Y-108700000D03*
%TO.P,J1,9*%
%TO.N,IN5*%
X122600000Y-106160000D03*
%TO.P,J1,7*%
%TO.N,IN4*%
X122600000Y-103620000D03*
%TO.P,J1,5*%
%TO.N,IN3*%
X122600000Y-101080000D03*
%TO.P,J1,3*%
%TO.N,IN2*%
X122600000Y-98540000D03*
%TO.P,J1,1*%
%TO.N,IN1*%
%TA.AperFunction,ComponentPad*%
G36*
G01*
X121750000Y-96600000D02*
X121750000Y-95400000D01*
G75*
G02*
X122000000Y-95150000I250000J0D01*
G01*
X123200000Y-95150000D01*
G75*
G02*
X123450000Y-95400000I0J-250000D01*
G01*
X123450000Y-96600000D01*
G75*
G02*
X123200000Y-96850000I-250000J0D01*
G01*
X122000000Y-96850000D01*
G75*
G02*
X121750000Y-96600000I0J250000D01*
G01*
G37*
%TD.AperFunction*%
%TD*%
D12*
%TO.P,C4,2*%
%TO.N,+12V*%
X139600000Y-119500000D03*
%TO.P,C4,1*%
%TO.N,GND*%
X137100000Y-119500000D03*
%TD*%
%TO.P,C2,2*%
%TO.N,+12V*%
X139700000Y-92200000D03*
%TO.P,C2,1*%
%TO.N,GND*%
X137200000Y-92200000D03*
%TD*%
D19*
%TO.N,+12V*%
X149000000Y-96500000D03*
X149000000Y-100000000D03*
D20*
%TO.N,GND*%
X179000000Y-129500000D03*
X120500000Y-129500000D03*
X179000000Y-69500000D03*
X120500000Y-69500000D03*
D19*
%TO.N,Net-(C5-Pad2)*%
X150000000Y-96500000D03*
X150000000Y-100000000D03*
%TO.N,OFFSET*%
X171100000Y-110600000D03*
X134400000Y-116200000D03*
X134400000Y-122100000D03*
%TD*%
D21*
%TO.N,+12V*%
X139700000Y-92200000D02*
X145920000Y-92200000D01*
X146000000Y-119420000D02*
X139680000Y-119420000D01*
X149000000Y-96500000D02*
X149000000Y-100000000D01*
X149000000Y-100000000D02*
X149000000Y-100000000D01*
X165500000Y-71740000D02*
X165500000Y-71500000D01*
X150135999Y-74504001D02*
X144740000Y-79900000D01*
X162495999Y-74504001D02*
X150135999Y-74504001D01*
X165500000Y-71500000D02*
X162495999Y-74504001D01*
%TO.N,IN8*%
X129494010Y-118134010D02*
X125140000Y-113780000D01*
X165525990Y-118134010D02*
X129494010Y-118134010D01*
X168160000Y-115500000D02*
X165525990Y-118134010D01*
%TO.N,IN4*%
X168160000Y-89431370D02*
X168160000Y-88300000D01*
X164217360Y-93374010D02*
X168160000Y-89431370D01*
X142370068Y-93374010D02*
X164217360Y-93374010D01*
X130314001Y-98445999D02*
X125140000Y-103620000D01*
X137298079Y-98445999D02*
X130314001Y-98445999D01*
X142370068Y-93374010D02*
X137298079Y-98445999D01*
%TO.N,OUT8*%
X153620000Y-111800000D02*
X157900000Y-111800000D01*
%TO.N,OUT6*%
X146000000Y-127040000D02*
X146000000Y-127400000D01*
%TO.N,OUT5*%
X146000000Y-111800000D02*
X152200000Y-105600000D01*
X174240000Y-105600000D02*
X174800000Y-106160000D01*
X152200000Y-105600000D02*
X174240000Y-105600000D01*
%TO.N,OUT4*%
X158000000Y-84500000D02*
X153620000Y-84500000D01*
%TO.N,OUT3*%
X153620000Y-99740000D02*
X157960000Y-99740000D01*
%TO.N,OUT2*%
X146000000Y-99740000D02*
X146000000Y-100000000D01*
X146000000Y-100000000D02*
X148000000Y-102000000D01*
X148000000Y-102000000D02*
X170500000Y-102000000D01*
X173960000Y-98540000D02*
X174800000Y-98540000D01*
X170500000Y-102000000D02*
X173960000Y-98540000D01*
%TO.N,OUT1*%
X146000000Y-84500000D02*
X148500000Y-82000000D01*
X148500000Y-82000000D02*
X168600000Y-82000000D01*
X174800000Y-88200000D02*
X174800000Y-96000000D01*
X168600000Y-82000000D02*
X174800000Y-88200000D01*
%TO.N,-12V*%
X126394001Y-67845999D02*
X125140000Y-69100000D01*
X166201921Y-67845999D02*
X126394001Y-67845999D01*
X172100000Y-73744078D02*
X166201921Y-67845999D01*
X172100000Y-75100000D02*
X172100000Y-73744078D01*
%TO.N,Net-(R2-Pad1)*%
X131540000Y-103360000D02*
X131500000Y-103400000D01*
X131540000Y-99700000D02*
X131540000Y-103360000D01*
%TO.N,Net-(R11-Pad1)*%
X156745999Y-127625999D02*
X153620000Y-124500000D01*
X156745999Y-129545999D02*
X156745999Y-127625999D01*
X158000000Y-130800000D02*
X156745999Y-129545999D01*
%TO.N,Net-(C5-Pad2)*%
X160000000Y-92100000D02*
X153640000Y-92100000D01*
X153620000Y-119420000D02*
X159980000Y-119420000D01*
X150000000Y-96500000D02*
X150000000Y-100000000D01*
X150000000Y-100000000D02*
X150000000Y-100000000D01*
X137588801Y-87145999D02*
X141276812Y-90834010D01*
X141276812Y-90834010D02*
X152334010Y-90834010D01*
X130938079Y-87145999D02*
X137588801Y-87145999D01*
X130880077Y-87204001D02*
X130938079Y-87145999D01*
X124586799Y-87204001D02*
X130880077Y-87204001D01*
X124495999Y-87113201D02*
X124586799Y-87204001D01*
X152334010Y-90834010D02*
X153620000Y-92120000D01*
X124495999Y-85655999D02*
X124495999Y-87113201D01*
X122200000Y-83360000D02*
X124495999Y-85655999D01*
%TO.N,REF*%
X145925999Y-89654001D02*
X146000000Y-89580000D01*
X141098079Y-89654001D02*
X145925999Y-89654001D01*
X133954079Y-82510001D02*
X141098079Y-89654001D01*
X126649999Y-82510001D02*
X133954079Y-82510001D01*
X125800000Y-83360000D02*
X126649999Y-82510001D01*
X153620000Y-89580000D02*
X146000000Y-89580000D01*
X144345990Y-115225990D02*
X146000000Y-116880000D01*
X144345990Y-96314010D02*
X144345990Y-115225990D01*
X146000000Y-94660000D02*
X144345990Y-96314010D01*
%TO.N,Net-(R23-Pad1)*%
X164360000Y-95900000D02*
X168160000Y-99700000D01*
X158000000Y-95900000D02*
X164360000Y-95900000D01*
%TO.N,Net-(R24-Pad1)*%
X156740000Y-87040000D02*
X158000000Y-88300000D01*
X153620000Y-87040000D02*
X156740000Y-87040000D01*
X164360000Y-88300000D02*
X168160000Y-84500000D01*
X158000000Y-88300000D02*
X164360000Y-88300000D01*
%TO.N,OFFSET*%
X142214001Y-81154001D02*
X146545999Y-81154001D01*
X141660000Y-80600000D02*
X142214001Y-81154001D01*
X166605999Y-78645999D02*
X168160000Y-80200000D01*
X149054001Y-78645999D02*
X166605999Y-78645999D01*
X146545999Y-81154001D02*
X149054001Y-78645999D01*
X171100000Y-110600000D02*
X171100000Y-110600000D01*
X173200000Y-83800000D02*
X179700000Y-90300000D01*
X179700000Y-90300000D02*
X179700000Y-114000000D01*
X179700000Y-114000000D02*
X177900000Y-115800000D01*
X177900000Y-115800000D02*
X172200000Y-115800000D01*
X171100000Y-114700000D02*
X171100000Y-110600000D01*
X172200000Y-115800000D02*
X171100000Y-114700000D01*
X172200000Y-126760000D02*
X168160000Y-130800000D01*
X172200000Y-115800000D02*
X172200000Y-126760000D01*
X141660000Y-103400000D02*
X141660000Y-108000000D01*
X141660000Y-108000000D02*
X134400000Y-115260000D01*
X134400000Y-115260000D02*
X134400000Y-116200000D01*
X134400000Y-116200000D02*
X134400000Y-116200000D01*
X134400000Y-123640000D02*
X141760000Y-131000000D01*
X134400000Y-123640000D02*
X134400000Y-122100000D01*
X134400000Y-122100000D02*
X134400000Y-122100000D01*
%TD*%
D22*
%TO.N,GND*%
X125762342Y-67214340D02*
X125734507Y-67248258D01*
X125311720Y-67671044D01*
X125281335Y-67665000D01*
X124998665Y-67665000D01*
X124721426Y-67720147D01*
X124460273Y-67828320D01*
X124225241Y-67985363D01*
X124025363Y-68185241D01*
X123868320Y-68420273D01*
X123760147Y-68681426D01*
X123705000Y-68958665D01*
X123705000Y-69241335D01*
X123760147Y-69518574D01*
X123868320Y-69779727D01*
X124025363Y-70014759D01*
X124225241Y-70214637D01*
X124460273Y-70371680D01*
X124721426Y-70479853D01*
X124998665Y-70535000D01*
X125281335Y-70535000D01*
X125558574Y-70479853D01*
X125819727Y-70371680D01*
X126054759Y-70214637D01*
X126254637Y-70014759D01*
X126411680Y-69779727D01*
X126519853Y-69518574D01*
X126575000Y-69241335D01*
X126575000Y-68958665D01*
X126568956Y-68928280D01*
X126762237Y-68734999D01*
X133909491Y-68734999D01*
X133865000Y-68958665D01*
X133865000Y-69241335D01*
X133920147Y-69518574D01*
X134028320Y-69779727D01*
X134185363Y-70014759D01*
X134385241Y-70214637D01*
X134620273Y-70371680D01*
X134881426Y-70479853D01*
X135158665Y-70535000D01*
X135441335Y-70535000D01*
X135718574Y-70479853D01*
X135979727Y-70371680D01*
X136214759Y-70214637D01*
X136414637Y-70014759D01*
X136571680Y-69779727D01*
X136679853Y-69518574D01*
X136735000Y-69241335D01*
X136735000Y-68958665D01*
X136690509Y-68734999D01*
X165833686Y-68734999D01*
X167325954Y-70227267D01*
X167258486Y-70263329D01*
X167186903Y-70507298D01*
X168000000Y-71320395D01*
X168014143Y-71306253D01*
X168193748Y-71485858D01*
X168179605Y-71500000D01*
X168992702Y-72313097D01*
X169236671Y-72241514D01*
X169269924Y-72171237D01*
X171134646Y-74035959D01*
X170985363Y-74185241D01*
X170828320Y-74420273D01*
X170720147Y-74681426D01*
X170665000Y-74958665D01*
X170665000Y-75241335D01*
X170720147Y-75518574D01*
X170828320Y-75779727D01*
X170985363Y-76014759D01*
X171185241Y-76214637D01*
X171420273Y-76371680D01*
X171681426Y-76479853D01*
X171958665Y-76535000D01*
X172241335Y-76535000D01*
X172518574Y-76479853D01*
X172779727Y-76371680D01*
X173014759Y-76214637D01*
X173181339Y-76048057D01*
X173210498Y-76144180D01*
X173269463Y-76254494D01*
X173348815Y-76351185D01*
X173445506Y-76430537D01*
X173555820Y-76489502D01*
X173675518Y-76525812D01*
X173800000Y-76538072D01*
X174314250Y-76535000D01*
X174473000Y-76376250D01*
X174473000Y-75227000D01*
X174727000Y-75227000D01*
X174727000Y-76376250D01*
X174885750Y-76535000D01*
X175400000Y-76538072D01*
X175524482Y-76525812D01*
X175644180Y-76489502D01*
X175754494Y-76430537D01*
X175851185Y-76351185D01*
X175930537Y-76254494D01*
X175989502Y-76144180D01*
X176025812Y-76024482D01*
X176038072Y-75900000D01*
X176035000Y-75385750D01*
X175876250Y-75227000D01*
X174727000Y-75227000D01*
X174473000Y-75227000D01*
X174453000Y-75227000D01*
X174453000Y-74973000D01*
X174473000Y-74973000D01*
X174473000Y-73823750D01*
X174727000Y-73823750D01*
X174727000Y-74973000D01*
X175876250Y-74973000D01*
X176035000Y-74814250D01*
X176038072Y-74300000D01*
X176025812Y-74175518D01*
X175989502Y-74055820D01*
X175930537Y-73945506D01*
X175851185Y-73848815D01*
X175754494Y-73769463D01*
X175644180Y-73710498D01*
X175524482Y-73674188D01*
X175400000Y-73661928D01*
X174885750Y-73665000D01*
X174727000Y-73823750D01*
X174473000Y-73823750D01*
X174314250Y-73665000D01*
X173800000Y-73661928D01*
X173675518Y-73674188D01*
X173555820Y-73710498D01*
X173445506Y-73769463D01*
X173348815Y-73848815D01*
X173269463Y-73945506D01*
X173210498Y-74055820D01*
X173181339Y-74151943D01*
X173014759Y-73985363D01*
X172989000Y-73968151D01*
X172989000Y-73787737D01*
X172993300Y-73744077D01*
X172989000Y-73700417D01*
X172989000Y-73700411D01*
X172976136Y-73569804D01*
X172976136Y-73569802D01*
X172925302Y-73402225D01*
X172913211Y-73379605D01*
X172842753Y-73247787D01*
X172731659Y-73112419D01*
X172697736Y-73084579D01*
X166861420Y-67248263D01*
X166833580Y-67214340D01*
X166767367Y-67160000D01*
X181340001Y-67160000D01*
X181340000Y-132340000D01*
X142274788Y-132340000D01*
X142439727Y-132271680D01*
X142674759Y-132114637D01*
X142874637Y-131914759D01*
X143031680Y-131679727D01*
X143139853Y-131418574D01*
X143195000Y-131141335D01*
X143195000Y-130858665D01*
X143139853Y-130581426D01*
X143031680Y-130320273D01*
X142874637Y-130085241D01*
X142674759Y-129885363D01*
X142439727Y-129728320D01*
X142178574Y-129620147D01*
X141901335Y-129565000D01*
X141618665Y-129565000D01*
X141588280Y-129571044D01*
X139075901Y-127058665D01*
X140365000Y-127058665D01*
X140365000Y-127341335D01*
X140420147Y-127618574D01*
X140528320Y-127879727D01*
X140685363Y-128114759D01*
X140885241Y-128314637D01*
X141120273Y-128471680D01*
X141381426Y-128579853D01*
X141658665Y-128635000D01*
X141941335Y-128635000D01*
X142218574Y-128579853D01*
X142479727Y-128471680D01*
X142714759Y-128314637D01*
X142914637Y-128114759D01*
X143071680Y-127879727D01*
X143179853Y-127618574D01*
X143235000Y-127341335D01*
X143235000Y-127058665D01*
X143179853Y-126781426D01*
X143071680Y-126520273D01*
X142914637Y-126285241D01*
X142714759Y-126085363D01*
X142479727Y-125928320D01*
X142218574Y-125820147D01*
X141941335Y-125765000D01*
X141658665Y-125765000D01*
X141381426Y-125820147D01*
X141120273Y-125928320D01*
X140885241Y-126085363D01*
X140685363Y-126285241D01*
X140528320Y-126520273D01*
X140420147Y-126781426D01*
X140365000Y-127058665D01*
X139075901Y-127058665D01*
X135289000Y-123271765D01*
X135289000Y-123258665D01*
X140365000Y-123258665D01*
X140365000Y-123541335D01*
X140420147Y-123818574D01*
X140528320Y-124079727D01*
X140685363Y-124314759D01*
X140885241Y-124514637D01*
X141120273Y-124671680D01*
X141381426Y-124779853D01*
X141658665Y-124835000D01*
X141941335Y-124835000D01*
X142218574Y-124779853D01*
X142479727Y-124671680D01*
X142714759Y-124514637D01*
X142914637Y-124314759D01*
X143071680Y-124079727D01*
X143179853Y-123818574D01*
X143235000Y-123541335D01*
X143235000Y-123258665D01*
X143179853Y-122981426D01*
X143071680Y-122720273D01*
X142914637Y-122485241D01*
X142714759Y-122285363D01*
X142479727Y-122128320D01*
X142218574Y-122020147D01*
X141941335Y-121965000D01*
X141658665Y-121965000D01*
X141381426Y-122020147D01*
X141120273Y-122128320D01*
X140885241Y-122285363D01*
X140685363Y-122485241D01*
X140528320Y-122720273D01*
X140420147Y-122981426D01*
X140365000Y-123258665D01*
X135289000Y-123258665D01*
X135289000Y-122143667D01*
X135293301Y-122100000D01*
X135289000Y-122056333D01*
X135289000Y-122012441D01*
X135280437Y-121969391D01*
X135276136Y-121925726D01*
X135263399Y-121883737D01*
X135254836Y-121840688D01*
X135238041Y-121800143D01*
X135225303Y-121758149D01*
X135204614Y-121719443D01*
X135187821Y-121678901D01*
X135163442Y-121642415D01*
X135142753Y-121603709D01*
X135114912Y-121569785D01*
X135090531Y-121533296D01*
X135059499Y-121502264D01*
X135031659Y-121468341D01*
X134997736Y-121440501D01*
X134966704Y-121409469D01*
X134930215Y-121385088D01*
X134896291Y-121357247D01*
X134857585Y-121336558D01*
X134821099Y-121312179D01*
X134780557Y-121295386D01*
X134741851Y-121274697D01*
X134699857Y-121261959D01*
X134659312Y-121245164D01*
X134616263Y-121236601D01*
X134574274Y-121223864D01*
X134530609Y-121219563D01*
X134487559Y-121211000D01*
X134443667Y-121211000D01*
X134400000Y-121206699D01*
X134356333Y-121211000D01*
X134312441Y-121211000D01*
X134269391Y-121219563D01*
X134225726Y-121223864D01*
X134183737Y-121236601D01*
X134140688Y-121245164D01*
X134100143Y-121261959D01*
X134058149Y-121274697D01*
X134019443Y-121295386D01*
X133978901Y-121312179D01*
X133942415Y-121336558D01*
X133903709Y-121357247D01*
X133869785Y-121385088D01*
X133833296Y-121409469D01*
X133802264Y-121440501D01*
X133768341Y-121468341D01*
X133740501Y-121502264D01*
X133709469Y-121533296D01*
X133685088Y-121569785D01*
X133657247Y-121603709D01*
X133636558Y-121642415D01*
X133612179Y-121678901D01*
X133595386Y-121719443D01*
X133574697Y-121758149D01*
X133561959Y-121800143D01*
X133545164Y-121840688D01*
X133536601Y-121883737D01*
X133523864Y-121925726D01*
X133519563Y-121969391D01*
X133511000Y-122012441D01*
X133511000Y-122056333D01*
X133506699Y-122100000D01*
X133511000Y-122143667D01*
X133511000Y-122187559D01*
X133511001Y-122187564D01*
X133511000Y-123596340D01*
X133506700Y-123640000D01*
X133511000Y-123683660D01*
X133511000Y-123683666D01*
X133522057Y-123795926D01*
X133523864Y-123814274D01*
X133531821Y-123840505D01*
X133574697Y-123981850D01*
X133657247Y-124136290D01*
X133768341Y-124271659D01*
X133802264Y-124299499D01*
X140331044Y-130828280D01*
X140325000Y-130858665D01*
X140325000Y-131141335D01*
X140380147Y-131418574D01*
X140488320Y-131679727D01*
X140645363Y-131914759D01*
X140845241Y-132114637D01*
X141080273Y-132271680D01*
X141245212Y-132340000D01*
X132114788Y-132340000D01*
X132279727Y-132271680D01*
X132514759Y-132114637D01*
X132714637Y-131914759D01*
X132871680Y-131679727D01*
X132979853Y-131418574D01*
X133035000Y-131141335D01*
X133035000Y-130858665D01*
X132979853Y-130581426D01*
X132871680Y-130320273D01*
X132714637Y-130085241D01*
X132514759Y-129885363D01*
X132279727Y-129728320D01*
X132018574Y-129620147D01*
X131741335Y-129565000D01*
X131458665Y-129565000D01*
X131181426Y-129620147D01*
X130920273Y-129728320D01*
X130685241Y-129885363D01*
X130485363Y-130085241D01*
X130328320Y-130320273D01*
X130220147Y-130581426D01*
X130165000Y-130858665D01*
X130165000Y-131141335D01*
X130220147Y-131418574D01*
X130328320Y-131679727D01*
X130485363Y-131914759D01*
X130685241Y-132114637D01*
X130920273Y-132271680D01*
X131085212Y-132340000D01*
X118160000Y-132340000D01*
X118160000Y-127058665D01*
X130205000Y-127058665D01*
X130205000Y-127341335D01*
X130260147Y-127618574D01*
X130368320Y-127879727D01*
X130525363Y-128114759D01*
X130725241Y-128314637D01*
X130960273Y-128471680D01*
X131221426Y-128579853D01*
X131498665Y-128635000D01*
X131781335Y-128635000D01*
X132058574Y-128579853D01*
X132319727Y-128471680D01*
X132554759Y-128314637D01*
X132754637Y-128114759D01*
X132911680Y-127879727D01*
X133019853Y-127618574D01*
X133075000Y-127341335D01*
X133075000Y-127058665D01*
X133019853Y-126781426D01*
X132911680Y-126520273D01*
X132754637Y-126285241D01*
X132554759Y-126085363D01*
X132319727Y-125928320D01*
X132058574Y-125820147D01*
X131781335Y-125765000D01*
X131498665Y-125765000D01*
X131221426Y-125820147D01*
X130960273Y-125928320D01*
X130725241Y-126085363D01*
X130525363Y-126285241D01*
X130368320Y-126520273D01*
X130260147Y-126781426D01*
X130205000Y-127058665D01*
X118160000Y-127058665D01*
X118160000Y-123258665D01*
X130205000Y-123258665D01*
X130205000Y-123541335D01*
X130260147Y-123818574D01*
X130368320Y-124079727D01*
X130525363Y-124314759D01*
X130725241Y-124514637D01*
X130960273Y-124671680D01*
X131221426Y-124779853D01*
X131498665Y-124835000D01*
X131781335Y-124835000D01*
X132058574Y-124779853D01*
X132319727Y-124671680D01*
X132554759Y-124514637D01*
X132754637Y-124314759D01*
X132911680Y-124079727D01*
X133019853Y-123818574D01*
X133075000Y-123541335D01*
X133075000Y-123258665D01*
X133019853Y-122981426D01*
X132911680Y-122720273D01*
X132754637Y-122485241D01*
X132554759Y-122285363D01*
X132319727Y-122128320D01*
X132058574Y-122020147D01*
X131781335Y-121965000D01*
X131498665Y-121965000D01*
X131221426Y-122020147D01*
X130960273Y-122128320D01*
X130725241Y-122285363D01*
X130525363Y-122485241D01*
X130368320Y-122720273D01*
X130260147Y-122981426D01*
X130205000Y-123258665D01*
X118160000Y-123258665D01*
X118160000Y-120492702D01*
X136286903Y-120492702D01*
X136358486Y-120736671D01*
X136613996Y-120857571D01*
X136888184Y-120926300D01*
X137170512Y-120940217D01*
X137450130Y-120898787D01*
X137716292Y-120803603D01*
X137841514Y-120736671D01*
X137913097Y-120492702D01*
X137100000Y-119679605D01*
X136286903Y-120492702D01*
X118160000Y-120492702D01*
X118160000Y-93192702D01*
X136386903Y-93192702D01*
X136458486Y-93436671D01*
X136713996Y-93557571D01*
X136988184Y-93626300D01*
X137270512Y-93640217D01*
X137550130Y-93598787D01*
X137816292Y-93503603D01*
X137941514Y-93436671D01*
X138013097Y-93192702D01*
X137200000Y-92379605D01*
X136386903Y-93192702D01*
X118160000Y-93192702D01*
X118160000Y-92270512D01*
X135759783Y-92270512D01*
X135801213Y-92550130D01*
X135896397Y-92816292D01*
X135963329Y-92941514D01*
X136207298Y-93013097D01*
X137020395Y-92200000D01*
X136207298Y-91386903D01*
X135963329Y-91458486D01*
X135842429Y-91713996D01*
X135773700Y-91988184D01*
X135759783Y-92270512D01*
X118160000Y-92270512D01*
X118160000Y-91207298D01*
X136386903Y-91207298D01*
X137200000Y-92020395D01*
X138013097Y-91207298D01*
X137941514Y-90963329D01*
X137686004Y-90842429D01*
X137411816Y-90773700D01*
X137129488Y-90759783D01*
X136849870Y-90801213D01*
X136583708Y-90896397D01*
X136458486Y-90963329D01*
X136386903Y-91207298D01*
X118160000Y-91207298D01*
X118160000Y-85050000D01*
X120711928Y-85050000D01*
X120711928Y-86750000D01*
X120724188Y-86874482D01*
X120760498Y-86994180D01*
X120819463Y-87104494D01*
X120898815Y-87201185D01*
X120995506Y-87280537D01*
X121105820Y-87339502D01*
X121225518Y-87375812D01*
X121350000Y-87388072D01*
X123050000Y-87388072D01*
X123174482Y-87375812D01*
X123294180Y-87339502D01*
X123404494Y-87280537D01*
X123501185Y-87201185D01*
X123580537Y-87104494D01*
X123607000Y-87054986D01*
X123607000Y-87069532D01*
X123602699Y-87113201D01*
X123619863Y-87287475D01*
X123670697Y-87455053D01*
X123719231Y-87545853D01*
X123753247Y-87609492D01*
X123864341Y-87744860D01*
X123898258Y-87772695D01*
X123927300Y-87801737D01*
X123955140Y-87835660D01*
X124090508Y-87946754D01*
X124244948Y-88029304D01*
X124412525Y-88080137D01*
X124586799Y-88097302D01*
X124630467Y-88093001D01*
X130137953Y-88093001D01*
X130105000Y-88258665D01*
X130105000Y-88541335D01*
X130160147Y-88818574D01*
X130268320Y-89079727D01*
X130425363Y-89314759D01*
X130625241Y-89514637D01*
X130860273Y-89671680D01*
X131121426Y-89779853D01*
X131398665Y-89835000D01*
X131681335Y-89835000D01*
X131958574Y-89779853D01*
X132219727Y-89671680D01*
X132454759Y-89514637D01*
X132654637Y-89314759D01*
X132811680Y-89079727D01*
X132919853Y-88818574D01*
X132975000Y-88541335D01*
X132975000Y-88258665D01*
X132930509Y-88034999D01*
X137220566Y-88034999D01*
X139977689Y-90792123D01*
X139841335Y-90765000D01*
X139558665Y-90765000D01*
X139281426Y-90820147D01*
X139020273Y-90928320D01*
X138785241Y-91085363D01*
X138585363Y-91285241D01*
X138451308Y-91485869D01*
X138436671Y-91458486D01*
X138192702Y-91386903D01*
X137379605Y-92200000D01*
X138192702Y-93013097D01*
X138436671Y-92941514D01*
X138450324Y-92912659D01*
X138585363Y-93114759D01*
X138785241Y-93314637D01*
X139020273Y-93471680D01*
X139281426Y-93579853D01*
X139558665Y-93635000D01*
X139841335Y-93635000D01*
X140118574Y-93579853D01*
X140379727Y-93471680D01*
X140614759Y-93314637D01*
X140814637Y-93114759D01*
X140831849Y-93089000D01*
X141397842Y-93089000D01*
X136929844Y-97556999D01*
X130357660Y-97556999D01*
X130314000Y-97552699D01*
X130270340Y-97556999D01*
X130270334Y-97556999D01*
X130172925Y-97566593D01*
X130139725Y-97569863D01*
X130062240Y-97593368D01*
X129972150Y-97620696D01*
X129817710Y-97703246D01*
X129682342Y-97814340D01*
X129654502Y-97848263D01*
X126615713Y-100887052D01*
X126567932Y-100646842D01*
X126455990Y-100376589D01*
X126293475Y-100133368D01*
X126086632Y-99926525D01*
X125912240Y-99810000D01*
X126086632Y-99693475D01*
X126293475Y-99486632D01*
X126455990Y-99243411D01*
X126567932Y-98973158D01*
X126625000Y-98686260D01*
X126625000Y-98393740D01*
X126567932Y-98106842D01*
X126455990Y-97836589D01*
X126293475Y-97593368D01*
X126086632Y-97386525D01*
X125912240Y-97270000D01*
X126086632Y-97153475D01*
X126293475Y-96946632D01*
X126455990Y-96703411D01*
X126567932Y-96433158D01*
X126625000Y-96146260D01*
X126625000Y-95853740D01*
X126606089Y-95758665D01*
X130105000Y-95758665D01*
X130105000Y-96041335D01*
X130160147Y-96318574D01*
X130268320Y-96579727D01*
X130425363Y-96814759D01*
X130625241Y-97014637D01*
X130860273Y-97171680D01*
X131121426Y-97279853D01*
X131398665Y-97335000D01*
X131681335Y-97335000D01*
X131958574Y-97279853D01*
X132219727Y-97171680D01*
X132454759Y-97014637D01*
X132654637Y-96814759D01*
X132811680Y-96579727D01*
X132919853Y-96318574D01*
X132975000Y-96041335D01*
X132975000Y-95758665D01*
X132919853Y-95481426D01*
X132811680Y-95220273D01*
X132654637Y-94985241D01*
X132454759Y-94785363D01*
X132219727Y-94628320D01*
X131958574Y-94520147D01*
X131681335Y-94465000D01*
X131398665Y-94465000D01*
X131121426Y-94520147D01*
X130860273Y-94628320D01*
X130625241Y-94785363D01*
X130425363Y-94985241D01*
X130268320Y-95220273D01*
X130160147Y-95481426D01*
X130105000Y-95758665D01*
X126606089Y-95758665D01*
X126567932Y-95566842D01*
X126455990Y-95296589D01*
X126293475Y-95053368D01*
X126086632Y-94846525D01*
X125843411Y-94684010D01*
X125573158Y-94572068D01*
X125286260Y-94515000D01*
X124993740Y-94515000D01*
X124706842Y-94572068D01*
X124436589Y-94684010D01*
X124193368Y-94846525D01*
X124006285Y-95033608D01*
X123938405Y-94906614D01*
X123827962Y-94772038D01*
X123693386Y-94661595D01*
X123539850Y-94579528D01*
X123373254Y-94528992D01*
X123200000Y-94511928D01*
X122000000Y-94511928D01*
X121826746Y-94528992D01*
X121660150Y-94579528D01*
X121506614Y-94661595D01*
X121372038Y-94772038D01*
X121261595Y-94906614D01*
X121179528Y-95060150D01*
X121128992Y-95226746D01*
X121111928Y-95400000D01*
X121111928Y-96600000D01*
X121128992Y-96773254D01*
X121179528Y-96939850D01*
X121261595Y-97093386D01*
X121372038Y-97227962D01*
X121506614Y-97338405D01*
X121633608Y-97406285D01*
X121446525Y-97593368D01*
X121284010Y-97836589D01*
X121172068Y-98106842D01*
X121115000Y-98393740D01*
X121115000Y-98686260D01*
X121172068Y-98973158D01*
X121284010Y-99243411D01*
X121446525Y-99486632D01*
X121653368Y-99693475D01*
X121827760Y-99810000D01*
X121653368Y-99926525D01*
X121446525Y-100133368D01*
X121284010Y-100376589D01*
X121172068Y-100646842D01*
X121115000Y-100933740D01*
X121115000Y-101226260D01*
X121172068Y-101513158D01*
X121284010Y-101783411D01*
X121446525Y-102026632D01*
X121653368Y-102233475D01*
X121827760Y-102350000D01*
X121653368Y-102466525D01*
X121446525Y-102673368D01*
X121284010Y-102916589D01*
X121172068Y-103186842D01*
X121115000Y-103473740D01*
X121115000Y-103766260D01*
X121172068Y-104053158D01*
X121284010Y-104323411D01*
X121446525Y-104566632D01*
X121653368Y-104773475D01*
X121827760Y-104890000D01*
X121653368Y-105006525D01*
X121446525Y-105213368D01*
X121284010Y-105456589D01*
X121172068Y-105726842D01*
X121115000Y-106013740D01*
X121115000Y-106306260D01*
X121172068Y-106593158D01*
X121284010Y-106863411D01*
X121446525Y-107106632D01*
X121653368Y-107313475D01*
X121827760Y-107430000D01*
X121653368Y-107546525D01*
X121446525Y-107753368D01*
X121284010Y-107996589D01*
X121172068Y-108266842D01*
X121115000Y-108553740D01*
X121115000Y-108846260D01*
X121172068Y-109133158D01*
X121284010Y-109403411D01*
X121446525Y-109646632D01*
X121653368Y-109853475D01*
X121827760Y-109970000D01*
X121653368Y-110086525D01*
X121446525Y-110293368D01*
X121284010Y-110536589D01*
X121172068Y-110806842D01*
X121115000Y-111093740D01*
X121115000Y-111386260D01*
X121172068Y-111673158D01*
X121284010Y-111943411D01*
X121446525Y-112186632D01*
X121653368Y-112393475D01*
X121827760Y-112510000D01*
X121653368Y-112626525D01*
X121446525Y-112833368D01*
X121284010Y-113076589D01*
X121172068Y-113346842D01*
X121115000Y-113633740D01*
X121115000Y-113926260D01*
X121172068Y-114213158D01*
X121284010Y-114483411D01*
X121446525Y-114726632D01*
X121653368Y-114933475D01*
X121896589Y-115095990D01*
X122166842Y-115207932D01*
X122453740Y-115265000D01*
X122746260Y-115265000D01*
X123033158Y-115207932D01*
X123303411Y-115095990D01*
X123546632Y-114933475D01*
X123753475Y-114726632D01*
X123870000Y-114552240D01*
X123986525Y-114726632D01*
X124193368Y-114933475D01*
X124436589Y-115095990D01*
X124706842Y-115207932D01*
X124993740Y-115265000D01*
X125286260Y-115265000D01*
X125354242Y-115251477D01*
X128834516Y-118731752D01*
X128862351Y-118765669D01*
X128997719Y-118876763D01*
X129152159Y-118959313D01*
X129225057Y-118981426D01*
X129319735Y-119010146D01*
X129336335Y-119011781D01*
X129450343Y-119023010D01*
X129450350Y-119023010D01*
X129494010Y-119027310D01*
X129537670Y-119023010D01*
X135740170Y-119023010D01*
X135673700Y-119288184D01*
X135659783Y-119570512D01*
X135701213Y-119850130D01*
X135796397Y-120116292D01*
X135863329Y-120241514D01*
X136107298Y-120313097D01*
X136920395Y-119500000D01*
X136906253Y-119485858D01*
X137085858Y-119306253D01*
X137100000Y-119320395D01*
X137114143Y-119306253D01*
X137293748Y-119485858D01*
X137279605Y-119500000D01*
X138092702Y-120313097D01*
X138336671Y-120241514D01*
X138350324Y-120212659D01*
X138485363Y-120414759D01*
X138685241Y-120614637D01*
X138920273Y-120771680D01*
X139181426Y-120879853D01*
X139458665Y-120935000D01*
X139741335Y-120935000D01*
X140018574Y-120879853D01*
X140279727Y-120771680D01*
X140514759Y-120614637D01*
X140714637Y-120414759D01*
X140785303Y-120309000D01*
X144473205Y-120309000D01*
X144580392Y-120439608D01*
X144798899Y-120618932D01*
X144931858Y-120690000D01*
X144798899Y-120761068D01*
X144580392Y-120940392D01*
X144401068Y-121158899D01*
X144267818Y-121408192D01*
X144185764Y-121678691D01*
X144158057Y-121960000D01*
X144185764Y-122241309D01*
X144267818Y-122511808D01*
X144401068Y-122761101D01*
X144580392Y-122979608D01*
X144798899Y-123158932D01*
X144931858Y-123230000D01*
X144798899Y-123301068D01*
X144580392Y-123480392D01*
X144401068Y-123698899D01*
X144267818Y-123948192D01*
X144185764Y-124218691D01*
X144158057Y-124500000D01*
X144185764Y-124781309D01*
X144267818Y-125051808D01*
X144401068Y-125301101D01*
X144580392Y-125519608D01*
X144798899Y-125698932D01*
X144931858Y-125770000D01*
X144798899Y-125841068D01*
X144580392Y-126020392D01*
X144401068Y-126238899D01*
X144267818Y-126488192D01*
X144185764Y-126758691D01*
X144158057Y-127040000D01*
X144185764Y-127321309D01*
X144267818Y-127591808D01*
X144401068Y-127841101D01*
X144580392Y-128059608D01*
X144798899Y-128238932D01*
X145048192Y-128372182D01*
X145318691Y-128454236D01*
X145529508Y-128475000D01*
X146470492Y-128475000D01*
X146681309Y-128454236D01*
X146951808Y-128372182D01*
X147201101Y-128238932D01*
X147419608Y-128059608D01*
X147598932Y-127841101D01*
X147732182Y-127591808D01*
X147814236Y-127321309D01*
X147841943Y-127040000D01*
X147814236Y-126758691D01*
X147732182Y-126488192D01*
X147598932Y-126238899D01*
X147419608Y-126020392D01*
X147201101Y-125841068D01*
X147068142Y-125770000D01*
X147201101Y-125698932D01*
X147419608Y-125519608D01*
X147598932Y-125301101D01*
X147732182Y-125051808D01*
X147814236Y-124781309D01*
X147841943Y-124500000D01*
X147814236Y-124218691D01*
X147732182Y-123948192D01*
X147598932Y-123698899D01*
X147419608Y-123480392D01*
X147201101Y-123301068D01*
X147068142Y-123230000D01*
X147201101Y-123158932D01*
X147419608Y-122979608D01*
X147598932Y-122761101D01*
X147732182Y-122511808D01*
X147814236Y-122241309D01*
X147841943Y-121960000D01*
X147814236Y-121678691D01*
X147732182Y-121408192D01*
X147598932Y-121158899D01*
X147419608Y-120940392D01*
X147201101Y-120761068D01*
X147068142Y-120690000D01*
X147201101Y-120618932D01*
X147419608Y-120439608D01*
X147598932Y-120221101D01*
X147732182Y-119971808D01*
X147814236Y-119701309D01*
X147841943Y-119420000D01*
X147814236Y-119138691D01*
X147779145Y-119023010D01*
X151840855Y-119023010D01*
X151805764Y-119138691D01*
X151778057Y-119420000D01*
X151805764Y-119701309D01*
X151887818Y-119971808D01*
X152021068Y-120221101D01*
X152200392Y-120439608D01*
X152418899Y-120618932D01*
X152551858Y-120690000D01*
X152418899Y-120761068D01*
X152200392Y-120940392D01*
X152021068Y-121158899D01*
X151887818Y-121408192D01*
X151805764Y-121678691D01*
X151778057Y-121960000D01*
X151805764Y-122241309D01*
X151887818Y-122511808D01*
X152021068Y-122761101D01*
X152200392Y-122979608D01*
X152418899Y-123158932D01*
X152551858Y-123230000D01*
X152418899Y-123301068D01*
X152200392Y-123480392D01*
X152021068Y-123698899D01*
X151887818Y-123948192D01*
X151805764Y-124218691D01*
X151778057Y-124500000D01*
X151805764Y-124781309D01*
X151887818Y-125051808D01*
X152021068Y-125301101D01*
X152200392Y-125519608D01*
X152418899Y-125698932D01*
X152551858Y-125770000D01*
X152418899Y-125841068D01*
X152200392Y-126020392D01*
X152021068Y-126238899D01*
X151887818Y-126488192D01*
X151805764Y-126758691D01*
X151778057Y-127040000D01*
X151805764Y-127321309D01*
X151887818Y-127591808D01*
X152021068Y-127841101D01*
X152200392Y-128059608D01*
X152418899Y-128238932D01*
X152668192Y-128372182D01*
X152938691Y-128454236D01*
X153149508Y-128475000D01*
X154090492Y-128475000D01*
X154301309Y-128454236D01*
X154571808Y-128372182D01*
X154821101Y-128238932D01*
X155039608Y-128059608D01*
X155218932Y-127841101D01*
X155352182Y-127591808D01*
X155376013Y-127513248D01*
X155857000Y-127994236D01*
X155856999Y-129502339D01*
X155852699Y-129545999D01*
X155856999Y-129589659D01*
X155856999Y-129589665D01*
X155869863Y-129720272D01*
X155920696Y-129887849D01*
X156003246Y-130042289D01*
X156114340Y-130177658D01*
X156148263Y-130205498D01*
X156571044Y-130628280D01*
X156565000Y-130658665D01*
X156565000Y-130941335D01*
X156620147Y-131218574D01*
X156728320Y-131479727D01*
X156885363Y-131714759D01*
X157085241Y-131914637D01*
X157320273Y-132071680D01*
X157581426Y-132179853D01*
X157858665Y-132235000D01*
X158141335Y-132235000D01*
X158418574Y-132179853D01*
X158679727Y-132071680D01*
X158914759Y-131914637D01*
X159114637Y-131714759D01*
X159271680Y-131479727D01*
X159379853Y-131218574D01*
X159435000Y-130941335D01*
X159435000Y-130658665D01*
X159379853Y-130381426D01*
X159271680Y-130120273D01*
X159114637Y-129885241D01*
X158914759Y-129685363D01*
X158679727Y-129528320D01*
X158418574Y-129420147D01*
X158141335Y-129365000D01*
X157858665Y-129365000D01*
X157828280Y-129371044D01*
X157634999Y-129177764D01*
X157634999Y-128490509D01*
X157858665Y-128535000D01*
X158141335Y-128535000D01*
X158418574Y-128479853D01*
X158679727Y-128371680D01*
X158914759Y-128214637D01*
X159114637Y-128014759D01*
X159271680Y-127779727D01*
X159379853Y-127518574D01*
X159435000Y-127241335D01*
X159435000Y-126958665D01*
X166725000Y-126958665D01*
X166725000Y-127241335D01*
X166780147Y-127518574D01*
X166888320Y-127779727D01*
X167045363Y-128014759D01*
X167245241Y-128214637D01*
X167480273Y-128371680D01*
X167741426Y-128479853D01*
X168018665Y-128535000D01*
X168301335Y-128535000D01*
X168578574Y-128479853D01*
X168839727Y-128371680D01*
X169074759Y-128214637D01*
X169274637Y-128014759D01*
X169431680Y-127779727D01*
X169539853Y-127518574D01*
X169595000Y-127241335D01*
X169595000Y-126958665D01*
X169539853Y-126681426D01*
X169431680Y-126420273D01*
X169274637Y-126185241D01*
X169074759Y-125985363D01*
X168839727Y-125828320D01*
X168578574Y-125720147D01*
X168301335Y-125665000D01*
X168018665Y-125665000D01*
X167741426Y-125720147D01*
X167480273Y-125828320D01*
X167245241Y-125985363D01*
X167045363Y-126185241D01*
X166888320Y-126420273D01*
X166780147Y-126681426D01*
X166725000Y-126958665D01*
X159435000Y-126958665D01*
X159379853Y-126681426D01*
X159271680Y-126420273D01*
X159114637Y-126185241D01*
X158914759Y-125985363D01*
X158679727Y-125828320D01*
X158418574Y-125720147D01*
X158141335Y-125665000D01*
X157858665Y-125665000D01*
X157581426Y-125720147D01*
X157320273Y-125828320D01*
X157085241Y-125985363D01*
X156885363Y-126185241D01*
X156756033Y-126378797D01*
X155370071Y-124992836D01*
X155434236Y-124781309D01*
X155461943Y-124500000D01*
X155434236Y-124218691D01*
X155352182Y-123948192D01*
X155218932Y-123698899D01*
X155039608Y-123480392D01*
X154821101Y-123301068D01*
X154741771Y-123258665D01*
X156565000Y-123258665D01*
X156565000Y-123541335D01*
X156620147Y-123818574D01*
X156728320Y-124079727D01*
X156885363Y-124314759D01*
X157085241Y-124514637D01*
X157320273Y-124671680D01*
X157581426Y-124779853D01*
X157858665Y-124835000D01*
X158141335Y-124835000D01*
X158418574Y-124779853D01*
X158679727Y-124671680D01*
X158914759Y-124514637D01*
X159114637Y-124314759D01*
X159271680Y-124079727D01*
X159379853Y-123818574D01*
X159435000Y-123541335D01*
X159435000Y-123258665D01*
X166725000Y-123258665D01*
X166725000Y-123541335D01*
X166780147Y-123818574D01*
X166888320Y-124079727D01*
X167045363Y-124314759D01*
X167245241Y-124514637D01*
X167480273Y-124671680D01*
X167741426Y-124779853D01*
X168018665Y-124835000D01*
X168301335Y-124835000D01*
X168578574Y-124779853D01*
X168839727Y-124671680D01*
X169074759Y-124514637D01*
X169274637Y-124314759D01*
X169431680Y-124079727D01*
X169539853Y-123818574D01*
X169595000Y-123541335D01*
X169595000Y-123258665D01*
X169539853Y-122981426D01*
X169431680Y-122720273D01*
X169274637Y-122485241D01*
X169074759Y-122285363D01*
X168839727Y-122128320D01*
X168578574Y-122020147D01*
X168301335Y-121965000D01*
X168018665Y-121965000D01*
X167741426Y-122020147D01*
X167480273Y-122128320D01*
X167245241Y-122285363D01*
X167045363Y-122485241D01*
X166888320Y-122720273D01*
X166780147Y-122981426D01*
X166725000Y-123258665D01*
X159435000Y-123258665D01*
X159379853Y-122981426D01*
X159271680Y-122720273D01*
X159114637Y-122485241D01*
X158914759Y-122285363D01*
X158679727Y-122128320D01*
X158418574Y-122020147D01*
X158141335Y-121965000D01*
X157858665Y-121965000D01*
X157581426Y-122020147D01*
X157320273Y-122128320D01*
X157085241Y-122285363D01*
X156885363Y-122485241D01*
X156728320Y-122720273D01*
X156620147Y-122981426D01*
X156565000Y-123258665D01*
X154741771Y-123258665D01*
X154688142Y-123230000D01*
X154821101Y-123158932D01*
X155039608Y-122979608D01*
X155218932Y-122761101D01*
X155352182Y-122511808D01*
X155434236Y-122241309D01*
X155461943Y-121960000D01*
X155434236Y-121678691D01*
X155352182Y-121408192D01*
X155218932Y-121158899D01*
X155039608Y-120940392D01*
X154821101Y-120761068D01*
X154688142Y-120690000D01*
X154821101Y-120618932D01*
X155039608Y-120439608D01*
X155146795Y-120309000D01*
X158881515Y-120309000D01*
X158885363Y-120314759D01*
X159085241Y-120514637D01*
X159320273Y-120671680D01*
X159581426Y-120779853D01*
X159858665Y-120835000D01*
X160141335Y-120835000D01*
X160418574Y-120779853D01*
X160679727Y-120671680D01*
X160914759Y-120514637D01*
X161036694Y-120392702D01*
X161686903Y-120392702D01*
X161758486Y-120636671D01*
X162013996Y-120757571D01*
X162288184Y-120826300D01*
X162570512Y-120840217D01*
X162850130Y-120798787D01*
X163116292Y-120703603D01*
X163241514Y-120636671D01*
X163313097Y-120392702D01*
X162500000Y-119579605D01*
X161686903Y-120392702D01*
X161036694Y-120392702D01*
X161114637Y-120314759D01*
X161248692Y-120114131D01*
X161263329Y-120141514D01*
X161507298Y-120213097D01*
X162320395Y-119400000D01*
X162306253Y-119385858D01*
X162485858Y-119206253D01*
X162500000Y-119220395D01*
X162514143Y-119206253D01*
X162693748Y-119385858D01*
X162679605Y-119400000D01*
X163492702Y-120213097D01*
X163736671Y-120141514D01*
X163857571Y-119886004D01*
X163926300Y-119611816D01*
X163940217Y-119329488D01*
X163898787Y-119049870D01*
X163889181Y-119023010D01*
X165482330Y-119023010D01*
X165525990Y-119027310D01*
X165569650Y-119023010D01*
X165569657Y-119023010D01*
X165700264Y-119010146D01*
X165867841Y-118959313D01*
X166022281Y-118876763D01*
X166157649Y-118765669D01*
X166185489Y-118731746D01*
X167988280Y-116928956D01*
X168018665Y-116935000D01*
X168301335Y-116935000D01*
X168578574Y-116879853D01*
X168839727Y-116771680D01*
X169074759Y-116614637D01*
X169274637Y-116414759D01*
X169431680Y-116179727D01*
X169539853Y-115918574D01*
X169595000Y-115641335D01*
X169595000Y-115358665D01*
X169539853Y-115081426D01*
X169431680Y-114820273D01*
X169274637Y-114585241D01*
X169074759Y-114385363D01*
X168839727Y-114228320D01*
X168578574Y-114120147D01*
X168301335Y-114065000D01*
X168018665Y-114065000D01*
X167741426Y-114120147D01*
X167480273Y-114228320D01*
X167245241Y-114385363D01*
X167045363Y-114585241D01*
X166888320Y-114820273D01*
X166780147Y-115081426D01*
X166725000Y-115358665D01*
X166725000Y-115641335D01*
X166731044Y-115671720D01*
X165157755Y-117245010D01*
X155408846Y-117245010D01*
X155434236Y-117161309D01*
X155461943Y-116880000D01*
X155434236Y-116598691D01*
X155352182Y-116328192D01*
X155218932Y-116078899D01*
X155039608Y-115860392D01*
X154821101Y-115681068D01*
X154688142Y-115610000D01*
X154821101Y-115538932D01*
X155039608Y-115359608D01*
X155040381Y-115358665D01*
X156565000Y-115358665D01*
X156565000Y-115641335D01*
X156620147Y-115918574D01*
X156728320Y-116179727D01*
X156885363Y-116414759D01*
X157085241Y-116614637D01*
X157320273Y-116771680D01*
X157581426Y-116879853D01*
X157858665Y-116935000D01*
X158141335Y-116935000D01*
X158418574Y-116879853D01*
X158679727Y-116771680D01*
X158914759Y-116614637D01*
X159114637Y-116414759D01*
X159271680Y-116179727D01*
X159379853Y-115918574D01*
X159435000Y-115641335D01*
X159435000Y-115358665D01*
X159379853Y-115081426D01*
X159271680Y-114820273D01*
X159114637Y-114585241D01*
X158914759Y-114385363D01*
X158679727Y-114228320D01*
X158418574Y-114120147D01*
X158141335Y-114065000D01*
X157858665Y-114065000D01*
X157581426Y-114120147D01*
X157320273Y-114228320D01*
X157085241Y-114385363D01*
X156885363Y-114585241D01*
X156728320Y-114820273D01*
X156620147Y-115081426D01*
X156565000Y-115358665D01*
X155040381Y-115358665D01*
X155218932Y-115141101D01*
X155352182Y-114891808D01*
X155434236Y-114621309D01*
X155461943Y-114340000D01*
X155434236Y-114058691D01*
X155352182Y-113788192D01*
X155218932Y-113538899D01*
X155039608Y-113320392D01*
X154821101Y-113141068D01*
X154688142Y-113070000D01*
X154821101Y-112998932D01*
X155039608Y-112819608D01*
X155146795Y-112689000D01*
X156959604Y-112689000D01*
X157085241Y-112814637D01*
X157320273Y-112971680D01*
X157581426Y-113079853D01*
X157858665Y-113135000D01*
X158141335Y-113135000D01*
X158418574Y-113079853D01*
X158679727Y-112971680D01*
X158914759Y-112814637D01*
X159114637Y-112614759D01*
X159271680Y-112379727D01*
X159379853Y-112118574D01*
X159435000Y-111841335D01*
X159435000Y-111558665D01*
X166725000Y-111558665D01*
X166725000Y-111841335D01*
X166780147Y-112118574D01*
X166888320Y-112379727D01*
X167045363Y-112614759D01*
X167245241Y-112814637D01*
X167480273Y-112971680D01*
X167741426Y-113079853D01*
X168018665Y-113135000D01*
X168301335Y-113135000D01*
X168578574Y-113079853D01*
X168839727Y-112971680D01*
X169074759Y-112814637D01*
X169274637Y-112614759D01*
X169431680Y-112379727D01*
X169539853Y-112118574D01*
X169595000Y-111841335D01*
X169595000Y-111558665D01*
X169539853Y-111281426D01*
X169431680Y-111020273D01*
X169274637Y-110785241D01*
X169074759Y-110585363D01*
X168839727Y-110428320D01*
X168578574Y-110320147D01*
X168301335Y-110265000D01*
X168018665Y-110265000D01*
X167741426Y-110320147D01*
X167480273Y-110428320D01*
X167245241Y-110585363D01*
X167045363Y-110785241D01*
X166888320Y-111020273D01*
X166780147Y-111281426D01*
X166725000Y-111558665D01*
X159435000Y-111558665D01*
X159379853Y-111281426D01*
X159271680Y-111020273D01*
X159114637Y-110785241D01*
X158914759Y-110585363D01*
X158679727Y-110428320D01*
X158418574Y-110320147D01*
X158141335Y-110265000D01*
X157858665Y-110265000D01*
X157581426Y-110320147D01*
X157320273Y-110428320D01*
X157085241Y-110585363D01*
X156885363Y-110785241D01*
X156801334Y-110911000D01*
X155146795Y-110911000D01*
X155039608Y-110780392D01*
X154821101Y-110601068D01*
X154571808Y-110467818D01*
X154301309Y-110385764D01*
X154090492Y-110365000D01*
X153149508Y-110365000D01*
X152938691Y-110385764D01*
X152668192Y-110467818D01*
X152418899Y-110601068D01*
X152200392Y-110780392D01*
X152021068Y-110998899D01*
X151887818Y-111248192D01*
X151805764Y-111518691D01*
X151778057Y-111800000D01*
X151805764Y-112081309D01*
X151887818Y-112351808D01*
X152021068Y-112601101D01*
X152200392Y-112819608D01*
X152418899Y-112998932D01*
X152551858Y-113070000D01*
X152418899Y-113141068D01*
X152200392Y-113320392D01*
X152021068Y-113538899D01*
X151887818Y-113788192D01*
X151805764Y-114058691D01*
X151778057Y-114340000D01*
X151805764Y-114621309D01*
X151887818Y-114891808D01*
X152021068Y-115141101D01*
X152200392Y-115359608D01*
X152418899Y-115538932D01*
X152551858Y-115610000D01*
X152418899Y-115681068D01*
X152200392Y-115860392D01*
X152021068Y-116078899D01*
X151887818Y-116328192D01*
X151805764Y-116598691D01*
X151778057Y-116880000D01*
X151805764Y-117161309D01*
X151831154Y-117245010D01*
X147788846Y-117245010D01*
X147814236Y-117161309D01*
X147841943Y-116880000D01*
X147814236Y-116598691D01*
X147732182Y-116328192D01*
X147598932Y-116078899D01*
X147419608Y-115860392D01*
X147201101Y-115681068D01*
X147068142Y-115610000D01*
X147201101Y-115538932D01*
X147419608Y-115359608D01*
X147598932Y-115141101D01*
X147732182Y-114891808D01*
X147814236Y-114621309D01*
X147841943Y-114340000D01*
X147814236Y-114058691D01*
X147732182Y-113788192D01*
X147598932Y-113538899D01*
X147419608Y-113320392D01*
X147306518Y-113227581D01*
X147324482Y-113225812D01*
X147444180Y-113189502D01*
X147554494Y-113130537D01*
X147651185Y-113051185D01*
X147730537Y-112954494D01*
X147789502Y-112844180D01*
X147825812Y-112724482D01*
X147838072Y-112600000D01*
X147838072Y-111219163D01*
X152568236Y-106489000D01*
X157415200Y-106489000D01*
X157320273Y-106528320D01*
X157085241Y-106685363D01*
X156885363Y-106885241D01*
X156728320Y-107120273D01*
X156620147Y-107381426D01*
X156565000Y-107658665D01*
X156565000Y-107941335D01*
X156620147Y-108218574D01*
X156728320Y-108479727D01*
X156885363Y-108714759D01*
X157085241Y-108914637D01*
X157320273Y-109071680D01*
X157581426Y-109179853D01*
X157858665Y-109235000D01*
X158141335Y-109235000D01*
X158418574Y-109179853D01*
X158679727Y-109071680D01*
X158914759Y-108914637D01*
X159114637Y-108714759D01*
X159271680Y-108479727D01*
X159379853Y-108218574D01*
X159435000Y-107941335D01*
X159435000Y-107658665D01*
X159379853Y-107381426D01*
X159271680Y-107120273D01*
X159114637Y-106885241D01*
X158914759Y-106685363D01*
X158679727Y-106528320D01*
X158584800Y-106489000D01*
X167575200Y-106489000D01*
X167480273Y-106528320D01*
X167245241Y-106685363D01*
X167045363Y-106885241D01*
X166888320Y-107120273D01*
X166780147Y-107381426D01*
X166725000Y-107658665D01*
X166725000Y-107941335D01*
X166780147Y-108218574D01*
X166888320Y-108479727D01*
X167045363Y-108714759D01*
X167245241Y-108914637D01*
X167480273Y-109071680D01*
X167741426Y-109179853D01*
X168018665Y-109235000D01*
X168301335Y-109235000D01*
X168578574Y-109179853D01*
X168839727Y-109071680D01*
X169074759Y-108914637D01*
X169274637Y-108714759D01*
X169431680Y-108479727D01*
X169539853Y-108218574D01*
X169595000Y-107941335D01*
X169595000Y-107658665D01*
X169539853Y-107381426D01*
X169431680Y-107120273D01*
X169274637Y-106885241D01*
X169074759Y-106685363D01*
X168839727Y-106528320D01*
X168744800Y-106489000D01*
X173351350Y-106489000D01*
X173372068Y-106593158D01*
X173484010Y-106863411D01*
X173646525Y-107106632D01*
X173853368Y-107313475D01*
X174027760Y-107430000D01*
X173853368Y-107546525D01*
X173646525Y-107753368D01*
X173484010Y-107996589D01*
X173372068Y-108266842D01*
X173315000Y-108553740D01*
X173315000Y-108846260D01*
X173372068Y-109133158D01*
X173484010Y-109403411D01*
X173646525Y-109646632D01*
X173853368Y-109853475D01*
X174027760Y-109970000D01*
X173853368Y-110086525D01*
X173646525Y-110293368D01*
X173484010Y-110536589D01*
X173372068Y-110806842D01*
X173315000Y-111093740D01*
X173315000Y-111386260D01*
X173372068Y-111673158D01*
X173484010Y-111943411D01*
X173646525Y-112186632D01*
X173853368Y-112393475D01*
X174027760Y-112510000D01*
X173853368Y-112626525D01*
X173646525Y-112833368D01*
X173484010Y-113076589D01*
X173372068Y-113346842D01*
X173315000Y-113633740D01*
X173315000Y-113926260D01*
X173372068Y-114213158D01*
X173484010Y-114483411D01*
X173646525Y-114726632D01*
X173830893Y-114911000D01*
X172568236Y-114911000D01*
X171989000Y-114331765D01*
X171989000Y-110643667D01*
X171993301Y-110600000D01*
X171989000Y-110556333D01*
X171989000Y-110512441D01*
X171980437Y-110469391D01*
X171976136Y-110425726D01*
X171963399Y-110383737D01*
X171954836Y-110340688D01*
X171938041Y-110300143D01*
X171925303Y-110258149D01*
X171904614Y-110219443D01*
X171887821Y-110178901D01*
X171863442Y-110142415D01*
X171842753Y-110103709D01*
X171814912Y-110069785D01*
X171790531Y-110033296D01*
X171759499Y-110002264D01*
X171731659Y-109968341D01*
X171697736Y-109940501D01*
X171666704Y-109909469D01*
X171630215Y-109885088D01*
X171596291Y-109857247D01*
X171557585Y-109836558D01*
X171521099Y-109812179D01*
X171480557Y-109795386D01*
X171441851Y-109774697D01*
X171399857Y-109761959D01*
X171359312Y-109745164D01*
X171316263Y-109736601D01*
X171274274Y-109723864D01*
X171230609Y-109719563D01*
X171187559Y-109711000D01*
X171143667Y-109711000D01*
X171100000Y-109706699D01*
X171056333Y-109711000D01*
X171012441Y-109711000D01*
X170969391Y-109719563D01*
X170925726Y-109723864D01*
X170883737Y-109736601D01*
X170840688Y-109745164D01*
X170800143Y-109761959D01*
X170758149Y-109774697D01*
X170719443Y-109795386D01*
X170678901Y-109812179D01*
X170642415Y-109836558D01*
X170603709Y-109857247D01*
X170569785Y-109885088D01*
X170533296Y-109909469D01*
X170502264Y-109940501D01*
X170468341Y-109968341D01*
X170440501Y-110002264D01*
X170409469Y-110033296D01*
X170385088Y-110069785D01*
X170357247Y-110103709D01*
X170336558Y-110142415D01*
X170312179Y-110178901D01*
X170295386Y-110219443D01*
X170274697Y-110258149D01*
X170261959Y-110300143D01*
X170245164Y-110340688D01*
X170236601Y-110383737D01*
X170223864Y-110425726D01*
X170219563Y-110469391D01*
X170211000Y-110512441D01*
X170211000Y-110556333D01*
X170206699Y-110600000D01*
X170211000Y-110643667D01*
X170211000Y-110687559D01*
X170211001Y-110687564D01*
X170211000Y-114656340D01*
X170206700Y-114700000D01*
X170211000Y-114743660D01*
X170211000Y-114743666D01*
X170223864Y-114874273D01*
X170274697Y-115041850D01*
X170357247Y-115196290D01*
X170468341Y-115331659D01*
X170502264Y-115359499D01*
X171311000Y-116168236D01*
X171311001Y-126391763D01*
X168331721Y-129371044D01*
X168301335Y-129365000D01*
X168018665Y-129365000D01*
X167741426Y-129420147D01*
X167480273Y-129528320D01*
X167245241Y-129685363D01*
X167045363Y-129885241D01*
X166888320Y-130120273D01*
X166780147Y-130381426D01*
X166725000Y-130658665D01*
X166725000Y-130941335D01*
X166780147Y-131218574D01*
X166888320Y-131479727D01*
X167045363Y-131714759D01*
X167245241Y-131914637D01*
X167480273Y-132071680D01*
X167741426Y-132179853D01*
X168018665Y-132235000D01*
X168301335Y-132235000D01*
X168578574Y-132179853D01*
X168839727Y-132071680D01*
X169074759Y-131914637D01*
X169274637Y-131714759D01*
X169431680Y-131479727D01*
X169539853Y-131218574D01*
X169595000Y-130941335D01*
X169595000Y-130658665D01*
X169588956Y-130628279D01*
X172797742Y-127419494D01*
X172831659Y-127391659D01*
X172942753Y-127256291D01*
X173025303Y-127101851D01*
X173076136Y-126934274D01*
X173089000Y-126803667D01*
X173089000Y-126803660D01*
X173093300Y-126760000D01*
X173089000Y-126716340D01*
X173089000Y-116689000D01*
X177856340Y-116689000D01*
X177900000Y-116693300D01*
X177943660Y-116689000D01*
X177943667Y-116689000D01*
X178074274Y-116676136D01*
X178241851Y-116625303D01*
X178396291Y-116542753D01*
X178531659Y-116431659D01*
X178559499Y-116397736D01*
X180297736Y-114659499D01*
X180331659Y-114631659D01*
X180442753Y-114496291D01*
X180525303Y-114341851D01*
X180564341Y-114213158D01*
X180576136Y-114174276D01*
X180581467Y-114120147D01*
X180589000Y-114043667D01*
X180589000Y-114043661D01*
X180593300Y-114000001D01*
X180589000Y-113956341D01*
X180589000Y-90343659D01*
X180593300Y-90299999D01*
X180589000Y-90256334D01*
X180589000Y-90256333D01*
X180576136Y-90125726D01*
X180576136Y-90125724D01*
X180525302Y-89958147D01*
X180505901Y-89921851D01*
X180442753Y-89803709D01*
X180331659Y-89668341D01*
X180297743Y-89640507D01*
X178698450Y-88041214D01*
X178726499Y-88035635D01*
X179054988Y-87899571D01*
X179350621Y-87702035D01*
X179602035Y-87450621D01*
X179799571Y-87154988D01*
X179935635Y-86826499D01*
X180005000Y-86477777D01*
X180005000Y-86122223D01*
X179935635Y-85773501D01*
X179799571Y-85445012D01*
X179602035Y-85149379D01*
X179350621Y-84897965D01*
X179054988Y-84700429D01*
X178726499Y-84564365D01*
X178377777Y-84495000D01*
X178022223Y-84495000D01*
X177673501Y-84564365D01*
X177345012Y-84700429D01*
X177049379Y-84897965D01*
X176797965Y-85149379D01*
X176600429Y-85445012D01*
X176464365Y-85773501D01*
X176458786Y-85801550D01*
X174943615Y-84286380D01*
X175005000Y-83977777D01*
X175005000Y-83622223D01*
X174935635Y-83273501D01*
X174799571Y-82945012D01*
X174602035Y-82649379D01*
X174350621Y-82397965D01*
X174054988Y-82200429D01*
X173726499Y-82064365D01*
X173377777Y-81995000D01*
X173022223Y-81995000D01*
X172673501Y-82064365D01*
X172345012Y-82200429D01*
X172049379Y-82397965D01*
X171797965Y-82649379D01*
X171600429Y-82945012D01*
X171464365Y-83273501D01*
X171409013Y-83551777D01*
X169259499Y-81402264D01*
X169231659Y-81368341D01*
X169115986Y-81273410D01*
X169267173Y-81122223D01*
X176395000Y-81122223D01*
X176395000Y-81477777D01*
X176464365Y-81826499D01*
X176600429Y-82154988D01*
X176797965Y-82450621D01*
X177049379Y-82702035D01*
X177345012Y-82899571D01*
X177673501Y-83035635D01*
X178022223Y-83105000D01*
X178377777Y-83105000D01*
X178726499Y-83035635D01*
X179054988Y-82899571D01*
X179350621Y-82702035D01*
X179602035Y-82450621D01*
X179799571Y-82154988D01*
X179935635Y-81826499D01*
X180005000Y-81477777D01*
X180005000Y-81122223D01*
X179935635Y-80773501D01*
X179799571Y-80445012D01*
X179602035Y-80149379D01*
X179350621Y-79897965D01*
X179054988Y-79700429D01*
X178726499Y-79564365D01*
X178377777Y-79495000D01*
X178022223Y-79495000D01*
X177673501Y-79564365D01*
X177345012Y-79700429D01*
X177049379Y-79897965D01*
X176797965Y-80149379D01*
X176600429Y-80445012D01*
X176464365Y-80773501D01*
X176395000Y-81122223D01*
X169267173Y-81122223D01*
X169274637Y-81114759D01*
X169431680Y-80879727D01*
X169539853Y-80618574D01*
X169595000Y-80341335D01*
X169595000Y-80058665D01*
X169539853Y-79781426D01*
X169431680Y-79520273D01*
X169274637Y-79285241D01*
X169074759Y-79085363D01*
X168839727Y-78928320D01*
X168578574Y-78820147D01*
X168301335Y-78765000D01*
X168018665Y-78765000D01*
X167988279Y-78771044D01*
X167265498Y-78048263D01*
X167237658Y-78014340D01*
X167102290Y-77903246D01*
X166947850Y-77820696D01*
X166780273Y-77769863D01*
X166649666Y-77756999D01*
X166649659Y-77756999D01*
X166605999Y-77752699D01*
X166562339Y-77756999D01*
X149097660Y-77756999D01*
X149054000Y-77752699D01*
X149010340Y-77756999D01*
X149010334Y-77756999D01*
X148912925Y-77766593D01*
X148879725Y-77769863D01*
X148778059Y-77800703D01*
X148712150Y-77820696D01*
X148557710Y-77903246D01*
X148422342Y-78014340D01*
X148394507Y-78048257D01*
X146177764Y-80265001D01*
X146130509Y-80265001D01*
X146175000Y-80041335D01*
X146175000Y-79758665D01*
X146168956Y-79728279D01*
X150504235Y-75393001D01*
X162452339Y-75393001D01*
X162495999Y-75397301D01*
X162539659Y-75393001D01*
X162539666Y-75393001D01*
X162670273Y-75380137D01*
X162837850Y-75329304D01*
X162992290Y-75246754D01*
X163127658Y-75135660D01*
X163155498Y-75101737D01*
X165319164Y-72938072D01*
X166300000Y-72938072D01*
X166424482Y-72925812D01*
X166544180Y-72889502D01*
X166654494Y-72830537D01*
X166751185Y-72751185D01*
X166830537Y-72654494D01*
X166889502Y-72544180D01*
X166905117Y-72492702D01*
X167186903Y-72492702D01*
X167258486Y-72736671D01*
X167513996Y-72857571D01*
X167788184Y-72926300D01*
X168070512Y-72940217D01*
X168350130Y-72898787D01*
X168616292Y-72803603D01*
X168741514Y-72736671D01*
X168813097Y-72492702D01*
X168000000Y-71679605D01*
X167186903Y-72492702D01*
X166905117Y-72492702D01*
X166925812Y-72424482D01*
X166938072Y-72300000D01*
X166938072Y-72292785D01*
X167007298Y-72313097D01*
X167820395Y-71500000D01*
X167007298Y-70686903D01*
X166938072Y-70707215D01*
X166938072Y-70700000D01*
X166925812Y-70575518D01*
X166889502Y-70455820D01*
X166830537Y-70345506D01*
X166751185Y-70248815D01*
X166654494Y-70169463D01*
X166544180Y-70110498D01*
X166424482Y-70074188D01*
X166300000Y-70061928D01*
X164700000Y-70061928D01*
X164575518Y-70074188D01*
X164455820Y-70110498D01*
X164345506Y-70169463D01*
X164248815Y-70248815D01*
X164169463Y-70345506D01*
X164110498Y-70455820D01*
X164074188Y-70575518D01*
X164061928Y-70700000D01*
X164061928Y-71680836D01*
X162127764Y-73615001D01*
X155891544Y-73615001D01*
X155945000Y-73346260D01*
X155945000Y-73053740D01*
X155887932Y-72766842D01*
X155775990Y-72496589D01*
X155613475Y-72253368D01*
X155406632Y-72046525D01*
X155232240Y-71930000D01*
X155406632Y-71813475D01*
X155613475Y-71606632D01*
X155775990Y-71363411D01*
X155887932Y-71093158D01*
X155945000Y-70806260D01*
X155945000Y-70513740D01*
X155887932Y-70226842D01*
X155775990Y-69956589D01*
X155613475Y-69713368D01*
X155406632Y-69506525D01*
X155163411Y-69344010D01*
X154893158Y-69232068D01*
X154606260Y-69175000D01*
X154313740Y-69175000D01*
X154026842Y-69232068D01*
X153756589Y-69344010D01*
X153513368Y-69506525D01*
X153306525Y-69713368D01*
X153190689Y-69886729D01*
X152948397Y-69811208D01*
X152099605Y-70660000D01*
X152948397Y-71508792D01*
X153190689Y-71433271D01*
X153306525Y-71606632D01*
X153513368Y-71813475D01*
X153687760Y-71930000D01*
X153513368Y-72046525D01*
X153306525Y-72253368D01*
X153190689Y-72426729D01*
X152948397Y-72351208D01*
X152099605Y-73200000D01*
X152113748Y-73214143D01*
X151934143Y-73393748D01*
X151920000Y-73379605D01*
X151905858Y-73393748D01*
X151726253Y-73214143D01*
X151740395Y-73200000D01*
X150891603Y-72351208D01*
X150650000Y-72426514D01*
X150408397Y-72351208D01*
X149559605Y-73200000D01*
X149573748Y-73214143D01*
X149394143Y-73393748D01*
X149380000Y-73379605D01*
X148531208Y-74228397D01*
X148608843Y-74477472D01*
X148809578Y-74573186D01*
X144911721Y-78471044D01*
X144881335Y-78465000D01*
X144598665Y-78465000D01*
X144321426Y-78520147D01*
X144060273Y-78628320D01*
X143825241Y-78785363D01*
X143625363Y-78985241D01*
X143468320Y-79220273D01*
X143360147Y-79481426D01*
X143305000Y-79758665D01*
X143305000Y-80041335D01*
X143349491Y-80265001D01*
X143056477Y-80265001D01*
X143039853Y-80181426D01*
X142931680Y-79920273D01*
X142774637Y-79685241D01*
X142574759Y-79485363D01*
X142339727Y-79328320D01*
X142078574Y-79220147D01*
X141801335Y-79165000D01*
X141518665Y-79165000D01*
X141241426Y-79220147D01*
X140980273Y-79328320D01*
X140745241Y-79485363D01*
X140545363Y-79685241D01*
X140388320Y-79920273D01*
X140280147Y-80181426D01*
X140225000Y-80458665D01*
X140225000Y-80741335D01*
X140280147Y-81018574D01*
X140388320Y-81279727D01*
X140545363Y-81514759D01*
X140745241Y-81714637D01*
X140980273Y-81871680D01*
X141241426Y-81979853D01*
X141518665Y-82035000D01*
X141801335Y-82035000D01*
X141954996Y-82004435D01*
X141988893Y-82014717D01*
X142039726Y-82030137D01*
X142056326Y-82031772D01*
X142170334Y-82043001D01*
X142170341Y-82043001D01*
X142214001Y-82047301D01*
X142257661Y-82043001D01*
X146502339Y-82043001D01*
X146545999Y-82047301D01*
X146589659Y-82043001D01*
X146589666Y-82043001D01*
X146720273Y-82030137D01*
X146887850Y-81979304D01*
X147042290Y-81896754D01*
X147177658Y-81785660D01*
X147205498Y-81751737D01*
X149422237Y-79534999D01*
X153509491Y-79534999D01*
X153465000Y-79758665D01*
X153465000Y-80041335D01*
X153520147Y-80318574D01*
X153628320Y-80579727D01*
X153785363Y-80814759D01*
X153985241Y-81014637D01*
X154129459Y-81111000D01*
X148543660Y-81111000D01*
X148500000Y-81106700D01*
X148456340Y-81111000D01*
X148456333Y-81111000D01*
X148342387Y-81122223D01*
X148325725Y-81123864D01*
X148252758Y-81145998D01*
X148158149Y-81174697D01*
X148003709Y-81257247D01*
X147868341Y-81368341D01*
X147840506Y-81402258D01*
X146180837Y-83061928D01*
X144800000Y-83061928D01*
X144675518Y-83074188D01*
X144555820Y-83110498D01*
X144445506Y-83169463D01*
X144348815Y-83248815D01*
X144269463Y-83345506D01*
X144210498Y-83455820D01*
X144174188Y-83575518D01*
X144161928Y-83700000D01*
X144161928Y-85300000D01*
X144174188Y-85424482D01*
X144210498Y-85544180D01*
X144269463Y-85654494D01*
X144348815Y-85751185D01*
X144445506Y-85830537D01*
X144555820Y-85889502D01*
X144675518Y-85925812D01*
X144693482Y-85927581D01*
X144580392Y-86020392D01*
X144401068Y-86238899D01*
X144267818Y-86488192D01*
X144185764Y-86758691D01*
X144158057Y-87040000D01*
X144185764Y-87321309D01*
X144267818Y-87591808D01*
X144401068Y-87841101D01*
X144580392Y-88059608D01*
X144798899Y-88238932D01*
X144931858Y-88310000D01*
X144798899Y-88381068D01*
X144580392Y-88560392D01*
X144412474Y-88765001D01*
X143090509Y-88765001D01*
X143135000Y-88541335D01*
X143135000Y-88258665D01*
X143079853Y-87981426D01*
X142971680Y-87720273D01*
X142814637Y-87485241D01*
X142614759Y-87285363D01*
X142379727Y-87128320D01*
X142118574Y-87020147D01*
X141841335Y-86965000D01*
X141558665Y-86965000D01*
X141281426Y-87020147D01*
X141020273Y-87128320D01*
X140785241Y-87285363D01*
X140585363Y-87485241D01*
X140428320Y-87720273D01*
X140426348Y-87725034D01*
X137059979Y-84358665D01*
X140265000Y-84358665D01*
X140265000Y-84641335D01*
X140320147Y-84918574D01*
X140428320Y-85179727D01*
X140585363Y-85414759D01*
X140785241Y-85614637D01*
X141020273Y-85771680D01*
X141281426Y-85879853D01*
X141558665Y-85935000D01*
X141841335Y-85935000D01*
X142118574Y-85879853D01*
X142379727Y-85771680D01*
X142614759Y-85614637D01*
X142814637Y-85414759D01*
X142971680Y-85179727D01*
X143079853Y-84918574D01*
X143135000Y-84641335D01*
X143135000Y-84358665D01*
X143079853Y-84081426D01*
X142971680Y-83820273D01*
X142814637Y-83585241D01*
X142614759Y-83385363D01*
X142379727Y-83228320D01*
X142118574Y-83120147D01*
X141841335Y-83065000D01*
X141558665Y-83065000D01*
X141281426Y-83120147D01*
X141020273Y-83228320D01*
X140785241Y-83385363D01*
X140585363Y-83585241D01*
X140428320Y-83820273D01*
X140320147Y-84081426D01*
X140265000Y-84358665D01*
X137059979Y-84358665D01*
X134613578Y-81912265D01*
X134585738Y-81878342D01*
X134450370Y-81767248D01*
X134295930Y-81684698D01*
X134128353Y-81633865D01*
X133997746Y-81621001D01*
X133997739Y-81621001D01*
X133954079Y-81616701D01*
X133910419Y-81621001D01*
X132508395Y-81621001D01*
X132614637Y-81514759D01*
X132771680Y-81279727D01*
X132879853Y-81018574D01*
X132935000Y-80741335D01*
X132935000Y-80458665D01*
X132879853Y-80181426D01*
X132771680Y-79920273D01*
X132614637Y-79685241D01*
X132414759Y-79485363D01*
X132179727Y-79328320D01*
X131918574Y-79220147D01*
X131641335Y-79165000D01*
X131358665Y-79165000D01*
X131081426Y-79220147D01*
X130820273Y-79328320D01*
X130585241Y-79485363D01*
X130385363Y-79685241D01*
X130228320Y-79920273D01*
X130120147Y-80181426D01*
X130065000Y-80458665D01*
X130065000Y-80741335D01*
X130120147Y-81018574D01*
X130228320Y-81279727D01*
X130385363Y-81514759D01*
X130491605Y-81621001D01*
X127046220Y-81621001D01*
X127071641Y-81586920D01*
X127196825Y-81324099D01*
X127241476Y-81176890D01*
X127120155Y-80947000D01*
X125927000Y-80947000D01*
X125927000Y-80967000D01*
X125673000Y-80967000D01*
X125673000Y-80947000D01*
X124479845Y-80947000D01*
X124358524Y-81176890D01*
X124403175Y-81324099D01*
X124528359Y-81586920D01*
X124702412Y-81820269D01*
X124918645Y-82015178D01*
X125035534Y-82084805D01*
X124853368Y-82206525D01*
X124646525Y-82413368D01*
X124484010Y-82656589D01*
X124372068Y-82926842D01*
X124315000Y-83213740D01*
X124315000Y-83506260D01*
X124372068Y-83793158D01*
X124484010Y-84063411D01*
X124646525Y-84306632D01*
X124778380Y-84438487D01*
X124705820Y-84460498D01*
X124609317Y-84512081D01*
X123671477Y-83574242D01*
X123685000Y-83506260D01*
X123685000Y-83213740D01*
X123627932Y-82926842D01*
X123515990Y-82656589D01*
X123353475Y-82413368D01*
X123146632Y-82206525D01*
X122964466Y-82084805D01*
X123081355Y-82015178D01*
X123297588Y-81820269D01*
X123471641Y-81586920D01*
X123596825Y-81324099D01*
X123641476Y-81176890D01*
X123520155Y-80947000D01*
X122327000Y-80947000D01*
X122327000Y-80967000D01*
X122073000Y-80967000D01*
X122073000Y-80947000D01*
X120879845Y-80947000D01*
X120758524Y-81176890D01*
X120803175Y-81324099D01*
X120928359Y-81586920D01*
X121102412Y-81820269D01*
X121318645Y-82015178D01*
X121435534Y-82084805D01*
X121253368Y-82206525D01*
X121046525Y-82413368D01*
X120884010Y-82656589D01*
X120772068Y-82926842D01*
X120715000Y-83213740D01*
X120715000Y-83506260D01*
X120772068Y-83793158D01*
X120884010Y-84063411D01*
X121046525Y-84306632D01*
X121178380Y-84438487D01*
X121105820Y-84460498D01*
X120995506Y-84519463D01*
X120898815Y-84598815D01*
X120819463Y-84695506D01*
X120760498Y-84805820D01*
X120724188Y-84925518D01*
X120711928Y-85050000D01*
X118160000Y-85050000D01*
X118160000Y-80463110D01*
X120758524Y-80463110D01*
X120879845Y-80693000D01*
X122073000Y-80693000D01*
X122073000Y-79499186D01*
X122327000Y-79499186D01*
X122327000Y-80693000D01*
X123520155Y-80693000D01*
X123641476Y-80463110D01*
X124358524Y-80463110D01*
X124479845Y-80693000D01*
X125673000Y-80693000D01*
X125673000Y-79499186D01*
X125927000Y-79499186D01*
X125927000Y-80693000D01*
X127120155Y-80693000D01*
X127241476Y-80463110D01*
X127196825Y-80315901D01*
X127071641Y-80053080D01*
X126897588Y-79819731D01*
X126681355Y-79624822D01*
X126431252Y-79475843D01*
X126156891Y-79378519D01*
X125927000Y-79499186D01*
X125673000Y-79499186D01*
X125443109Y-79378519D01*
X125168748Y-79475843D01*
X124918645Y-79624822D01*
X124702412Y-79819731D01*
X124528359Y-80053080D01*
X124403175Y-80315901D01*
X124358524Y-80463110D01*
X123641476Y-80463110D01*
X123596825Y-80315901D01*
X123471641Y-80053080D01*
X123297588Y-79819731D01*
X123081355Y-79624822D01*
X122831252Y-79475843D01*
X122556891Y-79378519D01*
X122327000Y-79499186D01*
X122073000Y-79499186D01*
X121843109Y-79378519D01*
X121568748Y-79475843D01*
X121318645Y-79624822D01*
X121102412Y-79819731D01*
X120928359Y-80053080D01*
X120803175Y-80315901D01*
X120758524Y-80463110D01*
X118160000Y-80463110D01*
X118160000Y-76558665D01*
X123665000Y-76558665D01*
X123665000Y-76841335D01*
X123720147Y-77118574D01*
X123828320Y-77379727D01*
X123985363Y-77614759D01*
X124185241Y-77814637D01*
X124420273Y-77971680D01*
X124681426Y-78079853D01*
X124958665Y-78135000D01*
X125241335Y-78135000D01*
X125518574Y-78079853D01*
X125779727Y-77971680D01*
X126014759Y-77814637D01*
X126214637Y-77614759D01*
X126371680Y-77379727D01*
X126479853Y-77118574D01*
X126535000Y-76841335D01*
X126535000Y-76558665D01*
X133825000Y-76558665D01*
X133825000Y-76841335D01*
X133880147Y-77118574D01*
X133988320Y-77379727D01*
X134145363Y-77614759D01*
X134345241Y-77814637D01*
X134580273Y-77971680D01*
X134841426Y-78079853D01*
X135118665Y-78135000D01*
X135401335Y-78135000D01*
X135678574Y-78079853D01*
X135939727Y-77971680D01*
X136174759Y-77814637D01*
X136374637Y-77614759D01*
X136531680Y-77379727D01*
X136639853Y-77118574D01*
X136695000Y-76841335D01*
X136695000Y-76558665D01*
X136639853Y-76281426D01*
X136531680Y-76020273D01*
X136374637Y-75785241D01*
X136174759Y-75585363D01*
X135939727Y-75428320D01*
X135678574Y-75320147D01*
X135401335Y-75265000D01*
X135118665Y-75265000D01*
X134841426Y-75320147D01*
X134580273Y-75428320D01*
X134345241Y-75585363D01*
X134145363Y-75785241D01*
X133988320Y-76020273D01*
X133880147Y-76281426D01*
X133825000Y-76558665D01*
X126535000Y-76558665D01*
X126479853Y-76281426D01*
X126371680Y-76020273D01*
X126214637Y-75785241D01*
X126014759Y-75585363D01*
X125779727Y-75428320D01*
X125518574Y-75320147D01*
X125241335Y-75265000D01*
X124958665Y-75265000D01*
X124681426Y-75320147D01*
X124420273Y-75428320D01*
X124185241Y-75585363D01*
X123985363Y-75785241D01*
X123828320Y-76020273D01*
X123720147Y-76281426D01*
X123665000Y-76558665D01*
X118160000Y-76558665D01*
X118160000Y-72758665D01*
X123705000Y-72758665D01*
X123705000Y-73041335D01*
X123760147Y-73318574D01*
X123868320Y-73579727D01*
X124025363Y-73814759D01*
X124225241Y-74014637D01*
X124460273Y-74171680D01*
X124721426Y-74279853D01*
X124998665Y-74335000D01*
X125281335Y-74335000D01*
X125558574Y-74279853D01*
X125819727Y-74171680D01*
X126054759Y-74014637D01*
X126176694Y-73892702D01*
X134486903Y-73892702D01*
X134558486Y-74136671D01*
X134813996Y-74257571D01*
X135088184Y-74326300D01*
X135370512Y-74340217D01*
X135650130Y-74298787D01*
X135916292Y-74203603D01*
X136041514Y-74136671D01*
X136113097Y-73892702D01*
X135300000Y-73079605D01*
X134486903Y-73892702D01*
X126176694Y-73892702D01*
X126254637Y-73814759D01*
X126411680Y-73579727D01*
X126519853Y-73318574D01*
X126575000Y-73041335D01*
X126575000Y-72970512D01*
X133859783Y-72970512D01*
X133901213Y-73250130D01*
X133996397Y-73516292D01*
X134063329Y-73641514D01*
X134307298Y-73713097D01*
X135120395Y-72900000D01*
X135479605Y-72900000D01*
X136292702Y-73713097D01*
X136536671Y-73641514D01*
X136657571Y-73386004D01*
X136726300Y-73111816D01*
X136740217Y-72829488D01*
X136706215Y-72600000D01*
X142811928Y-72600000D01*
X142811928Y-73800000D01*
X142828992Y-73973254D01*
X142879528Y-74139850D01*
X142961595Y-74293386D01*
X143072038Y-74427962D01*
X143206614Y-74538405D01*
X143360150Y-74620472D01*
X143526746Y-74671008D01*
X143700000Y-74688072D01*
X144900000Y-74688072D01*
X145073254Y-74671008D01*
X145239850Y-74620472D01*
X145393386Y-74538405D01*
X145527962Y-74427962D01*
X145638405Y-74293386D01*
X145673142Y-74228397D01*
X145991208Y-74228397D01*
X146068843Y-74477472D01*
X146332883Y-74603371D01*
X146616411Y-74675339D01*
X146908531Y-74690611D01*
X147198019Y-74648599D01*
X147473747Y-74550919D01*
X147611157Y-74477472D01*
X147688792Y-74228397D01*
X146840000Y-73379605D01*
X145991208Y-74228397D01*
X145673142Y-74228397D01*
X145720472Y-74139850D01*
X145753580Y-74030707D01*
X145811603Y-74048792D01*
X146660395Y-73200000D01*
X147019605Y-73200000D01*
X147868397Y-74048792D01*
X148110000Y-73973486D01*
X148351603Y-74048792D01*
X149200395Y-73200000D01*
X148351603Y-72351208D01*
X148110000Y-72426514D01*
X147868397Y-72351208D01*
X147019605Y-73200000D01*
X146660395Y-73200000D01*
X145811603Y-72351208D01*
X145753580Y-72369293D01*
X145720472Y-72260150D01*
X145638405Y-72106614D01*
X145527962Y-71972038D01*
X145393386Y-71861595D01*
X145266392Y-71793715D01*
X145371710Y-71688397D01*
X145991208Y-71688397D01*
X146066514Y-71930000D01*
X145991208Y-72171603D01*
X146840000Y-73020395D01*
X147688792Y-72171603D01*
X147613486Y-71930000D01*
X147688792Y-71688397D01*
X148531208Y-71688397D01*
X148606514Y-71930000D01*
X148531208Y-72171603D01*
X149380000Y-73020395D01*
X150228792Y-72171603D01*
X150153486Y-71930000D01*
X150228792Y-71688397D01*
X151071208Y-71688397D01*
X151146514Y-71930000D01*
X151071208Y-72171603D01*
X151920000Y-73020395D01*
X152768792Y-72171603D01*
X152693486Y-71930000D01*
X152768792Y-71688397D01*
X151920000Y-70839605D01*
X151071208Y-71688397D01*
X150228792Y-71688397D01*
X149380000Y-70839605D01*
X148531208Y-71688397D01*
X147688792Y-71688397D01*
X146840000Y-70839605D01*
X145991208Y-71688397D01*
X145371710Y-71688397D01*
X145453475Y-71606632D01*
X145569311Y-71433271D01*
X145811603Y-71508792D01*
X146660395Y-70660000D01*
X147019605Y-70660000D01*
X147868397Y-71508792D01*
X148110000Y-71433486D01*
X148351603Y-71508792D01*
X149200395Y-70660000D01*
X149559605Y-70660000D01*
X150408397Y-71508792D01*
X150650000Y-71433486D01*
X150891603Y-71508792D01*
X151740395Y-70660000D01*
X150891603Y-69811208D01*
X150650000Y-69886514D01*
X150408397Y-69811208D01*
X149559605Y-70660000D01*
X149200395Y-70660000D01*
X148351603Y-69811208D01*
X148110000Y-69886514D01*
X147868397Y-69811208D01*
X147019605Y-70660000D01*
X146660395Y-70660000D01*
X145811603Y-69811208D01*
X145569311Y-69886729D01*
X145453475Y-69713368D01*
X145371710Y-69631603D01*
X145991208Y-69631603D01*
X146840000Y-70480395D01*
X147688792Y-69631603D01*
X148531208Y-69631603D01*
X149380000Y-70480395D01*
X150228792Y-69631603D01*
X151071208Y-69631603D01*
X151920000Y-70480395D01*
X152768792Y-69631603D01*
X152691157Y-69382528D01*
X152427117Y-69256629D01*
X152143589Y-69184661D01*
X151851469Y-69169389D01*
X151561981Y-69211401D01*
X151286253Y-69309081D01*
X151148843Y-69382528D01*
X151071208Y-69631603D01*
X150228792Y-69631603D01*
X150151157Y-69382528D01*
X149887117Y-69256629D01*
X149603589Y-69184661D01*
X149311469Y-69169389D01*
X149021981Y-69211401D01*
X148746253Y-69309081D01*
X148608843Y-69382528D01*
X148531208Y-69631603D01*
X147688792Y-69631603D01*
X147611157Y-69382528D01*
X147347117Y-69256629D01*
X147063589Y-69184661D01*
X146771469Y-69169389D01*
X146481981Y-69211401D01*
X146206253Y-69309081D01*
X146068843Y-69382528D01*
X145991208Y-69631603D01*
X145371710Y-69631603D01*
X145246632Y-69506525D01*
X145003411Y-69344010D01*
X144733158Y-69232068D01*
X144446260Y-69175000D01*
X144153740Y-69175000D01*
X143866842Y-69232068D01*
X143596589Y-69344010D01*
X143353368Y-69506525D01*
X143146525Y-69713368D01*
X142984010Y-69956589D01*
X142872068Y-70226842D01*
X142815000Y-70513740D01*
X142815000Y-70806260D01*
X142872068Y-71093158D01*
X142984010Y-71363411D01*
X143146525Y-71606632D01*
X143333608Y-71793715D01*
X143206614Y-71861595D01*
X143072038Y-71972038D01*
X142961595Y-72106614D01*
X142879528Y-72260150D01*
X142828992Y-72426746D01*
X142811928Y-72600000D01*
X136706215Y-72600000D01*
X136698787Y-72549870D01*
X136603603Y-72283708D01*
X136536671Y-72158486D01*
X136292702Y-72086903D01*
X135479605Y-72900000D01*
X135120395Y-72900000D01*
X134307298Y-72086903D01*
X134063329Y-72158486D01*
X133942429Y-72413996D01*
X133873700Y-72688184D01*
X133859783Y-72970512D01*
X126575000Y-72970512D01*
X126575000Y-72758665D01*
X126519853Y-72481426D01*
X126411680Y-72220273D01*
X126254637Y-71985241D01*
X126176694Y-71907298D01*
X134486903Y-71907298D01*
X135300000Y-72720395D01*
X136113097Y-71907298D01*
X136041514Y-71663329D01*
X135786004Y-71542429D01*
X135511816Y-71473700D01*
X135229488Y-71459783D01*
X134949870Y-71501213D01*
X134683708Y-71596397D01*
X134558486Y-71663329D01*
X134486903Y-71907298D01*
X126176694Y-71907298D01*
X126054759Y-71785363D01*
X125819727Y-71628320D01*
X125558574Y-71520147D01*
X125281335Y-71465000D01*
X124998665Y-71465000D01*
X124721426Y-71520147D01*
X124460273Y-71628320D01*
X124225241Y-71785363D01*
X124025363Y-71985241D01*
X123868320Y-72220273D01*
X123760147Y-72481426D01*
X123705000Y-72758665D01*
X118160000Y-72758665D01*
X118160000Y-67160000D01*
X125828555Y-67160000D01*
X125762342Y-67214340D01*
%TA.AperFunction,Conductor*%
D23*
G36*
X125762342Y-67214340D02*
G01*
X125734507Y-67248258D01*
X125311720Y-67671044D01*
X125281335Y-67665000D01*
X124998665Y-67665000D01*
X124721426Y-67720147D01*
X124460273Y-67828320D01*
X124225241Y-67985363D01*
X124025363Y-68185241D01*
X123868320Y-68420273D01*
X123760147Y-68681426D01*
X123705000Y-68958665D01*
X123705000Y-69241335D01*
X123760147Y-69518574D01*
X123868320Y-69779727D01*
X124025363Y-70014759D01*
X124225241Y-70214637D01*
X124460273Y-70371680D01*
X124721426Y-70479853D01*
X124998665Y-70535000D01*
X125281335Y-70535000D01*
X125558574Y-70479853D01*
X125819727Y-70371680D01*
X126054759Y-70214637D01*
X126254637Y-70014759D01*
X126411680Y-69779727D01*
X126519853Y-69518574D01*
X126575000Y-69241335D01*
X126575000Y-68958665D01*
X126568956Y-68928280D01*
X126762237Y-68734999D01*
X133909491Y-68734999D01*
X133865000Y-68958665D01*
X133865000Y-69241335D01*
X133920147Y-69518574D01*
X134028320Y-69779727D01*
X134185363Y-70014759D01*
X134385241Y-70214637D01*
X134620273Y-70371680D01*
X134881426Y-70479853D01*
X135158665Y-70535000D01*
X135441335Y-70535000D01*
X135718574Y-70479853D01*
X135979727Y-70371680D01*
X136214759Y-70214637D01*
X136414637Y-70014759D01*
X136571680Y-69779727D01*
X136679853Y-69518574D01*
X136735000Y-69241335D01*
X136735000Y-68958665D01*
X136690509Y-68734999D01*
X165833686Y-68734999D01*
X167325954Y-70227267D01*
X167258486Y-70263329D01*
X167186903Y-70507298D01*
X168000000Y-71320395D01*
X168014143Y-71306253D01*
X168193748Y-71485858D01*
X168179605Y-71500000D01*
X168992702Y-72313097D01*
X169236671Y-72241514D01*
X169269924Y-72171237D01*
X171134646Y-74035959D01*
X170985363Y-74185241D01*
X170828320Y-74420273D01*
X170720147Y-74681426D01*
X170665000Y-74958665D01*
X170665000Y-75241335D01*
X170720147Y-75518574D01*
X170828320Y-75779727D01*
X170985363Y-76014759D01*
X171185241Y-76214637D01*
X171420273Y-76371680D01*
X171681426Y-76479853D01*
X171958665Y-76535000D01*
X172241335Y-76535000D01*
X172518574Y-76479853D01*
X172779727Y-76371680D01*
X173014759Y-76214637D01*
X173181339Y-76048057D01*
X173210498Y-76144180D01*
X173269463Y-76254494D01*
X173348815Y-76351185D01*
X173445506Y-76430537D01*
X173555820Y-76489502D01*
X173675518Y-76525812D01*
X173800000Y-76538072D01*
X174314250Y-76535000D01*
X174473000Y-76376250D01*
X174473000Y-75227000D01*
X174727000Y-75227000D01*
X174727000Y-76376250D01*
X174885750Y-76535000D01*
X175400000Y-76538072D01*
X175524482Y-76525812D01*
X175644180Y-76489502D01*
X175754494Y-76430537D01*
X175851185Y-76351185D01*
X175930537Y-76254494D01*
X175989502Y-76144180D01*
X176025812Y-76024482D01*
X176038072Y-75900000D01*
X176035000Y-75385750D01*
X175876250Y-75227000D01*
X174727000Y-75227000D01*
X174473000Y-75227000D01*
X174453000Y-75227000D01*
X174453000Y-74973000D01*
X174473000Y-74973000D01*
X174473000Y-73823750D01*
X174727000Y-73823750D01*
X174727000Y-74973000D01*
X175876250Y-74973000D01*
X176035000Y-74814250D01*
X176038072Y-74300000D01*
X176025812Y-74175518D01*
X175989502Y-74055820D01*
X175930537Y-73945506D01*
X175851185Y-73848815D01*
X175754494Y-73769463D01*
X175644180Y-73710498D01*
X175524482Y-73674188D01*
X175400000Y-73661928D01*
X174885750Y-73665000D01*
X174727000Y-73823750D01*
X174473000Y-73823750D01*
X174314250Y-73665000D01*
X173800000Y-73661928D01*
X173675518Y-73674188D01*
X173555820Y-73710498D01*
X173445506Y-73769463D01*
X173348815Y-73848815D01*
X173269463Y-73945506D01*
X173210498Y-74055820D01*
X173181339Y-74151943D01*
X173014759Y-73985363D01*
X172989000Y-73968151D01*
X172989000Y-73787737D01*
X172993300Y-73744077D01*
X172989000Y-73700417D01*
X172989000Y-73700411D01*
X172976136Y-73569804D01*
X172976136Y-73569802D01*
X172925302Y-73402225D01*
X172913211Y-73379605D01*
X172842753Y-73247787D01*
X172731659Y-73112419D01*
X172697736Y-73084579D01*
X166861420Y-67248263D01*
X166833580Y-67214340D01*
X166767367Y-67160000D01*
X181340001Y-67160000D01*
X181340000Y-132340000D01*
X142274788Y-132340000D01*
X142439727Y-132271680D01*
X142674759Y-132114637D01*
X142874637Y-131914759D01*
X143031680Y-131679727D01*
X143139853Y-131418574D01*
X143195000Y-131141335D01*
X143195000Y-130858665D01*
X143139853Y-130581426D01*
X143031680Y-130320273D01*
X142874637Y-130085241D01*
X142674759Y-129885363D01*
X142439727Y-129728320D01*
X142178574Y-129620147D01*
X141901335Y-129565000D01*
X141618665Y-129565000D01*
X141588280Y-129571044D01*
X139075901Y-127058665D01*
X140365000Y-127058665D01*
X140365000Y-127341335D01*
X140420147Y-127618574D01*
X140528320Y-127879727D01*
X140685363Y-128114759D01*
X140885241Y-128314637D01*
X141120273Y-128471680D01*
X141381426Y-128579853D01*
X141658665Y-128635000D01*
X141941335Y-128635000D01*
X142218574Y-128579853D01*
X142479727Y-128471680D01*
X142714759Y-128314637D01*
X142914637Y-128114759D01*
X143071680Y-127879727D01*
X143179853Y-127618574D01*
X143235000Y-127341335D01*
X143235000Y-127058665D01*
X143179853Y-126781426D01*
X143071680Y-126520273D01*
X142914637Y-126285241D01*
X142714759Y-126085363D01*
X142479727Y-125928320D01*
X142218574Y-125820147D01*
X141941335Y-125765000D01*
X141658665Y-125765000D01*
X141381426Y-125820147D01*
X141120273Y-125928320D01*
X140885241Y-126085363D01*
X140685363Y-126285241D01*
X140528320Y-126520273D01*
X140420147Y-126781426D01*
X140365000Y-127058665D01*
X139075901Y-127058665D01*
X135289000Y-123271765D01*
X135289000Y-123258665D01*
X140365000Y-123258665D01*
X140365000Y-123541335D01*
X140420147Y-123818574D01*
X140528320Y-124079727D01*
X140685363Y-124314759D01*
X140885241Y-124514637D01*
X141120273Y-124671680D01*
X141381426Y-124779853D01*
X141658665Y-124835000D01*
X141941335Y-124835000D01*
X142218574Y-124779853D01*
X142479727Y-124671680D01*
X142714759Y-124514637D01*
X142914637Y-124314759D01*
X143071680Y-124079727D01*
X143179853Y-123818574D01*
X143235000Y-123541335D01*
X143235000Y-123258665D01*
X143179853Y-122981426D01*
X143071680Y-122720273D01*
X142914637Y-122485241D01*
X142714759Y-122285363D01*
X142479727Y-122128320D01*
X142218574Y-122020147D01*
X141941335Y-121965000D01*
X141658665Y-121965000D01*
X141381426Y-122020147D01*
X141120273Y-122128320D01*
X140885241Y-122285363D01*
X140685363Y-122485241D01*
X140528320Y-122720273D01*
X140420147Y-122981426D01*
X140365000Y-123258665D01*
X135289000Y-123258665D01*
X135289000Y-122143667D01*
X135293301Y-122100000D01*
X135289000Y-122056333D01*
X135289000Y-122012441D01*
X135280437Y-121969391D01*
X135276136Y-121925726D01*
X135263399Y-121883737D01*
X135254836Y-121840688D01*
X135238041Y-121800143D01*
X135225303Y-121758149D01*
X135204614Y-121719443D01*
X135187821Y-121678901D01*
X135163442Y-121642415D01*
X135142753Y-121603709D01*
X135114912Y-121569785D01*
X135090531Y-121533296D01*
X135059499Y-121502264D01*
X135031659Y-121468341D01*
X134997736Y-121440501D01*
X134966704Y-121409469D01*
X134930215Y-121385088D01*
X134896291Y-121357247D01*
X134857585Y-121336558D01*
X134821099Y-121312179D01*
X134780557Y-121295386D01*
X134741851Y-121274697D01*
X134699857Y-121261959D01*
X134659312Y-121245164D01*
X134616263Y-121236601D01*
X134574274Y-121223864D01*
X134530609Y-121219563D01*
X134487559Y-121211000D01*
X134443667Y-121211000D01*
X134400000Y-121206699D01*
X134356333Y-121211000D01*
X134312441Y-121211000D01*
X134269391Y-121219563D01*
X134225726Y-121223864D01*
X134183737Y-121236601D01*
X134140688Y-121245164D01*
X134100143Y-121261959D01*
X134058149Y-121274697D01*
X134019443Y-121295386D01*
X133978901Y-121312179D01*
X133942415Y-121336558D01*
X133903709Y-121357247D01*
X133869785Y-121385088D01*
X133833296Y-121409469D01*
X133802264Y-121440501D01*
X133768341Y-121468341D01*
X133740501Y-121502264D01*
X133709469Y-121533296D01*
X133685088Y-121569785D01*
X133657247Y-121603709D01*
X133636558Y-121642415D01*
X133612179Y-121678901D01*
X133595386Y-121719443D01*
X133574697Y-121758149D01*
X133561959Y-121800143D01*
X133545164Y-121840688D01*
X133536601Y-121883737D01*
X133523864Y-121925726D01*
X133519563Y-121969391D01*
X133511000Y-122012441D01*
X133511000Y-122056333D01*
X133506699Y-122100000D01*
X133511000Y-122143667D01*
X133511000Y-122187559D01*
X133511001Y-122187564D01*
X133511000Y-123596340D01*
X133506700Y-123640000D01*
X133511000Y-123683660D01*
X133511000Y-123683666D01*
X133522057Y-123795926D01*
X133523864Y-123814274D01*
X133531821Y-123840505D01*
X133574697Y-123981850D01*
X133657247Y-124136290D01*
X133768341Y-124271659D01*
X133802264Y-124299499D01*
X140331044Y-130828280D01*
X140325000Y-130858665D01*
X140325000Y-131141335D01*
X140380147Y-131418574D01*
X140488320Y-131679727D01*
X140645363Y-131914759D01*
X140845241Y-132114637D01*
X141080273Y-132271680D01*
X141245212Y-132340000D01*
X132114788Y-132340000D01*
X132279727Y-132271680D01*
X132514759Y-132114637D01*
X132714637Y-131914759D01*
X132871680Y-131679727D01*
X132979853Y-131418574D01*
X133035000Y-131141335D01*
X133035000Y-130858665D01*
X132979853Y-130581426D01*
X132871680Y-130320273D01*
X132714637Y-130085241D01*
X132514759Y-129885363D01*
X132279727Y-129728320D01*
X132018574Y-129620147D01*
X131741335Y-129565000D01*
X131458665Y-129565000D01*
X131181426Y-129620147D01*
X130920273Y-129728320D01*
X130685241Y-129885363D01*
X130485363Y-130085241D01*
X130328320Y-130320273D01*
X130220147Y-130581426D01*
X130165000Y-130858665D01*
X130165000Y-131141335D01*
X130220147Y-131418574D01*
X130328320Y-131679727D01*
X130485363Y-131914759D01*
X130685241Y-132114637D01*
X130920273Y-132271680D01*
X131085212Y-132340000D01*
X118160000Y-132340000D01*
X118160000Y-127058665D01*
X130205000Y-127058665D01*
X130205000Y-127341335D01*
X130260147Y-127618574D01*
X130368320Y-127879727D01*
X130525363Y-128114759D01*
X130725241Y-128314637D01*
X130960273Y-128471680D01*
X131221426Y-128579853D01*
X131498665Y-128635000D01*
X131781335Y-128635000D01*
X132058574Y-128579853D01*
X132319727Y-128471680D01*
X132554759Y-128314637D01*
X132754637Y-128114759D01*
X132911680Y-127879727D01*
X133019853Y-127618574D01*
X133075000Y-127341335D01*
X133075000Y-127058665D01*
X133019853Y-126781426D01*
X132911680Y-126520273D01*
X132754637Y-126285241D01*
X132554759Y-126085363D01*
X132319727Y-125928320D01*
X132058574Y-125820147D01*
X131781335Y-125765000D01*
X131498665Y-125765000D01*
X131221426Y-125820147D01*
X130960273Y-125928320D01*
X130725241Y-126085363D01*
X130525363Y-126285241D01*
X130368320Y-126520273D01*
X130260147Y-126781426D01*
X130205000Y-127058665D01*
X118160000Y-127058665D01*
X118160000Y-123258665D01*
X130205000Y-123258665D01*
X130205000Y-123541335D01*
X130260147Y-123818574D01*
X130368320Y-124079727D01*
X130525363Y-124314759D01*
X130725241Y-124514637D01*
X130960273Y-124671680D01*
X131221426Y-124779853D01*
X131498665Y-124835000D01*
X131781335Y-124835000D01*
X132058574Y-124779853D01*
X132319727Y-124671680D01*
X132554759Y-124514637D01*
X132754637Y-124314759D01*
X132911680Y-124079727D01*
X133019853Y-123818574D01*
X133075000Y-123541335D01*
X133075000Y-123258665D01*
X133019853Y-122981426D01*
X132911680Y-122720273D01*
X132754637Y-122485241D01*
X132554759Y-122285363D01*
X132319727Y-122128320D01*
X132058574Y-122020147D01*
X131781335Y-121965000D01*
X131498665Y-121965000D01*
X131221426Y-122020147D01*
X130960273Y-122128320D01*
X130725241Y-122285363D01*
X130525363Y-122485241D01*
X130368320Y-122720273D01*
X130260147Y-122981426D01*
X130205000Y-123258665D01*
X118160000Y-123258665D01*
X118160000Y-120492702D01*
X136286903Y-120492702D01*
X136358486Y-120736671D01*
X136613996Y-120857571D01*
X136888184Y-120926300D01*
X137170512Y-120940217D01*
X137450130Y-120898787D01*
X137716292Y-120803603D01*
X137841514Y-120736671D01*
X137913097Y-120492702D01*
X137100000Y-119679605D01*
X136286903Y-120492702D01*
X118160000Y-120492702D01*
X118160000Y-93192702D01*
X136386903Y-93192702D01*
X136458486Y-93436671D01*
X136713996Y-93557571D01*
X136988184Y-93626300D01*
X137270512Y-93640217D01*
X137550130Y-93598787D01*
X137816292Y-93503603D01*
X137941514Y-93436671D01*
X138013097Y-93192702D01*
X137200000Y-92379605D01*
X136386903Y-93192702D01*
X118160000Y-93192702D01*
X118160000Y-92270512D01*
X135759783Y-92270512D01*
X135801213Y-92550130D01*
X135896397Y-92816292D01*
X135963329Y-92941514D01*
X136207298Y-93013097D01*
X137020395Y-92200000D01*
X136207298Y-91386903D01*
X135963329Y-91458486D01*
X135842429Y-91713996D01*
X135773700Y-91988184D01*
X135759783Y-92270512D01*
X118160000Y-92270512D01*
X118160000Y-91207298D01*
X136386903Y-91207298D01*
X137200000Y-92020395D01*
X138013097Y-91207298D01*
X137941514Y-90963329D01*
X137686004Y-90842429D01*
X137411816Y-90773700D01*
X137129488Y-90759783D01*
X136849870Y-90801213D01*
X136583708Y-90896397D01*
X136458486Y-90963329D01*
X136386903Y-91207298D01*
X118160000Y-91207298D01*
X118160000Y-85050000D01*
X120711928Y-85050000D01*
X120711928Y-86750000D01*
X120724188Y-86874482D01*
X120760498Y-86994180D01*
X120819463Y-87104494D01*
X120898815Y-87201185D01*
X120995506Y-87280537D01*
X121105820Y-87339502D01*
X121225518Y-87375812D01*
X121350000Y-87388072D01*
X123050000Y-87388072D01*
X123174482Y-87375812D01*
X123294180Y-87339502D01*
X123404494Y-87280537D01*
X123501185Y-87201185D01*
X123580537Y-87104494D01*
X123607000Y-87054986D01*
X123607000Y-87069532D01*
X123602699Y-87113201D01*
X123619863Y-87287475D01*
X123670697Y-87455053D01*
X123719231Y-87545853D01*
X123753247Y-87609492D01*
X123864341Y-87744860D01*
X123898258Y-87772695D01*
X123927300Y-87801737D01*
X123955140Y-87835660D01*
X124090508Y-87946754D01*
X124244948Y-88029304D01*
X124412525Y-88080137D01*
X124586799Y-88097302D01*
X124630467Y-88093001D01*
X130137953Y-88093001D01*
X130105000Y-88258665D01*
X130105000Y-88541335D01*
X130160147Y-88818574D01*
X130268320Y-89079727D01*
X130425363Y-89314759D01*
X130625241Y-89514637D01*
X130860273Y-89671680D01*
X131121426Y-89779853D01*
X131398665Y-89835000D01*
X131681335Y-89835000D01*
X131958574Y-89779853D01*
X132219727Y-89671680D01*
X132454759Y-89514637D01*
X132654637Y-89314759D01*
X132811680Y-89079727D01*
X132919853Y-88818574D01*
X132975000Y-88541335D01*
X132975000Y-88258665D01*
X132930509Y-88034999D01*
X137220566Y-88034999D01*
X139977689Y-90792123D01*
X139841335Y-90765000D01*
X139558665Y-90765000D01*
X139281426Y-90820147D01*
X139020273Y-90928320D01*
X138785241Y-91085363D01*
X138585363Y-91285241D01*
X138451308Y-91485869D01*
X138436671Y-91458486D01*
X138192702Y-91386903D01*
X137379605Y-92200000D01*
X138192702Y-93013097D01*
X138436671Y-92941514D01*
X138450324Y-92912659D01*
X138585363Y-93114759D01*
X138785241Y-93314637D01*
X139020273Y-93471680D01*
X139281426Y-93579853D01*
X139558665Y-93635000D01*
X139841335Y-93635000D01*
X140118574Y-93579853D01*
X140379727Y-93471680D01*
X140614759Y-93314637D01*
X140814637Y-93114759D01*
X140831849Y-93089000D01*
X141397842Y-93089000D01*
X136929844Y-97556999D01*
X130357660Y-97556999D01*
X130314000Y-97552699D01*
X130270340Y-97556999D01*
X130270334Y-97556999D01*
X130172925Y-97566593D01*
X130139725Y-97569863D01*
X130062240Y-97593368D01*
X129972150Y-97620696D01*
X129817710Y-97703246D01*
X129682342Y-97814340D01*
X129654502Y-97848263D01*
X126615713Y-100887052D01*
X126567932Y-100646842D01*
X126455990Y-100376589D01*
X126293475Y-100133368D01*
X126086632Y-99926525D01*
X125912240Y-99810000D01*
X126086632Y-99693475D01*
X126293475Y-99486632D01*
X126455990Y-99243411D01*
X126567932Y-98973158D01*
X126625000Y-98686260D01*
X126625000Y-98393740D01*
X126567932Y-98106842D01*
X126455990Y-97836589D01*
X126293475Y-97593368D01*
X126086632Y-97386525D01*
X125912240Y-97270000D01*
X126086632Y-97153475D01*
X126293475Y-96946632D01*
X126455990Y-96703411D01*
X126567932Y-96433158D01*
X126625000Y-96146260D01*
X126625000Y-95853740D01*
X126606089Y-95758665D01*
X130105000Y-95758665D01*
X130105000Y-96041335D01*
X130160147Y-96318574D01*
X130268320Y-96579727D01*
X130425363Y-96814759D01*
X130625241Y-97014637D01*
X130860273Y-97171680D01*
X131121426Y-97279853D01*
X131398665Y-97335000D01*
X131681335Y-97335000D01*
X131958574Y-97279853D01*
X132219727Y-97171680D01*
X132454759Y-97014637D01*
X132654637Y-96814759D01*
X132811680Y-96579727D01*
X132919853Y-96318574D01*
X132975000Y-96041335D01*
X132975000Y-95758665D01*
X132919853Y-95481426D01*
X132811680Y-95220273D01*
X132654637Y-94985241D01*
X132454759Y-94785363D01*
X132219727Y-94628320D01*
X131958574Y-94520147D01*
X131681335Y-94465000D01*
X131398665Y-94465000D01*
X131121426Y-94520147D01*
X130860273Y-94628320D01*
X130625241Y-94785363D01*
X130425363Y-94985241D01*
X130268320Y-95220273D01*
X130160147Y-95481426D01*
X130105000Y-95758665D01*
X126606089Y-95758665D01*
X126567932Y-95566842D01*
X126455990Y-95296589D01*
X126293475Y-95053368D01*
X126086632Y-94846525D01*
X125843411Y-94684010D01*
X125573158Y-94572068D01*
X125286260Y-94515000D01*
X124993740Y-94515000D01*
X124706842Y-94572068D01*
X124436589Y-94684010D01*
X124193368Y-94846525D01*
X124006285Y-95033608D01*
X123938405Y-94906614D01*
X123827962Y-94772038D01*
X123693386Y-94661595D01*
X123539850Y-94579528D01*
X123373254Y-94528992D01*
X123200000Y-94511928D01*
X122000000Y-94511928D01*
X121826746Y-94528992D01*
X121660150Y-94579528D01*
X121506614Y-94661595D01*
X121372038Y-94772038D01*
X121261595Y-94906614D01*
X121179528Y-95060150D01*
X121128992Y-95226746D01*
X121111928Y-95400000D01*
X121111928Y-96600000D01*
X121128992Y-96773254D01*
X121179528Y-96939850D01*
X121261595Y-97093386D01*
X121372038Y-97227962D01*
X121506614Y-97338405D01*
X121633608Y-97406285D01*
X121446525Y-97593368D01*
X121284010Y-97836589D01*
X121172068Y-98106842D01*
X121115000Y-98393740D01*
X121115000Y-98686260D01*
X121172068Y-98973158D01*
X121284010Y-99243411D01*
X121446525Y-99486632D01*
X121653368Y-99693475D01*
X121827760Y-99810000D01*
X121653368Y-99926525D01*
X121446525Y-100133368D01*
X121284010Y-100376589D01*
X121172068Y-100646842D01*
X121115000Y-100933740D01*
X121115000Y-101226260D01*
X121172068Y-101513158D01*
X121284010Y-101783411D01*
X121446525Y-102026632D01*
X121653368Y-102233475D01*
X121827760Y-102350000D01*
X121653368Y-102466525D01*
X121446525Y-102673368D01*
X121284010Y-102916589D01*
X121172068Y-103186842D01*
X121115000Y-103473740D01*
X121115000Y-103766260D01*
X121172068Y-104053158D01*
X121284010Y-104323411D01*
X121446525Y-104566632D01*
X121653368Y-104773475D01*
X121827760Y-104890000D01*
X121653368Y-105006525D01*
X121446525Y-105213368D01*
X121284010Y-105456589D01*
X121172068Y-105726842D01*
X121115000Y-106013740D01*
X121115000Y-106306260D01*
X121172068Y-106593158D01*
X121284010Y-106863411D01*
X121446525Y-107106632D01*
X121653368Y-107313475D01*
X121827760Y-107430000D01*
X121653368Y-107546525D01*
X121446525Y-107753368D01*
X121284010Y-107996589D01*
X121172068Y-108266842D01*
X121115000Y-108553740D01*
X121115000Y-108846260D01*
X121172068Y-109133158D01*
X121284010Y-109403411D01*
X121446525Y-109646632D01*
X121653368Y-109853475D01*
X121827760Y-109970000D01*
X121653368Y-110086525D01*
X121446525Y-110293368D01*
X121284010Y-110536589D01*
X121172068Y-110806842D01*
X121115000Y-111093740D01*
X121115000Y-111386260D01*
X121172068Y-111673158D01*
X121284010Y-111943411D01*
X121446525Y-112186632D01*
X121653368Y-112393475D01*
X121827760Y-112510000D01*
X121653368Y-112626525D01*
X121446525Y-112833368D01*
X121284010Y-113076589D01*
X121172068Y-113346842D01*
X121115000Y-113633740D01*
X121115000Y-113926260D01*
X121172068Y-114213158D01*
X121284010Y-114483411D01*
X121446525Y-114726632D01*
X121653368Y-114933475D01*
X121896589Y-115095990D01*
X122166842Y-115207932D01*
X122453740Y-115265000D01*
X122746260Y-115265000D01*
X123033158Y-115207932D01*
X123303411Y-115095990D01*
X123546632Y-114933475D01*
X123753475Y-114726632D01*
X123870000Y-114552240D01*
X123986525Y-114726632D01*
X124193368Y-114933475D01*
X124436589Y-115095990D01*
X124706842Y-115207932D01*
X124993740Y-115265000D01*
X125286260Y-115265000D01*
X125354242Y-115251477D01*
X128834516Y-118731752D01*
X128862351Y-118765669D01*
X128997719Y-118876763D01*
X129152159Y-118959313D01*
X129225057Y-118981426D01*
X129319735Y-119010146D01*
X129336335Y-119011781D01*
X129450343Y-119023010D01*
X129450350Y-119023010D01*
X129494010Y-119027310D01*
X129537670Y-119023010D01*
X135740170Y-119023010D01*
X135673700Y-119288184D01*
X135659783Y-119570512D01*
X135701213Y-119850130D01*
X135796397Y-120116292D01*
X135863329Y-120241514D01*
X136107298Y-120313097D01*
X136920395Y-119500000D01*
X136906253Y-119485858D01*
X137085858Y-119306253D01*
X137100000Y-119320395D01*
X137114143Y-119306253D01*
X137293748Y-119485858D01*
X137279605Y-119500000D01*
X138092702Y-120313097D01*
X138336671Y-120241514D01*
X138350324Y-120212659D01*
X138485363Y-120414759D01*
X138685241Y-120614637D01*
X138920273Y-120771680D01*
X139181426Y-120879853D01*
X139458665Y-120935000D01*
X139741335Y-120935000D01*
X140018574Y-120879853D01*
X140279727Y-120771680D01*
X140514759Y-120614637D01*
X140714637Y-120414759D01*
X140785303Y-120309000D01*
X144473205Y-120309000D01*
X144580392Y-120439608D01*
X144798899Y-120618932D01*
X144931858Y-120690000D01*
X144798899Y-120761068D01*
X144580392Y-120940392D01*
X144401068Y-121158899D01*
X144267818Y-121408192D01*
X144185764Y-121678691D01*
X144158057Y-121960000D01*
X144185764Y-122241309D01*
X144267818Y-122511808D01*
X144401068Y-122761101D01*
X144580392Y-122979608D01*
X144798899Y-123158932D01*
X144931858Y-123230000D01*
X144798899Y-123301068D01*
X144580392Y-123480392D01*
X144401068Y-123698899D01*
X144267818Y-123948192D01*
X144185764Y-124218691D01*
X144158057Y-124500000D01*
X144185764Y-124781309D01*
X144267818Y-125051808D01*
X144401068Y-125301101D01*
X144580392Y-125519608D01*
X144798899Y-125698932D01*
X144931858Y-125770000D01*
X144798899Y-125841068D01*
X144580392Y-126020392D01*
X144401068Y-126238899D01*
X144267818Y-126488192D01*
X144185764Y-126758691D01*
X144158057Y-127040000D01*
X144185764Y-127321309D01*
X144267818Y-127591808D01*
X144401068Y-127841101D01*
X144580392Y-128059608D01*
X144798899Y-128238932D01*
X145048192Y-128372182D01*
X145318691Y-128454236D01*
X145529508Y-128475000D01*
X146470492Y-128475000D01*
X146681309Y-128454236D01*
X146951808Y-128372182D01*
X147201101Y-128238932D01*
X147419608Y-128059608D01*
X147598932Y-127841101D01*
X147732182Y-127591808D01*
X147814236Y-127321309D01*
X147841943Y-127040000D01*
X147814236Y-126758691D01*
X147732182Y-126488192D01*
X147598932Y-126238899D01*
X147419608Y-126020392D01*
X147201101Y-125841068D01*
X147068142Y-125770000D01*
X147201101Y-125698932D01*
X147419608Y-125519608D01*
X147598932Y-125301101D01*
X147732182Y-125051808D01*
X147814236Y-124781309D01*
X147841943Y-124500000D01*
X147814236Y-124218691D01*
X147732182Y-123948192D01*
X147598932Y-123698899D01*
X147419608Y-123480392D01*
X147201101Y-123301068D01*
X147068142Y-123230000D01*
X147201101Y-123158932D01*
X147419608Y-122979608D01*
X147598932Y-122761101D01*
X147732182Y-122511808D01*
X147814236Y-122241309D01*
X147841943Y-121960000D01*
X147814236Y-121678691D01*
X147732182Y-121408192D01*
X147598932Y-121158899D01*
X147419608Y-120940392D01*
X147201101Y-120761068D01*
X147068142Y-120690000D01*
X147201101Y-120618932D01*
X147419608Y-120439608D01*
X147598932Y-120221101D01*
X147732182Y-119971808D01*
X147814236Y-119701309D01*
X147841943Y-119420000D01*
X147814236Y-119138691D01*
X147779145Y-119023010D01*
X151840855Y-119023010D01*
X151805764Y-119138691D01*
X151778057Y-119420000D01*
X151805764Y-119701309D01*
X151887818Y-119971808D01*
X152021068Y-120221101D01*
X152200392Y-120439608D01*
X152418899Y-120618932D01*
X152551858Y-120690000D01*
X152418899Y-120761068D01*
X152200392Y-120940392D01*
X152021068Y-121158899D01*
X151887818Y-121408192D01*
X151805764Y-121678691D01*
X151778057Y-121960000D01*
X151805764Y-122241309D01*
X151887818Y-122511808D01*
X152021068Y-122761101D01*
X152200392Y-122979608D01*
X152418899Y-123158932D01*
X152551858Y-123230000D01*
X152418899Y-123301068D01*
X152200392Y-123480392D01*
X152021068Y-123698899D01*
X151887818Y-123948192D01*
X151805764Y-124218691D01*
X151778057Y-124500000D01*
X151805764Y-124781309D01*
X151887818Y-125051808D01*
X152021068Y-125301101D01*
X152200392Y-125519608D01*
X152418899Y-125698932D01*
X152551858Y-125770000D01*
X152418899Y-125841068D01*
X152200392Y-126020392D01*
X152021068Y-126238899D01*
X151887818Y-126488192D01*
X151805764Y-126758691D01*
X151778057Y-127040000D01*
X151805764Y-127321309D01*
X151887818Y-127591808D01*
X152021068Y-127841101D01*
X152200392Y-128059608D01*
X152418899Y-128238932D01*
X152668192Y-128372182D01*
X152938691Y-128454236D01*
X153149508Y-128475000D01*
X154090492Y-128475000D01*
X154301309Y-128454236D01*
X154571808Y-128372182D01*
X154821101Y-128238932D01*
X155039608Y-128059608D01*
X155218932Y-127841101D01*
X155352182Y-127591808D01*
X155376013Y-127513248D01*
X155857000Y-127994236D01*
X155856999Y-129502339D01*
X155852699Y-129545999D01*
X155856999Y-129589659D01*
X155856999Y-129589665D01*
X155869863Y-129720272D01*
X155920696Y-129887849D01*
X156003246Y-130042289D01*
X156114340Y-130177658D01*
X156148263Y-130205498D01*
X156571044Y-130628280D01*
X156565000Y-130658665D01*
X156565000Y-130941335D01*
X156620147Y-131218574D01*
X156728320Y-131479727D01*
X156885363Y-131714759D01*
X157085241Y-131914637D01*
X157320273Y-132071680D01*
X157581426Y-132179853D01*
X157858665Y-132235000D01*
X158141335Y-132235000D01*
X158418574Y-132179853D01*
X158679727Y-132071680D01*
X158914759Y-131914637D01*
X159114637Y-131714759D01*
X159271680Y-131479727D01*
X159379853Y-131218574D01*
X159435000Y-130941335D01*
X159435000Y-130658665D01*
X159379853Y-130381426D01*
X159271680Y-130120273D01*
X159114637Y-129885241D01*
X158914759Y-129685363D01*
X158679727Y-129528320D01*
X158418574Y-129420147D01*
X158141335Y-129365000D01*
X157858665Y-129365000D01*
X157828280Y-129371044D01*
X157634999Y-129177764D01*
X157634999Y-128490509D01*
X157858665Y-128535000D01*
X158141335Y-128535000D01*
X158418574Y-128479853D01*
X158679727Y-128371680D01*
X158914759Y-128214637D01*
X159114637Y-128014759D01*
X159271680Y-127779727D01*
X159379853Y-127518574D01*
X159435000Y-127241335D01*
X159435000Y-126958665D01*
X166725000Y-126958665D01*
X166725000Y-127241335D01*
X166780147Y-127518574D01*
X166888320Y-127779727D01*
X167045363Y-128014759D01*
X167245241Y-128214637D01*
X167480273Y-128371680D01*
X167741426Y-128479853D01*
X168018665Y-128535000D01*
X168301335Y-128535000D01*
X168578574Y-128479853D01*
X168839727Y-128371680D01*
X169074759Y-128214637D01*
X169274637Y-128014759D01*
X169431680Y-127779727D01*
X169539853Y-127518574D01*
X169595000Y-127241335D01*
X169595000Y-126958665D01*
X169539853Y-126681426D01*
X169431680Y-126420273D01*
X169274637Y-126185241D01*
X169074759Y-125985363D01*
X168839727Y-125828320D01*
X168578574Y-125720147D01*
X168301335Y-125665000D01*
X168018665Y-125665000D01*
X167741426Y-125720147D01*
X167480273Y-125828320D01*
X167245241Y-125985363D01*
X167045363Y-126185241D01*
X166888320Y-126420273D01*
X166780147Y-126681426D01*
X166725000Y-126958665D01*
X159435000Y-126958665D01*
X159379853Y-126681426D01*
X159271680Y-126420273D01*
X159114637Y-126185241D01*
X158914759Y-125985363D01*
X158679727Y-125828320D01*
X158418574Y-125720147D01*
X158141335Y-125665000D01*
X157858665Y-125665000D01*
X157581426Y-125720147D01*
X157320273Y-125828320D01*
X157085241Y-125985363D01*
X156885363Y-126185241D01*
X156756033Y-126378797D01*
X155370071Y-124992836D01*
X155434236Y-124781309D01*
X155461943Y-124500000D01*
X155434236Y-124218691D01*
X155352182Y-123948192D01*
X155218932Y-123698899D01*
X155039608Y-123480392D01*
X154821101Y-123301068D01*
X154741771Y-123258665D01*
X156565000Y-123258665D01*
X156565000Y-123541335D01*
X156620147Y-123818574D01*
X156728320Y-124079727D01*
X156885363Y-124314759D01*
X157085241Y-124514637D01*
X157320273Y-124671680D01*
X157581426Y-124779853D01*
X157858665Y-124835000D01*
X158141335Y-124835000D01*
X158418574Y-124779853D01*
X158679727Y-124671680D01*
X158914759Y-124514637D01*
X159114637Y-124314759D01*
X159271680Y-124079727D01*
X159379853Y-123818574D01*
X159435000Y-123541335D01*
X159435000Y-123258665D01*
X166725000Y-123258665D01*
X166725000Y-123541335D01*
X166780147Y-123818574D01*
X166888320Y-124079727D01*
X167045363Y-124314759D01*
X167245241Y-124514637D01*
X167480273Y-124671680D01*
X167741426Y-124779853D01*
X168018665Y-124835000D01*
X168301335Y-124835000D01*
X168578574Y-124779853D01*
X168839727Y-124671680D01*
X169074759Y-124514637D01*
X169274637Y-124314759D01*
X169431680Y-124079727D01*
X169539853Y-123818574D01*
X169595000Y-123541335D01*
X169595000Y-123258665D01*
X169539853Y-122981426D01*
X169431680Y-122720273D01*
X169274637Y-122485241D01*
X169074759Y-122285363D01*
X168839727Y-122128320D01*
X168578574Y-122020147D01*
X168301335Y-121965000D01*
X168018665Y-121965000D01*
X167741426Y-122020147D01*
X167480273Y-122128320D01*
X167245241Y-122285363D01*
X167045363Y-122485241D01*
X166888320Y-122720273D01*
X166780147Y-122981426D01*
X166725000Y-123258665D01*
X159435000Y-123258665D01*
X159379853Y-122981426D01*
X159271680Y-122720273D01*
X159114637Y-122485241D01*
X158914759Y-122285363D01*
X158679727Y-122128320D01*
X158418574Y-122020147D01*
X158141335Y-121965000D01*
X157858665Y-121965000D01*
X157581426Y-122020147D01*
X157320273Y-122128320D01*
X157085241Y-122285363D01*
X156885363Y-122485241D01*
X156728320Y-122720273D01*
X156620147Y-122981426D01*
X156565000Y-123258665D01*
X154741771Y-123258665D01*
X154688142Y-123230000D01*
X154821101Y-123158932D01*
X155039608Y-122979608D01*
X155218932Y-122761101D01*
X155352182Y-122511808D01*
X155434236Y-122241309D01*
X155461943Y-121960000D01*
X155434236Y-121678691D01*
X155352182Y-121408192D01*
X155218932Y-121158899D01*
X155039608Y-120940392D01*
X154821101Y-120761068D01*
X154688142Y-120690000D01*
X154821101Y-120618932D01*
X155039608Y-120439608D01*
X155146795Y-120309000D01*
X158881515Y-120309000D01*
X158885363Y-120314759D01*
X159085241Y-120514637D01*
X159320273Y-120671680D01*
X159581426Y-120779853D01*
X159858665Y-120835000D01*
X160141335Y-120835000D01*
X160418574Y-120779853D01*
X160679727Y-120671680D01*
X160914759Y-120514637D01*
X161036694Y-120392702D01*
X161686903Y-120392702D01*
X161758486Y-120636671D01*
X162013996Y-120757571D01*
X162288184Y-120826300D01*
X162570512Y-120840217D01*
X162850130Y-120798787D01*
X163116292Y-120703603D01*
X163241514Y-120636671D01*
X163313097Y-120392702D01*
X162500000Y-119579605D01*
X161686903Y-120392702D01*
X161036694Y-120392702D01*
X161114637Y-120314759D01*
X161248692Y-120114131D01*
X161263329Y-120141514D01*
X161507298Y-120213097D01*
X162320395Y-119400000D01*
X162306253Y-119385858D01*
X162485858Y-119206253D01*
X162500000Y-119220395D01*
X162514143Y-119206253D01*
X162693748Y-119385858D01*
X162679605Y-119400000D01*
X163492702Y-120213097D01*
X163736671Y-120141514D01*
X163857571Y-119886004D01*
X163926300Y-119611816D01*
X163940217Y-119329488D01*
X163898787Y-119049870D01*
X163889181Y-119023010D01*
X165482330Y-119023010D01*
X165525990Y-119027310D01*
X165569650Y-119023010D01*
X165569657Y-119023010D01*
X165700264Y-119010146D01*
X165867841Y-118959313D01*
X166022281Y-118876763D01*
X166157649Y-118765669D01*
X166185489Y-118731746D01*
X167988280Y-116928956D01*
X168018665Y-116935000D01*
X168301335Y-116935000D01*
X168578574Y-116879853D01*
X168839727Y-116771680D01*
X169074759Y-116614637D01*
X169274637Y-116414759D01*
X169431680Y-116179727D01*
X169539853Y-115918574D01*
X169595000Y-115641335D01*
X169595000Y-115358665D01*
X169539853Y-115081426D01*
X169431680Y-114820273D01*
X169274637Y-114585241D01*
X169074759Y-114385363D01*
X168839727Y-114228320D01*
X168578574Y-114120147D01*
X168301335Y-114065000D01*
X168018665Y-114065000D01*
X167741426Y-114120147D01*
X167480273Y-114228320D01*
X167245241Y-114385363D01*
X167045363Y-114585241D01*
X166888320Y-114820273D01*
X166780147Y-115081426D01*
X166725000Y-115358665D01*
X166725000Y-115641335D01*
X166731044Y-115671720D01*
X165157755Y-117245010D01*
X155408846Y-117245010D01*
X155434236Y-117161309D01*
X155461943Y-116880000D01*
X155434236Y-116598691D01*
X155352182Y-116328192D01*
X155218932Y-116078899D01*
X155039608Y-115860392D01*
X154821101Y-115681068D01*
X154688142Y-115610000D01*
X154821101Y-115538932D01*
X155039608Y-115359608D01*
X155040381Y-115358665D01*
X156565000Y-115358665D01*
X156565000Y-115641335D01*
X156620147Y-115918574D01*
X156728320Y-116179727D01*
X156885363Y-116414759D01*
X157085241Y-116614637D01*
X157320273Y-116771680D01*
X157581426Y-116879853D01*
X157858665Y-116935000D01*
X158141335Y-116935000D01*
X158418574Y-116879853D01*
X158679727Y-116771680D01*
X158914759Y-116614637D01*
X159114637Y-116414759D01*
X159271680Y-116179727D01*
X159379853Y-115918574D01*
X159435000Y-115641335D01*
X159435000Y-115358665D01*
X159379853Y-115081426D01*
X159271680Y-114820273D01*
X159114637Y-114585241D01*
X158914759Y-114385363D01*
X158679727Y-114228320D01*
X158418574Y-114120147D01*
X158141335Y-114065000D01*
X157858665Y-114065000D01*
X157581426Y-114120147D01*
X157320273Y-114228320D01*
X157085241Y-114385363D01*
X156885363Y-114585241D01*
X156728320Y-114820273D01*
X156620147Y-115081426D01*
X156565000Y-115358665D01*
X155040381Y-115358665D01*
X155218932Y-115141101D01*
X155352182Y-114891808D01*
X155434236Y-114621309D01*
X155461943Y-114340000D01*
X155434236Y-114058691D01*
X155352182Y-113788192D01*
X155218932Y-113538899D01*
X155039608Y-113320392D01*
X154821101Y-113141068D01*
X154688142Y-113070000D01*
X154821101Y-112998932D01*
X155039608Y-112819608D01*
X155146795Y-112689000D01*
X156959604Y-112689000D01*
X157085241Y-112814637D01*
X157320273Y-112971680D01*
X157581426Y-113079853D01*
X157858665Y-113135000D01*
X158141335Y-113135000D01*
X158418574Y-113079853D01*
X158679727Y-112971680D01*
X158914759Y-112814637D01*
X159114637Y-112614759D01*
X159271680Y-112379727D01*
X159379853Y-112118574D01*
X159435000Y-111841335D01*
X159435000Y-111558665D01*
X166725000Y-111558665D01*
X166725000Y-111841335D01*
X166780147Y-112118574D01*
X166888320Y-112379727D01*
X167045363Y-112614759D01*
X167245241Y-112814637D01*
X167480273Y-112971680D01*
X167741426Y-113079853D01*
X168018665Y-113135000D01*
X168301335Y-113135000D01*
X168578574Y-113079853D01*
X168839727Y-112971680D01*
X169074759Y-112814637D01*
X169274637Y-112614759D01*
X169431680Y-112379727D01*
X169539853Y-112118574D01*
X169595000Y-111841335D01*
X169595000Y-111558665D01*
X169539853Y-111281426D01*
X169431680Y-111020273D01*
X169274637Y-110785241D01*
X169074759Y-110585363D01*
X168839727Y-110428320D01*
X168578574Y-110320147D01*
X168301335Y-110265000D01*
X168018665Y-110265000D01*
X167741426Y-110320147D01*
X167480273Y-110428320D01*
X167245241Y-110585363D01*
X167045363Y-110785241D01*
X166888320Y-111020273D01*
X166780147Y-111281426D01*
X166725000Y-111558665D01*
X159435000Y-111558665D01*
X159379853Y-111281426D01*
X159271680Y-111020273D01*
X159114637Y-110785241D01*
X158914759Y-110585363D01*
X158679727Y-110428320D01*
X158418574Y-110320147D01*
X158141335Y-110265000D01*
X157858665Y-110265000D01*
X157581426Y-110320147D01*
X157320273Y-110428320D01*
X157085241Y-110585363D01*
X156885363Y-110785241D01*
X156801334Y-110911000D01*
X155146795Y-110911000D01*
X155039608Y-110780392D01*
X154821101Y-110601068D01*
X154571808Y-110467818D01*
X154301309Y-110385764D01*
X154090492Y-110365000D01*
X153149508Y-110365000D01*
X152938691Y-110385764D01*
X152668192Y-110467818D01*
X152418899Y-110601068D01*
X152200392Y-110780392D01*
X152021068Y-110998899D01*
X151887818Y-111248192D01*
X151805764Y-111518691D01*
X151778057Y-111800000D01*
X151805764Y-112081309D01*
X151887818Y-112351808D01*
X152021068Y-112601101D01*
X152200392Y-112819608D01*
X152418899Y-112998932D01*
X152551858Y-113070000D01*
X152418899Y-113141068D01*
X152200392Y-113320392D01*
X152021068Y-113538899D01*
X151887818Y-113788192D01*
X151805764Y-114058691D01*
X151778057Y-114340000D01*
X151805764Y-114621309D01*
X151887818Y-114891808D01*
X152021068Y-115141101D01*
X152200392Y-115359608D01*
X152418899Y-115538932D01*
X152551858Y-115610000D01*
X152418899Y-115681068D01*
X152200392Y-115860392D01*
X152021068Y-116078899D01*
X151887818Y-116328192D01*
X151805764Y-116598691D01*
X151778057Y-116880000D01*
X151805764Y-117161309D01*
X151831154Y-117245010D01*
X147788846Y-117245010D01*
X147814236Y-117161309D01*
X147841943Y-116880000D01*
X147814236Y-116598691D01*
X147732182Y-116328192D01*
X147598932Y-116078899D01*
X147419608Y-115860392D01*
X147201101Y-115681068D01*
X147068142Y-115610000D01*
X147201101Y-115538932D01*
X147419608Y-115359608D01*
X147598932Y-115141101D01*
X147732182Y-114891808D01*
X147814236Y-114621309D01*
X147841943Y-114340000D01*
X147814236Y-114058691D01*
X147732182Y-113788192D01*
X147598932Y-113538899D01*
X147419608Y-113320392D01*
X147306518Y-113227581D01*
X147324482Y-113225812D01*
X147444180Y-113189502D01*
X147554494Y-113130537D01*
X147651185Y-113051185D01*
X147730537Y-112954494D01*
X147789502Y-112844180D01*
X147825812Y-112724482D01*
X147838072Y-112600000D01*
X147838072Y-111219163D01*
X152568236Y-106489000D01*
X157415200Y-106489000D01*
X157320273Y-106528320D01*
X157085241Y-106685363D01*
X156885363Y-106885241D01*
X156728320Y-107120273D01*
X156620147Y-107381426D01*
X156565000Y-107658665D01*
X156565000Y-107941335D01*
X156620147Y-108218574D01*
X156728320Y-108479727D01*
X156885363Y-108714759D01*
X157085241Y-108914637D01*
X157320273Y-109071680D01*
X157581426Y-109179853D01*
X157858665Y-109235000D01*
X158141335Y-109235000D01*
X158418574Y-109179853D01*
X158679727Y-109071680D01*
X158914759Y-108914637D01*
X159114637Y-108714759D01*
X159271680Y-108479727D01*
X159379853Y-108218574D01*
X159435000Y-107941335D01*
X159435000Y-107658665D01*
X159379853Y-107381426D01*
X159271680Y-107120273D01*
X159114637Y-106885241D01*
X158914759Y-106685363D01*
X158679727Y-106528320D01*
X158584800Y-106489000D01*
X167575200Y-106489000D01*
X167480273Y-106528320D01*
X167245241Y-106685363D01*
X167045363Y-106885241D01*
X166888320Y-107120273D01*
X166780147Y-107381426D01*
X166725000Y-107658665D01*
X166725000Y-107941335D01*
X166780147Y-108218574D01*
X166888320Y-108479727D01*
X167045363Y-108714759D01*
X167245241Y-108914637D01*
X167480273Y-109071680D01*
X167741426Y-109179853D01*
X168018665Y-109235000D01*
X168301335Y-109235000D01*
X168578574Y-109179853D01*
X168839727Y-109071680D01*
X169074759Y-108914637D01*
X169274637Y-108714759D01*
X169431680Y-108479727D01*
X169539853Y-108218574D01*
X169595000Y-107941335D01*
X169595000Y-107658665D01*
X169539853Y-107381426D01*
X169431680Y-107120273D01*
X169274637Y-106885241D01*
X169074759Y-106685363D01*
X168839727Y-106528320D01*
X168744800Y-106489000D01*
X173351350Y-106489000D01*
X173372068Y-106593158D01*
X173484010Y-106863411D01*
X173646525Y-107106632D01*
X173853368Y-107313475D01*
X174027760Y-107430000D01*
X173853368Y-107546525D01*
X173646525Y-107753368D01*
X173484010Y-107996589D01*
X173372068Y-108266842D01*
X173315000Y-108553740D01*
X173315000Y-108846260D01*
X173372068Y-109133158D01*
X173484010Y-109403411D01*
X173646525Y-109646632D01*
X173853368Y-109853475D01*
X174027760Y-109970000D01*
X173853368Y-110086525D01*
X173646525Y-110293368D01*
X173484010Y-110536589D01*
X173372068Y-110806842D01*
X173315000Y-111093740D01*
X173315000Y-111386260D01*
X173372068Y-111673158D01*
X173484010Y-111943411D01*
X173646525Y-112186632D01*
X173853368Y-112393475D01*
X174027760Y-112510000D01*
X173853368Y-112626525D01*
X173646525Y-112833368D01*
X173484010Y-113076589D01*
X173372068Y-113346842D01*
X173315000Y-113633740D01*
X173315000Y-113926260D01*
X173372068Y-114213158D01*
X173484010Y-114483411D01*
X173646525Y-114726632D01*
X173830893Y-114911000D01*
X172568236Y-114911000D01*
X171989000Y-114331765D01*
X171989000Y-110643667D01*
X171993301Y-110600000D01*
X171989000Y-110556333D01*
X171989000Y-110512441D01*
X171980437Y-110469391D01*
X171976136Y-110425726D01*
X171963399Y-110383737D01*
X171954836Y-110340688D01*
X171938041Y-110300143D01*
X171925303Y-110258149D01*
X171904614Y-110219443D01*
X171887821Y-110178901D01*
X171863442Y-110142415D01*
X171842753Y-110103709D01*
X171814912Y-110069785D01*
X171790531Y-110033296D01*
X171759499Y-110002264D01*
X171731659Y-109968341D01*
X171697736Y-109940501D01*
X171666704Y-109909469D01*
X171630215Y-109885088D01*
X171596291Y-109857247D01*
X171557585Y-109836558D01*
X171521099Y-109812179D01*
X171480557Y-109795386D01*
X171441851Y-109774697D01*
X171399857Y-109761959D01*
X171359312Y-109745164D01*
X171316263Y-109736601D01*
X171274274Y-109723864D01*
X171230609Y-109719563D01*
X171187559Y-109711000D01*
X171143667Y-109711000D01*
X171100000Y-109706699D01*
X171056333Y-109711000D01*
X171012441Y-109711000D01*
X170969391Y-109719563D01*
X170925726Y-109723864D01*
X170883737Y-109736601D01*
X170840688Y-109745164D01*
X170800143Y-109761959D01*
X170758149Y-109774697D01*
X170719443Y-109795386D01*
X170678901Y-109812179D01*
X170642415Y-109836558D01*
X170603709Y-109857247D01*
X170569785Y-109885088D01*
X170533296Y-109909469D01*
X170502264Y-109940501D01*
X170468341Y-109968341D01*
X170440501Y-110002264D01*
X170409469Y-110033296D01*
X170385088Y-110069785D01*
X170357247Y-110103709D01*
X170336558Y-110142415D01*
X170312179Y-110178901D01*
X170295386Y-110219443D01*
X170274697Y-110258149D01*
X170261959Y-110300143D01*
X170245164Y-110340688D01*
X170236601Y-110383737D01*
X170223864Y-110425726D01*
X170219563Y-110469391D01*
X170211000Y-110512441D01*
X170211000Y-110556333D01*
X170206699Y-110600000D01*
X170211000Y-110643667D01*
X170211000Y-110687559D01*
X170211001Y-110687564D01*
X170211000Y-114656340D01*
X170206700Y-114700000D01*
X170211000Y-114743660D01*
X170211000Y-114743666D01*
X170223864Y-114874273D01*
X170274697Y-115041850D01*
X170357247Y-115196290D01*
X170468341Y-115331659D01*
X170502264Y-115359499D01*
X171311000Y-116168236D01*
X171311001Y-126391763D01*
X168331721Y-129371044D01*
X168301335Y-129365000D01*
X168018665Y-129365000D01*
X167741426Y-129420147D01*
X167480273Y-129528320D01*
X167245241Y-129685363D01*
X167045363Y-129885241D01*
X166888320Y-130120273D01*
X166780147Y-130381426D01*
X166725000Y-130658665D01*
X166725000Y-130941335D01*
X166780147Y-131218574D01*
X166888320Y-131479727D01*
X167045363Y-131714759D01*
X167245241Y-131914637D01*
X167480273Y-132071680D01*
X167741426Y-132179853D01*
X168018665Y-132235000D01*
X168301335Y-132235000D01*
X168578574Y-132179853D01*
X168839727Y-132071680D01*
X169074759Y-131914637D01*
X169274637Y-131714759D01*
X169431680Y-131479727D01*
X169539853Y-131218574D01*
X169595000Y-130941335D01*
X169595000Y-130658665D01*
X169588956Y-130628279D01*
X172797742Y-127419494D01*
X172831659Y-127391659D01*
X172942753Y-127256291D01*
X173025303Y-127101851D01*
X173076136Y-126934274D01*
X173089000Y-126803667D01*
X173089000Y-126803660D01*
X173093300Y-126760000D01*
X173089000Y-126716340D01*
X173089000Y-116689000D01*
X177856340Y-116689000D01*
X177900000Y-116693300D01*
X177943660Y-116689000D01*
X177943667Y-116689000D01*
X178074274Y-116676136D01*
X178241851Y-116625303D01*
X178396291Y-116542753D01*
X178531659Y-116431659D01*
X178559499Y-116397736D01*
X180297736Y-114659499D01*
X180331659Y-114631659D01*
X180442753Y-114496291D01*
X180525303Y-114341851D01*
X180564341Y-114213158D01*
X180576136Y-114174276D01*
X180581467Y-114120147D01*
X180589000Y-114043667D01*
X180589000Y-114043661D01*
X180593300Y-114000001D01*
X180589000Y-113956341D01*
X180589000Y-90343659D01*
X180593300Y-90299999D01*
X180589000Y-90256334D01*
X180589000Y-90256333D01*
X180576136Y-90125726D01*
X180576136Y-90125724D01*
X180525302Y-89958147D01*
X180505901Y-89921851D01*
X180442753Y-89803709D01*
X180331659Y-89668341D01*
X180297743Y-89640507D01*
X178698450Y-88041214D01*
X178726499Y-88035635D01*
X179054988Y-87899571D01*
X179350621Y-87702035D01*
X179602035Y-87450621D01*
X179799571Y-87154988D01*
X179935635Y-86826499D01*
X180005000Y-86477777D01*
X180005000Y-86122223D01*
X179935635Y-85773501D01*
X179799571Y-85445012D01*
X179602035Y-85149379D01*
X179350621Y-84897965D01*
X179054988Y-84700429D01*
X178726499Y-84564365D01*
X178377777Y-84495000D01*
X178022223Y-84495000D01*
X177673501Y-84564365D01*
X177345012Y-84700429D01*
X177049379Y-84897965D01*
X176797965Y-85149379D01*
X176600429Y-85445012D01*
X176464365Y-85773501D01*
X176458786Y-85801550D01*
X174943615Y-84286380D01*
X175005000Y-83977777D01*
X175005000Y-83622223D01*
X174935635Y-83273501D01*
X174799571Y-82945012D01*
X174602035Y-82649379D01*
X174350621Y-82397965D01*
X174054988Y-82200429D01*
X173726499Y-82064365D01*
X173377777Y-81995000D01*
X173022223Y-81995000D01*
X172673501Y-82064365D01*
X172345012Y-82200429D01*
X172049379Y-82397965D01*
X171797965Y-82649379D01*
X171600429Y-82945012D01*
X171464365Y-83273501D01*
X171409013Y-83551777D01*
X169259499Y-81402264D01*
X169231659Y-81368341D01*
X169115986Y-81273410D01*
X169267173Y-81122223D01*
X176395000Y-81122223D01*
X176395000Y-81477777D01*
X176464365Y-81826499D01*
X176600429Y-82154988D01*
X176797965Y-82450621D01*
X177049379Y-82702035D01*
X177345012Y-82899571D01*
X177673501Y-83035635D01*
X178022223Y-83105000D01*
X178377777Y-83105000D01*
X178726499Y-83035635D01*
X179054988Y-82899571D01*
X179350621Y-82702035D01*
X179602035Y-82450621D01*
X179799571Y-82154988D01*
X179935635Y-81826499D01*
X180005000Y-81477777D01*
X180005000Y-81122223D01*
X179935635Y-80773501D01*
X179799571Y-80445012D01*
X179602035Y-80149379D01*
X179350621Y-79897965D01*
X179054988Y-79700429D01*
X178726499Y-79564365D01*
X178377777Y-79495000D01*
X178022223Y-79495000D01*
X177673501Y-79564365D01*
X177345012Y-79700429D01*
X177049379Y-79897965D01*
X176797965Y-80149379D01*
X176600429Y-80445012D01*
X176464365Y-80773501D01*
X176395000Y-81122223D01*
X169267173Y-81122223D01*
X169274637Y-81114759D01*
X169431680Y-80879727D01*
X169539853Y-80618574D01*
X169595000Y-80341335D01*
X169595000Y-80058665D01*
X169539853Y-79781426D01*
X169431680Y-79520273D01*
X169274637Y-79285241D01*
X169074759Y-79085363D01*
X168839727Y-78928320D01*
X168578574Y-78820147D01*
X168301335Y-78765000D01*
X168018665Y-78765000D01*
X167988279Y-78771044D01*
X167265498Y-78048263D01*
X167237658Y-78014340D01*
X167102290Y-77903246D01*
X166947850Y-77820696D01*
X166780273Y-77769863D01*
X166649666Y-77756999D01*
X166649659Y-77756999D01*
X166605999Y-77752699D01*
X166562339Y-77756999D01*
X149097660Y-77756999D01*
X149054000Y-77752699D01*
X149010340Y-77756999D01*
X149010334Y-77756999D01*
X148912925Y-77766593D01*
X148879725Y-77769863D01*
X148778059Y-77800703D01*
X148712150Y-77820696D01*
X148557710Y-77903246D01*
X148422342Y-78014340D01*
X148394507Y-78048257D01*
X146177764Y-80265001D01*
X146130509Y-80265001D01*
X146175000Y-80041335D01*
X146175000Y-79758665D01*
X146168956Y-79728279D01*
X150504235Y-75393001D01*
X162452339Y-75393001D01*
X162495999Y-75397301D01*
X162539659Y-75393001D01*
X162539666Y-75393001D01*
X162670273Y-75380137D01*
X162837850Y-75329304D01*
X162992290Y-75246754D01*
X163127658Y-75135660D01*
X163155498Y-75101737D01*
X165319164Y-72938072D01*
X166300000Y-72938072D01*
X166424482Y-72925812D01*
X166544180Y-72889502D01*
X166654494Y-72830537D01*
X166751185Y-72751185D01*
X166830537Y-72654494D01*
X166889502Y-72544180D01*
X166905117Y-72492702D01*
X167186903Y-72492702D01*
X167258486Y-72736671D01*
X167513996Y-72857571D01*
X167788184Y-72926300D01*
X168070512Y-72940217D01*
X168350130Y-72898787D01*
X168616292Y-72803603D01*
X168741514Y-72736671D01*
X168813097Y-72492702D01*
X168000000Y-71679605D01*
X167186903Y-72492702D01*
X166905117Y-72492702D01*
X166925812Y-72424482D01*
X166938072Y-72300000D01*
X166938072Y-72292785D01*
X167007298Y-72313097D01*
X167820395Y-71500000D01*
X167007298Y-70686903D01*
X166938072Y-70707215D01*
X166938072Y-70700000D01*
X166925812Y-70575518D01*
X166889502Y-70455820D01*
X166830537Y-70345506D01*
X166751185Y-70248815D01*
X166654494Y-70169463D01*
X166544180Y-70110498D01*
X166424482Y-70074188D01*
X166300000Y-70061928D01*
X164700000Y-70061928D01*
X164575518Y-70074188D01*
X164455820Y-70110498D01*
X164345506Y-70169463D01*
X164248815Y-70248815D01*
X164169463Y-70345506D01*
X164110498Y-70455820D01*
X164074188Y-70575518D01*
X164061928Y-70700000D01*
X164061928Y-71680836D01*
X162127764Y-73615001D01*
X155891544Y-73615001D01*
X155945000Y-73346260D01*
X155945000Y-73053740D01*
X155887932Y-72766842D01*
X155775990Y-72496589D01*
X155613475Y-72253368D01*
X155406632Y-72046525D01*
X155232240Y-71930000D01*
X155406632Y-71813475D01*
X155613475Y-71606632D01*
X155775990Y-71363411D01*
X155887932Y-71093158D01*
X155945000Y-70806260D01*
X155945000Y-70513740D01*
X155887932Y-70226842D01*
X155775990Y-69956589D01*
X155613475Y-69713368D01*
X155406632Y-69506525D01*
X155163411Y-69344010D01*
X154893158Y-69232068D01*
X154606260Y-69175000D01*
X154313740Y-69175000D01*
X154026842Y-69232068D01*
X153756589Y-69344010D01*
X153513368Y-69506525D01*
X153306525Y-69713368D01*
X153190689Y-69886729D01*
X152948397Y-69811208D01*
X152099605Y-70660000D01*
X152948397Y-71508792D01*
X153190689Y-71433271D01*
X153306525Y-71606632D01*
X153513368Y-71813475D01*
X153687760Y-71930000D01*
X153513368Y-72046525D01*
X153306525Y-72253368D01*
X153190689Y-72426729D01*
X152948397Y-72351208D01*
X152099605Y-73200000D01*
X152113748Y-73214143D01*
X151934143Y-73393748D01*
X151920000Y-73379605D01*
X151905858Y-73393748D01*
X151726253Y-73214143D01*
X151740395Y-73200000D01*
X150891603Y-72351208D01*
X150650000Y-72426514D01*
X150408397Y-72351208D01*
X149559605Y-73200000D01*
X149573748Y-73214143D01*
X149394143Y-73393748D01*
X149380000Y-73379605D01*
X148531208Y-74228397D01*
X148608843Y-74477472D01*
X148809578Y-74573186D01*
X144911721Y-78471044D01*
X144881335Y-78465000D01*
X144598665Y-78465000D01*
X144321426Y-78520147D01*
X144060273Y-78628320D01*
X143825241Y-78785363D01*
X143625363Y-78985241D01*
X143468320Y-79220273D01*
X143360147Y-79481426D01*
X143305000Y-79758665D01*
X143305000Y-80041335D01*
X143349491Y-80265001D01*
X143056477Y-80265001D01*
X143039853Y-80181426D01*
X142931680Y-79920273D01*
X142774637Y-79685241D01*
X142574759Y-79485363D01*
X142339727Y-79328320D01*
X142078574Y-79220147D01*
X141801335Y-79165000D01*
X141518665Y-79165000D01*
X141241426Y-79220147D01*
X140980273Y-79328320D01*
X140745241Y-79485363D01*
X140545363Y-79685241D01*
X140388320Y-79920273D01*
X140280147Y-80181426D01*
X140225000Y-80458665D01*
X140225000Y-80741335D01*
X140280147Y-81018574D01*
X140388320Y-81279727D01*
X140545363Y-81514759D01*
X140745241Y-81714637D01*
X140980273Y-81871680D01*
X141241426Y-81979853D01*
X141518665Y-82035000D01*
X141801335Y-82035000D01*
X141954996Y-82004435D01*
X141988893Y-82014717D01*
X142039726Y-82030137D01*
X142056326Y-82031772D01*
X142170334Y-82043001D01*
X142170341Y-82043001D01*
X142214001Y-82047301D01*
X142257661Y-82043001D01*
X146502339Y-82043001D01*
X146545999Y-82047301D01*
X146589659Y-82043001D01*
X146589666Y-82043001D01*
X146720273Y-82030137D01*
X146887850Y-81979304D01*
X147042290Y-81896754D01*
X147177658Y-81785660D01*
X147205498Y-81751737D01*
X149422237Y-79534999D01*
X153509491Y-79534999D01*
X153465000Y-79758665D01*
X153465000Y-80041335D01*
X153520147Y-80318574D01*
X153628320Y-80579727D01*
X153785363Y-80814759D01*
X153985241Y-81014637D01*
X154129459Y-81111000D01*
X148543660Y-81111000D01*
X148500000Y-81106700D01*
X148456340Y-81111000D01*
X148456333Y-81111000D01*
X148342387Y-81122223D01*
X148325725Y-81123864D01*
X148252758Y-81145998D01*
X148158149Y-81174697D01*
X148003709Y-81257247D01*
X147868341Y-81368341D01*
X147840506Y-81402258D01*
X146180837Y-83061928D01*
X144800000Y-83061928D01*
X144675518Y-83074188D01*
X144555820Y-83110498D01*
X144445506Y-83169463D01*
X144348815Y-83248815D01*
X144269463Y-83345506D01*
X144210498Y-83455820D01*
X144174188Y-83575518D01*
X144161928Y-83700000D01*
X144161928Y-85300000D01*
X144174188Y-85424482D01*
X144210498Y-85544180D01*
X144269463Y-85654494D01*
X144348815Y-85751185D01*
X144445506Y-85830537D01*
X144555820Y-85889502D01*
X144675518Y-85925812D01*
X144693482Y-85927581D01*
X144580392Y-86020392D01*
X144401068Y-86238899D01*
X144267818Y-86488192D01*
X144185764Y-86758691D01*
X144158057Y-87040000D01*
X144185764Y-87321309D01*
X144267818Y-87591808D01*
X144401068Y-87841101D01*
X144580392Y-88059608D01*
X144798899Y-88238932D01*
X144931858Y-88310000D01*
X144798899Y-88381068D01*
X144580392Y-88560392D01*
X144412474Y-88765001D01*
X143090509Y-88765001D01*
X143135000Y-88541335D01*
X143135000Y-88258665D01*
X143079853Y-87981426D01*
X142971680Y-87720273D01*
X142814637Y-87485241D01*
X142614759Y-87285363D01*
X142379727Y-87128320D01*
X142118574Y-87020147D01*
X141841335Y-86965000D01*
X141558665Y-86965000D01*
X141281426Y-87020147D01*
X141020273Y-87128320D01*
X140785241Y-87285363D01*
X140585363Y-87485241D01*
X140428320Y-87720273D01*
X140426348Y-87725034D01*
X137059979Y-84358665D01*
X140265000Y-84358665D01*
X140265000Y-84641335D01*
X140320147Y-84918574D01*
X140428320Y-85179727D01*
X140585363Y-85414759D01*
X140785241Y-85614637D01*
X141020273Y-85771680D01*
X141281426Y-85879853D01*
X141558665Y-85935000D01*
X141841335Y-85935000D01*
X142118574Y-85879853D01*
X142379727Y-85771680D01*
X142614759Y-85614637D01*
X142814637Y-85414759D01*
X142971680Y-85179727D01*
X143079853Y-84918574D01*
X143135000Y-84641335D01*
X143135000Y-84358665D01*
X143079853Y-84081426D01*
X142971680Y-83820273D01*
X142814637Y-83585241D01*
X142614759Y-83385363D01*
X142379727Y-83228320D01*
X142118574Y-83120147D01*
X141841335Y-83065000D01*
X141558665Y-83065000D01*
X141281426Y-83120147D01*
X141020273Y-83228320D01*
X140785241Y-83385363D01*
X140585363Y-83585241D01*
X140428320Y-83820273D01*
X140320147Y-84081426D01*
X140265000Y-84358665D01*
X137059979Y-84358665D01*
X134613578Y-81912265D01*
X134585738Y-81878342D01*
X134450370Y-81767248D01*
X134295930Y-81684698D01*
X134128353Y-81633865D01*
X133997746Y-81621001D01*
X133997739Y-81621001D01*
X133954079Y-81616701D01*
X133910419Y-81621001D01*
X132508395Y-81621001D01*
X132614637Y-81514759D01*
X132771680Y-81279727D01*
X132879853Y-81018574D01*
X132935000Y-80741335D01*
X132935000Y-80458665D01*
X132879853Y-80181426D01*
X132771680Y-79920273D01*
X132614637Y-79685241D01*
X132414759Y-79485363D01*
X132179727Y-79328320D01*
X131918574Y-79220147D01*
X131641335Y-79165000D01*
X131358665Y-79165000D01*
X131081426Y-79220147D01*
X130820273Y-79328320D01*
X130585241Y-79485363D01*
X130385363Y-79685241D01*
X130228320Y-79920273D01*
X130120147Y-80181426D01*
X130065000Y-80458665D01*
X130065000Y-80741335D01*
X130120147Y-81018574D01*
X130228320Y-81279727D01*
X130385363Y-81514759D01*
X130491605Y-81621001D01*
X127046220Y-81621001D01*
X127071641Y-81586920D01*
X127196825Y-81324099D01*
X127241476Y-81176890D01*
X127120155Y-80947000D01*
X125927000Y-80947000D01*
X125927000Y-80967000D01*
X125673000Y-80967000D01*
X125673000Y-80947000D01*
X124479845Y-80947000D01*
X124358524Y-81176890D01*
X124403175Y-81324099D01*
X124528359Y-81586920D01*
X124702412Y-81820269D01*
X124918645Y-82015178D01*
X125035534Y-82084805D01*
X124853368Y-82206525D01*
X124646525Y-82413368D01*
X124484010Y-82656589D01*
X124372068Y-82926842D01*
X124315000Y-83213740D01*
X124315000Y-83506260D01*
X124372068Y-83793158D01*
X124484010Y-84063411D01*
X124646525Y-84306632D01*
X124778380Y-84438487D01*
X124705820Y-84460498D01*
X124609317Y-84512081D01*
X123671477Y-83574242D01*
X123685000Y-83506260D01*
X123685000Y-83213740D01*
X123627932Y-82926842D01*
X123515990Y-82656589D01*
X123353475Y-82413368D01*
X123146632Y-82206525D01*
X122964466Y-82084805D01*
X123081355Y-82015178D01*
X123297588Y-81820269D01*
X123471641Y-81586920D01*
X123596825Y-81324099D01*
X123641476Y-81176890D01*
X123520155Y-80947000D01*
X122327000Y-80947000D01*
X122327000Y-80967000D01*
X122073000Y-80967000D01*
X122073000Y-80947000D01*
X120879845Y-80947000D01*
X120758524Y-81176890D01*
X120803175Y-81324099D01*
X120928359Y-81586920D01*
X121102412Y-81820269D01*
X121318645Y-82015178D01*
X121435534Y-82084805D01*
X121253368Y-82206525D01*
X121046525Y-82413368D01*
X120884010Y-82656589D01*
X120772068Y-82926842D01*
X120715000Y-83213740D01*
X120715000Y-83506260D01*
X120772068Y-83793158D01*
X120884010Y-84063411D01*
X121046525Y-84306632D01*
X121178380Y-84438487D01*
X121105820Y-84460498D01*
X120995506Y-84519463D01*
X120898815Y-84598815D01*
X120819463Y-84695506D01*
X120760498Y-84805820D01*
X120724188Y-84925518D01*
X120711928Y-85050000D01*
X118160000Y-85050000D01*
X118160000Y-80463110D01*
X120758524Y-80463110D01*
X120879845Y-80693000D01*
X122073000Y-80693000D01*
X122073000Y-79499186D01*
X122327000Y-79499186D01*
X122327000Y-80693000D01*
X123520155Y-80693000D01*
X123641476Y-80463110D01*
X124358524Y-80463110D01*
X124479845Y-80693000D01*
X125673000Y-80693000D01*
X125673000Y-79499186D01*
X125927000Y-79499186D01*
X125927000Y-80693000D01*
X127120155Y-80693000D01*
X127241476Y-80463110D01*
X127196825Y-80315901D01*
X127071641Y-80053080D01*
X126897588Y-79819731D01*
X126681355Y-79624822D01*
X126431252Y-79475843D01*
X126156891Y-79378519D01*
X125927000Y-79499186D01*
X125673000Y-79499186D01*
X125443109Y-79378519D01*
X125168748Y-79475843D01*
X124918645Y-79624822D01*
X124702412Y-79819731D01*
X124528359Y-80053080D01*
X124403175Y-80315901D01*
X124358524Y-80463110D01*
X123641476Y-80463110D01*
X123596825Y-80315901D01*
X123471641Y-80053080D01*
X123297588Y-79819731D01*
X123081355Y-79624822D01*
X122831252Y-79475843D01*
X122556891Y-79378519D01*
X122327000Y-79499186D01*
X122073000Y-79499186D01*
X121843109Y-79378519D01*
X121568748Y-79475843D01*
X121318645Y-79624822D01*
X121102412Y-79819731D01*
X120928359Y-80053080D01*
X120803175Y-80315901D01*
X120758524Y-80463110D01*
X118160000Y-80463110D01*
X118160000Y-76558665D01*
X123665000Y-76558665D01*
X123665000Y-76841335D01*
X123720147Y-77118574D01*
X123828320Y-77379727D01*
X123985363Y-77614759D01*
X124185241Y-77814637D01*
X124420273Y-77971680D01*
X124681426Y-78079853D01*
X124958665Y-78135000D01*
X125241335Y-78135000D01*
X125518574Y-78079853D01*
X125779727Y-77971680D01*
X126014759Y-77814637D01*
X126214637Y-77614759D01*
X126371680Y-77379727D01*
X126479853Y-77118574D01*
X126535000Y-76841335D01*
X126535000Y-76558665D01*
X133825000Y-76558665D01*
X133825000Y-76841335D01*
X133880147Y-77118574D01*
X133988320Y-77379727D01*
X134145363Y-77614759D01*
X134345241Y-77814637D01*
X134580273Y-77971680D01*
X134841426Y-78079853D01*
X135118665Y-78135000D01*
X135401335Y-78135000D01*
X135678574Y-78079853D01*
X135939727Y-77971680D01*
X136174759Y-77814637D01*
X136374637Y-77614759D01*
X136531680Y-77379727D01*
X136639853Y-77118574D01*
X136695000Y-76841335D01*
X136695000Y-76558665D01*
X136639853Y-76281426D01*
X136531680Y-76020273D01*
X136374637Y-75785241D01*
X136174759Y-75585363D01*
X135939727Y-75428320D01*
X135678574Y-75320147D01*
X135401335Y-75265000D01*
X135118665Y-75265000D01*
X134841426Y-75320147D01*
X134580273Y-75428320D01*
X134345241Y-75585363D01*
X134145363Y-75785241D01*
X133988320Y-76020273D01*
X133880147Y-76281426D01*
X133825000Y-76558665D01*
X126535000Y-76558665D01*
X126479853Y-76281426D01*
X126371680Y-76020273D01*
X126214637Y-75785241D01*
X126014759Y-75585363D01*
X125779727Y-75428320D01*
X125518574Y-75320147D01*
X125241335Y-75265000D01*
X124958665Y-75265000D01*
X124681426Y-75320147D01*
X124420273Y-75428320D01*
X124185241Y-75585363D01*
X123985363Y-75785241D01*
X123828320Y-76020273D01*
X123720147Y-76281426D01*
X123665000Y-76558665D01*
X118160000Y-76558665D01*
X118160000Y-72758665D01*
X123705000Y-72758665D01*
X123705000Y-73041335D01*
X123760147Y-73318574D01*
X123868320Y-73579727D01*
X124025363Y-73814759D01*
X124225241Y-74014637D01*
X124460273Y-74171680D01*
X124721426Y-74279853D01*
X124998665Y-74335000D01*
X125281335Y-74335000D01*
X125558574Y-74279853D01*
X125819727Y-74171680D01*
X126054759Y-74014637D01*
X126176694Y-73892702D01*
X134486903Y-73892702D01*
X134558486Y-74136671D01*
X134813996Y-74257571D01*
X135088184Y-74326300D01*
X135370512Y-74340217D01*
X135650130Y-74298787D01*
X135916292Y-74203603D01*
X136041514Y-74136671D01*
X136113097Y-73892702D01*
X135300000Y-73079605D01*
X134486903Y-73892702D01*
X126176694Y-73892702D01*
X126254637Y-73814759D01*
X126411680Y-73579727D01*
X126519853Y-73318574D01*
X126575000Y-73041335D01*
X126575000Y-72970512D01*
X133859783Y-72970512D01*
X133901213Y-73250130D01*
X133996397Y-73516292D01*
X134063329Y-73641514D01*
X134307298Y-73713097D01*
X135120395Y-72900000D01*
X135479605Y-72900000D01*
X136292702Y-73713097D01*
X136536671Y-73641514D01*
X136657571Y-73386004D01*
X136726300Y-73111816D01*
X136740217Y-72829488D01*
X136706215Y-72600000D01*
X142811928Y-72600000D01*
X142811928Y-73800000D01*
X142828992Y-73973254D01*
X142879528Y-74139850D01*
X142961595Y-74293386D01*
X143072038Y-74427962D01*
X143206614Y-74538405D01*
X143360150Y-74620472D01*
X143526746Y-74671008D01*
X143700000Y-74688072D01*
X144900000Y-74688072D01*
X145073254Y-74671008D01*
X145239850Y-74620472D01*
X145393386Y-74538405D01*
X145527962Y-74427962D01*
X145638405Y-74293386D01*
X145673142Y-74228397D01*
X145991208Y-74228397D01*
X146068843Y-74477472D01*
X146332883Y-74603371D01*
X146616411Y-74675339D01*
X146908531Y-74690611D01*
X147198019Y-74648599D01*
X147473747Y-74550919D01*
X147611157Y-74477472D01*
X147688792Y-74228397D01*
X146840000Y-73379605D01*
X145991208Y-74228397D01*
X145673142Y-74228397D01*
X145720472Y-74139850D01*
X145753580Y-74030707D01*
X145811603Y-74048792D01*
X146660395Y-73200000D01*
X147019605Y-73200000D01*
X147868397Y-74048792D01*
X148110000Y-73973486D01*
X148351603Y-74048792D01*
X149200395Y-73200000D01*
X148351603Y-72351208D01*
X148110000Y-72426514D01*
X147868397Y-72351208D01*
X147019605Y-73200000D01*
X146660395Y-73200000D01*
X145811603Y-72351208D01*
X145753580Y-72369293D01*
X145720472Y-72260150D01*
X145638405Y-72106614D01*
X145527962Y-71972038D01*
X145393386Y-71861595D01*
X145266392Y-71793715D01*
X145371710Y-71688397D01*
X145991208Y-71688397D01*
X146066514Y-71930000D01*
X145991208Y-72171603D01*
X146840000Y-73020395D01*
X147688792Y-72171603D01*
X147613486Y-71930000D01*
X147688792Y-71688397D01*
X148531208Y-71688397D01*
X148606514Y-71930000D01*
X148531208Y-72171603D01*
X149380000Y-73020395D01*
X150228792Y-72171603D01*
X150153486Y-71930000D01*
X150228792Y-71688397D01*
X151071208Y-71688397D01*
X151146514Y-71930000D01*
X151071208Y-72171603D01*
X151920000Y-73020395D01*
X152768792Y-72171603D01*
X152693486Y-71930000D01*
X152768792Y-71688397D01*
X151920000Y-70839605D01*
X151071208Y-71688397D01*
X150228792Y-71688397D01*
X149380000Y-70839605D01*
X148531208Y-71688397D01*
X147688792Y-71688397D01*
X146840000Y-70839605D01*
X145991208Y-71688397D01*
X145371710Y-71688397D01*
X145453475Y-71606632D01*
X145569311Y-71433271D01*
X145811603Y-71508792D01*
X146660395Y-70660000D01*
X147019605Y-70660000D01*
X147868397Y-71508792D01*
X148110000Y-71433486D01*
X148351603Y-71508792D01*
X149200395Y-70660000D01*
X149559605Y-70660000D01*
X150408397Y-71508792D01*
X150650000Y-71433486D01*
X150891603Y-71508792D01*
X151740395Y-70660000D01*
X150891603Y-69811208D01*
X150650000Y-69886514D01*
X150408397Y-69811208D01*
X149559605Y-70660000D01*
X149200395Y-70660000D01*
X148351603Y-69811208D01*
X148110000Y-69886514D01*
X147868397Y-69811208D01*
X147019605Y-70660000D01*
X146660395Y-70660000D01*
X145811603Y-69811208D01*
X145569311Y-69886729D01*
X145453475Y-69713368D01*
X145371710Y-69631603D01*
X145991208Y-69631603D01*
X146840000Y-70480395D01*
X147688792Y-69631603D01*
X148531208Y-69631603D01*
X149380000Y-70480395D01*
X150228792Y-69631603D01*
X151071208Y-69631603D01*
X151920000Y-70480395D01*
X152768792Y-69631603D01*
X152691157Y-69382528D01*
X152427117Y-69256629D01*
X152143589Y-69184661D01*
X151851469Y-69169389D01*
X151561981Y-69211401D01*
X151286253Y-69309081D01*
X151148843Y-69382528D01*
X151071208Y-69631603D01*
X150228792Y-69631603D01*
X150151157Y-69382528D01*
X149887117Y-69256629D01*
X149603589Y-69184661D01*
X149311469Y-69169389D01*
X149021981Y-69211401D01*
X148746253Y-69309081D01*
X148608843Y-69382528D01*
X148531208Y-69631603D01*
X147688792Y-69631603D01*
X147611157Y-69382528D01*
X147347117Y-69256629D01*
X147063589Y-69184661D01*
X146771469Y-69169389D01*
X146481981Y-69211401D01*
X146206253Y-69309081D01*
X146068843Y-69382528D01*
X145991208Y-69631603D01*
X145371710Y-69631603D01*
X145246632Y-69506525D01*
X145003411Y-69344010D01*
X144733158Y-69232068D01*
X144446260Y-69175000D01*
X144153740Y-69175000D01*
X143866842Y-69232068D01*
X143596589Y-69344010D01*
X143353368Y-69506525D01*
X143146525Y-69713368D01*
X142984010Y-69956589D01*
X142872068Y-70226842D01*
X142815000Y-70513740D01*
X142815000Y-70806260D01*
X142872068Y-71093158D01*
X142984010Y-71363411D01*
X143146525Y-71606632D01*
X143333608Y-71793715D01*
X143206614Y-71861595D01*
X143072038Y-71972038D01*
X142961595Y-72106614D01*
X142879528Y-72260150D01*
X142828992Y-72426746D01*
X142811928Y-72600000D01*
X136706215Y-72600000D01*
X136698787Y-72549870D01*
X136603603Y-72283708D01*
X136536671Y-72158486D01*
X136292702Y-72086903D01*
X135479605Y-72900000D01*
X135120395Y-72900000D01*
X134307298Y-72086903D01*
X134063329Y-72158486D01*
X133942429Y-72413996D01*
X133873700Y-72688184D01*
X133859783Y-72970512D01*
X126575000Y-72970512D01*
X126575000Y-72758665D01*
X126519853Y-72481426D01*
X126411680Y-72220273D01*
X126254637Y-71985241D01*
X126176694Y-71907298D01*
X134486903Y-71907298D01*
X135300000Y-72720395D01*
X136113097Y-71907298D01*
X136041514Y-71663329D01*
X135786004Y-71542429D01*
X135511816Y-71473700D01*
X135229488Y-71459783D01*
X134949870Y-71501213D01*
X134683708Y-71596397D01*
X134558486Y-71663329D01*
X134486903Y-71907298D01*
X126176694Y-71907298D01*
X126054759Y-71785363D01*
X125819727Y-71628320D01*
X125558574Y-71520147D01*
X125281335Y-71465000D01*
X124998665Y-71465000D01*
X124721426Y-71520147D01*
X124460273Y-71628320D01*
X124225241Y-71785363D01*
X124025363Y-71985241D01*
X123868320Y-72220273D01*
X123760147Y-72481426D01*
X123705000Y-72758665D01*
X118160000Y-72758665D01*
X118160000Y-67160000D01*
X125828555Y-67160000D01*
X125762342Y-67214340D01*
G37*
%TD.AperFunction*%
D22*
X173911000Y-88568236D02*
X173911001Y-94564103D01*
X173860150Y-94579528D01*
X173706614Y-94661595D01*
X173572038Y-94772038D01*
X173461595Y-94906614D01*
X173379528Y-95060150D01*
X173328992Y-95226746D01*
X173311928Y-95400000D01*
X173311928Y-96600000D01*
X173328992Y-96773254D01*
X173379528Y-96939850D01*
X173461595Y-97093386D01*
X173572038Y-97227962D01*
X173706614Y-97338405D01*
X173833608Y-97406285D01*
X173646525Y-97593368D01*
X173536181Y-97758510D01*
X173463709Y-97797247D01*
X173328341Y-97908341D01*
X173300506Y-97942258D01*
X170131765Y-101111000D01*
X168421990Y-101111000D01*
X168578574Y-101079853D01*
X168839727Y-100971680D01*
X169074759Y-100814637D01*
X169274637Y-100614759D01*
X169431680Y-100379727D01*
X169539853Y-100118574D01*
X169595000Y-99841335D01*
X169595000Y-99558665D01*
X169539853Y-99281426D01*
X169431680Y-99020273D01*
X169274637Y-98785241D01*
X169074759Y-98585363D01*
X168839727Y-98428320D01*
X168578574Y-98320147D01*
X168301335Y-98265000D01*
X168018665Y-98265000D01*
X167988280Y-98271044D01*
X165475901Y-95758665D01*
X166725000Y-95758665D01*
X166725000Y-96041335D01*
X166780147Y-96318574D01*
X166888320Y-96579727D01*
X167045363Y-96814759D01*
X167245241Y-97014637D01*
X167480273Y-97171680D01*
X167741426Y-97279853D01*
X168018665Y-97335000D01*
X168301335Y-97335000D01*
X168578574Y-97279853D01*
X168839727Y-97171680D01*
X169074759Y-97014637D01*
X169274637Y-96814759D01*
X169431680Y-96579727D01*
X169539853Y-96318574D01*
X169595000Y-96041335D01*
X169595000Y-95758665D01*
X169539853Y-95481426D01*
X169431680Y-95220273D01*
X169274637Y-94985241D01*
X169074759Y-94785363D01*
X168839727Y-94628320D01*
X168578574Y-94520147D01*
X168301335Y-94465000D01*
X168018665Y-94465000D01*
X167741426Y-94520147D01*
X167480273Y-94628320D01*
X167245241Y-94785363D01*
X167045363Y-94985241D01*
X166888320Y-95220273D01*
X166780147Y-95481426D01*
X166725000Y-95758665D01*
X165475901Y-95758665D01*
X165019499Y-95302264D01*
X164991659Y-95268341D01*
X164856291Y-95157247D01*
X164701851Y-95074697D01*
X164534274Y-95023864D01*
X164403667Y-95011000D01*
X164403660Y-95011000D01*
X164360000Y-95006700D01*
X164316340Y-95011000D01*
X159131849Y-95011000D01*
X159114637Y-94985241D01*
X158914759Y-94785363D01*
X158679727Y-94628320D01*
X158418574Y-94520147D01*
X158141335Y-94465000D01*
X157858665Y-94465000D01*
X157581426Y-94520147D01*
X157320273Y-94628320D01*
X157085241Y-94785363D01*
X156885363Y-94985241D01*
X156728320Y-95220273D01*
X156620147Y-95481426D01*
X156565000Y-95758665D01*
X156565000Y-96041335D01*
X156620147Y-96318574D01*
X156728320Y-96579727D01*
X156885363Y-96814759D01*
X157085241Y-97014637D01*
X157320273Y-97171680D01*
X157581426Y-97279853D01*
X157858665Y-97335000D01*
X158141335Y-97335000D01*
X158418574Y-97279853D01*
X158679727Y-97171680D01*
X158914759Y-97014637D01*
X159114637Y-96814759D01*
X159131849Y-96789000D01*
X163991765Y-96789000D01*
X166731044Y-99528280D01*
X166725000Y-99558665D01*
X166725000Y-99841335D01*
X166780147Y-100118574D01*
X166888320Y-100379727D01*
X167045363Y-100614759D01*
X167245241Y-100814637D01*
X167480273Y-100971680D01*
X167741426Y-101079853D01*
X167898010Y-101111000D01*
X158261990Y-101111000D01*
X158418574Y-101079853D01*
X158679727Y-100971680D01*
X158914759Y-100814637D01*
X159114637Y-100614759D01*
X159271680Y-100379727D01*
X159379853Y-100118574D01*
X159435000Y-99841335D01*
X159435000Y-99558665D01*
X159379853Y-99281426D01*
X159271680Y-99020273D01*
X159114637Y-98785241D01*
X158914759Y-98585363D01*
X158679727Y-98428320D01*
X158418574Y-98320147D01*
X158141335Y-98265000D01*
X157858665Y-98265000D01*
X157581426Y-98320147D01*
X157320273Y-98428320D01*
X157085241Y-98585363D01*
X156885363Y-98785241D01*
X156841424Y-98851000D01*
X155146795Y-98851000D01*
X155039608Y-98720392D01*
X154821101Y-98541068D01*
X154688142Y-98470000D01*
X154821101Y-98398932D01*
X155039608Y-98219608D01*
X155218932Y-98001101D01*
X155352182Y-97751808D01*
X155434236Y-97481309D01*
X155461943Y-97200000D01*
X155434236Y-96918691D01*
X155352182Y-96648192D01*
X155218932Y-96398899D01*
X155039608Y-96180392D01*
X154821101Y-96001068D01*
X154688142Y-95930000D01*
X154821101Y-95858932D01*
X155039608Y-95679608D01*
X155218932Y-95461101D01*
X155352182Y-95211808D01*
X155434236Y-94941309D01*
X155461943Y-94660000D01*
X155434236Y-94378691D01*
X155399145Y-94263010D01*
X164173700Y-94263010D01*
X164217360Y-94267310D01*
X164261020Y-94263010D01*
X164261027Y-94263010D01*
X164391634Y-94250146D01*
X164559211Y-94199313D01*
X164713651Y-94116763D01*
X164849019Y-94005669D01*
X164876859Y-93971746D01*
X168757743Y-90090863D01*
X168791659Y-90063029D01*
X168902753Y-89927661D01*
X168985303Y-89773221D01*
X169036136Y-89605644D01*
X169049000Y-89475037D01*
X169049000Y-89475030D01*
X169053300Y-89431370D01*
X169053079Y-89429123D01*
X169074759Y-89414637D01*
X169274637Y-89214759D01*
X169431680Y-88979727D01*
X169539853Y-88718574D01*
X169595000Y-88441335D01*
X169595000Y-88158665D01*
X169539853Y-87881426D01*
X169431680Y-87620273D01*
X169274637Y-87385241D01*
X169074759Y-87185363D01*
X168839727Y-87028320D01*
X168578574Y-86920147D01*
X168301335Y-86865000D01*
X168018665Y-86865000D01*
X167741426Y-86920147D01*
X167480273Y-87028320D01*
X167245241Y-87185363D01*
X167045363Y-87385241D01*
X166888320Y-87620273D01*
X166780147Y-87881426D01*
X166725000Y-88158665D01*
X166725000Y-88441335D01*
X166780147Y-88718574D01*
X166888320Y-88979727D01*
X167045363Y-89214759D01*
X167082369Y-89251765D01*
X163894180Y-92439955D01*
X163926300Y-92311816D01*
X163940217Y-92029488D01*
X163898787Y-91749870D01*
X163803603Y-91483708D01*
X163736671Y-91358486D01*
X163492702Y-91286903D01*
X162679605Y-92100000D01*
X162693748Y-92114143D01*
X162514143Y-92293748D01*
X162500000Y-92279605D01*
X162485858Y-92293748D01*
X162306253Y-92114143D01*
X162320395Y-92100000D01*
X161507298Y-91286903D01*
X161263329Y-91358486D01*
X161249676Y-91387341D01*
X161114637Y-91185241D01*
X161036694Y-91107298D01*
X161686903Y-91107298D01*
X162500000Y-91920395D01*
X163313097Y-91107298D01*
X163241514Y-90863329D01*
X162986004Y-90742429D01*
X162711816Y-90673700D01*
X162429488Y-90659783D01*
X162149870Y-90701213D01*
X161883708Y-90796397D01*
X161758486Y-90863329D01*
X161686903Y-91107298D01*
X161036694Y-91107298D01*
X160914759Y-90985363D01*
X160679727Y-90828320D01*
X160418574Y-90720147D01*
X160141335Y-90665000D01*
X159858665Y-90665000D01*
X159581426Y-90720147D01*
X159320273Y-90828320D01*
X159085241Y-90985363D01*
X158885363Y-91185241D01*
X158868151Y-91211000D01*
X155130382Y-91211000D01*
X155039608Y-91100392D01*
X154821101Y-90921068D01*
X154688142Y-90850000D01*
X154821101Y-90778932D01*
X155039608Y-90599608D01*
X155218932Y-90381101D01*
X155352182Y-90131808D01*
X155434236Y-89861309D01*
X155461943Y-89580000D01*
X155434236Y-89298691D01*
X155352182Y-89028192D01*
X155218932Y-88778899D01*
X155039608Y-88560392D01*
X154821101Y-88381068D01*
X154688142Y-88310000D01*
X154821101Y-88238932D01*
X155039608Y-88059608D01*
X155146795Y-87929000D01*
X156371765Y-87929000D01*
X156571044Y-88128280D01*
X156565000Y-88158665D01*
X156565000Y-88441335D01*
X156620147Y-88718574D01*
X156728320Y-88979727D01*
X156885363Y-89214759D01*
X157085241Y-89414637D01*
X157320273Y-89571680D01*
X157581426Y-89679853D01*
X157858665Y-89735000D01*
X158141335Y-89735000D01*
X158418574Y-89679853D01*
X158679727Y-89571680D01*
X158914759Y-89414637D01*
X159114637Y-89214759D01*
X159131849Y-89189000D01*
X164316340Y-89189000D01*
X164360000Y-89193300D01*
X164403660Y-89189000D01*
X164403667Y-89189000D01*
X164534274Y-89176136D01*
X164701851Y-89125303D01*
X164856291Y-89042753D01*
X164991659Y-88931659D01*
X165019499Y-88897736D01*
X167988280Y-85928956D01*
X168018665Y-85935000D01*
X168301335Y-85935000D01*
X168578574Y-85879853D01*
X168839727Y-85771680D01*
X169074759Y-85614637D01*
X169274637Y-85414759D01*
X169431680Y-85179727D01*
X169539853Y-84918574D01*
X169595000Y-84641335D01*
X169595000Y-84358665D01*
X169568573Y-84225808D01*
X173911000Y-88568236D01*
%TA.AperFunction,Conductor*%
D23*
G36*
X173911000Y-88568236D02*
G01*
X173911001Y-94564103D01*
X173860150Y-94579528D01*
X173706614Y-94661595D01*
X173572038Y-94772038D01*
X173461595Y-94906614D01*
X173379528Y-95060150D01*
X173328992Y-95226746D01*
X173311928Y-95400000D01*
X173311928Y-96600000D01*
X173328992Y-96773254D01*
X173379528Y-96939850D01*
X173461595Y-97093386D01*
X173572038Y-97227962D01*
X173706614Y-97338405D01*
X173833608Y-97406285D01*
X173646525Y-97593368D01*
X173536181Y-97758510D01*
X173463709Y-97797247D01*
X173328341Y-97908341D01*
X173300506Y-97942258D01*
X170131765Y-101111000D01*
X168421990Y-101111000D01*
X168578574Y-101079853D01*
X168839727Y-100971680D01*
X169074759Y-100814637D01*
X169274637Y-100614759D01*
X169431680Y-100379727D01*
X169539853Y-100118574D01*
X169595000Y-99841335D01*
X169595000Y-99558665D01*
X169539853Y-99281426D01*
X169431680Y-99020273D01*
X169274637Y-98785241D01*
X169074759Y-98585363D01*
X168839727Y-98428320D01*
X168578574Y-98320147D01*
X168301335Y-98265000D01*
X168018665Y-98265000D01*
X167988280Y-98271044D01*
X165475901Y-95758665D01*
X166725000Y-95758665D01*
X166725000Y-96041335D01*
X166780147Y-96318574D01*
X166888320Y-96579727D01*
X167045363Y-96814759D01*
X167245241Y-97014637D01*
X167480273Y-97171680D01*
X167741426Y-97279853D01*
X168018665Y-97335000D01*
X168301335Y-97335000D01*
X168578574Y-97279853D01*
X168839727Y-97171680D01*
X169074759Y-97014637D01*
X169274637Y-96814759D01*
X169431680Y-96579727D01*
X169539853Y-96318574D01*
X169595000Y-96041335D01*
X169595000Y-95758665D01*
X169539853Y-95481426D01*
X169431680Y-95220273D01*
X169274637Y-94985241D01*
X169074759Y-94785363D01*
X168839727Y-94628320D01*
X168578574Y-94520147D01*
X168301335Y-94465000D01*
X168018665Y-94465000D01*
X167741426Y-94520147D01*
X167480273Y-94628320D01*
X167245241Y-94785363D01*
X167045363Y-94985241D01*
X166888320Y-95220273D01*
X166780147Y-95481426D01*
X166725000Y-95758665D01*
X165475901Y-95758665D01*
X165019499Y-95302264D01*
X164991659Y-95268341D01*
X164856291Y-95157247D01*
X164701851Y-95074697D01*
X164534274Y-95023864D01*
X164403667Y-95011000D01*
X164403660Y-95011000D01*
X164360000Y-95006700D01*
X164316340Y-95011000D01*
X159131849Y-95011000D01*
X159114637Y-94985241D01*
X158914759Y-94785363D01*
X158679727Y-94628320D01*
X158418574Y-94520147D01*
X158141335Y-94465000D01*
X157858665Y-94465000D01*
X157581426Y-94520147D01*
X157320273Y-94628320D01*
X157085241Y-94785363D01*
X156885363Y-94985241D01*
X156728320Y-95220273D01*
X156620147Y-95481426D01*
X156565000Y-95758665D01*
X156565000Y-96041335D01*
X156620147Y-96318574D01*
X156728320Y-96579727D01*
X156885363Y-96814759D01*
X157085241Y-97014637D01*
X157320273Y-97171680D01*
X157581426Y-97279853D01*
X157858665Y-97335000D01*
X158141335Y-97335000D01*
X158418574Y-97279853D01*
X158679727Y-97171680D01*
X158914759Y-97014637D01*
X159114637Y-96814759D01*
X159131849Y-96789000D01*
X163991765Y-96789000D01*
X166731044Y-99528280D01*
X166725000Y-99558665D01*
X166725000Y-99841335D01*
X166780147Y-100118574D01*
X166888320Y-100379727D01*
X167045363Y-100614759D01*
X167245241Y-100814637D01*
X167480273Y-100971680D01*
X167741426Y-101079853D01*
X167898010Y-101111000D01*
X158261990Y-101111000D01*
X158418574Y-101079853D01*
X158679727Y-100971680D01*
X158914759Y-100814637D01*
X159114637Y-100614759D01*
X159271680Y-100379727D01*
X159379853Y-100118574D01*
X159435000Y-99841335D01*
X159435000Y-99558665D01*
X159379853Y-99281426D01*
X159271680Y-99020273D01*
X159114637Y-98785241D01*
X158914759Y-98585363D01*
X158679727Y-98428320D01*
X158418574Y-98320147D01*
X158141335Y-98265000D01*
X157858665Y-98265000D01*
X157581426Y-98320147D01*
X157320273Y-98428320D01*
X157085241Y-98585363D01*
X156885363Y-98785241D01*
X156841424Y-98851000D01*
X155146795Y-98851000D01*
X155039608Y-98720392D01*
X154821101Y-98541068D01*
X154688142Y-98470000D01*
X154821101Y-98398932D01*
X155039608Y-98219608D01*
X155218932Y-98001101D01*
X155352182Y-97751808D01*
X155434236Y-97481309D01*
X155461943Y-97200000D01*
X155434236Y-96918691D01*
X155352182Y-96648192D01*
X155218932Y-96398899D01*
X155039608Y-96180392D01*
X154821101Y-96001068D01*
X154688142Y-95930000D01*
X154821101Y-95858932D01*
X155039608Y-95679608D01*
X155218932Y-95461101D01*
X155352182Y-95211808D01*
X155434236Y-94941309D01*
X155461943Y-94660000D01*
X155434236Y-94378691D01*
X155399145Y-94263010D01*
X164173700Y-94263010D01*
X164217360Y-94267310D01*
X164261020Y-94263010D01*
X164261027Y-94263010D01*
X164391634Y-94250146D01*
X164559211Y-94199313D01*
X164713651Y-94116763D01*
X164849019Y-94005669D01*
X164876859Y-93971746D01*
X168757743Y-90090863D01*
X168791659Y-90063029D01*
X168902753Y-89927661D01*
X168985303Y-89773221D01*
X169036136Y-89605644D01*
X169049000Y-89475037D01*
X169049000Y-89475030D01*
X169053300Y-89431370D01*
X169053079Y-89429123D01*
X169074759Y-89414637D01*
X169274637Y-89214759D01*
X169431680Y-88979727D01*
X169539853Y-88718574D01*
X169595000Y-88441335D01*
X169595000Y-88158665D01*
X169539853Y-87881426D01*
X169431680Y-87620273D01*
X169274637Y-87385241D01*
X169074759Y-87185363D01*
X168839727Y-87028320D01*
X168578574Y-86920147D01*
X168301335Y-86865000D01*
X168018665Y-86865000D01*
X167741426Y-86920147D01*
X167480273Y-87028320D01*
X167245241Y-87185363D01*
X167045363Y-87385241D01*
X166888320Y-87620273D01*
X166780147Y-87881426D01*
X166725000Y-88158665D01*
X166725000Y-88441335D01*
X166780147Y-88718574D01*
X166888320Y-88979727D01*
X167045363Y-89214759D01*
X167082369Y-89251765D01*
X163894180Y-92439955D01*
X163926300Y-92311816D01*
X163940217Y-92029488D01*
X163898787Y-91749870D01*
X163803603Y-91483708D01*
X163736671Y-91358486D01*
X163492702Y-91286903D01*
X162679605Y-92100000D01*
X162693748Y-92114143D01*
X162514143Y-92293748D01*
X162500000Y-92279605D01*
X162485858Y-92293748D01*
X162306253Y-92114143D01*
X162320395Y-92100000D01*
X161507298Y-91286903D01*
X161263329Y-91358486D01*
X161249676Y-91387341D01*
X161114637Y-91185241D01*
X161036694Y-91107298D01*
X161686903Y-91107298D01*
X162500000Y-91920395D01*
X163313097Y-91107298D01*
X163241514Y-90863329D01*
X162986004Y-90742429D01*
X162711816Y-90673700D01*
X162429488Y-90659783D01*
X162149870Y-90701213D01*
X161883708Y-90796397D01*
X161758486Y-90863329D01*
X161686903Y-91107298D01*
X161036694Y-91107298D01*
X160914759Y-90985363D01*
X160679727Y-90828320D01*
X160418574Y-90720147D01*
X160141335Y-90665000D01*
X159858665Y-90665000D01*
X159581426Y-90720147D01*
X159320273Y-90828320D01*
X159085241Y-90985363D01*
X158885363Y-91185241D01*
X158868151Y-91211000D01*
X155130382Y-91211000D01*
X155039608Y-91100392D01*
X154821101Y-90921068D01*
X154688142Y-90850000D01*
X154821101Y-90778932D01*
X155039608Y-90599608D01*
X155218932Y-90381101D01*
X155352182Y-90131808D01*
X155434236Y-89861309D01*
X155461943Y-89580000D01*
X155434236Y-89298691D01*
X155352182Y-89028192D01*
X155218932Y-88778899D01*
X155039608Y-88560392D01*
X154821101Y-88381068D01*
X154688142Y-88310000D01*
X154821101Y-88238932D01*
X155039608Y-88059608D01*
X155146795Y-87929000D01*
X156371765Y-87929000D01*
X156571044Y-88128280D01*
X156565000Y-88158665D01*
X156565000Y-88441335D01*
X156620147Y-88718574D01*
X156728320Y-88979727D01*
X156885363Y-89214759D01*
X157085241Y-89414637D01*
X157320273Y-89571680D01*
X157581426Y-89679853D01*
X157858665Y-89735000D01*
X158141335Y-89735000D01*
X158418574Y-89679853D01*
X158679727Y-89571680D01*
X158914759Y-89414637D01*
X159114637Y-89214759D01*
X159131849Y-89189000D01*
X164316340Y-89189000D01*
X164360000Y-89193300D01*
X164403660Y-89189000D01*
X164403667Y-89189000D01*
X164534274Y-89176136D01*
X164701851Y-89125303D01*
X164856291Y-89042753D01*
X164991659Y-88931659D01*
X165019499Y-88897736D01*
X167988280Y-85928956D01*
X168018665Y-85935000D01*
X168301335Y-85935000D01*
X168578574Y-85879853D01*
X168839727Y-85771680D01*
X169074759Y-85614637D01*
X169274637Y-85414759D01*
X169431680Y-85179727D01*
X169539853Y-84918574D01*
X169595000Y-84641335D01*
X169595000Y-84358665D01*
X169568573Y-84225808D01*
X173911000Y-88568236D01*
G37*
%TD.AperFunction*%
%TD*%
M02*
