M48
; DRILL file {KiCad 5.99.0+really5.1.10+dfsg1-1} date Sun Jan  9 12:47:14 2022
; FORMAT={-:-/ absolute / inch / decimal}
; #@! TF.CreationDate,2022-01-09T12:47:14+01:00
; #@! TF.GenerationSoftware,Kicad,Pcbnew,5.99.0+really5.1.10+dfsg1-1
; #@! TF.FileFunction,Plated,1,2,PTH
FMAT,2
INCH
T1C0.0150
T2C0.0315
T3C0.0394
T4C0.0512
T5C0.1299
%
G90
G05
T1
X5.2913Y-4.5748
X5.2913Y-4.8071
X5.8661Y-3.7992
X5.8661Y-3.937
X5.9055Y-3.7992
X5.9055Y-3.937
X6.7362Y-4.3543
T2
X4.9252Y-3.0197
X4.9268Y-2.7205
X4.9268Y-2.8701
X5.1772Y-3.1732
X5.1772Y-4.0709
X5.1772Y-4.252
X5.1787Y-3.3268
X5.1787Y-3.4803
X5.1787Y-3.7756
X5.1787Y-3.9252
X5.1787Y-4.4016
X5.1787Y-4.5551
X5.1811Y-5.1575
X5.1827Y-4.8583
X5.1827Y-5.0079
X5.3252Y-3.0197
X5.3268Y-2.7205
X5.3268Y-2.8701
X5.3976Y-4.7047
X5.4016Y-3.6299
X5.4961Y-4.7047
X5.5Y-3.6299
X5.5772Y-3.1732
X5.5772Y-4.0709
X5.5772Y-4.252
X5.5787Y-3.3268
X5.5787Y-3.4803
X5.5787Y-3.7756
X5.5787Y-3.9252
X5.5787Y-4.4016
X5.5787Y-4.5551
X5.5811Y-5.1575
X5.5827Y-4.8583
X5.5827Y-5.0079
X5.6984Y-3.1457
X5.748Y-3.3268
X5.748Y-3.4268
X5.748Y-3.5268
X5.748Y-3.6268
X5.748Y-3.7268
X5.748Y-3.8268
X5.748Y-3.9268
X5.748Y-4.4016
X5.748Y-4.5016
X5.748Y-4.6016
X5.748Y-4.7016
X5.748Y-4.8016
X5.748Y-4.9016
X5.748Y-5.0016
X6.048Y-3.3268
X6.048Y-3.4268
X6.048Y-3.5268
X6.048Y-3.6268
X6.048Y-3.7268
X6.048Y-3.8268
X6.048Y-3.9268
X6.048Y-4.4016
X6.048Y-4.5016
X6.048Y-4.6016
X6.048Y-4.7016
X6.048Y-4.8016
X6.048Y-4.9016
X6.048Y-5.0016
X6.0984Y-3.1457
X6.2205Y-3.1575
X6.2205Y-3.3268
X6.2205Y-3.4764
X6.2205Y-3.7756
X6.2205Y-3.9252
X6.2205Y-4.0709
X6.2205Y-4.2441
X6.2205Y-4.3976
X6.2205Y-4.5472
X6.2205Y-4.8583
X6.2205Y-5.0039
X6.2205Y-5.1496
X6.2992Y-3.626
X6.2992Y-4.7008
X6.3976Y-3.626
X6.3976Y-4.7008
X6.5157Y-2.815
X6.6142Y-2.815
X6.6205Y-3.1575
X6.6205Y-3.3268
X6.6205Y-3.4764
X6.6205Y-3.7756
X6.6205Y-3.9252
X6.6205Y-4.0709
X6.6205Y-4.2441
X6.6205Y-4.3976
X6.6205Y-4.5472
X6.6205Y-4.8583
X6.6205Y-5.0039
X6.6205Y-5.1496
X6.7756Y-2.9567
X6.874Y-2.9567
T3
X4.811Y-3.1819
X4.811Y-3.2819
X4.811Y-3.3819
X4.8268Y-3.7795
X4.8268Y-3.8795
X4.8268Y-3.9795
X4.8268Y-4.0795
X4.8268Y-4.1795
X4.8268Y-4.2795
X4.8268Y-4.3795
X4.8268Y-4.4795
X4.9268Y-3.7795
X4.9268Y-3.8795
X4.9268Y-3.9795
X4.9268Y-4.0795
X4.9268Y-4.1795
X4.9268Y-4.2795
X4.9268Y-4.3795
X4.9268Y-4.4795
X4.9528Y-3.1819
X4.9528Y-3.2819
X4.9528Y-3.3819
X5.6811Y-2.7819
X5.6811Y-2.8819
X5.7811Y-2.7819
X5.7811Y-2.8819
X5.8811Y-2.7819
X5.8811Y-2.8819
X5.9811Y-2.7819
X5.9811Y-2.8819
X6.0811Y-2.7819
X6.0811Y-2.8819
X6.8819Y-3.7795
X6.8819Y-3.8795
X6.8819Y-3.9795
X6.8819Y-4.0795
X6.8819Y-4.1795
X6.8819Y-4.2795
X6.8819Y-4.3795
X6.8819Y-4.4795
X6.9819Y-3.7795
X6.9819Y-3.8795
X6.9819Y-3.9795
X6.9819Y-4.0795
X6.9819Y-4.1795
X6.9819Y-4.2795
X6.9819Y-4.3795
X6.9819Y-4.4795
T4
X6.8189Y-3.2992
X7.0157Y-3.2008
X7.0157Y-3.3976
T5
X4.7441Y-2.7362
X4.7441Y-5.0984
X7.0472Y-2.7362
X7.0472Y-5.0984
T0
M30
