%TF.GenerationSoftware,KiCad,Pcbnew,5.99.0+really5.1.10+dfsg1-1*%
%TF.CreationDate,2022-01-09T12:47:15+01:00*%
%TF.ProjectId,inverter-8,696e7665-7274-4657-922d-382e6b696361,v1.0.0*%
%TF.SameCoordinates,Original*%
%TF.FileFunction,Soldermask,Top*%
%TF.FilePolarity,Negative*%
%FSLAX46Y46*%
G04 Gerber Fmt 4.6, Leading zero omitted, Abs format (unit mm)*
G04 Created by KiCad (PCBNEW 5.99.0+really5.1.10+dfsg1-1) date 2022-01-09 12:47:15*
%MOMM*%
%LPD*%
G01*
G04 APERTURE LIST*
%ADD10C,2.340000*%
%ADD11O,1.600000X1.600000*%
%ADD12C,1.600000*%
%ADD13O,1.700000X1.700000*%
%ADD14R,1.700000X1.700000*%
%ADD15R,1.600000X1.600000*%
%ADD16O,2.400000X1.600000*%
%ADD17R,2.400000X1.600000*%
%ADD18C,1.700000*%
G04 APERTURE END LIST*
D10*
%TO.C,RV1*%
X178200000Y-86300000D03*
X173200000Y-83800000D03*
X178200000Y-81300000D03*
%TD*%
D11*
%TO.C,R28*%
X168160000Y-107800000D03*
D12*
X158000000Y-107800000D03*
%TD*%
D11*
%TO.C,R27*%
X168160000Y-130800000D03*
D12*
X158000000Y-130800000D03*
%TD*%
D11*
%TO.C,R26*%
X141760000Y-131000000D03*
D12*
X131600000Y-131000000D03*
%TD*%
D11*
%TO.C,R25*%
X141660000Y-108000000D03*
D12*
X131500000Y-108000000D03*
%TD*%
D11*
%TO.C,R24*%
X168160000Y-80200000D03*
D12*
X158000000Y-80200000D03*
%TD*%
D11*
%TO.C,R23*%
X168160000Y-103400000D03*
D12*
X158000000Y-103400000D03*
%TD*%
D11*
%TO.C,R22*%
X141660000Y-103400000D03*
D12*
X131500000Y-103400000D03*
%TD*%
D11*
%TO.C,R21*%
X141660000Y-80600000D03*
D12*
X131500000Y-80600000D03*
%TD*%
D11*
%TO.C,R20*%
X135260000Y-76700000D03*
D12*
X125100000Y-76700000D03*
%TD*%
D11*
%TO.C,R19*%
X125140000Y-72900000D03*
D12*
X135300000Y-72900000D03*
%TD*%
D13*
%TO.C,J5*%
X125800000Y-80820000D03*
X125800000Y-83360000D03*
D14*
X125800000Y-85900000D03*
%TD*%
D12*
%TO.C,C6*%
X160000000Y-119400000D03*
X162500000Y-119400000D03*
%TD*%
%TO.C,C5*%
X160000000Y-92100000D03*
X162500000Y-92100000D03*
%TD*%
%TO.C,C3*%
X172100000Y-75100000D03*
D15*
X174600000Y-75100000D03*
%TD*%
D12*
%TO.C,C1*%
X168000000Y-71500000D03*
D15*
X165500000Y-71500000D03*
%TD*%
D16*
%TO.C,U2*%
X153620000Y-111800000D03*
X146000000Y-127040000D03*
X153620000Y-114340000D03*
X146000000Y-124500000D03*
X153620000Y-116880000D03*
X146000000Y-121960000D03*
X153620000Y-119420000D03*
X146000000Y-119420000D03*
X153620000Y-121960000D03*
X146000000Y-116880000D03*
X153620000Y-124500000D03*
X146000000Y-114340000D03*
X153620000Y-127040000D03*
D17*
X146000000Y-111800000D03*
%TD*%
D16*
%TO.C,U1*%
X153620000Y-84500000D03*
X146000000Y-99740000D03*
X153620000Y-87040000D03*
X146000000Y-97200000D03*
X153620000Y-89580000D03*
X146000000Y-94660000D03*
X153620000Y-92120000D03*
X146000000Y-92120000D03*
X153620000Y-94660000D03*
X146000000Y-89580000D03*
X153620000Y-97200000D03*
X146000000Y-87040000D03*
X153620000Y-99740000D03*
D17*
X146000000Y-84500000D03*
%TD*%
D11*
%TO.C,R18*%
X125140000Y-69100000D03*
D12*
X135300000Y-69100000D03*
%TD*%
D11*
%TO.C,R17*%
X144740000Y-79900000D03*
D12*
X154900000Y-79900000D03*
%TD*%
D11*
%TO.C,R16*%
X168160000Y-111700000D03*
D12*
X158000000Y-111700000D03*
%TD*%
D11*
%TO.C,R15*%
X168160000Y-127100000D03*
D12*
X158000000Y-127100000D03*
%TD*%
D11*
%TO.C,R14*%
X131640000Y-127200000D03*
D12*
X141800000Y-127200000D03*
%TD*%
D11*
%TO.C,R13*%
X131540000Y-111800000D03*
D12*
X141700000Y-111800000D03*
%TD*%
D11*
%TO.C,R12*%
X168160000Y-115500000D03*
D12*
X158000000Y-115500000D03*
%TD*%
D11*
%TO.C,R11*%
X168160000Y-123400000D03*
D12*
X158000000Y-123400000D03*
%TD*%
D11*
%TO.C,R10*%
X131640000Y-123400000D03*
D12*
X141800000Y-123400000D03*
%TD*%
D11*
%TO.C,R9*%
X131540000Y-115700000D03*
D12*
X141700000Y-115700000D03*
%TD*%
D11*
%TO.C,R8*%
X168160000Y-84500000D03*
D12*
X158000000Y-84500000D03*
%TD*%
D11*
%TO.C,R7*%
X168160000Y-99700000D03*
D12*
X158000000Y-99700000D03*
%TD*%
D11*
%TO.C,R6*%
X131540000Y-99700000D03*
D12*
X141700000Y-99700000D03*
%TD*%
D11*
%TO.C,R5*%
X131540000Y-84500000D03*
D12*
X141700000Y-84500000D03*
%TD*%
D11*
%TO.C,R4*%
X168160000Y-88300000D03*
D12*
X158000000Y-88300000D03*
%TD*%
D11*
%TO.C,R3*%
X168160000Y-95900000D03*
D12*
X158000000Y-95900000D03*
%TD*%
D11*
%TO.C,R2*%
X131540000Y-95900000D03*
D12*
X141700000Y-95900000D03*
%TD*%
D11*
%TO.C,R1*%
X131540000Y-88400000D03*
D12*
X141700000Y-88400000D03*
%TD*%
D18*
%TO.C,J4*%
X154460000Y-70660000D03*
X151920000Y-70660000D03*
X149380000Y-70660000D03*
X146840000Y-70660000D03*
X144300000Y-70660000D03*
X154460000Y-73200000D03*
X151920000Y-73200000D03*
X149380000Y-73200000D03*
X146840000Y-73200000D03*
G36*
G01*
X144900000Y-74050000D02*
X143700000Y-74050000D01*
G75*
G02*
X143450000Y-73800000I0J250000D01*
G01*
X143450000Y-72600000D01*
G75*
G02*
X143700000Y-72350000I250000J0D01*
G01*
X144900000Y-72350000D01*
G75*
G02*
X145150000Y-72600000I0J-250000D01*
G01*
X145150000Y-73800000D01*
G75*
G02*
X144900000Y-74050000I-250000J0D01*
G01*
G37*
%TD*%
D13*
%TO.C,J3*%
X122200000Y-80820000D03*
X122200000Y-83360000D03*
D14*
X122200000Y-85900000D03*
%TD*%
D18*
%TO.C,J2*%
X177340000Y-113780000D03*
X177340000Y-111240000D03*
X177340000Y-108700000D03*
X177340000Y-106160000D03*
X177340000Y-103620000D03*
X177340000Y-101080000D03*
X177340000Y-98540000D03*
X177340000Y-96000000D03*
X174800000Y-113780000D03*
X174800000Y-111240000D03*
X174800000Y-108700000D03*
X174800000Y-106160000D03*
X174800000Y-103620000D03*
X174800000Y-101080000D03*
X174800000Y-98540000D03*
G36*
G01*
X173950000Y-96600000D02*
X173950000Y-95400000D01*
G75*
G02*
X174200000Y-95150000I250000J0D01*
G01*
X175400000Y-95150000D01*
G75*
G02*
X175650000Y-95400000I0J-250000D01*
G01*
X175650000Y-96600000D01*
G75*
G02*
X175400000Y-96850000I-250000J0D01*
G01*
X174200000Y-96850000D01*
G75*
G02*
X173950000Y-96600000I0J250000D01*
G01*
G37*
%TD*%
%TO.C,J1*%
X125140000Y-113780000D03*
X125140000Y-111240000D03*
X125140000Y-108700000D03*
X125140000Y-106160000D03*
X125140000Y-103620000D03*
X125140000Y-101080000D03*
X125140000Y-98540000D03*
X125140000Y-96000000D03*
X122600000Y-113780000D03*
X122600000Y-111240000D03*
X122600000Y-108700000D03*
X122600000Y-106160000D03*
X122600000Y-103620000D03*
X122600000Y-101080000D03*
X122600000Y-98540000D03*
G36*
G01*
X121750000Y-96600000D02*
X121750000Y-95400000D01*
G75*
G02*
X122000000Y-95150000I250000J0D01*
G01*
X123200000Y-95150000D01*
G75*
G02*
X123450000Y-95400000I0J-250000D01*
G01*
X123450000Y-96600000D01*
G75*
G02*
X123200000Y-96850000I-250000J0D01*
G01*
X122000000Y-96850000D01*
G75*
G02*
X121750000Y-96600000I0J250000D01*
G01*
G37*
%TD*%
D12*
%TO.C,C4*%
X139600000Y-119500000D03*
X137100000Y-119500000D03*
%TD*%
%TO.C,C2*%
X139700000Y-92200000D03*
X137200000Y-92200000D03*
%TD*%
M02*
